<?xml version="1.0" standalone="no"?>
<!DOCTYPE svg PUBLIC "-//W3C//DTD SVG 1.1//EN" "http://www.w3.org/Graphics/SVG/1.1/DTD/svg11.dtd" >
<svg>
<metadata>
Created by FontForge 20090914 at Thu Dec  9 15:43:38 2021
 By www-data
Copyright 2016 The Saira Project Authors (omnibus.type@gmail.com), with reserved font name "Saira".
</metadata>
<defs>
<font id="SairaCondensed-Light" horiz-adv-x="0" >
  <font-face 
    font-family="Saira Condensed Light"
    font-weight="300"
    font-stretch="condensed"
    units-per-em="1000"
    panose-1="0 0 4 6 0 0 0 0 0 0"
    ascent="800"
    descent="-200"
    x-height="509.998"
    cap-height="688"
    bbox="-455 -341.002 890 1085.99"
    underline-thickness="50"
    underline-position="-50"
    unicode-range="U+000D-U+FB02"
  />
<missing-glyph horiz-adv-x="500" 
d="M0 0v700h500v-700h-500zM450 650h-400v-600h400v600zM229 278c0 19.333 4.5 35.3291 13.5 47.9961s22.5 26.334 40.5 41.001c18.667 15.333 32.667 29.833 42 43.5s14 31.834 14 54.501c0 20.667 -6.33301 40.334 -19 59.001s-36 28 -70 28
c-38.667 0 -64.667 -11.167 -78 -33.5s-20 -44.5 -20 -66.5v-28h-49c-2.66699 8 -4 18.333 -4 31c0 15.333 3.5 34 10.5 56s21.667 42.667 44 62s54.5 29 96.5 29s73.5 -9.33301 94.5 -28s34.333 -38 40 -58s8.5 -36.333 8.5 -49c0 -30 -6.16699 -54.667 -18.5 -74
s-28.5 -37.666 -48.5 -54.999c-14.667 -12 -25.667 -23 -33 -33s-11 -22.333 -11 -37v-53h-53v63zM225 98.9961v70h60v-70h-60z" />
    <glyph glyph-name="fi" unicode="fi" horiz-adv-x="463" 
d="M98 461h-76v49h76v98c0 40 5 69.667 15 89s25.333 31.833 46 37.5s51 8.5 91 8.5v-45c-27.333 0 -47.5 -2 -60.5 -6s-22.167 -11.667 -27.5 -23s-8 -28.333 -8 -51v-108h96v-49h-96v-461h-56v461zM338 668v75h60v-75h-60zM340 0v510h56v-510h-56z" />
    <glyph glyph-name="fl" unicode="fl" horiz-adv-x="463" 
d="M98 461h-76v49h76v98c0 40 5 69.667 15 89s25.333 31.833 46 37.5s51 8.5 91 8.5v-45c-27.333 0 -47.5 -2 -60.5 -6s-22.167 -11.667 -27.5 -23s-8 -28.333 -8 -51v-108h96v-49h-96v-461h-56v461zM340 0v743h56v-743h-56z" />
    <glyph glyph-name="f_f" unicode="ff" horiz-adv-x="546" 
d="M98 461h-76v49h76v98c0 40 5 69.667 15 89s25.333 31.833 46 37.5s51 8.5 91 8.5v-45c-27.333 0 -47.5 -2 -60.5 -6s-22.167 -11.667 -27.5 -23s-8 -28.333 -8 -51v-108h96v-49h-96v-461h-56v461zM371 461h-76v49h76v98c0 40 5 69.667 15 89s25.333 31.833 46 37.5
s51 8.5 91 8.5v-45c-27.333 0 -47.5 -2 -60.5 -6s-22.167 -11.667 -27.5 -23s-8 -28.333 -8 -51v-108h96v-49h-96v-461h-56v461z" />
    <glyph glyph-name=".notdef" horiz-adv-x="500" 
d="M0 0v700h500v-700h-500zM450 650h-400v-600h400v600zM229 278c0 19.333 4.5 35.3291 13.5 47.9961s22.5 26.334 40.5 41.001c18.667 15.333 32.667 29.833 42 43.5s14 31.834 14 54.501c0 20.667 -6.33301 40.334 -19 59.001s-36 28 -70 28
c-38.667 0 -64.667 -11.167 -78 -33.5s-20 -44.5 -20 -66.5v-28h-49c-2.66699 8 -4 18.333 -4 31c0 15.333 3.5 34 10.5 56s21.667 42.667 44 62s54.5 29 96.5 29s73.5 -9.33301 94.5 -28s34.333 -38 40 -58s8.5 -36.333 8.5 -49c0 -30 -6.16699 -54.667 -18.5 -74
s-28.5 -37.666 -48.5 -54.999c-14.667 -12 -25.667 -23 -33 -33s-11 -22.333 -11 -37v-53h-53v63zM225 98.9961v70h60v-70h-60z" />
    <glyph glyph-name="NULL" 
 />
    <glyph glyph-name="NULL" 
 />
    <glyph glyph-name="nonmarkingreturn" unicode="&#xd;" horiz-adv-x="190" 
 />
    <glyph glyph-name="space" unicode=" " horiz-adv-x="190" 
 />
    <glyph glyph-name="exclam" unicode="!" horiz-adv-x="194" 
d="M73 309c-4.66699 148 -7 233 -7 255v124h64v-124c0 -30 -2 -99 -6 -207l-5 -173h-42zM64 0v80h67v-80h-67z" />
    <glyph glyph-name="quotedbl" unicode="&#x22;" horiz-adv-x="271" 
d="M57 449l-9 157v82h57v-82l-9 -157h-39zM175 449l-10 157v82h57v-82l-9 -157h-38z" />
    <glyph glyph-name="numbersign" unicode="#" horiz-adv-x="533" 
d="M257 0l33 197h-130l-32 -197h-48l33 197h-67v47h75l31 192h-80v46h88l34 206h48l-34 -206h129l34 206h48l-34 -206h71v-46h-79l-32 -192h85v-47h-93l-32 -197h-48zM330 436h-130l-32 -192h130z" />
    <glyph glyph-name="dollar" unicode="$" horiz-adv-x="419" 
d="M333.5 107c-19.667 -22.667 -51.832 -35.665 -96.499 -38.998v-76h-48v76c-52.667 1.33301 -93.334 5.33301 -122.001 12v50c32 -6.66699 72.667 -10.334 122 -11.001v204l-41 6c-36 5.33301 -60.5 18 -73.5 38s-19.5 53 -19.5 99c0 52.667 10.667 90.5 32 113.5
s55.333 36.167 102 39.5v77h48v-77c42 -1.33301 77 -5.66602 105 -12.999v-50c-28.667 6 -63.667 9.66699 -105 11v-196l36 -5c24 -3.33301 42.167 -9.33301 54.5 -18s21.333 -22.834 27 -42.501s8.5 -48.167 8.5 -85.5c0 -52.667 -9.83301 -90.334 -29.5 -113.001z
M189.002 378.002l0.000976562 189c-26 -2 -45.333 -10 -58 -24s-19 -37.667 -19 -71c0 -25.333 1.5 -44 4.5 -56s8.16699 -20.333 15.5 -25s18.666 -8 33.999 -10zM290.503 147.002c10.333 15.333 15.501 39.333 15.501 72c0 27.333 -1.5 47.333 -4.5 60
s-7.83301 21 -14.5 25s-17.667 7 -33 9l-17 3v-196c25.333 2.66699 43.166 11.667 53.499 27z" />
    <glyph glyph-name="percent" unicode="%" horiz-adv-x="623" 
d="M86.5 326c-14.333 10 -23.833 27.833 -28.5 53.5s-7 66.834 -7 123.501s2.33301 98 7 124s14.167 44 28.5 54s37.5 15 69.5 15s55.167 -5 69.5 -15s23.833 -28 28.5 -54s7 -67.333 7 -124s-2.33301 -97.834 -7 -123.501s-14.167 -43.5 -28.5 -53.5s-37.5 -15 -69.5 -15
s-55.167 5 -69.5 15zM123 0l332 688h45l-332 -688h-45zM197 359.5c8 5.66699 13.333 18.5 16 38.5s4 55 4 105s-1.33301 85.167 -4 105.5s-8 33.333 -16 39s-21.667 8.5 -41 8.5s-33 -2.83301 -41 -8.5s-13.333 -18.667 -16 -39s-4 -55.5 -4 -105.5s1.33301 -85 4 -105
s8 -32.833 16 -38.5s21.667 -8.5 41 -8.5s33 2.83301 41 8.5zM397.5 7c-14.333 10 -23.833 27.833 -28.5 53.5s-7 66.834 -7 123.501s2.33301 98 7 124s14.167 44 28.5 54s37.5 15 69.5 15s55.167 -5 69.5 -15s23.833 -28 28.5 -54s7 -67.333 7 -124
s-2.33301 -97.834 -7 -123.501s-14.167 -43.5 -28.5 -53.5s-37.5 -15 -69.5 -15s-55.167 5 -69.5 15zM508 40.5c8 5.66699 13.334 18.5 16.001 38.5s4 55 4 105c0 50.667 -1.33301 86 -4 106s-7.83398 32.833 -15.501 38.5s-21.5 8.5 -41.5 8.5
c-19.333 0 -32.833 -2.83301 -40.5 -8.5s-12.834 -18.667 -15.501 -39s-4 -55.5 -4 -105.5s1.33301 -85 4 -105s7.83398 -32.833 15.501 -38.5s21.167 -8.5 40.5 -8.5s33 2.83301 41 8.5z" />
    <glyph glyph-name="ampersand" unicode="&#x26;" horiz-adv-x="527" 
d="M508 374v-51.002h-87v-314c-19.333 -4.66699 -43.833 -8.66699 -73.5 -12s-57.167 -5 -82.5 -5c-59.333 0 -104.333 7.16699 -135 21.5s-51.334 35 -62.001 62s-16 63.167 -16 108.5c0 52.667 7.66699 90.834 23 114.501s39.333 40.5 72 50.5v4
c-31.333 10 -54.166 27.333 -68.499 52s-21.5 61.334 -21.5 110.001c0 40.667 5.66699 74 17 100s32 46 62 60s72.667 21 128 21c23.333 0 49.5 -1.66699 78.5 -5s54.167 -7.33301 75.5 -12v-48c-21.333 4.66699 -44.666 8.33398 -69.999 11.001s-47 4 -65 4
c-49.333 0 -86 -4.5 -110 -13.5s-40 -23 -48 -42s-12 -46.5 -12 -82.5c0 -40.667 6.66699 -73.167 20 -97.5s42.333 -36.5 87 -36.5h70v-51h-70c-32.667 0 -56.834 -5.33301 -72.501 -16s-26 -25.834 -31 -45.501s-7.5 -46.5 -7.5 -80.5c0 -38.667 5.5 -68.167 16.5 -88.5
s27.667 -34 50 -41s52.833 -10.5 91.5 -10.5c39.333 0 72 3.33301 98 10v323h143z" />
    <glyph glyph-name="quotesingle" unicode="'" horiz-adv-x="153" 
d="M57 449l-9 157v82h57v-82l-9 -157h-39z" />
    <glyph glyph-name="parenleft" unicode="(" horiz-adv-x="236" 
d="M106.5 -28c-14.333 32.667 -24.834 73.3311 -31.501 121.998s-10 116.334 -10 203.001c0 86 3.5 153.5 10.5 202.5s17.667 89.833 32 122.5s36.833 73 67.5 121h47c-28 -47.333 -48.333 -85.5 -61 -114.5s-22.5 -69 -29.5 -120s-10.5 -121.5 -10.5 -211.5
s3.5 -160.667 10.5 -212s16.833 -91.5 29.5 -120.5s33 -67.167 61 -114.5h-47c-31.333 48.667 -54.166 89.334 -68.499 122.001z" />
    <glyph glyph-name="parenright" unicode=")" horiz-adv-x="236" 
d="M75 -35c12.667 29.333 22.666 69.502 29.999 120.502s11 121.5 11 211.5s-3.66699 160.333 -11 211s-17.333 90.667 -30 120s-33 67.666 -61 114.999h47c30.667 -48 53.167 -88.333 67.5 -121s25 -73.5 32 -122.5s10.5 -116.5 10.5 -202.5
c0 -86.667 -3.33301 -154.5 -10 -203.5s-17.167 -89.833 -31.5 -122.5s-37.166 -73 -68.499 -121h-47c28 47.333 48.333 85.666 61 114.999z" />
    <glyph glyph-name="asterisk" unicode="*" horiz-adv-x="404" 
d="M218 495l7 -137h-46l7 137l-115 -75l-23 41l122 61l-122 64l23 40l115 -75l-7 137h46l-7 -137l116 75l22 -40l-122 -63l123 -62l-23 -40z" />
    <glyph glyph-name="plus" unicode="+" horiz-adv-x="485" 
d="M218 73v156h-155v48h155v156h48v-156h156v-48h-156v-156h-48z" />
    <glyph glyph-name="comma" unicode="," horiz-adv-x="180" 
d="M66.5 -75.5c7 3.66699 11.499 9.66699 13.499 18s3 21.833 3 40.5v17h-28v80h68v-78c0 -31.333 -2.33301 -54.833 -7 -70.5s-13.167 -26.667 -25.5 -33s-31.166 -9.5 -56.499 -9.5v30c14.667 0 25.5 1.83301 32.5 5.5z" />
    <glyph glyph-name="hyphen" unicode="-" horiz-adv-x="308" 
d="M59 259v54h191v-54h-191z" />
    <glyph glyph-name="period" unicode="." horiz-adv-x="180" 
d="M57 0v80h66v-80h-66z" />
    <glyph glyph-name="slash" unicode="/" horiz-adv-x="281" 
d="M18 -55l190 798h54l-191 -798h-53z" />
    <glyph glyph-name="zero" unicode="0" horiz-adv-x="486" 
d="M115.5 18c-25 17.333 -41 48.668 -48 94.001s-10.5 122.666 -10.5 231.999s3.5 186.666 10.5 231.999s23 76.666 48 93.999s67.5 26 127.5 26c61.333 0 104.5 -8.66699 129.5 -26s40.667 -48 47 -92s9.5 -122 9.5 -234c0 -109.333 -3.5 -186.666 -10.5 -231.999
s-23 -76.666 -48 -93.999s-67.5 -26 -127.5 -26s-102.5 8.66699 -127.5 26zM331 61.002c16 10.667 26.5 35 31.5 73s7.5 108 7.5 210s-2.5 172 -7.5 210s-15.5 62.333 -31.5 73s-45.333 16 -88 16s-72 -5.33301 -88 -16s-26.5 -35 -31.5 -73s-7.5 -108 -7.5 -210
s2.5 -172 7.5 -210s15.5 -62.333 31.5 -73s45.333 -16 88 -16s72 5.33301 88 16z" />
    <glyph glyph-name="one" unicode="1" horiz-adv-x="269" 
d="M129 0v614l-97 -52v57l113 69h43v-688h-59z" />
    <glyph glyph-name="two" unicode="2" horiz-adv-x="435" 
d="M106 53l280.002 -0.00292969v-53h-337v75c0 57.333 1.33301 98.333 4 123s9.66699 44.834 21 60.501s30.666 31.5 57.999 47.5l137 82c24 14 39.833 29.833 47.5 47.5s11.5 44.834 11.5 81.501c0 36 -3.5 62.833 -10.5 80.5s-18.833 29.667 -35.5 36s-41.667 9.5 -75 9.5
c-40 0 -89.333 -3.66699 -148 -11v49c20 4.66699 45.167 8.33398 75.5 11.001s59.166 4 86.499 4c36.667 0 66.5 -3.66699 89.5 -11s41.333 -23.333 55 -48s20.5 -61.667 20.5 -111c0 -37.333 -2.83301 -67.333 -8.5 -90s-14.667 -41 -27 -55s-29.833 -27.667 -52.5 -41
l-150 -88c-16.667 -10 -27.667 -21.667 -33 -35c-4 -10 -6.5 -22.667 -7.5 -38s-1.5 -38.333 -1.5 -69v-57z" />
    <glyph glyph-name="three" unicode="3" horiz-adv-x="422" 
d="M106 -3.5c-27.333 3 -52.001 6.5 -74.001 10.5v50c56 -8 103.667 -12 143 -12c32 0 57.333 3.33301 76 10s33 19.667 43 39s15 48.333 15 87c0 51.333 -7.5 87.666 -22.5 108.999s-40.5 32 -76.5 32h-92v53h92c28 0 50.667 9.66699 68 29s26 54 26 104
c0 38.667 -4.5 67.5 -13.5 86.5s-23 31.833 -42 38.5s-45.833 10 -80.5 10c-42.667 0 -87 -4 -133 -12v50c21.333 4 45.5 7.5 72.5 10.5s51.167 4.5 72.5 4.5c46 0 82.167 -6.16699 108.5 -18.5s45.166 -31.5 56.499 -57.5s17 -61 17 -105
c0 -48.667 -7.33301 -85.667 -22 -111s-36.667 -42 -66 -50v-4c30.667 -6.66699 54 -22.667 70 -48s24 -64.666 24 -117.999c0 -44 -5 -79.667 -15 -107s-28.667 -48.333 -56 -63s-66.666 -22 -117.999 -22c-21.333 0 -45.666 1.5 -72.999 4.5z" />
    <glyph glyph-name="four" unicode="4" horiz-adv-x="467" 
d="M296 0v168h-262v48l189 472h62l-188 -467h200l8 273h50v-273h75v-53h-75v-168h-59z" />
    <glyph glyph-name="five" unicode="5" horiz-adv-x="438" 
d="M199 45c37.333 0 65.668 4.8291 85.001 14.4961s32.5 25.334 39.5 47.001s10.5 52.834 10.5 93.501c0 44.667 -3.83301 77.167 -11.5 97.5s-21.5 34 -41.5 41s-51.333 10.5 -94 10.5c-32.667 0 -74.334 -4.66699 -125.001 -14v353h294v-53h-238v-243
c28 6.66699 63.333 10 106 10c48 0 84 -7 108 -21s40 -34.5 48 -61.5s12 -64.167 12 -111.5c0 -55.333 -5.16699 -98.166 -15.5 -128.499s-28.833 -52.5 -55.5 -66.5s-65.667 -21 -117 -21c-22 0 -47 1.33301 -75 4s-52.333 6.33398 -73 11.001v50
c57.333 -8 105 -12 143 -12z" />
    <glyph glyph-name="six" unicode="6" horiz-adv-x="475" 
d="M161.5 1c-23 6 -41.834 17.002 -56.501 33.002s-26.334 39 -35.001 69c-5.33301 18 -8.83301 45.167 -10.5 81.5s-2.5 86.833 -2.5 151.5c0 61.333 1 110.666 3 147.999s6.33301 67 13 89c12.667 45.333 33.5 77.166 62.5 95.499s71.833 27.5 128.5 27.5
c18.667 0 40.834 -1.5 66.501 -4.5s49.834 -6.83301 72.501 -11.5v-49c-46 8 -89 12 -129 12c-48.667 0 -83.667 -7.33301 -105 -22s-35.5 -41.167 -42.5 -79.5s-10.5 -101.166 -10.5 -188.499h4c10 16 25 28.5 45 37.5s51 13.5 93 13.5c46 0 80.667 -4.33301 104 -13
s40.333 -26.334 51 -53.001s16 -68 16 -124c0 -60 -4.5 -105.333 -13.5 -136s-26 -52.667 -51 -66s-62.833 -20 -113.5 -20c-36.667 0 -66.5 3 -89.5 9zM325.499 55.502c17 7 29.0029 20.832 36.0029 41.499s10.5 53.334 10.5 98.001c0 50 -3.16699 85.5 -9.5 106.5
s-17.833 34.5 -34.5 40.5s-44.334 9 -83.001 9c-38 0 -66 -3.83301 -84 -11.5s-29.667 -19.834 -35 -36.501s-8 -42 -8 -76c0 -53.333 3.66699 -92.666 11 -117.999s19.666 -42.333 36.999 -51s43.666 -13 78.999 -13c36.667 0 63.5 3.5 80.5 10.5z" />
    <glyph glyph-name="seven" unicode="7" horiz-adv-x="400" 
d="M95 0l211 635h-280v53h342v-47l-210 -641h-63z" />
    <glyph glyph-name="eight" unicode="8" horiz-adv-x="491" 
d="M124.5 12.5c-27.667 13.667 -46.498 34.167 -56.498 61.5s-15 64 -15 110c0 38.667 3.33301 69 10 91s16.5 38.333 29.5 49s30.5 19 52.5 25v4c-30 7.33301 -52 23.833 -66 49.5s-21 63.167 -21 112.5c0 44.667 5.5 79.834 16.5 105.501s30 44.667 57 57
s64.833 18.5 113.5 18.5s86.5 -6.16699 113.5 -18.5s46 -31.333 57 -57s16.5 -60.834 16.5 -105.501c0 -49.333 -7 -86.833 -21 -112.5s-36 -42.167 -66 -49.5v-4c22 -6 39.5 -14.333 52.5 -25s22.833 -27 29.5 -49s10 -52.333 10 -91c0 -46.667 -5 -83.5 -15 -110.5
s-28.833 -47.333 -56.5 -61s-67.834 -20.5 -120.501 -20.5s-92.834 6.83301 -120.501 20.5zM325.502 385.5c18.333 7.66699 31.001 20.834 38.001 39.501s10.5 46.334 10.5 83.001c0 37.333 -3.33301 65.333 -10 84s-19 31.834 -37 39.501s-45.333 11.5 -82 11.5
c-36 0 -63 -3.83301 -81 -11.5s-30.333 -20.834 -37 -39.501s-10 -46.667 -10 -84c0 -36.667 3.5 -64.334 10.5 -83.001s19.5 -31.834 37.5 -39.501s44.667 -11.5 80 -11.5s62.166 3.83301 80.499 11.5zM326.503 55.5c18.333 7 31.5 20.167 39.5 39.5s12 48.333 12 87
c0 41.333 -3.66699 71.666 -11 90.999s-20 32.333 -38 39s-46 10 -84 10s-66 -3.33301 -84 -10s-30.667 -19.667 -38 -39s-11 -49.666 -11 -90.999c0 -38.667 4 -67.667 12 -87s21.167 -32.5 39.5 -39.5s45.5 -10.5 81.5 -10.5s63.167 3.5 81.5 10.5z" />
    <glyph glyph-name="nine" unicode="9" horiz-adv-x="475" 
d="M143.5 -3.5c-26.333 3 -50.165 6.83105 -71.498 11.498v49c46 -8 89 -12 129 -12c48.667 0 83.834 7.33301 105.501 22s36 41.334 43 80.001s10.5 101.334 10.5 188.001h-5c-8.66699 -15.333 -23.334 -27.666 -44.001 -36.999s-52 -14 -94 -14
c-45.333 0 -79.666 4.33301 -102.999 13s-40.5 26.334 -51.5 53.001s-16.5 68 -16.5 124c0 60 4.5 105.333 13.5 136s26 52.667 51 66s62.833 20 113.5 20c37.333 0 67.666 -3 90.999 -9s42.166 -16.667 56.499 -32s25.166 -37.333 32.499 -66
c5.33301 -21.333 9 -50.5 11 -87.5s3 -86.833 3 -149.5c0 -68.667 -1.33301 -122.334 -4 -161.001s-8 -69.334 -16 -92.001c-14 -39.333 -35.333 -67 -64 -83s-69.334 -24 -122.001 -24c-19.333 0 -42.166 1.5 -68.499 4.5zM314.001 348.498
c18 7.66699 29.6641 19.835 34.9971 36.502s8 42 8 76c0 53.333 -3.66699 92.666 -11 117.999s-19.666 42.333 -36.999 51s-43.666 13 -78.999 13c-36.667 0 -63.5 -3.5 -80.5 -10.5s-29 -20.833 -36 -41.5s-10.5 -53.334 -10.5 -98.001c0 -50 3.16699 -85.5 9.5 -106.5
s17.833 -34.5 34.5 -40.5s44.334 -9 83.001 -9c38 0 66 3.83301 84 11.5z" />
    <glyph glyph-name="colon" unicode=":" horiz-adv-x="180" 
d="M57 430v80h66v-80h-66zM57 0v80h66v-80h-66z" />
    <glyph glyph-name="semicolon" unicode=";" horiz-adv-x="180" 
d="M57 430v80h66v-80h-66zM66.5 -75.5c7 3.66699 11.499 9.66699 13.499 18s3 21.833 3 40.5v17h-28v80h68v-78c0 -31.333 -2.33301 -54.833 -7 -70.5s-13.167 -26.667 -25.5 -33s-31.166 -9.5 -56.499 -9.5v30c14.667 0 25.5 1.83301 32.5 5.5z" />
    <glyph glyph-name="less" unicode="&#x3c;" horiz-adv-x="485" 
d="M423 66l-360 157v60l360 157v-53l-308 -134l308 -134v-53z" />
    <glyph glyph-name="equal" unicode="=" horiz-adv-x="485" 
d="M63 319v48h359v-48h-359zM63 139v48h359v-48h-359z" />
    <glyph glyph-name="greater" unicode="&#x3e;" horiz-adv-x="485" 
d="M63 66v53l307 134l-307 134v53l359 -157v-60z" />
    <glyph glyph-name="question" unicode="?" horiz-adv-x="357" 
d="M102 269c0 24 2.16699 42.666 6.5 55.999s10.333 23.333 18 30s19.5 14 35.5 22l20 10c18 9.33301 31.167 18 39.5 26s14.5 20.167 18.5 36.5s6 40.5 6 72.5c0 32.667 -2.66699 57.334 -8 74.001s-15.333 28.667 -30 36s-37.334 11 -68.001 11
c-32 0 -72 -3.66699 -120 -11v49c22.667 4.66699 46.5 8.33398 71.5 11.001s46.5 4 64.5 4c38.667 0 68.834 -6 90.501 -18s36.834 -29.833 45.501 -53.5s13 -54.834 13 -93.501c0 -46 -4.16699 -83 -12.5 -111s-25.833 -49 -52.5 -63l-19 -9
c-20.667 -10 -35.334 -18.667 -44.001 -26s-14.167 -15.333 -16.5 -24s-3.5 -21.667 -3.5 -39v-76h-55v86zM96 -0.000976562v80h67v-80h-67z" />
    <glyph glyph-name="at" unicode="@" horiz-adv-x="680" 
d="M145.5 -80.5c-36.333 18.333 -58.998 52.3369 -67.998 102.004s-13.5 140.5 -13.5 272.5s4.5 222.833 13.5 272.5s31.667 83.667 68 102s101.166 27.5 194.499 27.5s158.333 -9.16699 195 -27.5s59.5 -52.333 68.5 -102s13.5 -140.5 13.5 -272.5
c0 -69.333 -3 -119.333 -9 -150s-15 -49.834 -27 -57.501s-31.333 -11.5 -58 -11.5h-96l-4 60h-5c-7.33301 -26.667 -19.833 -44.5 -37.5 -53.5s-38.834 -13.5 -63.501 -13.5c-26.667 0 -47.834 3.66699 -63.501 11s-27.334 20 -35.001 38s-11.5 43.667 -11.5 77
c0 32.667 3 58.167 9 76.5s16.167 31.5 30.5 39.5s34.833 12 61.5 12c26 0 63 -1.33301 111 -4v33c0 38 -2.16699 65 -6.5 81s-12.333 26.667 -24 32s-31.5 8 -59.5 8c-14 0 -31.5 -1 -52.5 -3s-36.833 -4.33301 -47.5 -7v45c31.333 7.33301 69.666 11 114.999 11
c36.667 0 64 -4.83301 82 -14.5s30.167 -25.834 36.5 -48.501s9.5 -56.334 9.5 -101.001v-243h59c12.667 0 22 3 28 9s10.5 22 13.5 48s4.5 68 4.5 126c0 104.667 -2 179 -6 223s-14 76.333 -30 97s-43.333 33.667 -82 39c-30 4.66699 -70 7 -120 7
c-42.667 0 -79 -1.33301 -109 -4c-41.333 -4.66699 -70.666 -17 -87.999 -37s-28.166 -52.333 -32.499 -97s-6.5 -120.667 -6.5 -228c0 -108.667 2.5 -185.167 7.5 -229.5s17.333 -76.333 37 -96s53.5 -31.834 101.5 -36.501c20.667 -2 51 -3 91 -3c68 0 112 1 132 3v-38
c-18.667 -1.33301 -62.667 -2 -132 -2c-93.333 0 -158.166 9.16699 -194.499 27.5zM383.502 125.004c13 8 22.167 21.666 27.5 40.999s8 47.333 8 84v31h-99c-18 0 -31 -2 -39 -6s-13.667 -11.667 -17 -23s-5 -29.666 -5 -54.999c0 -24 1.83301 -41.833 5.5 -53.5
s10.167 -19.667 19.5 -24s24 -6.5 44 -6.5c24 0 42.5 4 55.5 12z" />
    <glyph glyph-name="A" unicode="A" horiz-adv-x="493" 
d="M411 0l-54 203h-223l-53 -203h-60l189 688h73l189 -688h-61zM248 608h-5l-94 -353h193z" />
    <glyph glyph-name="B" unicode="B" horiz-adv-x="493" 
d="M74 688l205 0.000976562c56.667 0 96.834 -14.833 120.501 -44.5s35.5 -72.167 35.5 -127.5c0 -46.667 -8 -83.334 -24 -110.001s-42 -44 -78 -52v-4c42 -8 70.5 -26.5 85.5 -55.5s22.5 -66.833 22.5 -113.5c0 -55.333 -11.833 -99.333 -35.5 -132
s-67.834 -49 -132.501 -49h-199v688zM376 505.001c0 47.333 -7.83301 80.833 -23.5 100.5s-45.167 29.5 -88.5 29.5h-131v-260h131c74.667 0 112 43.333 112 130zM356.5 83.501c17 21 25.5 55.499 25.5 103.499c0 48.667 -8.83301 83.334 -26.5 104.001s-47.167 31 -88.5 31
h-134v-270h134c42.667 0 72.5 10.5 89.5 31.5z" />
    <glyph glyph-name="C" unicode="C" horiz-adv-x="401" 
d="M313 -5c-20.667 -2 -39.665 -3.00098 -56.998 -3.00098c-59.333 0 -102.5 8.5 -129.5 25.5s-45.333 49.333 -55 97s-14.5 124.167 -14.5 229.5c0 104 4.83301 179.833 14.5 227.5s28 80.334 55 98.001s70.167 26.5 129.5 26.5c18 0 37.167 -1.33301 57.5 -4
s37.166 -5.66699 50.499 -9v-49c-36 6 -68 9 -96 9c-49.333 0 -83.833 -6.33301 -103.5 -19s-32.667 -38.5 -39 -77.5s-9.5 -106.5 -9.5 -202.5s3.16699 -163.5 9.5 -202.5s19.333 -64.833 39 -77.5s54.167 -19 103.5 -19c34 0 66.667 3 98 9v-51
c-14.667 -3.33301 -32.334 -6 -53.001 -8z" />
    <glyph glyph-name="D" unicode="D" horiz-adv-x="498" 
d="M74 688h160c65.333 0 112 -8.33301 140 -25s46.167 -47.5 54.5 -92.5s12.5 -120.5 12.5 -226.5s-4.16699 -181.5 -12.5 -226.5s-26.5 -75.833 -54.5 -92.5s-74.667 -25 -140 -25h-160v688zM230 53c50.667 0 85.5 5 104.5 15s31.667 34 38 72s9.5 106 9.5 204
s-3.33301 166 -10 204s-19.5 62 -38.5 72s-53.5 15 -103.5 15h-97v-582h97z" />
    <glyph glyph-name="E" unicode="E" horiz-adv-x="432" 
d="M74 0v688h320v-53h-260v-261h226v-52h-226v-269h260v-53h-320z" />
    <glyph glyph-name="F" unicode="F" horiz-adv-x="408" 
d="M74 0v688h305v-53h-245v-276h219v-52h-219v-307h-60z" />
    <glyph glyph-name="G" unicode="G" horiz-adv-x="484" 
d="M253 307v52.001h172v-349c-24 -5.33301 -50.5 -9.66602 -79.5 -12.999s-55.167 -5 -78.5 -5c-60 0 -104.333 8.66699 -133 26s-48.667 50.166 -60 98.499s-17 124.166 -17 227.499c0 102 5.5 177.167 16.5 225.5s31 81.5 60 99.5s73.833 27 134.5 27
c26 0 53.5 -1.83301 82.5 -5.5s53.167 -8.16699 72.5 -13.5v-49c-20 4 -42.333 7.5 -67 10.5s-45 4.5 -61 4.5c-56 0 -95.333 -5.16699 -118 -15.5s-38.5 -35.5 -47.5 -75.5s-13.5 -109.333 -13.5 -208c0 -90.667 3.33301 -156 10 -196s20.167 -67.333 40.5 -82
s53.833 -22 100.5 -22c16.667 0 34.5 1 53.5 3s34.5 4.33301 46.5 7v253h-114z" />
    <glyph glyph-name="H" unicode="H" horiz-adv-x="530" 
d="M397 0v320h-264v-320h-58v688h58v-313h264v313h58v-688h-58z" />
    <glyph glyph-name="I" unicode="I" horiz-adv-x="214" 
d="M78 0v688h58v-688h-58z" />
    <glyph glyph-name="J" unicode="J" horiz-adv-x="240" 
d="M85.5 63c11.667 6.66699 18.998 20.832 21.998 42.499s4.5 64.834 4.5 129.501v453h59v-440c0 -84.667 -2.66699 -142.5 -8 -173.5s-17.666 -51 -36.999 -60s-55.666 -13.833 -108.999 -14.5v51c34 1.33301 56.833 5.33301 68.5 12z" />
    <glyph glyph-name="K" unicode="K" horiz-adv-x="479" 
d="M396 0l-171 323h-92v-323h-59v688h59v-313h92l171 313h63l-185 -337l187 -351h-65z" />
    <glyph glyph-name="L" unicode="L" horiz-adv-x="378" 
d="M74 0v688h60v-634h231v-54h-291z" />
    <glyph glyph-name="M" unicode="M" horiz-adv-x="664" 
d="M532 0v575h-4l-169 -575h-56l-168 575h-4v-575h-56v688h84l171 -585h5l172 585h83v-688h-58z" />
    <glyph glyph-name="N" unicode="N" horiz-adv-x="530" 
d="M395 0l-260 559h-4v-559h-56v688h63l257 -554h4v554h57v-688h-61z" />
    <glyph glyph-name="O" unicode="O" horiz-adv-x="521" 
d="M123 18c-27.333 17.333 -45.166 49.002 -53.499 95.002s-12.5 123 -12.5 231s4.16699 185 12.5 231s26.166 77.667 53.499 95s73 26 137 26c64.667 0 110.667 -8.66699 138 -26s45 -48.833 53 -94.5s12 -122.834 12 -231.501s-4 -185.834 -12 -231.501
s-25.667 -77.167 -53 -94.5s-73.333 -26 -138 -26c-64 0 -109.667 8.66699 -137 26zM358 60.502c18 10.333 30.167 35.166 36.5 74.499s9.5 109 9.5 209s-3.16699 169.667 -9.5 209s-18.5 64.166 -36.5 74.499s-50.667 15.5 -98 15.5s-80 -5.16699 -98 -15.5
s-30.167 -35.166 -36.5 -74.499s-9.5 -109 -9.5 -209s3.16699 -169.667 9.5 -209s18.5 -64.166 36.5 -74.499s50.667 -15.5 98 -15.5s80 5.16699 98 15.5z" />
    <glyph glyph-name="P" unicode="P" horiz-adv-x="465" 
d="M74 688l201 -0.000976562c46 0 80.5 -9 103.5 -27s37.667 -41.667 44 -71s9.5 -67.333 9.5 -114c0 -45.333 -3.33301 -82.666 -10 -111.999s-21.5 -53.333 -44.5 -72s-57.5 -28 -103.5 -28h-141v-264h-59v688zM262 315.999c33.333 0 57.832 6 73.499 18
s25.834 28.833 30.501 50.5s7 52.167 7 91.5c0 40 -2.16699 70.667 -6.5 92s-14.333 37.833 -30 49.5s-40.167 17.5 -73.5 17.5h-130v-319h129z" />
    <glyph glyph-name="Q" unicode="Q" horiz-adv-x="521" 
d="M476 -113v-1.99902h-63l-63 114c-23.333 -4.66699 -53.333 -7 -90 -7c-64 0 -109.667 8.66699 -137 26s-45.166 49 -53.499 95s-12.5 123 -12.5 231s4.16699 185 12.5 231s26.166 77.667 53.499 95s73 26 137 26c64.667 0 110.667 -8.66699 138 -26s45 -48.833 53 -94.5
s12 -122.834 12 -231.501c0 -70.667 -1.5 -126.334 -4.5 -167.001s-8.83301 -73.667 -17.5 -99s-22 -44.666 -40 -57.999zM323 48.001l-95 170.001h62l82 -146c12.667 15.333 21.167 42.666 25.5 81.999s6.5 102.666 6.5 189.999c0 100 -3.16699 169.667 -9.5 209
s-18.5 64.166 -36.5 74.499s-50.667 15.5 -98 15.5s-80 -5.16699 -98 -15.5s-30.167 -35.166 -36.5 -74.499s-9.5 -109 -9.5 -209s3.16699 -169.667 9.5 -209s18.5 -64.166 36.5 -74.499s50.667 -15.5 98 -15.5c30.667 0 51.667 1 63 3z" />
    <glyph glyph-name="R" unicode="R" horiz-adv-x="494" 
d="M386 0l-90.001 284.001h-19h-144v-284h-59v688h208c46 0 80.333 -8.66699 103 -26s37.167 -40 43.5 -68s9.5 -64 9.5 -108c0 -51.333 -5.16699 -92.833 -15.5 -124.5s-33.166 -53.834 -68.499 -66.501l95 -295h-63zM341.499 353.001
c15.667 11.333 25.8311 27.167 30.498 47.5s7 48.833 7 85.5c0 37.333 -2.16699 66 -6.5 86s-14.166 35.5 -29.499 46.5s-39.666 16.5 -72.999 16.5h-137v-299h135c33.333 0 57.833 5.66699 73.5 17z" />
    <glyph glyph-name="S" unicode="S" horiz-adv-x="444" 
d="M138.5 -4.5c-31 2.33301 -57.832 5.49609 -80.499 9.49609v52c23.333 -3.33301 49.166 -6.16602 77.499 -8.49902s52.5 -3.5 72.5 -3.5c26.667 0 48.167 1.83301 64.5 5.5s30.5 10.5 42.5 20.5c10.667 8.66699 17.667 22.334 21 41.001s5 43.334 5 74.001
c0 40.667 -1.33301 68.834 -4 84.501s-9.33398 26.667 -20.001 33s-29.667 11.833 -57 16.5l-123 19c-28 4 -48.667 13 -62 27s-21.833 31.833 -25.5 53.5s-5.5 51.5 -5.5 89.5c0 67.333 14.167 115.333 42.5 144s74.833 43 139.5 43c27.333 0 54.833 -1.33301 82.5 -4
s49.5 -6 65.5 -10v-51c-18.667 3.33301 -40.667 6.16602 -66 8.49902s-48.666 3.5 -69.999 3.5c-30 0 -53.833 -2.5 -71.5 -7.5s-31.167 -13.167 -40.5 -24.5s-15.5 -24.833 -18.5 -40.5s-4.5 -36.167 -4.5 -61.5c0 -32.667 1.5 -56.334 4.5 -71.001s8.66699 -25 17 -31
s22.5 -10.667 42.5 -14l116 -18c30 -5.33301 53.167 -12.666 69.5 -21.999s28.833 -25.333 37.5 -48c6.66699 -17.333 10 -54.666 10 -111.999c0 -50 -5.33301 -89.333 -16 -118s-28.5 -49.667 -53.5 -63s-59.833 -20 -104.5 -20c-27.333 0 -56.5 1.16699 -87.5 3.5z" />
    <glyph glyph-name="T" unicode="T" horiz-adv-x="413" 
d="M177 0v634h-158v54h375v-54h-158v-634h-59z" />
    <glyph glyph-name="U" unicode="U" horiz-adv-x="517" 
d="M448 688v-391c0 -88.667 -4 -153.167 -12 -193.5s-25 -69 -51 -86s-68 -25.5 -126 -25.5c-58.667 0 -101 8.5 -127 25.5s-43 45.667 -51 86s-12 104.833 -12 193.5v391h58v-424c0 -66 2.5 -113.167 7.5 -141.5s16.5 -48.333 34.5 -60s48 -17.5 90 -17.5
c41.333 0 70.833 5.83301 88.5 17.5s29 31.667 34 60s7.5 75.5 7.5 141.5v424h59z" />
    <glyph glyph-name="V" unicode="V" horiz-adv-x="460" 
d="M193 0l-180 688h61l155 -603h5l155 603h58l-180 -688h-74z" />
    <glyph glyph-name="W" unicode="W" horiz-adv-x="688" 
d="M468 0l-122 582h-4l-121 -582h-70l-134 688h60l109 -593h5l121 593h66l122 -593h6l107 593h59l-133 -688h-71z" />
    <glyph glyph-name="X" unicode="X" horiz-adv-x="482" 
d="M397 0l-154 293h-6l-154 -293h-64l185 346l-182 342h66l152 -289h5l151 289h64l-181 -341l184 -347h-66z" />
    <glyph glyph-name="Y" unicode="Y" horiz-adv-x="428" 
d="M184 0v271l-180 417h62l146 -344h6l146 344h60l-181 -417v-271h-59z" />
    <glyph glyph-name="Z" unicode="Z" horiz-adv-x="422" 
d="M31 0v50l288 585h-280v53h348v-49l-287 -587h292v-52h-361z" />
    <glyph glyph-name="bracketleft" unicode="[" horiz-adv-x="242" 
d="M75 -150v893h139v-45l-85 -4v-795l85 -4v-45h-139z" />
    <glyph glyph-name="backslash" unicode="\" horiz-adv-x="281" 
d="M209 -55l-191 798h54l190 -798h-53z" />
    <glyph glyph-name="bracketright" unicode="]" horiz-adv-x="241" 
d="M28 -150v45l85 4v795l-85 4v45h139v-893h-139z" />
    <glyph glyph-name="asciicircum" unicode="^" horiz-adv-x="416" 
d="M311 476l-103 230l-103 -230h-52l125 274h60l125 -274h-52z" />
    <glyph glyph-name="underscore" unicode="_" horiz-adv-x="310" 
d="M0 -165v48h310v-48h-310z" />
    <glyph glyph-name="grave" unicode="`" horiz-adv-x="129" 
d="M82 603l-76 135v5h62l55 -135v-5h-41z" />
    <glyph glyph-name="a" unicode="a" horiz-adv-x="427" 
d="M95 4.5c-19.333 8.33301 -33.8311 23.168 -43.498 44.501s-14.5 51.333 -14.5 90s3.83301 68.5 11.5 89.5s20.5 36.167 38.5 45.5s43.667 14 77 14c20 0 67.333 -1.66699 142 -5v40c0 45.333 -3 77.833 -9 97.5s-17 32.667 -33 39s-42.333 9.5 -79 9.5
c-16.667 0 -37.334 -1.16699 -62.001 -3.5s-44.667 -5.16602 -60 -8.49902v48c43.333 8.66699 89.333 13 138 13c45.333 0 79.166 -5.5 101.499 -16.5s37.833 -29.833 46.5 -56.5s13 -66.334 13 -119.001v-326h-48l-4 73h-4c-10 -32.667 -26.667 -54.334 -50 -65.001
s-51 -16 -83 -16c-32.667 0 -58.667 4.16699 -78 12.5zM252.502 51.002c17 6.66699 29.501 20.3311 37.501 40.998c6 16.667 10.167 33.834 12.5 51.501s3.5 39.167 3.5 64.5v35h-129c-23.333 0 -40.833 -2.5 -52.5 -7.5s-19.834 -14.5 -24.501 -28.5s-7 -35.667 -7 -65
c0 -28 2.5 -49.167 7.5 -63.5s14 -24.166 27 -29.499s32.833 -8 59.5 -8s48.5 3.33301 65.5 10z" />
    <glyph glyph-name="b" unicode="b" horiz-adv-x="452" 
d="M170.5 8.5c-21.667 11 -37.166 32.5039 -46.499 64.5039h-5l-4 -73h-48v743h56v-297h5c8.66699 26 23.167 44.5 43.5 55.5s47.166 16.5 80.499 16.5c41.333 0 72.5 -7.33301 93.5 -22s35.5 -40.334 43.5 -77.001s12 -91.334 12 -164.001s-4 -127.334 -12 -164.001
s-22.5 -62.334 -43.5 -77.001s-52.5 -22 -94.5 -22c-32 0 -58.833 5.5 -80.5 16.5zM307.501 57.5039c15 9.66699 25.001 28.6709 30.001 57.0039s7.5 75.166 7.5 140.499s-2.5 112.166 -7.5 140.499s-15 47.333 -30 57s-39.833 14.5 -74.5 14.5
c-27.333 0 -48.833 -5.16699 -64.5 -15.5s-26.5 -26.833 -32.5 -49.5c-5.33301 -18.667 -8.83301 -39.334 -10.5 -62.001s-2.5 -51 -2.5 -85c0 -34.667 0.666992 -62.834 2 -84.501s4.66602 -41.5 9.99902 -59.5c6 -23.333 17 -40.5 33 -51.5s37.667 -16.5 65 -16.5
c34.667 0 59.5 4.83301 74.5 14.5z" />
    <glyph glyph-name="c" unicode="c" horiz-adv-x="352" 
d="M269 -4.5c-19.333 -2.33301 -38.3369 -3.50195 -57.0039 -3.50195c-48.667 0 -84.5 8.66699 -107.5 26s-37.833 43.5 -44.5 78.5s-10 87.5 -10 157.5c0 71.333 4.16699 125.333 12.5 162s23.666 62.834 45.999 78.501s55.833 23.5 100.5 23.5
c17.333 0 35.833 -1.16699 55.5 -3.5s35.834 -5.16602 48.501 -8.49902v-48c-33.333 7.33301 -64.333 11 -93 11c-34 0 -58.833 -5.66699 -74.5 -17s-26.167 -31.333 -31.5 -60s-8 -74 -8 -136c0 -63.333 2.83301 -109.666 8.5 -138.999s16.334 -49.333 32.001 -60
s40.834 -16 75.501 -16c14.667 0 30.834 1.16699 48.501 3.5s32.834 5.16602 45.501 8.49902v-48c-12 -4 -27.667 -7.16699 -47 -9.5z" />
    <glyph glyph-name="d" unicode="d" horiz-adv-x="452" 
d="M106.5 14c-21 14.667 -35.666 40.3301 -43.999 76.9971s-12.5 91.334 -12.5 164.001s4 127.334 12 164.001s22.5 62.334 43.5 77.001s52.5 22 94.5 22c33.333 0 60.166 -5.5 80.499 -16.5s34.833 -29.5 43.5 -55.5h5v297h56v-743h-48l-4 73h-5
c-9.33301 -32 -25 -53.5 -47 -64.5s-49 -16.5 -81 -16.5c-41.333 0 -72.5 7.33301 -93.5 22zM284.001 58.9961c16 10.667 26.999 27.332 32.999 49.999c4.66699 20 7.83398 41.667 9.50098 65s2.5 53.666 2.5 90.999c0 56 -3.33301 97.667 -10 125
c-6.66699 28 -18 47.833 -34 59.5s-39.333 17.5 -70 17.5c-33.333 0 -57.333 -4.83301 -72 -14.5s-24.5 -28.667 -29.5 -57s-7.5 -75.166 -7.5 -140.499s2.5 -112.166 7.5 -140.499s15 -47.333 30 -57s39.833 -14.5 74.5 -14.5c28 0 50 5.33301 66 16z" />
    <glyph glyph-name="e" unicode="e" horiz-adv-x="429" 
d="M378 236h-272c0 -58 2.66699 -99.833 8 -125.5s16.833 -43.667 34.5 -54s46.5 -15.5 86.5 -15.5c20 0 42 1.16699 66 3.5s45 5.5 63 9.5v-48c-15.333 -4 -36 -7.33301 -62 -10s-51.333 -4 -76 -4c-52.667 0 -91.167 7.5 -115.5 22.5s-40.5 40.333 -48.5 76
s-12 90.167 -12 163.5c0 74 3.33301 128.333 10 163s22 60.167 46 76.5s63 24.5 117 24.5c48.667 0 83.667 -7.83301 105 -23.5s35 -40.667 41 -75s9 -88.833 9 -163.5v-20zM144.5 455.5c-15.667 -9 -25.832 -25.833 -30.499 -50.5s-7.33398 -66 -8.00098 -124h217v15
c0 52 -2.83301 90 -8.5 114s-15.5 39.833 -29.5 47.5s-35.333 11.5 -64 11.5c-35.333 0 -60.833 -4.5 -76.5 -13.5z" />
    <glyph glyph-name="f" unicode="f" horiz-adv-x="273" 
d="M98 461h-76v49h76v98c0 40 5 69.667 15 89s25.333 31.833 46 37.5s51 8.5 91 8.5v-45c-27.333 0 -47.5 -2 -60.5 -6s-22.167 -11.667 -27.5 -23s-8 -28.333 -8 -51v-108h96v-49h-96v-461h-56v461z" />
    <glyph glyph-name="g" unicode="g" horiz-adv-x="451" 
d="M66 -193v48c41.333 -3.33301 83 -5 125 -5c41.333 0 71.5 5.66699 90.5 17s31.5 30.666 37.5 57.999s9 70.666 9 129.999v11h-4c-8.66699 -26 -23 -44.5 -43 -55.5s-47 -16.5 -81 -16.5c-42 0 -73.5 7.16699 -94.5 21.5s-35.5 39.833 -43.5 76.5s-12 91 -12 163
c0 72.667 4.16699 127.334 12.5 164.001s23 62.334 44 77.001s52.5 22 94.5 22c32 0 58.833 -5.5 80.5 -16.5s37.167 -32.5 46.5 -64.5h5l3 73h48v-434c0 -74 -4.16699 -129.833 -12.5 -167.5s-25.5 -65 -51.5 -82s-66 -25.5 -120 -25.5c-51.333 0 -96 2 -134 6zM283.5 60.5
c15.667 11 26.833 28.832 33.5 53.499c4.66699 16.667 7.66699 35.667 9 57s2 49.333 2 84c0 33.333 -0.5 60.333 -1.5 81s-3.5 38.667 -7.5 54c-6.66699 28 -18 47.833 -34 59.5s-38.333 17.5 -67 17.5c-34.667 0 -59.5 -4.66699 -74.5 -14s-25 -28.166 -30 -56.499
s-7.5 -75.5 -7.5 -141.5c0 -65.333 2.5 -112 7.5 -140s15 -46.833 30 -56.5s39.833 -14.5 74.5 -14.5c28 0 49.833 5.5 65.5 16.5z" />
    <glyph glyph-name="h" unicode="h" horiz-adv-x="455" 
d="M334 304c0 50 -2.33203 86 -6.99902 108s-13.834 36.667 -27.501 44s-35.5 11 -65.5 11c-34.667 0 -59.834 -8.16699 -75.501 -24.5s-25.5 -37.833 -29.5 -64.5s-6 -64.667 -6 -114v-264h-56v743h56v-296h5c8 20.667 21.333 37.667 40 51s47.334 20 86.001 20
s67.667 -6.5 87 -19.5s32.333 -33 39 -60s10 -65.833 10 -116.5v-322h-56v304z" />
    <glyph glyph-name="i" unicode="i" horiz-adv-x="190" 
d="M65 668v75h60v-75h-60zM67 0v510h56v-510h-56z" />
    <glyph glyph-name="j" unicode="j" horiz-adv-x="190" 
d="M65 668v75h60v-75h-60zM-4 -147c22 0 37.833 1.66797 47.5 5.00098s16 8.66602 19 15.999s4.5 19 4.5 35v601h56v-585c0 -36.667 -4 -63.167 -12 -79.5s-20.5 -26.833 -37.5 -31.5s-42.833 -7 -77.5 -7v46z" />
    <glyph glyph-name="k" unicode="k" horiz-adv-x="402" 
d="M317 0l-134 233h-60v-233h-56v743h56v-459h60l132 226h62l-149 -247l153 -263h-64z" />
    <glyph glyph-name="l" unicode="l" horiz-adv-x="190" 
d="M67 0v743h56v-743h-56z" />
    <glyph glyph-name="m" unicode="m" horiz-adv-x="694" 
d="M573 304c0 50 -2.16895 85.999 -6.50195 107.999s-12.666 36.667 -24.999 44s-32.166 11 -59.499 11c-33.333 0 -57.5 -7.66699 -72.5 -23s-24.333 -36.166 -28 -62.499s-5.5 -65.5 -5.5 -117.5v-264h-56v304c0 50 -2.16699 86 -6.5 108s-12.5 36.667 -24.5 44
s-32 11 -60 11c-32.667 0 -56.667 -8.16699 -72 -24.5s-24.833 -37.833 -28.5 -64.5s-5.5 -64.667 -5.5 -114v-264h-56v510h48l4 -73h5c7.33301 25.333 20.333 45.166 39 59.499s46.667 21.5 84 21.5c38 0 66 -6.16699 84 -18.5s30.333 -33.166 37 -62.499h5
c16 54 58 81 126 81c36.667 0 64.167 -6.5 82.5 -19.5s30.833 -33.167 37.5 -60.5s10 -66 10 -116v-322h-56v304z" />
    <glyph glyph-name="n" unicode="n" horiz-adv-x="455" 
d="M334 304c0 50 -2.33105 86.001 -6.99805 108.001s-13.834 36.667 -27.501 44s-35.5 11 -65.5 11c-34.667 0 -59.834 -8.16699 -75.501 -24.5s-25.5 -37.833 -29.5 -64.5s-6 -64.667 -6 -114v-264h-56v510h48l4 -73h5c8 25.333 21.667 45.166 41 59.499s49 21.5 89 21.5
c38.667 0 67.667 -6.5 87 -19.5s32.333 -33.167 39 -60.5s10 -66.333 10 -117v-321h-56v304z" />
    <glyph glyph-name="o" unicode="o" horiz-adv-x="441" 
d="M105.5 13c-23 14 -38 38.167 -45 72.5s-10.5 90.5 -10.5 168.5c0 78.667 3.5 135.334 10.5 170.001s22 59 45 73s61.167 21 114.5 21s91.666 -7 114.999 -21s38.333 -38.333 45 -73s10 -91.334 10 -170.001c0 -78 -3.33301 -134.167 -10 -168.5s-21.667 -58.5 -45 -72.5
s-61.666 -21 -114.999 -21s-91.5 7 -114.5 21zM299.5 56c15 10 24.498 28.5 28.498 55.5s6 74.5 6 142.5s-2 115.667 -6 143s-13.667 46.166 -29 56.499s-41.666 15.5 -78.999 15.5s-63.666 -5.16699 -78.999 -15.5s-25 -29.166 -29 -56.499s-6 -75 -6 -143
s2 -115.5 6 -142.5s13.5 -45.5 28.5 -55.5s41.5 -15 79.5 -15s64.5 5 79.5 15z" />
    <glyph glyph-name="p" unicode="p" horiz-adv-x="452" 
d="M67 510l47.999 0.00390625l4 -73h5c9.33301 32 24.833 53.5 46.5 64.5s48.5 16.5 80.5 16.5c42 0 73.5 -7.33301 94.5 -22s35.5 -40.334 43.5 -77.001s12 -91.334 12 -164.001s-4 -127.334 -12 -164.001s-22.5 -62.334 -43.5 -77.001s-52.167 -22 -93.5 -22
c-33.333 0 -60.166 5.66699 -80.499 17s-34.833 30 -43.5 56h-5v-258h-56v703zM307.499 57.5039c15 9.66699 25 28.668 30 57.001s7.5 75.166 7.5 140.499s-2.5 112.166 -7.5 140.499s-15 47.333 -30 57s-39.833 14.5 -74.5 14.5c-28 0 -50 -5.66699 -66 -17
s-27.333 -29.666 -34 -54.999c-4 -16.667 -6.66699 -35.667 -8 -57s-2 -49 -2 -83c0 -62.667 3 -106.334 9 -131.001c6.66699 -29.333 18 -50.166 34 -62.499s38.333 -18.5 67 -18.5c34.667 0 59.5 4.83301 74.5 14.5z" />
    <glyph glyph-name="q" unicode="q" horiz-adv-x="452" 
d="M329 65l-5.00098 -0.00390625c-8.66699 -26 -23.167 -44.667 -43.5 -56s-47.166 -17 -80.499 -17c-42 0 -73.5 7.33301 -94.5 22s-35.5 40.334 -43.5 77.001s-12 91.334 -12 164.001s4.16699 127.334 12.5 164.001s23 62.334 44 77.001s52.167 22 93.5 22
c32 0 59 -5.5 81 -16.5s37.667 -32.5 47 -64.5h5l4 73h48v-703h-56v258zM284.999 60.4961c16 11.667 27.332 30.8281 33.999 57.4951c6.66699 28.667 10 74.334 10 137.001c0 34.667 -0.666992 62.834 -2 84.501s-4.66602 42.167 -9.99902 61.5
c-6 22.667 -17 39.334 -33 50.001s-38 16 -66 16c-34.667 0 -59.5 -4.83301 -74.5 -14.5s-25 -28.667 -30 -57s-7.5 -75.166 -7.5 -140.499s2.5 -112.166 7.5 -140.499s15 -47.333 30 -57s39.833 -14.5 74.5 -14.5c28.667 0 51 5.83301 67 17.5z" />
    <glyph glyph-name="r" unicode="r" horiz-adv-x="277" 
d="M67 510l48.001 -0.000976562l4 -98h5c8.66699 40.667 24.167 68.5 46.5 83.5s51.5 22.5 87.5 22.5v-57c-35.333 0 -62.833 -7.83301 -82.5 -23.5s-33.334 -38.667 -41.001 -69s-11.5 -70.166 -11.5 -119.499v-249h-56v510z" />
    <glyph glyph-name="s" unicode="s" horiz-adv-x="378" 
d="M115 -4.5c-25.333 2.33301 -46.0039 5.16895 -62.0039 8.50195v48c40 -7.33301 85 -11 135 -11c38 0 63.167 7.5 75.5 22.5s18.5 39.167 18.5 72.5c0 26.667 -1.5 46 -4.5 58s-8 20 -15 24s-18.5 7 -34.5 9l-103 14c-32 4.66699 -54 16.667 -66 36s-18 50.666 -18 93.999
c0 40 6.16699 70.667 18.5 92s29.5 35.833 51.5 43.5s50.667 11.5 86 11.5c19.333 0 40.333 -1.33301 63 -4s41.334 -5.66699 56.001 -9v-48c-35.333 8 -76.666 12 -123.999 12c-33.333 0 -57.666 -6.33301 -72.999 -19s-23 -37.334 -23 -74.001c0 -24 1.5 -41.667 4.5 -53
s8 -19 15 -23s18.167 -7 33.5 -9l101 -14c22.667 -3.33301 40 -9 52 -17s20.833 -21.333 26.5 -40s8.5 -46 8.5 -82c0 -54.667 -11.667 -92.667 -35 -114s-61.666 -32 -114.999 -32c-22.667 0 -46.667 1.16699 -72 3.5z" />
    <glyph glyph-name="t" unicode="t" horiz-adv-x="265" 
d="M98 0v461h-77v49h77v148h56v-148h89v-49h-89v-461h-56z" />
    <glyph glyph-name="u" unicode="u" horiz-adv-x="455" 
d="M336 73l-4.99805 -0.000976562c-8 -25.333 -21.833 -45.166 -41.5 -59.499s-49.167 -21.5 -88.5 -21.5c-38.667 0 -67.834 6.5 -87.501 19.5s-32.834 33.167 -39.501 60.5s-10 66.333 -10 117v321h56v-304c0 -50 2.5 -86 7.5 -108s14.167 -36.667 27.5 -44
s35.333 -11 66 -11c34 0 59 8.16699 75 24.5s25.833 37.833 29.5 64.5s5.5 64.667 5.5 114v264h56v-510h-47z" />
    <glyph glyph-name="v" unicode="v" horiz-adv-x="402" 
d="M169 0l-148 510h59l119 -431h6l118 431h58l-148 -510h-64z" />
    <glyph glyph-name="w" unicode="w" horiz-adv-x="607" 
d="M396 0l-90 411h-5l-90 -411h-66l-122 510h58l96 -429h5l92 429h61l93 -429h5l95 429h56l-122 -510h-66z" />
    <glyph glyph-name="x" unicode="x" horiz-adv-x="408" 
d="M323 0l-118 210h-4l-119 -210h-61l149 258l-144 252h64l112 -200h5l113 200h61l-143 -249l149 -261h-64z" />
    <glyph glyph-name="y" unicode="y" horiz-adv-x="455" 
d="M77 -194l-0.000976562 47.998c46.667 -2.66699 86.667 -4 120 -4c40.667 0 70.5 6.33301 89.5 19s31.167 32.5 36.5 59.5s8 67.5 8 121.5v17h-4c-8 -22.667 -21.333 -40.667 -40 -54s-48 -20 -88 -20c-38.667 0 -67.5 6.66699 -86.5 20s-31.833 34 -38.5 62
s-10 68 -10 120v315h56v-304c0 -49.333 2.5 -85 7.5 -107s14.167 -36.667 27.5 -44s35.333 -11 66 -11c34.667 0 59.834 8 75.501 24s25.334 37.167 29.001 63.5s5.5 64.5 5.5 114.5v264h56v-438c0 -71.333 -4.33301 -125.666 -13 -162.999s-25.834 -64.666 -51.501 -81.999
s-64.5 -26 -116.5 -26c-46 0 -89 1.66699 -129 5z" />
    <glyph glyph-name="z" unicode="z" horiz-adv-x="369" 
d="M35 0v45l230 416h-222v49h290v-44l-231 -417h232v-49h-299z" />
    <glyph glyph-name="braceleft" unicode="{" horiz-adv-x="249" 
d="M126.5 -75c-17.667 34.667 -26.5 71.333 -26.5 110v116c0 35.333 -6 65.166 -18 89.499s-32 36.833 -60 37.5v36c28 0.666992 48 13.167 60 37.5s18 54.5 18 90.5v116c0 38.667 8.83301 75.334 26.5 110.001s37.834 59.667 60.501 75h48
c-22.667 -21.333 -41.834 -48 -57.501 -80s-23.5 -64 -23.5 -96v-120c0 -82.667 -24 -132 -72 -148v-5c48 -16 72 -65.333 72 -148v-120c0 -32 7.83301 -64 23.5 -96s34.834 -58.667 57.501 -80h-48c-22.667 15.333 -42.834 40.333 -60.501 75z" />
    <glyph glyph-name="bar" unicode="|" horiz-adv-x="223" 
d="M85 -161v904h53v-904h-53z" />
    <glyph glyph-name="braceright" unicode="}" horiz-adv-x="249" 
d="M71.5 -70.5c15.667 32.333 23.498 64.501 23.498 96.501v120c0 82.667 24 132 72 148v5c-48 16 -72 65.333 -72 148v120c0 32 -7.66699 63.833 -23 95.5s-34.666 58.5 -57.999 80.5h48c22.667 -15.333 42.834 -40.333 60.501 -75s26.5 -71.334 26.5 -110.001v-116
c0 -36 6 -66.167 18 -90.5s32 -36.833 60 -37.5v-36c-28 -0.666992 -48 -13.167 -60 -37.5s-18 -54.166 -18 -89.499v-116c0 -38.667 -8.83301 -75.334 -26.5 -110.001s-37.834 -59.667 -60.501 -75h-48c22.667 20.667 41.834 47.167 57.501 79.5z" />
    <glyph glyph-name="asciitilde" unicode="~" horiz-adv-x="436" 
d="M369.5 298c-3 -14 -9.33203 -24.501 -18.999 -31.501s-24.167 -10.5 -43.5 -10.5c-14.667 0 -29.334 2 -44.001 6s-33 10.333 -55 19c-20 8 -35 13.667 -45 17s-20.333 5 -31 5c-14 0 -23 -4 -27 -12s-6 -23.333 -6 -46h-37c0 26.667 1.5 47 4.5 61s9.33301 24.5 19 31.5
s24.167 10.5 43.5 10.5c13.333 0 26.5 -1.83301 39.5 -5.5s25.333 -7.66699 37 -12s19.5 -7.16602 23.5 -8.49902c2.66699 -1.33301 9.5 -4 20.5 -8s21 -7 30 -9s17.167 -3 24.5 -3c14 0 23 4 27 12s6 23 6 45h37c0 -26.667 -1.5 -47 -4.5 -61z" />
    <glyph glyph-name="uni00A0" unicode="&#xa0;" horiz-adv-x="190" 
 />
    <glyph glyph-name="exclamdown" unicode="&#xa1;" horiz-adv-x="192" 
d="M62 430v80h67v-80h-67zM64 -54c0 22 2.33301 107 7 255l4 125h42l5 -173c4 -108 6 -177 6 -207v-124h-64v124z" />
    <glyph glyph-name="cent" unicode="&#xa2;" horiz-adv-x="375" 
d="M329 80c-24 -7.33301 -52.333 -11.334 -85 -12.001v-76h-48v76c-40.667 2 -71 12.333 -91 31s-33.5 46.667 -40.5 84s-10.5 90.333 -10.5 159c0 71.333 4.33301 126.333 13 165s23 66.334 43 83.001s48.667 26 86 28v78h48v-78c34.667 -2 62 -6 82 -12v-50
c-24.667 6 -52 9.66699 -82 11v-449c32 2 60.333 6.33301 85 13v-51zM118.5 211.999c4.33301 -30 12.333 -52.001 24 -66.001s29.5 -22.667 53.5 -26v445c-24 -3.33301 -41.833 -11.666 -53.5 -24.999s-19.667 -34.833 -24 -64.5s-6.5 -73.5 -6.5 -131.5
s2.16699 -102 6.5 -132z" />
    <glyph glyph-name="sterling" unicode="&#xa3;" horiz-adv-x="439" 
d="M395 53v-53h-352v53h55v278h-55v52h55v50c0 67.333 5.66699 119.833 17 157.5s30.333 64.667 57 81s64 24.5 112 24.5c18 0 36.5 -1.16699 55.5 -3.5s34.5 -5.5 46.5 -9.5v-50c-30 6.66699 -60.667 10 -92 10c-22 0 -40.667 -1.66699 -56 -5s-28 -9 -38 -17
c-16.667 -13.333 -28 -34.5 -34 -63.5s-9 -68.833 -9 -119.5v-55h175v-52h-175v-278h238z" />
    <glyph glyph-name="currency" unicode="&#xa4;" horiz-adv-x="573" 
d="M51 30l92.002 91.998c-11.333 18.667 -18.666 44.5 -21.999 77.5s-5 81.833 -5 146.5c0 62.667 1.66699 110.334 5 143.001s10.666 58.334 21.999 77.001l-93 92l35 35l95 -95c22 12.667 57.333 19 106 19c25.333 0 46.666 -1.5 63.999 -4.5
s31.666 -8.16699 42.999 -15.5l95 95l34 -34l-93 -93c10.667 -18.667 17.834 -44.5 21.501 -77.5s5.5 -80.167 5.5 -141.5c0 -62 -1.83301 -110 -5.5 -144s-10.834 -60.333 -21.501 -79l93 -93l-34 -34l-95 95c-22 -12.667 -57.667 -19 -107 -19
c-48.667 0 -84 6.33301 -106 19l-95 -95zM365.502 136.998c15 10.667 24.498 30.167 28.498 58.5s6 78.5 6 150.5c0 70 -2 119 -6 147s-13.667 47.333 -29 58s-41.666 16 -78.999 16s-63.666 -5.33301 -78.999 -16s-25 -30 -29 -58s-6 -77 -6 -147
c0 -72 2 -122.167 6 -150.5s13.5 -47.833 28.5 -58.5s41.5 -16 79.5 -16s64.5 5.33301 79.5 16z" />
    <glyph glyph-name="yen" unicode="&#xa5;" horiz-adv-x="473" 
d="M442 688l-102 -240h80v-44h-99l-46 -109h145v-43h-155v-252h-58v252h-155v43h144l-46 109h-98v44h80l-101 240h62l96 -240h97l96 240h60zM240 334l28 70h-61l28 -70h5z" />
    <glyph glyph-name="brokenbar" unicode="&#xa6;" horiz-adv-x="223" 
d="M85 390v353h53v-353h-53zM85 -161v353h53v-353h-53z" />
    <glyph glyph-name="section" unicode="&#xa7;" horiz-adv-x="510" 
d="M161 -167c-24 2.66699 -42.335 5.66895 -55.002 9.00195v52c12.667 -3.33301 30.834 -6.16602 54.501 -8.49902s47.5 -3.5 71.5 -3.5c41.333 0 71.166 6.66699 89.499 20s27.5 39.666 27.5 78.999c0 22.667 -1.66699 40 -5 52s-8.66602 20.833 -15.999 26.5
s-18.333 11.167 -33 16.5l-128 42c-32 10.667 -55.5 20.834 -70.5 30.501s-26.333 24.334 -34 44.001s-11.5 48.5 -11.5 86.5c0 44 6.5 78.667 19.5 104s35.167 41.333 66.5 48c-12.667 11.333 -21.5 25.333 -26.5 42s-7.5 39 -7.5 67c0 41.333 6.66699 73.333 20 96
s32.333 38.334 57 47.001s56 13 94 13c26 0 51 -1.33301 75 -4s42.333 -5.66699 55 -9v-52c-12.667 3.33301 -31 6.16602 -55 8.49902s-47.667 3.5 -71 3.5c-41.333 0 -71.166 -6.66699 -89.499 -20s-27.5 -39.666 -27.5 -78.999c0 -23.333 1.66699 -40.833 5 -52.5
s9 -20.5 17 -26.5s20 -11.667 36 -17l125 -41c31.333 -10.667 54.5 -20.834 69.5 -30.501s26.333 -24.334 34 -44.001s11.5 -48.834 11.5 -87.501c0 -44 -6.5 -78.667 -19.5 -104s-35.167 -41.333 -66.5 -48c12.667 -10.667 21.5 -24.334 26.5 -41.001s7.5 -39 7.5 -67
c0 -41.333 -6.66699 -73.333 -20 -96s-32.333 -38.334 -57 -47.001s-56 -13 -94 -13c-26 0 -51 1.33301 -75 4zM384.498 151.002c11.667 18 17.498 45.332 17.498 81.999c0 27.333 -1.5 48.333 -4.5 63s-7.5 24.834 -13.5 30.501s-14 10.167 -24 13.5l-153 50
c-19.333 6.66699 -31.666 10 -36.999 10c-17.333 0 -32 -9.16699 -44 -27.5s-18 -45.833 -18 -82.5c0 -28 1.66699 -49 5 -63s8.33301 -24.167 15 -30.5s16.334 -11.5 29.001 -15.5l149 -49c18 -5.33301 29.333 -8 34 -8c18 0 32.833 9 44.5 27z" />
    <glyph glyph-name="dieresis" unicode="&#xa8;" horiz-adv-x="277" 
d="M22 660v70h57v-70h-57zM198 660v70h57v-70h-57z" />
    <glyph glyph-name="copyright" unicode="&#xa9;" horiz-adv-x="570" 
d="M138 16c-28 16 -45.833 46.333 -53.5 91s-11.5 123.667 -11.5 237s3.83301 192.333 11.5 237s25.5 75 53.5 91s77 24 147 24s119 -8 147 -24s45.833 -46.333 53.5 -91s11.5 -123.667 11.5 -237s-3.83301 -192.333 -11.5 -237s-25.5 -75 -53.5 -91s-77 -24 -147 -24
s-119 8 -147 24zM409 42.5c22.667 12.333 37.167 38.666 43.5 78.999s9.5 114.5 9.5 222.5s-3.16699 182.167 -9.5 222.5s-20.833 66.666 -43.5 78.999s-64 18.5 -124 18.5c-60.667 0 -102.334 -6.16699 -125.001 -18.5s-37.167 -38.666 -43.5 -78.999
s-9.5 -114.5 -9.5 -222.5s3.16699 -182.167 9.5 -222.5s20.833 -66.666 43.5 -78.999s64.334 -18.5 125.001 -18.5c60 0 101.333 6.16699 124 18.5zM233 168c-14.667 9.33301 -24.668 26.8311 -30.001 52.498s-8 66.834 -8 123.501c0 55.333 2.66699 95.833 8 121.5
s15.333 43.334 30 53.001s38 14.5 70 14.5c27.333 0 47 -2 59 -6v-36c-16.667 3.33301 -34 5 -52 5c-24 0 -40.833 -3.16699 -50.5 -9.5s-16 -19.5 -19 -39.5s-4.5 -54.333 -4.5 -103c0 -49.333 1.5 -84 4.5 -104s9.33301 -33.167 19 -39.5s26.5 -9.5 50.5 -9.5
c18.667 0 36.334 1.66699 53.001 5v-36c-14.667 -4 -34.667 -6 -60 -6c-32 0 -55.333 4.66699 -70 14z" />
    <glyph glyph-name="ordfeminine" unicode="&#xaa;" horiz-adv-x="327" 
d="M56.5 336c-15 15.333 -22.498 44.001 -22.498 86.001c0 28.667 2.66699 50.667 8 66s14.5 26.333 27.5 33s31.833 10 56.5 10l73 -2l26 -1v25c0 31.333 -2 53.833 -6 67.5s-11.5 22.667 -22.5 27s-29.5 6.5 -55.5 6.5c-25.333 0 -55.333 -3 -90 -9v41
c30 6.66699 64.333 10 103 10c33.333 0 58.166 -4 74.499 -12s27.666 -21.833 33.999 -41.5s9.5 -48.834 9.5 -87.501v-236h-41l-4 43h-4c-17.333 -32.667 -47.333 -49 -90 -49c-36 0 -61.5 7.66699 -76.5 23zM188.002 364.001c12 6 21.333 16 28 30c6 12.667 9 38 9 76v23
h-89c-16 0 -27.833 -1.66699 -35.5 -5s-13.167 -9.83301 -16.5 -19.5s-5 -24.5 -5 -44.5c0 -28 4.33301 -46.5 13 -55.5s25.667 -13.5 51 -13.5c18 0 33 3 45 9z" />
    <glyph glyph-name="guillemotleft" unicode="&#xab;" horiz-adv-x="354" 
d="M130 101l-97 204l97 205h43l-84 -205l84 -204h-43zM256 101l-97 204l97 205h43l-83 -205l83 -204h-43z" />
    <glyph glyph-name="logicalnot" unicode="&#xac;" horiz-adv-x="484" 
d="M371 73v156h-308v50h358v-206h-50z" />
    <glyph glyph-name="uni00AD" unicode="&#xad;" horiz-adv-x="308" 
d="M59 259v54h191v-54h-191z" />
    <glyph glyph-name="registered" unicode="&#xae;" horiz-adv-x="570" 
d="M432 672c28 -16 45.833 -46.333 53.5 -91s11.5 -123.667 11.5 -237s-3.83301 -192.333 -11.5 -237s-25.5 -75 -53.5 -91s-77 -24 -147 -24c-70.667 0 -120 8 -148 24s-45.667 46.167 -53 90.5s-11 123.5 -11 237.5c0 113.333 3.66699 192.333 11 237s25 75 53 91
s77.333 24 148 24c70 0 119 -8 147 -24zM409 42.5c22.667 12.333 37.167 38.666 43.5 78.999s9.5 114.5 9.5 222.5s-3.16699 182.167 -9.5 222.5s-20.833 66.666 -43.5 78.999s-64 18.5 -124 18.5c-60.667 0 -102.334 -6.16699 -125.001 -18.5
s-37.167 -38.666 -43.5 -78.999s-9.5 -114.5 -9.5 -222.5s3.16699 -182.167 9.5 -222.5s20.833 -66.666 43.5 -78.999s64.334 -18.5 125.001 -18.5c60 0 101.333 6.16699 124 18.5zM378.5 351.5c-5.66699 -17.667 -17.499 -30.167 -35.499 -37.5l50 -157h-43l-47 149h-4h-68
v-149h-41v372h111c26 0 45.167 -4.83301 57.5 -14.5s20.166 -22 23.499 -37s5 -34.5 5 -58.5c0 -27.333 -2.83301 -49.833 -8.5 -67.5zM328.001 351.5c8 5.66699 13 13.499 15 23.499s3 24.667 3 44c0 18.667 -1 32.834 -3 42.501s-6.83301 17 -14.5 22s-19.5 7.5 -35.5 7.5
h-62v-148h60c16.667 0 29 2.83301 37 8.5z" />
    <glyph glyph-name="macron" unicode="&#xaf;" horiz-adv-x="309" 
d="M59 689v54h191v-54h-191z" />
    <glyph glyph-name="degree" unicode="&#xb0;" horiz-adv-x="313" 
d="M86.5 410c-14.333 8.66699 -23.5 22.667 -27.5 42s-6 50.666 -6 93.999s2 74.833 6 94.5s13.167 33.834 27.5 42.501s37.833 13 70.5 13c32 0 55.167 -4.33301 69.5 -13s23.5 -22.834 27.5 -42.501s6 -51.167 6 -94.5s-2 -74.666 -6 -93.999s-13.167 -33.333 -27.5 -42
s-37.5 -13 -69.5 -13c-32.667 0 -56.167 4.33301 -70.5 13zM198 444c8 6 12.833 15.833 14.5 29.5s2.5 37.834 2.5 72.501s-0.833008 58.834 -2.5 72.501s-6.5 23.5 -14.5 29.5s-21.667 9 -41 9c-20 0 -34 -3 -42 -9s-13 -15.833 -15 -29.5s-3 -37.834 -3 -72.501
s1 -58.834 3 -72.501s7 -23.5 15 -29.5s22 -9 42 -9c19.333 0 33 3 41 9z" />
    <glyph glyph-name="plusminus" unicode="&#xb1;" horiz-adv-x="485" 
d="M218 195v155h-155v49h155v155h48v-155h156v-49h-156v-155h-48zM63 30v49h359v-49h-359z" />
    <glyph glyph-name="uni00B2" unicode="&#xb2;" horiz-adv-x="291" 
d="M92 359l150.002 0.00195312v-41h-193v44c0 29.333 0.666992 50.666 2 63.999s4.66602 24.166 9.99902 32.499s14 16.5 26 24.5c34 20.667 60.667 36.334 80 47.001c12 7.33301 20 15.5 24 24.5s6 22.167 6 39.5c0 24 -4 40.167 -12 48.5s-23.333 12.5 -46 12.5
c-20.667 0 -49 -2.66699 -85 -8v40c29.333 6 60.333 9 93 9c20.667 0 37.667 -2.16699 51 -6.5s24 -13.5 32 -27.5s12 -35 12 -63c0 -29.333 -3.83301 -51.333 -11.5 -66s-20.834 -27.334 -39.501 -38.001l-76 -45c-9.33301 -6 -15.5 -12.667 -18.5 -20s-4.5 -21 -4.5 -41
v-30z" />
    <glyph glyph-name="uni00B3" unicode="&#xb3;" horiz-adv-x="288" 
d="M46 318v39c38.667 -4.66699 66.334 -7 83.001 -7c22.667 0 39.167 4.5 49.5 13.5s15.5 26.5 15.5 52.5c0 24.667 -3.83301 42.334 -11.5 53.001s-19.5 16 -35.5 16h-56v40h56c28.667 0 43 21.333 43 64c0 26 -4.83301 43.5 -14.5 52.5s-26.5 13.5 -50.5 13.5
c-18 0 -43.667 -2.66699 -77 -8v39c28 6.66699 56 10 84 10c38.667 0 65.5 -7.83301 80.5 -23.5s22.5 -42.167 22.5 -79.5c0 -22.667 -3.5 -40.334 -10.5 -53.001s-18.167 -23 -33.5 -31v-4c31.333 -12 47 -41 47 -87c0 -38 -7.16699 -65.667 -21.5 -83s-42.5 -26 -84.5 -26
c-22.667 0 -51.334 3 -86.001 9z" />
    <glyph glyph-name="acute" unicode="&#xb4;" horiz-adv-x="129" 
d="M6 603v5l56 135h61v-5l-76 -135h-41z" />
    <glyph glyph-name="uni00B5" unicode="&#xb5;" horiz-adv-x="457" 
d="M390 510v-510.001h-48l-4 73h-4c-8 -25.333 -21.667 -45.166 -41 -59.499s-48.333 -21.5 -87 -21.5c-35.333 0 -63 8 -83 24v-206h-56v700h56v-304c0 -50 2.5 -86 7.5 -108s14.167 -36.667 27.5 -44s35.333 -11 66 -11c34 0 59 8.16699 75 24.5s25.833 37.833 29.5 64.5
s5.5 64.667 5.5 114v264h56z" />
    <glyph glyph-name="paragraph" unicode="&#xb6;" horiz-adv-x="422" 
d="M206 222c-54 0 -92 5.33203 -114 15.999s-36 30.667 -42 60s-9 81.333 -9 156s3 126.834 9 156.501s20 50 42 61s60 16.5 114 16.5h49v-832h-49v366zM304 -144.001v832h49v-832h-49z" />
    <glyph glyph-name="periodcentered" unicode="&#xb7;" horiz-adv-x="180" 
d="M57 259v80h66v-80h-66z" />
    <glyph glyph-name="cedilla" unicode="&#xb8;" horiz-adv-x="137" 
d="M19 -190v5l60 193h40v-5l-43 -193h-57z" />
    <glyph glyph-name="uni00B9" unicode="&#xb9;" horiz-adv-x="206" 
d="M98 318v314l-54 -26v42l65 40h33v-370h-44z" />
    <glyph glyph-name="ordmasculine" unicode="&#xba;" horiz-adv-x="339" 
d="M85.5 328.5c-17 10.333 -28 28 -33 53s-7.5 65.833 -7.5 122.5s2.5 97.667 7.5 123s16 43.166 33 53.499s45.167 15.5 84.5 15.5s67.5 -5.16699 84.5 -15.5s28 -28.166 33 -53.499s7.5 -66.333 7.5 -123s-2.5 -97.5 -7.5 -122.5s-16 -42.667 -33 -53
s-45.167 -15.5 -84.5 -15.5s-67.5 5.16699 -84.5 15.5zM224.5 365.5c10.333 7 16.834 20 19.501 39s4 52.167 4 99.5s-1.33301 80.5 -4 99.5s-9.33398 32.167 -20.001 39.5s-28.667 11 -54 11c-26 0 -44.167 -3.66699 -54.5 -11s-16.833 -20.333 -19.5 -39s-4 -52 -4 -100
s1.33301 -81.333 4 -100s9.16699 -31.5 19.5 -38.5s28.5 -10.5 54.5 -10.5s44.167 3.5 54.5 10.5z" />
    <glyph glyph-name="guillemotright" unicode="&#xbb;" horiz-adv-x="354" 
d="M55 101l84 204l-84 205h43l98 -205l-98 -204h-43zM181 101l84 204l-84 205h43l98 -205l-98 -204h-43z" />
    <glyph glyph-name="onequarter" unicode="&#xbc;" horiz-adv-x="533" 
d="M98 318v314l-53 -26v42l65 40h32v-370h-44zM58 0l331 688h45l-331 -688h-45zM403 0v82h-143v34l97 256h47l-97 -249h96l6 146h38v-146h39v-41h-39v-82h-44z" />
    <glyph glyph-name="onehalf" unicode="&#xbd;" horiz-adv-x="586" 
d="M98 318v314l-53 -26v42l65 40h32v-370h-44zM389 688h45l-331 -688h-45zM382 42l149.001 -0.000976562v-42h-192v45c0 28.667 0.666992 49.834 2 63.501s4.66602 24.667 9.99902 33s14 16.166 26 23.499c34 20.667 60.667 36.334 80 47.001c12 7.33301 20 15.5 24 24.5
s6 22.5 6 40.5c0 24 -4 40 -12 48s-23.333 12 -46 12c-16.667 0 -45 -2.33301 -85 -7v40c30.667 5.33301 61.667 8 93 8c21.333 0 38.5 -2 51.5 -6s23.333 -13 31 -27s11.5 -35 11.5 -63c0 -29.333 -3.66699 -51.5 -11 -66.5s-20.333 -27.833 -39 -38.5l-29 -17
c-21.333 -12 -37 -21.333 -47 -28c-10 -5.33301 -16.333 -12.333 -19 -21s-4 -22 -4 -40v-29z" />
    <glyph glyph-name="threequarters" unicode="&#xbe;" horiz-adv-x="600" 
d="M132 350c22.667 0 39.168 4.5 49.501 13.5s15.5 26.5 15.5 52.5c0 24.667 -3.83301 42.334 -11.5 53.001s-19.5 16 -35.5 16h-55v40h55c29.333 0 44 21.333 44 64c0 26 -5 43.5 -15 52.5s-27 13.5 -51 13.5c-18 0 -43.667 -2.66699 -77 -8v39c28 6.66699 56 10 84 10
c38.667 0 65.5 -7.83301 80.5 -23.5s22.5 -42.167 22.5 -79.5c0 -22.667 -3.5 -40.334 -10.5 -53.001s-18.167 -23 -33.5 -31v-4c32 -12 48 -41 48 -87c0 -37.333 -7.33301 -64.833 -22 -82.5s-43 -26.5 -85 -26.5c-22.667 0 -51.334 3 -86.001 9v39
c39.333 -4.66699 67 -7 83 -7zM126.001 0l331 688h45l-331 -688h-45zM469.001 0v82h-143v34l98 256h46l-96 -249h96l6 146h38v-146h39v-41h-39v-82h-45z" />
    <glyph glyph-name="questiondown" unicode="&#xbf;" horiz-adv-x="317" 
d="M191 430v80h67v-80h-67zM108.5 -169c-21.667 11.333 -36.999 28.833 -45.999 52.5s-13.5 55.5 -13.5 95.5c0 46 4.5 83.167 13.5 111.5s26.5 49.5 52.5 63.5l36 18c20.667 10 33.5 19.667 38.5 29s7.5 26 7.5 50v76h55v-86c0 -24 -2.16699 -42.667 -6.5 -56
s-10.333 -23.5 -18 -30.5s-19.167 -14.5 -34.5 -22.5l-19 -8c-18.667 -9.33301 -32.334 -18.166 -41.001 -26.499s-15 -20.666 -19 -36.999s-6 -40.5 -6 -72.5c0 -32.667 2.66699 -57.334 8 -74.001s15.333 -28.667 30 -36s37.334 -11 68.001 -11
c27.333 0 67.333 3.66699 120 11v-49c-20.667 -4.66699 -43.667 -8.33398 -69 -11.001s-47.333 -4 -66 -4c-38.667 0 -68.834 5.66699 -90.501 17z" />
    <glyph glyph-name="Agrave" unicode="&#xc0;" horiz-adv-x="493" 
d="M411 0l-54 203h-223l-53 -203h-60l189 688h73l189 -688h-61zM248 608h-5l-94 -353h193zM236 750l-76 135v5h62l55 -135v-5h-41z" />
    <glyph glyph-name="Aacute" unicode="&#xc1;" horiz-adv-x="493" 
d="M411 0l-54 203h-223l-53 -203h-60l189 688h73l189 -688h-61zM248 608h-5l-94 -353h193zM216 750v5l56 135h61v-5l-76 -135h-41z" />
    <glyph glyph-name="Acircumflex" unicode="&#xc2;" horiz-adv-x="493" 
d="M411 0l-54 203h-223l-53 -203h-60l189 688h73l189 -688h-61zM248 608h-5l-94 -353h193zM135 750v5l78 133h65l78 -133v-5h-40l-70 101l-70 -101h-41z" />
    <glyph glyph-name="Atilde" unicode="&#xc3;" horiz-adv-x="493" 
d="M411 0l-54 203h-223l-53 -203h-60l189 688h73l189 -688h-61zM248 608h-5l-94 -353h193zM372.5 783c-7 -14.667 -22.501 -22.001 -46.501 -22.001c-12.667 0 -25.167 2 -37.5 6s-28.5 10 -48.5 18c-16 7.33301 -29.167 12.833 -39.5 16.5s-20.5 5.5 -30.5 5.5
s-16.5 -4 -19.5 -12s-4.5 -23 -4.5 -45h-37c0 38.667 3.66699 65.5 11 80.5s23 22.5 47 22.5c13.333 0 26.5 -2.16699 39.5 -6.5s29.167 -10.833 48.5 -19.5c16.667 -6.66699 29.834 -11.667 39.501 -15s19.167 -5 28.5 -5c10 0 16.333 3.83301 19 11.5s4 22.834 4 45.501
h37c0 -39.333 -3.5 -66.333 -10.5 -81z" />
    <glyph glyph-name="Adieresis" unicode="&#xc4;" horiz-adv-x="493" 
d="M411 0l-54 203h-223l-53 -203h-60l189 688h73l189 -688h-61zM248 608h-5l-94 -353h193zM130 773v70h57v-70h-57zM306 773v70h57v-70h-57z" />
    <glyph glyph-name="Aring" unicode="&#xc5;" horiz-adv-x="493" 
d="M472 0l-61.002 -0.000976562l-54 203h-223l-53 -203h-60l187 682c-18 2.66699 -31.167 7.33398 -39.5 14.001s-13.666 15.834 -15.999 27.501s-3.5 28.167 -3.5 49.5c0 25.333 2 44.166 6 56.499s12.833 21.5 26.5 27.5s35.167 9 64.5 9s51 -3 65 -9s23 -15.167 27 -27.5
s6 -31.166 6 -56.499c0 -21.333 -1.33301 -37.833 -4 -49.5s-8.16699 -20.834 -16.5 -27.501s-21.166 -11 -38.499 -13zM193.998 736.499c2 -7.66699 6.83301 -13.167 14.5 -16.5s20.167 -5 37.5 -5s29.833 1.66699 37.5 5s12.667 8.83301 15 16.5s3.5 19.834 3.5 36.501
s-1.16699 28.834 -3.5 36.501s-7.33301 13.167 -15 16.5s-20.167 5 -37.5 5s-29.833 -1.66699 -37.5 -5s-12.5 -8.83301 -14.5 -16.5s-3 -19.834 -3 -36.501s1 -28.834 3 -36.501zM148.998 254.999h193l-94 353h-5z" />
    <glyph glyph-name="AE" unicode="&#xc6;" horiz-adv-x="678" 
d="M386 0l-36 203h-222l-72 -203h-59l250 688h393v-53h-309l47 -261h228v-53h-218l49 -268h203v-53h-254zM278 608h-5l-126 -353h194z" />
    <glyph glyph-name="Ccedilla" unicode="&#xc7;" horiz-adv-x="401" 
d="M366 54l0.000976562 -51.0029c-14.667 -3.33301 -32.334 -6 -53.001 -8s-39.667 -3 -57 -3s-29.666 0.333008 -36.999 1l-41 -183h-57v5l57 183c-34 6.66699 -59.5 21.334 -76.5 44.001s-28.667 56.834 -35 102.501s-9.5 112.167 -9.5 199.5
c0 104 4.83301 179.833 14.5 227.5s28 80.334 55 98.001s70.167 26.5 129.5 26.5c18 0 37.167 -1.33301 57.5 -4s37.166 -5.66699 50.499 -9v-49c-36 6 -68 9 -96 9c-49.333 0 -83.833 -6.33301 -103.5 -19s-32.667 -38.5 -39 -77.5s-9.5 -106.5 -9.5 -202.5
s3.16699 -163.5 9.5 -202.5s19.333 -64.833 39 -77.5s54.167 -19 103.5 -19c34 0 66.667 3 98 9z" />
    <glyph glyph-name="Egrave" unicode="&#xc8;" horiz-adv-x="432" 
d="M74 0v688h320v-53h-260v-261h226v-52h-226v-269h260v-53h-320zM227 750l-76 135v5h62l55 -135v-5h-41z" />
    <glyph glyph-name="Eacute" unicode="&#xc9;" horiz-adv-x="432" 
d="M74 0v688h320v-53h-260v-261h226v-52h-226v-269h260v-53h-320zM215 750v5l56 135h61v-5l-76 -135h-41z" />
    <glyph glyph-name="Ecircumflex" unicode="&#xca;" horiz-adv-x="432" 
d="M74 0v688h320v-53h-260v-261h226v-52h-226v-269h260v-53h-320zM123 750v5l78 133h65l78 -133v-5h-40l-70 101l-70 -101h-41z" />
    <glyph glyph-name="Edieresis" unicode="&#xcb;" horiz-adv-x="432" 
d="M74 0v688h320v-53h-260v-261h226v-52h-226v-269h260v-53h-320zM119 773v70h57v-70h-57zM295 773v70h57v-70h-57z" />
    <glyph glyph-name="Igrave" unicode="&#xcc;" horiz-adv-x="214" 
d="M78 0v688h58v-688h-58zM97 750l-76 135v5h62l55 -135v-5h-41z" />
    <glyph glyph-name="Iacute" unicode="&#xcd;" horiz-adv-x="214" 
d="M78 0v688h58v-688h-58zM77 750v5l56 135h61v-5l-76 -135h-41z" />
    <glyph glyph-name="Icircumflex" unicode="&#xce;" horiz-adv-x="214" 
d="M78 0v688h58v-688h-58zM-4 750v5l78 133h65l78 -133v-5h-40l-70 101l-70 -101h-41z" />
    <glyph glyph-name="Idieresis" unicode="&#xcf;" horiz-adv-x="214" 
d="M78 0v688h58v-688h-58zM-9 773v70h57v-70h-57zM167 773v70h57v-70h-57z" />
    <glyph glyph-name="Eth" unicode="&#xd0;" horiz-adv-x="498" 
d="M74 323h-58v52h58v313h160c65.333 0 112 -8.33301 140 -25s46.167 -47.5 54.5 -92.5s12.5 -120.5 12.5 -226.5s-4.16699 -181.5 -12.5 -226.5s-26.5 -75.833 -54.5 -92.5s-74.667 -25 -140 -25h-160v323zM334.5 68c19 10 31.667 34 38 72s9.5 106 9.5 204
s-3.33301 166 -10 204s-19.5 62 -38.5 72s-53.5 15 -103.5 15h-97v-260h110v-52h-110v-270h97c50.667 0 85.5 5 104.5 15z" />
    <glyph glyph-name="Ntilde" unicode="&#xd1;" horiz-adv-x="530" 
d="M395 0l-260 559h-4v-559h-56v688h63l257 -554h4v554h57v-688h-61zM392.5 784c-7 -14.667 -22.501 -22.001 -46.501 -22.001c-12.667 0 -25.167 2 -37.5 6s-28.5 10 -48.5 18c-16 7.33301 -29.167 12.833 -39.5 16.5s-20.5 5.5 -30.5 5.5s-16.5 -4 -19.5 -12
s-4.5 -23 -4.5 -45h-37c0 38.667 3.66699 65.5 11 80.5s23 22.5 47 22.5c13.333 0 26.5 -2.16699 39.5 -6.5s29.167 -10.833 48.5 -19.5c16.667 -6.66699 29.834 -11.667 39.501 -15s19.167 -5 28.5 -5c10 0 16.333 3.83301 19 11.5s4 22.834 4 45.501h37
c0 -39.333 -3.5 -66.333 -10.5 -81z" />
    <glyph glyph-name="Ograve" unicode="&#xd2;" horiz-adv-x="521" 
d="M123 18c-27.333 17.333 -45.166 49.002 -53.499 95.002s-12.5 123 -12.5 231s4.16699 185 12.5 231s26.166 77.667 53.499 95s73 26 137 26c64.667 0 110.667 -8.66699 138 -26s45 -48.833 53 -94.5s12 -122.834 12 -231.501s-4 -185.834 -12 -231.501
s-25.667 -77.167 -53 -94.5s-73.333 -26 -138 -26c-64 0 -109.667 8.66699 -137 26zM358 60.502c18 10.333 30.167 35.166 36.5 74.499s9.5 109 9.5 209s-3.16699 169.667 -9.5 209s-18.5 64.166 -36.5 74.499s-50.667 15.5 -98 15.5s-80 -5.16699 -98 -15.5
s-30.167 -35.166 -36.5 -74.499s-9.5 -109 -9.5 -209s3.16699 -169.667 9.5 -209s18.5 -64.166 36.5 -74.499s50.667 -15.5 98 -15.5s80 5.16699 98 15.5zM245 750.002l-76 135v5h62l55 -135v-5h-41z" />
    <glyph glyph-name="Oacute" unicode="&#xd3;" horiz-adv-x="521" 
d="M123 18c-27.333 17.333 -45.166 49.002 -53.499 95.002s-12.5 123 -12.5 231s4.16699 185 12.5 231s26.166 77.667 53.499 95s73 26 137 26c64.667 0 110.667 -8.66699 138 -26s45 -48.833 53 -94.5s12 -122.834 12 -231.501s-4 -185.834 -12 -231.501
s-25.667 -77.167 -53 -94.5s-73.333 -26 -138 -26c-64 0 -109.667 8.66699 -137 26zM358 60.502c18 10.333 30.167 35.166 36.5 74.499s9.5 109 9.5 209s-3.16699 169.667 -9.5 209s-18.5 64.166 -36.5 74.499s-50.667 15.5 -98 15.5s-80 -5.16699 -98 -15.5
s-30.167 -35.166 -36.5 -74.499s-9.5 -109 -9.5 -209s3.16699 -169.667 9.5 -209s18.5 -64.166 36.5 -74.499s50.667 -15.5 98 -15.5s80 5.16699 98 15.5zM233 750.002v5l56 135h61v-5l-76 -135h-41z" />
    <glyph glyph-name="Ocircumflex" unicode="&#xd4;" horiz-adv-x="521" 
d="M123 18c-27.333 17.333 -45.166 49.002 -53.499 95.002s-12.5 123 -12.5 231s4.16699 185 12.5 231s26.166 77.667 53.499 95s73 26 137 26c64.667 0 110.667 -8.66699 138 -26s45 -48.833 53 -94.5s12 -122.834 12 -231.501s-4 -185.834 -12 -231.501
s-25.667 -77.167 -53 -94.5s-73.333 -26 -138 -26c-64 0 -109.667 8.66699 -137 26zM358 60.502c18 10.333 30.167 35.166 36.5 74.499s9.5 109 9.5 209s-3.16699 169.667 -9.5 209s-18.5 64.166 -36.5 74.499s-50.667 15.5 -98 15.5s-80 -5.16699 -98 -15.5
s-30.167 -35.166 -36.5 -74.499s-9.5 -109 -9.5 -209s3.16699 -169.667 9.5 -209s18.5 -64.166 36.5 -74.499s50.667 -15.5 98 -15.5s80 5.16699 98 15.5zM149 750.002v5l78 133h65l78 -133v-5h-40l-70 101l-70 -101h-41z" />
    <glyph glyph-name="Otilde" unicode="&#xd5;" horiz-adv-x="521" 
d="M123 18c-27.333 17.333 -45.166 49.002 -53.499 95.002s-12.5 123 -12.5 231s4.16699 185 12.5 231s26.166 77.667 53.499 95s73 26 137 26c64.667 0 110.667 -8.66699 138 -26s45 -48.833 53 -94.5s12 -122.834 12 -231.501s-4 -185.834 -12 -231.501
s-25.667 -77.167 -53 -94.5s-73.333 -26 -138 -26c-64 0 -109.667 8.66699 -137 26zM358 60.502c18 10.333 30.167 35.166 36.5 74.499s9.5 109 9.5 209s-3.16699 169.667 -9.5 209s-18.5 64.166 -36.5 74.499s-50.667 15.5 -98 15.5s-80 -5.16699 -98 -15.5
s-30.167 -35.166 -36.5 -74.499s-9.5 -109 -9.5 -209s3.16699 -169.667 9.5 -209s18.5 -64.166 36.5 -74.499s50.667 -15.5 98 -15.5s80 5.16699 98 15.5zM386.5 784.002c-7 -14.667 -22.501 -22.001 -46.501 -22.001c-12.667 0 -25.167 2 -37.5 6s-28.5 10 -48.5 18
c-16 7.33301 -29.167 12.833 -39.5 16.5s-20.5 5.5 -30.5 5.5s-16.5 -4 -19.5 -12s-4.5 -23 -4.5 -45h-37c0 38.667 3.66699 65.5 11 80.5s23 22.5 47 22.5c13.333 0 26.5 -2.16699 39.5 -6.5s29.167 -10.833 48.5 -19.5c16.667 -6.66699 29.834 -11.667 39.501 -15
s19.167 -5 28.5 -5c10 0 16.333 3.83301 19 11.5s4 22.834 4 45.501h37c0 -39.333 -3.5 -66.333 -10.5 -81z" />
    <glyph glyph-name="Odieresis" unicode="&#xd6;" horiz-adv-x="521" 
d="M123 18c-27.333 17.333 -45.166 49.002 -53.499 95.002s-12.5 123 -12.5 231s4.16699 185 12.5 231s26.166 77.667 53.499 95s73 26 137 26c64.667 0 110.667 -8.66699 138 -26s45 -48.833 53 -94.5s12 -122.834 12 -231.501s-4 -185.834 -12 -231.501
s-25.667 -77.167 -53 -94.5s-73.333 -26 -138 -26c-64 0 -109.667 8.66699 -137 26zM358 60.502c18 10.333 30.167 35.166 36.5 74.499s9.5 109 9.5 209s-3.16699 169.667 -9.5 209s-18.5 64.166 -36.5 74.499s-50.667 15.5 -98 15.5s-80 -5.16699 -98 -15.5
s-30.167 -35.166 -36.5 -74.499s-9.5 -109 -9.5 -209s3.16699 -169.667 9.5 -209s18.5 -64.166 36.5 -74.499s50.667 -15.5 98 -15.5s80 5.16699 98 15.5zM144 773.002v70h57v-70h-57zM320 773.002v70h57v-70h-57z" />
    <glyph glyph-name="multiply" unicode="&#xd7;" horiz-adv-x="429" 
d="M215 218l-118 -118l-34 34l117 118l-118 119l35 34l118 -118l118 118l34 -35l-118 -118l118 -118l-34 -34z" />
    <glyph glyph-name="Oslash" unicode="&#xd8;" horiz-adv-x="520" 
d="M421 649c17.333 -22 28.667 -55.499 34 -100.499s8 -113.167 8 -204.5c0 -108.667 -4 -185.834 -12 -231.501s-25.667 -77.167 -53 -94.5s-73.333 -26 -138 -26c-55.333 0 -96 5.66699 -122 17l-28 -64h-53l42 95c-17.333 22 -28.666 55.333 -33.999 100
s-8 112.667 -8 204c0 108 4.16699 185 12.5 231s26.166 77.667 53.499 95s73 26 137 26c56 0 96.667 -5.66699 122 -17l28 64h53zM118.501 192.001c1.66699 -36 5.16699 -64.001 10.5 -84.001l231 521c-10 6 -22.333 9.83301 -37 11.5s-35.667 2.5 -63 2.5
c-47.333 0 -80 -5.16699 -98 -15.5s-30.167 -35.166 -36.5 -74.499s-9.5 -109 -9.5 -209c0 -65.333 0.833008 -116 2.5 -152zM401.501 496c-1.66699 36 -5.16699 64.001 -10.5 84.001l-231 -521c10 -6 22.333 -9.83301 37 -11.5s35.667 -2.5 63 -2.5
c47.333 0 80 5.16699 98 15.5s30.167 35.166 36.5 74.499s9.5 109 9.5 209c0 65.333 -0.833008 116 -2.5 152z" />
    <glyph glyph-name="Ugrave" unicode="&#xd9;" horiz-adv-x="517" 
d="M448 688v-391c0 -88.667 -4 -153.167 -12 -193.5s-25 -69 -51 -86s-68 -25.5 -126 -25.5c-58.667 0 -101 8.5 -127 25.5s-43 45.667 -51 86s-12 104.833 -12 193.5v391h58v-424c0 -66 2.5 -113.167 7.5 -141.5s16.5 -48.333 34.5 -60s48 -17.5 90 -17.5
c41.333 0 70.833 5.83301 88.5 17.5s29 31.667 34 60s7.5 75.5 7.5 141.5v424h59zM251 750l-76 135v5h62l55 -135v-5h-41z" />
    <glyph glyph-name="Uacute" unicode="&#xda;" horiz-adv-x="517" 
d="M448 688v-391c0 -88.667 -4 -153.167 -12 -193.5s-25 -69 -51 -86s-68 -25.5 -126 -25.5c-58.667 0 -101 8.5 -127 25.5s-43 45.667 -51 86s-12 104.833 -12 193.5v391h58v-424c0 -66 2.5 -113.167 7.5 -141.5s16.5 -48.333 34.5 -60s48 -17.5 90 -17.5
c41.333 0 70.833 5.83301 88.5 17.5s29 31.667 34 60s7.5 75.5 7.5 141.5v424h59zM235 750v5l56 135h61v-5l-76 -135h-41z" />
    <glyph glyph-name="Ucircumflex" unicode="&#xdb;" horiz-adv-x="517" 
d="M448 688v-391c0 -88.667 -4 -153.167 -12 -193.5s-25 -69 -51 -86s-68 -25.5 -126 -25.5c-58.667 0 -101 8.5 -127 25.5s-43 45.667 -51 86s-12 104.833 -12 193.5v391h58v-424c0 -66 2.5 -113.167 7.5 -141.5s16.5 -48.333 34.5 -60s48 -17.5 90 -17.5
c41.333 0 70.833 5.83301 88.5 17.5s29 31.667 34 60s7.5 75.5 7.5 141.5v424h59zM148 750v5l78 133h65l78 -133v-5h-40l-70 101l-70 -101h-41z" />
    <glyph glyph-name="Udieresis" unicode="&#xdc;" horiz-adv-x="517" 
d="M448 688v-391c0 -88.667 -4 -153.167 -12 -193.5s-25 -69 -51 -86s-68 -25.5 -126 -25.5c-58.667 0 -101 8.5 -127 25.5s-43 45.667 -51 86s-12 104.833 -12 193.5v391h58v-424c0 -66 2.5 -113.167 7.5 -141.5s16.5 -48.333 34.5 -60s48 -17.5 90 -17.5
c41.333 0 70.833 5.83301 88.5 17.5s29 31.667 34 60s7.5 75.5 7.5 141.5v424h59zM142 773v70h57v-70h-57zM318 773v70h57v-70h-57z" />
    <glyph glyph-name="Yacute" unicode="&#xdd;" horiz-adv-x="428" 
d="M184 0v271l-180 417h62l146 -344h6l146 344h60l-181 -417v-271h-59zM194 750v5l56 135h61v-5l-76 -135h-41z" />
    <glyph glyph-name="Thorn" unicode="&#xde;" horiz-adv-x="465" 
d="M74 688l59 -0.000976562v-126h142c46 0 80.5 -9 103.5 -27s37.667 -41.667 44 -71s9.5 -67.333 9.5 -114c0 -45.333 -3.33301 -82.666 -10 -111.999s-21.5 -53.333 -44.5 -72s-57.5 -28 -103.5 -28h-141v-138h-59v688zM262 190.999
c33.333 0 57.832 5.83203 73.499 17.499s25.834 28.334 30.501 50.001s7 52.167 7 91.5c0 40.667 -2.16699 71.667 -6.5 93s-14.333 37.833 -30 49.5s-40.167 17.5 -73.5 17.5h-130v-319h129z" />
    <glyph glyph-name="germandbls" unicode="&#xdf;" horiz-adv-x="465" 
d="M199 0l-0.00195312 49h39c38 0 64.667 4 80 12s25.666 24.333 30.999 49s8 67.334 8 128.001c0 48 -3.16699 84.5 -9.5 109.5s-17.166 42.333 -32.499 52s-37.333 14.5 -66 14.5h-26v49h26c37.333 0 63.666 9 78.999 27s23 48.333 23 91c0 31.333 -3.66699 55.5 -11 72.5
s-19.166 29.167 -35.499 36.5s-39.166 11 -68.499 11c-28 0 -50.167 -4.33301 -66.5 -13s-28.333 -23.5 -36 -44.5s-11.5 -50.5 -11.5 -88.5v-555h-55v554c0 48.667 5.83301 87.167 17.5 115.5s29.834 48.833 54.501 61.5s57.667 19 99 19
c61.333 0 104.833 -12.5 130.5 -37.5s38.5 -67.833 38.5 -128.5c0 -44 -7.33301 -76.667 -22 -98s-38 -35.333 -70 -42v-4c34 -7.33301 58.833 -25.833 74.5 -55.5s23.5 -76.5 23.5 -140.5c0 -64.667 -4 -113.834 -12 -147.501s-23.333 -58.167 -46 -73.5s-57 -23 -103 -23
h-53z" />
    <glyph glyph-name="agrave" unicode="&#xe0;" horiz-adv-x="427" 
d="M95 4.5c-19.333 8.33301 -33.8311 23.168 -43.498 44.501s-14.5 51.333 -14.5 90s3.83301 68.5 11.5 89.5s20.5 36.167 38.5 45.5s43.667 14 77 14c20 0 67.333 -1.66699 142 -5v40c0 45.333 -3 77.833 -9 97.5s-17 32.667 -33 39s-42.333 9.5 -79 9.5
c-16.667 0 -37.334 -1.16699 -62.001 -3.5s-44.667 -5.16602 -60 -8.49902v48c43.333 8.66699 89.333 13 138 13c45.333 0 79.166 -5.5 101.499 -16.5s37.833 -29.833 46.5 -56.5s13 -66.334 13 -119.001v-326h-48l-4 73h-4c-10 -32.667 -26.667 -54.334 -50 -65.001
s-51 -16 -83 -16c-32.667 0 -58.667 4.16699 -78 12.5zM252.502 51.002c17 6.66699 29.501 20.3311 37.501 40.998c6 16.667 10.167 33.834 12.5 51.501s3.5 39.167 3.5 64.5v35h-129c-23.333 0 -40.833 -2.5 -52.5 -7.5s-19.834 -14.5 -24.501 -28.5s-7 -35.667 -7 -65
c0 -28 2.5 -49.167 7.5 -63.5s14 -24.166 27 -29.499s32.833 -8 59.5 -8s48.5 3.33301 65.5 10zM201.003 602.999l-76 135v5h62l55 -135v-5h-41z" />
    <glyph glyph-name="aacute" unicode="&#xe1;" horiz-adv-x="427" 
d="M95 4.5c-19.333 8.33301 -33.8311 23.168 -43.498 44.501s-14.5 51.333 -14.5 90s3.83301 68.5 11.5 89.5s20.5 36.167 38.5 45.5s43.667 14 77 14c20 0 67.333 -1.66699 142 -5v40c0 45.333 -3 77.833 -9 97.5s-17 32.667 -33 39s-42.333 9.5 -79 9.5
c-16.667 0 -37.334 -1.16699 -62.001 -3.5s-44.667 -5.16602 -60 -8.49902v48c43.333 8.66699 89.333 13 138 13c45.333 0 79.166 -5.5 101.499 -16.5s37.833 -29.833 46.5 -56.5s13 -66.334 13 -119.001v-326h-48l-4 73h-4c-10 -32.667 -26.667 -54.334 -50 -65.001
s-51 -16 -83 -16c-32.667 0 -58.667 4.16699 -78 12.5zM252.502 51.002c17 6.66699 29.501 20.3311 37.501 40.998c6 16.667 10.167 33.834 12.5 51.501s3.5 39.167 3.5 64.5v35h-129c-23.333 0 -40.833 -2.5 -52.5 -7.5s-19.834 -14.5 -24.501 -28.5s-7 -35.667 -7 -65
c0 -28 2.5 -49.167 7.5 -63.5s14 -24.166 27 -29.499s32.833 -8 59.5 -8s48.5 3.33301 65.5 10zM184.003 602.999v5l56 135h61v-5l-76 -135h-41z" />
    <glyph glyph-name="acircumflex" unicode="&#xe2;" horiz-adv-x="427" 
d="M95 4.5c-19.333 8.33301 -33.8311 23.168 -43.498 44.501s-14.5 51.333 -14.5 90s3.83301 68.5 11.5 89.5s20.5 36.167 38.5 45.5s43.667 14 77 14c20 0 67.333 -1.66699 142 -5v40c0 45.333 -3 77.833 -9 97.5s-17 32.667 -33 39s-42.333 9.5 -79 9.5
c-16.667 0 -37.334 -1.16699 -62.001 -3.5s-44.667 -5.16602 -60 -8.49902v48c43.333 8.66699 89.333 13 138 13c45.333 0 79.166 -5.5 101.499 -16.5s37.833 -29.833 46.5 -56.5s13 -66.334 13 -119.001v-326h-48l-4 73h-4c-10 -32.667 -26.667 -54.334 -50 -65.001
s-51 -16 -83 -16c-32.667 0 -58.667 4.16699 -78 12.5zM252.502 51.002c17 6.66699 29.501 20.3311 37.501 40.998c6 16.667 10.167 33.834 12.5 51.501s3.5 39.167 3.5 64.5v35h-129c-23.333 0 -40.833 -2.5 -52.5 -7.5s-19.834 -14.5 -24.501 -28.5s-7 -35.667 -7 -65
c0 -28 2.5 -49.167 7.5 -63.5s14 -24.166 27 -29.499s32.833 -8 59.5 -8s48.5 3.33301 65.5 10zM103.003 604.999v5l78 133h65l78 -133v-5h-40l-70 101l-70 -101h-41z" />
    <glyph glyph-name="atilde" unicode="&#xe3;" horiz-adv-x="427" 
d="M95 4.5c-19.333 8.33301 -33.8311 23.168 -43.498 44.501s-14.5 51.333 -14.5 90s3.83301 68.5 11.5 89.5s20.5 36.167 38.5 45.5s43.667 14 77 14c20 0 67.333 -1.66699 142 -5v40c0 45.333 -3 77.833 -9 97.5s-17 32.667 -33 39s-42.333 9.5 -79 9.5
c-16.667 0 -37.334 -1.16699 -62.001 -3.5s-44.667 -5.16602 -60 -8.49902v48c43.333 8.66699 89.333 13 138 13c45.333 0 79.166 -5.5 101.499 -16.5s37.833 -29.833 46.5 -56.5s13 -66.334 13 -119.001v-326h-48l-4 73h-4c-10 -32.667 -26.667 -54.334 -50 -65.001
s-51 -16 -83 -16c-32.667 0 -58.667 4.16699 -78 12.5zM252.502 51.002c17 6.66699 29.501 20.3311 37.501 40.998c6 16.667 10.167 33.834 12.5 51.501s3.5 39.167 3.5 64.5v35h-129c-23.333 0 -40.833 -2.5 -52.5 -7.5s-19.834 -14.5 -24.501 -28.5s-7 -35.667 -7 -65
c0 -28 2.5 -49.167 7.5 -63.5s14 -24.166 27 -29.499s32.833 -8 59.5 -8s48.5 3.33301 65.5 10zM339.503 661.999c-7 -14.667 -22.501 -22.001 -46.501 -22.001c-12.667 0 -25.167 2 -37.5 6s-28.5 10 -48.5 18c-16 7.33301 -29.167 12.833 -39.5 16.5s-20.5 5.5 -30.5 5.5
s-16.5 -4 -19.5 -12s-4.5 -23 -4.5 -45h-37c0 38.667 3.66699 65.5 11 80.5s23 22.5 47 22.5c13.333 0 26.5 -2.16699 39.5 -6.5s29.167 -10.833 48.5 -19.5c16.667 -6.66699 29.834 -11.667 39.501 -15s19.167 -5 28.5 -5c10 0 16.333 3.83301 19 11.5s4 22.834 4 45.501
h37c0 -39.333 -3.5 -66.333 -10.5 -81z" />
    <glyph glyph-name="adieresis" unicode="&#xe4;" horiz-adv-x="427" 
d="M95 4.5c-19.333 8.33301 -33.8311 23.168 -43.498 44.501s-14.5 51.333 -14.5 90s3.83301 68.5 11.5 89.5s20.5 36.167 38.5 45.5s43.667 14 77 14c20 0 67.333 -1.66699 142 -5v40c0 45.333 -3 77.833 -9 97.5s-17 32.667 -33 39s-42.333 9.5 -79 9.5
c-16.667 0 -37.334 -1.16699 -62.001 -3.5s-44.667 -5.16602 -60 -8.49902v48c43.333 8.66699 89.333 13 138 13c45.333 0 79.166 -5.5 101.499 -16.5s37.833 -29.833 46.5 -56.5s13 -66.334 13 -119.001v-326h-48l-4 73h-4c-10 -32.667 -26.667 -54.334 -50 -65.001
s-51 -16 -83 -16c-32.667 0 -58.667 4.16699 -78 12.5zM252.502 51.002c17 6.66699 29.501 20.3311 37.501 40.998c6 16.667 10.167 33.834 12.5 51.501s3.5 39.167 3.5 64.5v35h-129c-23.333 0 -40.833 -2.5 -52.5 -7.5s-19.834 -14.5 -24.501 -28.5s-7 -35.667 -7 -65
c0 -28 2.5 -49.167 7.5 -63.5s14 -24.166 27 -29.499s32.833 -8 59.5 -8s48.5 3.33301 65.5 10zM98.0029 658.999v70h57v-70h-57zM274.003 658.999v70h57v-70h-57z" />
    <glyph glyph-name="aring" unicode="&#xe5;" horiz-adv-x="427" 
d="M95 4.5c-19.333 8.33301 -33.8311 23.168 -43.498 44.501s-14.5 51.333 -14.5 90s3.83301 68.5 11.5 89.5s20.5 36.167 38.5 45.5s43.667 14 77 14c20 0 67.333 -1.66699 142 -5v40c0 45.333 -3 77.833 -9 97.5s-17 32.667 -33 39s-42.333 9.5 -79 9.5
c-16.667 0 -37.334 -1.16699 -62.001 -3.5s-44.667 -5.16602 -60 -8.49902v48c43.333 8.66699 89.333 13 138 13c45.333 0 79.166 -5.5 101.499 -16.5s37.833 -29.833 46.5 -56.5s13 -66.334 13 -119.001v-326h-48l-4 73h-4c-10 -32.667 -26.667 -54.334 -50 -65.001
s-51 -16 -83 -16c-32.667 0 -58.667 4.16699 -78 12.5zM252.502 51.002c17 6.66699 29.501 20.3311 37.501 40.998c6 16.667 10.167 33.834 12.5 51.501s3.5 39.167 3.5 64.5v35h-129c-23.333 0 -40.833 -2.5 -52.5 -7.5s-19.834 -14.5 -24.501 -28.5s-7 -35.667 -7 -65
c0 -28 2.5 -49.167 7.5 -63.5s14 -24.166 27 -29.499s32.833 -8 59.5 -8s48.5 3.33301 65.5 10zM147.503 616.999c-13.667 6 -22.5 15.167 -26.5 27.5s-6 31.166 -6 56.499s2 44.333 6 57s12.833 22 26.5 28s35.5 9 65.5 9s51.833 -3 65.5 -9s22.5 -15.333 26.5 -28
s6 -31.667 6 -57s-2 -44.166 -6 -56.499s-12.833 -21.5 -26.5 -27.5s-35.5 -9 -65.5 -9s-51.833 3 -65.5 9zM250.503 647.999c7.66699 3.33301 12.667 8.82715 15 16.4941s3.5 19.834 3.5 36.501s-1.16699 28.834 -3.5 36.501s-7.33301 13.167 -15 16.5s-20.167 5 -37.5 5
s-29.833 -1.66699 -37.5 -5s-12.5 -8.66602 -14.5 -15.999s-3 -19.666 -3 -36.999s1 -29.666 3 -36.999s6.83301 -12.666 14.5 -15.999s20.167 -5 37.5 -5s29.833 1.66699 37.5 5z" />
    <glyph glyph-name="ae" unicode="&#xe6;" horiz-adv-x="685" 
d="M634 239h-271.996c0 -58.667 2.66699 -101.167 8 -127.5s16.833 -44.666 34.5 -54.999s46.5 -15.5 86.5 -15.5c20 0 42 1.16699 66 3.5s45 5.5 63 9.5v-48c-15.333 -4 -36 -7.33301 -62 -10s-51.333 -4 -76 -4c-44.667 0 -78.834 6.16699 -102.501 18.5
s-40.834 33.833 -51.501 64.5c-12.667 -34 -31.834 -56.333 -57.501 -67s-56.167 -16 -91.5 -16c-34.667 0 -62 4.16699 -82 12.5s-35 23.166 -45 44.499s-15 51.333 -15 90c0 38 3.83301 67.333 11.5 88s20.5 35.5 38.5 44.5s43.667 13.5 77 13.5l142 -1v39
c0 45.333 -3 77.833 -9 97.5s-17 32.667 -33 39s-42.333 9.5 -79 9.5c-16.667 0 -37.5 -1.16699 -62.5 -3.5s-45.167 -5.16602 -60.5 -8.49902v48c44.667 8.66699 91 13 139 13c38 0 67.5 -4.5 88.5 -13.5s36.833 -24.5 47.5 -46.5
c11.333 21.333 28.166 36.666 50.499 45.999s52.833 14 91.5 14c48.667 0 83.667 -7.83301 105 -23.5s35 -40.5 41 -74.5s9 -88 9 -162v-19zM400.004 456c-15.333 -8.66699 -25.332 -25.168 -29.999 -49.501s-7.33398 -65.166 -8.00098 -122.499h217v12
c0 52 -2.83301 90 -8.5 114s-15.5 39.833 -29.5 47.5s-35.333 11.5 -64 11.5c-36 0 -61.667 -4.33301 -77 -13zM306.005 238.999h-129.999c-24 0 -41.667 -2.33301 -53 -7s-19.333 -13.667 -24 -27s-7 -34.333 -7 -63s2.5 -50 7.5 -64s14.167 -23.667 27.5 -29
s33.333 -8 60 -8c27.333 0 49.666 3.5 66.999 10.5s30 22.167 38 45.5c9.33301 27.333 14 64 14 110v32z" />
    <glyph glyph-name="ccedilla" unicode="&#xe7;" horiz-adv-x="352" 
d="M270.5 44.5c17.667 2.33301 32.8301 5.16211 45.4971 8.49512v-48c-12 -4 -27.667 -7.16699 -47 -9.5s-38.333 -3.5 -57 -3.5h-17l-41 -182h-57v5l57 182c-30.667 6.66699 -53.5 19.834 -68.5 39.501s-24.667 45.834 -29 78.501s-6.5 79 -6.5 139
c0 71.333 4.16699 125.333 12.5 162s23.666 62.834 45.999 78.501s55.833 23.5 100.5 23.5c17.333 0 35.833 -1.16699 55.5 -3.5s35.834 -5.16602 48.501 -8.49902v-48c-33.333 7.33301 -64.333 11 -93 11c-34 0 -58.833 -5.66699 -74.5 -17s-26.167 -31.333 -31.5 -60
s-8 -74 -8 -136c0 -63.333 2.83301 -109.666 8.5 -138.999s16.334 -49.333 32.001 -60s40.834 -16 75.501 -16c14.667 0 30.834 1.16699 48.501 3.5z" />
    <glyph glyph-name="egrave" unicode="&#xe8;" horiz-adv-x="429" 
d="M378 236h-272c0 -58 2.66699 -99.833 8 -125.5s16.833 -43.667 34.5 -54s46.5 -15.5 86.5 -15.5c20 0 42 1.16699 66 3.5s45 5.5 63 9.5v-48c-15.333 -4 -36 -7.33301 -62 -10s-51.333 -4 -76 -4c-52.667 0 -91.167 7.5 -115.5 22.5s-40.5 40.333 -48.5 76
s-12 90.167 -12 163.5c0 74 3.33301 128.333 10 163s22 60.167 46 76.5s63 24.5 117 24.5c48.667 0 83.667 -7.83301 105 -23.5s35 -40.667 41 -75s9 -88.833 9 -163.5v-20zM144.5 455.5c-15.667 -9 -25.832 -25.833 -30.499 -50.5s-7.33398 -66 -8.00098 -124h217v15
c0 52 -2.83301 90 -8.5 114s-15.5 39.833 -29.5 47.5s-35.333 11.5 -64 11.5c-35.333 0 -60.833 -4.5 -76.5 -13.5zM206.002 603l-76 135v5h62l55 -135v-5h-41z" />
    <glyph glyph-name="eacute" unicode="&#xe9;" horiz-adv-x="429" 
d="M378 236h-272c0 -58 2.66699 -99.833 8 -125.5s16.833 -43.667 34.5 -54s46.5 -15.5 86.5 -15.5c20 0 42 1.16699 66 3.5s45 5.5 63 9.5v-48c-15.333 -4 -36 -7.33301 -62 -10s-51.333 -4 -76 -4c-52.667 0 -91.167 7.5 -115.5 22.5s-40.5 40.333 -48.5 76
s-12 90.167 -12 163.5c0 74 3.33301 128.333 10 163s22 60.167 46 76.5s63 24.5 117 24.5c48.667 0 83.667 -7.83301 105 -23.5s35 -40.667 41 -75s9 -88.833 9 -163.5v-20zM144.5 455.5c-15.667 -9 -25.832 -25.833 -30.499 -50.5s-7.33398 -66 -8.00098 -124h217v15
c0 52 -2.83301 90 -8.5 114s-15.5 39.833 -29.5 47.5s-35.333 11.5 -64 11.5c-35.333 0 -60.833 -4.5 -76.5 -13.5zM196.002 603v5l56 135h61v-5l-76 -135h-41z" />
    <glyph glyph-name="ecircumflex" unicode="&#xea;" horiz-adv-x="429" 
d="M378 236h-272c0 -58 2.66699 -99.833 8 -125.5s16.833 -43.667 34.5 -54s46.5 -15.5 86.5 -15.5c20 0 42 1.16699 66 3.5s45 5.5 63 9.5v-48c-15.333 -4 -36 -7.33301 -62 -10s-51.333 -4 -76 -4c-52.667 0 -91.167 7.5 -115.5 22.5s-40.5 40.333 -48.5 76
s-12 90.167 -12 163.5c0 74 3.33301 128.333 10 163s22 60.167 46 76.5s63 24.5 117 24.5c48.667 0 83.667 -7.83301 105 -23.5s35 -40.667 41 -75s9 -88.833 9 -163.5v-20zM144.5 455.5c-15.667 -9 -25.832 -25.833 -30.499 -50.5s-7.33398 -66 -8.00098 -124h217v15
c0 52 -2.83301 90 -8.5 114s-15.5 39.833 -29.5 47.5s-35.333 11.5 -64 11.5c-35.333 0 -60.833 -4.5 -76.5 -13.5zM106.002 605v5l78 133h65l78 -133v-5h-40l-70 101l-70 -101h-41z" />
    <glyph glyph-name="edieresis" unicode="&#xeb;" horiz-adv-x="429" 
d="M378 236h-272c0 -58 2.66699 -99.833 8 -125.5s16.833 -43.667 34.5 -54s46.5 -15.5 86.5 -15.5c20 0 42 1.16699 66 3.5s45 5.5 63 9.5v-48c-15.333 -4 -36 -7.33301 -62 -10s-51.333 -4 -76 -4c-52.667 0 -91.167 7.5 -115.5 22.5s-40.5 40.333 -48.5 76
s-12 90.167 -12 163.5c0 74 3.33301 128.333 10 163s22 60.167 46 76.5s63 24.5 117 24.5c48.667 0 83.667 -7.83301 105 -23.5s35 -40.667 41 -75s9 -88.833 9 -163.5v-20zM144.5 455.5c-15.667 -9 -25.832 -25.833 -30.499 -50.5s-7.33398 -66 -8.00098 -124h217v15
c0 52 -2.83301 90 -8.5 114s-15.5 39.833 -29.5 47.5s-35.333 11.5 -64 11.5c-35.333 0 -60.833 -4.5 -76.5 -13.5zM102.002 659v70h57v-70h-57zM278.002 659v70h57v-70h-57z" />
    <glyph glyph-name="igrave" unicode="&#xec;" horiz-adv-x="190" 
d="M67 0v510h56v-510h-56zM83 603l-76 135v5h62l55 -135v-5h-41z" />
    <glyph glyph-name="iacute" unicode="&#xed;" horiz-adv-x="190" 
d="M67 0v510h56v-510h-56zM67 603v5l56 135h61v-5l-76 -135h-41z" />
    <glyph glyph-name="icircumflex" unicode="&#xee;" horiz-adv-x="190" 
d="M67 0v510h56v-510h-56zM-15 605v5l78 133h65l78 -133v-5h-40l-70 101l-70 -101h-41z" />
    <glyph glyph-name="idieresis" unicode="&#xef;" horiz-adv-x="190" 
d="M67 0v510h56v-510h-56zM-21 659v70h57v-70h-57zM155 659v70h57v-70h-57z" />
    <glyph glyph-name="eth" unicode="&#xf0;" horiz-adv-x="442" 
d="M105 13.5c-23.333 14.333 -38.335 38.6689 -45.002 73.002s-10 90.166 -10 167.499c0 76.667 3.16699 132.334 9.5 167.001s20.5 59.5 42.5 74.5s58.333 22.5 109 22.5c44 0 77.333 -10.333 100 -31l4 2c-14.667 58 -32.667 107 -54 147l-100 -16v43l77 12
c-10 14.667 -26.667 36 -50 64v4h62c18.667 -21.333 33.667 -41 45 -59l81 13v-42l-58 -10c15.333 -32 28.5 -67.667 39.5 -107s18.833 -78.333 23.5 -117c6 -42.667 9 -91.334 9 -146.001c0 -86 -2.83301 -146.833 -8.5 -182.5s-20.167 -61.334 -43.5 -77.001
s-62.666 -23.5 -117.999 -23.5c-53.333 0 -91.666 7.16699 -114.999 21.5zM300.998 57.5029c15.333 11 24.667 29.499 28 55.499s5 73 5 141c0 60.667 -1.83301 104.5 -5.5 131.5s-13.5 47.667 -29.5 62s-42.333 21.5 -79 21.5c-38.667 0 -65.667 -5.16699 -81 -15.5
s-24.666 -28.666 -27.999 -54.999s-5 -74.5 -5 -144.5c0 -68 1.66699 -115 5 -141s12.666 -44.5 27.999 -55.5s42.333 -16.5 81 -16.5s65.667 5.5 81 16.5z" />
    <glyph glyph-name="ntilde" unicode="&#xf1;" horiz-adv-x="455" 
d="M334 304c0 50 -2.33105 86.001 -6.99805 108.001s-13.834 36.667 -27.501 44s-35.5 11 -65.5 11c-34.667 0 -59.834 -8.16699 -75.501 -24.5s-25.5 -37.833 -29.5 -64.5s-6 -64.667 -6 -114v-264h-56v510h48l4 -73h5c8 25.333 21.667 45.166 41 59.499s49 21.5 89 21.5
c38.667 0 67.667 -6.5 87 -19.5s32.333 -33.167 39 -60.5s10 -66.333 10 -117v-321h-56v304zM357.502 662.001c-7 -14.667 -22.501 -22.001 -46.501 -22.001c-12.667 0 -25.167 2 -37.5 6s-28.5 10 -48.5 18c-16 7.33301 -29.167 12.833 -39.5 16.5s-20.5 5.5 -30.5 5.5
s-16.5 -4 -19.5 -12s-4.5 -23 -4.5 -45h-37c0 38.667 3.66699 65.5 11 80.5s23 22.5 47 22.5c13.333 0 26.5 -2.16699 39.5 -6.5s29.167 -10.833 48.5 -19.5c16.667 -6.66699 29.834 -11.667 39.501 -15s19.167 -5 28.5 -5c10 0 16.333 3.83301 19 11.5s4 22.834 4 45.501
h37c0 -39.333 -3.5 -66.333 -10.5 -81z" />
    <glyph glyph-name="ograve" unicode="&#xf2;" horiz-adv-x="441" 
d="M105.5 13c-23 14 -38 38.167 -45 72.5s-10.5 90.5 -10.5 168.5c0 78.667 3.5 135.334 10.5 170.001s22 59 45 73s61.167 21 114.5 21s91.666 -7 114.999 -21s38.333 -38.333 45 -73s10 -91.334 10 -170.001c0 -78 -3.33301 -134.167 -10 -168.5s-21.667 -58.5 -45 -72.5
s-61.666 -21 -114.999 -21s-91.5 7 -114.5 21zM299.5 56c15 10 24.498 28.5 28.498 55.5s6 74.5 6 142.5s-2 115.667 -6 143s-13.667 46.166 -29 56.499s-41.666 15.5 -78.999 15.5s-63.666 -5.16699 -78.999 -15.5s-25 -29.166 -29 -56.499s-6 -75 -6 -143
s2 -115.5 6 -142.5s13.5 -45.5 28.5 -55.5s41.5 -15 79.5 -15s64.5 5 79.5 15zM207.998 603l-76 135v5h62l55 -135v-5h-41z" />
    <glyph glyph-name="oacute" unicode="&#xf3;" horiz-adv-x="441" 
d="M105.5 13c-23 14 -38 38.167 -45 72.5s-10.5 90.5 -10.5 168.5c0 78.667 3.5 135.334 10.5 170.001s22 59 45 73s61.167 21 114.5 21s91.666 -7 114.999 -21s38.333 -38.333 45 -73s10 -91.334 10 -170.001c0 -78 -3.33301 -134.167 -10 -168.5s-21.667 -58.5 -45 -72.5
s-61.666 -21 -114.999 -21s-91.5 7 -114.5 21zM299.5 56c15 10 24.498 28.5 28.498 55.5s6 74.5 6 142.5s-2 115.667 -6 143s-13.667 46.166 -29 56.499s-41.666 15.5 -78.999 15.5s-63.666 -5.16699 -78.999 -15.5s-25 -29.166 -29 -56.499s-6 -75 -6 -143
s2 -115.5 6 -142.5s13.5 -45.5 28.5 -55.5s41.5 -15 79.5 -15s64.5 5 79.5 15zM188.998 603v5l56 135h61v-5l-76 -135h-41z" />
    <glyph glyph-name="ocircumflex" unicode="&#xf4;" horiz-adv-x="441" 
d="M105.5 13c-23 14 -38 38.167 -45 72.5s-10.5 90.5 -10.5 168.5c0 78.667 3.5 135.334 10.5 170.001s22 59 45 73s61.167 21 114.5 21s91.666 -7 114.999 -21s38.333 -38.333 45 -73s10 -91.334 10 -170.001c0 -78 -3.33301 -134.167 -10 -168.5s-21.667 -58.5 -45 -72.5
s-61.666 -21 -114.999 -21s-91.5 7 -114.5 21zM299.5 56c15 10 24.498 28.5 28.498 55.5s6 74.5 6 142.5s-2 115.667 -6 143s-13.667 46.166 -29 56.499s-41.666 15.5 -78.999 15.5s-63.666 -5.16699 -78.999 -15.5s-25 -29.166 -29 -56.499s-6 -75 -6 -143
s2 -115.5 6 -142.5s13.5 -45.5 28.5 -55.5s41.5 -15 79.5 -15s64.5 5 79.5 15zM110.998 605v5l78 133h65l78 -133v-5h-40l-70 101l-70 -101h-41z" />
    <glyph glyph-name="otilde" unicode="&#xf5;" horiz-adv-x="441" 
d="M105.5 13c-23 14 -38 38.167 -45 72.5s-10.5 90.5 -10.5 168.5c0 78.667 3.5 135.334 10.5 170.001s22 59 45 73s61.167 21 114.5 21s91.666 -7 114.999 -21s38.333 -38.333 45 -73s10 -91.334 10 -170.001c0 -78 -3.33301 -134.167 -10 -168.5s-21.667 -58.5 -45 -72.5
s-61.666 -21 -114.999 -21s-91.5 7 -114.5 21zM299.5 56c15 10 24.498 28.5 28.498 55.5s6 74.5 6 142.5s-2 115.667 -6 143s-13.667 46.166 -29 56.499s-41.666 15.5 -78.999 15.5s-63.666 -5.16699 -78.999 -15.5s-25 -29.166 -29 -56.499s-6 -75 -6 -143
s2 -115.5 6 -142.5s13.5 -45.5 28.5 -55.5s41.5 -15 79.5 -15s64.5 5 79.5 15zM346.498 662c-7 -14.667 -22.501 -22.001 -46.501 -22.001c-12.667 0 -25.167 2 -37.5 6s-28.5 10 -48.5 18c-16 7.33301 -29.167 12.833 -39.5 16.5s-20.5 5.5 -30.5 5.5s-16.5 -4 -19.5 -12
s-4.5 -23 -4.5 -45h-37c0 38.667 3.66699 65.5 11 80.5s23 22.5 47 22.5c13.333 0 26.5 -2.16699 39.5 -6.5s29.167 -10.833 48.5 -19.5c16.667 -6.66699 29.834 -11.667 39.501 -15s19.167 -5 28.5 -5c10 0 16.333 3.83301 19 11.5s4 22.834 4 45.501h37
c0 -39.333 -3.5 -66.333 -10.5 -81z" />
    <glyph glyph-name="odieresis" unicode="&#xf6;" horiz-adv-x="441" 
d="M105.5 13c-23 14 -38 38.167 -45 72.5s-10.5 90.5 -10.5 168.5c0 78.667 3.5 135.334 10.5 170.001s22 59 45 73s61.167 21 114.5 21s91.666 -7 114.999 -21s38.333 -38.333 45 -73s10 -91.334 10 -170.001c0 -78 -3.33301 -134.167 -10 -168.5s-21.667 -58.5 -45 -72.5
s-61.666 -21 -114.999 -21s-91.5 7 -114.5 21zM299.5 56c15 10 24.498 28.5 28.498 55.5s6 74.5 6 142.5s-2 115.667 -6 143s-13.667 46.166 -29 56.499s-41.666 15.5 -78.999 15.5s-63.666 -5.16699 -78.999 -15.5s-25 -29.166 -29 -56.499s-6 -75 -6 -143
s2 -115.5 6 -142.5s13.5 -45.5 28.5 -55.5s41.5 -15 79.5 -15s64.5 5 79.5 15zM104.998 659v70h57v-70h-57zM280.998 659v70h57v-70h-57z" />
    <glyph glyph-name="divide" unicode="&#xf7;" horiz-adv-x="485" 
d="M214 391v63h56v-63h-56zM63 229v48h359v-48h-359zM214 51v64h56v-64h-56z" />
    <glyph glyph-name="oslash" unicode="&#xf8;" horiz-adv-x="441" 
d="M352 483c16 -16.667 26.332 -41.6689 30.999 -75.002s7 -84.666 7 -153.999c0 -78 -3.33301 -134.167 -10 -168.5s-21.667 -58.5 -45 -72.5s-61.666 -21 -114.999 -21c-40 0 -70.667 3.66699 -92 11l-27 -58h-51l38 82c-16 16.667 -26.333 41.667 -31 75s-7 84 -7 152
c0 78.667 3.5 135.334 10.5 170.001s22 59 45 73s61.167 21 114.5 21c40 0 70.667 -3.66699 92 -11l27 58h51zM107.499 143.498c1 -23 3.83203 -41.834 8.49902 -56.501l174 373c-14 6 -37.333 9 -70 9c-37.333 0 -63.666 -5.16699 -78.999 -15.5s-25 -29.166 -29 -56.499
s-6 -75 -6 -143c0 -50.667 0.5 -87.5 1.5 -110.5zM331.998 365.497c-1.33301 23.667 -4.33301 42.499 -9 56.499l-173 -373c14 -5.33301 37.333 -8 70 -8c38 0 64.5 5 79.5 15s24.5 28.5 28.5 55.5s6 74.5 6 142.5c0 50.667 -0.666992 87.834 -2 111.501z" />
    <glyph glyph-name="ugrave" unicode="&#xf9;" horiz-adv-x="455" 
d="M336 73l-4.99805 -0.000976562c-8 -25.333 -21.833 -45.166 -41.5 -59.499s-49.167 -21.5 -88.5 -21.5c-38.667 0 -67.834 6.5 -87.501 19.5s-32.834 33.167 -39.501 60.5s-10 66.333 -10 117v321h56v-304c0 -50 2.5 -86 7.5 -108s14.167 -36.667 27.5 -44
s35.333 -11 66 -11c34 0 59 8.16699 75 24.5s25.833 37.833 29.5 64.5s5.5 64.667 5.5 114v264h56v-510h-47zM215.002 602.999l-76 135v5h62l55 -135v-5h-41z" />
    <glyph glyph-name="uacute" unicode="&#xfa;" horiz-adv-x="455" 
d="M336 73l-4.99805 -0.000976562c-8 -25.333 -21.833 -45.166 -41.5 -59.499s-49.167 -21.5 -88.5 -21.5c-38.667 0 -67.834 6.5 -87.501 19.5s-32.834 33.167 -39.501 60.5s-10 66.333 -10 117v321h56v-304c0 -50 2.5 -86 7.5 -108s14.167 -36.667 27.5 -44
s35.333 -11 66 -11c34 0 59 8.16699 75 24.5s25.833 37.833 29.5 64.5s5.5 64.667 5.5 114v264h56v-510h-47zM204.002 602.999v5l56 135h61v-5l-76 -135h-41z" />
    <glyph glyph-name="ucircumflex" unicode="&#xfb;" horiz-adv-x="455" 
d="M336 73l-4.99805 -0.000976562c-8 -25.333 -21.833 -45.166 -41.5 -59.499s-49.167 -21.5 -88.5 -21.5c-38.667 0 -67.834 6.5 -87.501 19.5s-32.834 33.167 -39.501 60.5s-10 66.333 -10 117v321h56v-304c0 -50 2.5 -86 7.5 -108s14.167 -36.667 27.5 -44
s35.333 -11 66 -11c34 0 59 8.16699 75 24.5s25.833 37.833 29.5 64.5s5.5 64.667 5.5 114v264h56v-510h-47zM116.002 604.999v5l78 133h65l78 -133v-5h-40l-70 101l-70 -101h-41z" />
    <glyph glyph-name="udieresis" unicode="&#xfc;" horiz-adv-x="455" 
d="M336 73l-4.99805 -0.000976562c-8 -25.333 -21.833 -45.166 -41.5 -59.499s-49.167 -21.5 -88.5 -21.5c-38.667 0 -67.834 6.5 -87.501 19.5s-32.834 33.167 -39.501 60.5s-10 66.333 -10 117v321h56v-304c0 -50 2.5 -86 7.5 -108s14.167 -36.667 27.5 -44
s35.333 -11 66 -11c34 0 59 8.16699 75 24.5s25.833 37.833 29.5 64.5s5.5 64.667 5.5 114v264h56v-510h-47zM109.002 658.999v70h57v-70h-57zM285.002 658.999v70h57v-70h-57z" />
    <glyph glyph-name="yacute" unicode="&#xfd;" horiz-adv-x="455" 
d="M77 -194l-0.000976562 47.998c46.667 -2.66699 86.667 -4 120 -4c40.667 0 70.5 6.33301 89.5 19s31.167 32.5 36.5 59.5s8 67.5 8 121.5v17h-4c-8 -22.667 -21.333 -40.667 -40 -54s-48 -20 -88 -20c-38.667 0 -67.5 6.66699 -86.5 20s-31.833 34 -38.5 62
s-10 68 -10 120v315h56v-304c0 -49.333 2.5 -85 7.5 -107s14.167 -36.667 27.5 -44s35.333 -11 66 -11c34.667 0 59.834 8 75.501 24s25.334 37.167 29.001 63.5s5.5 64.5 5.5 114.5v264h56v-438c0 -71.333 -4.33301 -125.666 -13 -162.999s-25.834 -64.666 -51.501 -81.999
s-64.5 -26 -116.5 -26c-46 0 -89 1.66699 -129 5zM204.999 602.998v5l56 135h61v-5l-76 -135h-41z" />
    <glyph glyph-name="thorn" unicode="&#xfe;" horiz-adv-x="452" 
d="M67 743l55.999 0.00390625v-299h5c8.66699 26.667 23.167 45.667 43.5 57s46.833 17 79.5 17c42 0 73.5 -7.33301 94.5 -22s35.5 -40.334 43.5 -77.001s12 -91.334 12 -164.001s-4 -127.334 -12 -164.001s-22.5 -62.334 -43.5 -77.001s-52.167 -22 -93.5 -22
c-33.333 0 -60.166 5.66699 -80.499 17s-34.833 30 -43.5 56h-5v-255h-56v933zM307.499 57.5039c15 9.66699 25 28.668 30 57.001s7.5 75.166 7.5 140.499s-2.5 112.166 -7.5 140.499s-15 47.333 -30 57s-39.833 14.5 -74.5 14.5c-28 0 -50.167 -5.83301 -66.5 -17.5
s-27.833 -31.167 -34.5 -58.5c-4 -15.333 -6.5 -33.666 -7.5 -54.999s-1.5 -48.333 -1.5 -81c0 -60.667 2.66699 -102.667 8 -126c6.66699 -31.333 18 -53.5 34 -66.5s38.667 -19.5 68 -19.5c34.667 0 59.5 4.83301 74.5 14.5z" />
    <glyph glyph-name="ydieresis" unicode="&#xff;" horiz-adv-x="455" 
d="M77 -194l-0.000976562 47.998c46.667 -2.66699 86.667 -4 120 -4c40.667 0 70.5 6.33301 89.5 19s31.167 32.5 36.5 59.5s8 67.5 8 121.5v17h-4c-8 -22.667 -21.333 -40.667 -40 -54s-48 -20 -88 -20c-38.667 0 -67.5 6.66699 -86.5 20s-31.833 34 -38.5 62
s-10 68 -10 120v315h56v-304c0 -49.333 2.5 -85 7.5 -107s14.167 -36.667 27.5 -44s35.333 -11 66 -11c34.667 0 59.834 8 75.501 24s25.334 37.167 29.001 63.5s5.5 64.5 5.5 114.5v264h56v-438c0 -71.333 -4.33301 -125.666 -13 -162.999s-25.834 -64.666 -51.501 -81.999
s-64.5 -26 -116.5 -26c-46 0 -89 1.66699 -129 5zM108.999 658.998v70h57v-70h-57zM284.999 658.998v70h57v-70h-57z" />
    <glyph glyph-name="Amacron" unicode="&#x100;" horiz-adv-x="493" 
d="M411 0l-54 203h-223l-53 -203h-60l189 688h73l189 -688h-61zM248 608h-5l-94 -353h193zM151 834v54h191v-54h-191z" />
    <glyph glyph-name="amacron" unicode="&#x101;" horiz-adv-x="427" 
d="M95 4.5c-19.333 8.33301 -33.8311 23.168 -43.498 44.501s-14.5 51.333 -14.5 90s3.83301 68.5 11.5 89.5s20.5 36.167 38.5 45.5s43.667 14 77 14c20 0 67.333 -1.66699 142 -5v40c0 45.333 -3 77.833 -9 97.5s-17 32.667 -33 39s-42.333 9.5 -79 9.5
c-16.667 0 -37.334 -1.16699 -62.001 -3.5s-44.667 -5.16602 -60 -8.49902v48c43.333 8.66699 89.333 13 138 13c45.333 0 79.166 -5.5 101.499 -16.5s37.833 -29.833 46.5 -56.5s13 -66.334 13 -119.001v-326h-48l-4 73h-4c-10 -32.667 -26.667 -54.334 -50 -65.001
s-51 -16 -83 -16c-32.667 0 -58.667 4.16699 -78 12.5zM252.502 51.002c17 6.66699 29.501 20.3311 37.501 40.998c6 16.667 10.167 33.834 12.5 51.501s3.5 39.167 3.5 64.5v35h-129c-23.333 0 -40.833 -2.5 -52.5 -7.5s-19.834 -14.5 -24.501 -28.5s-7 -35.667 -7 -65
c0 -28 2.5 -49.167 7.5 -63.5s14 -24.166 27 -29.499s32.833 -8 59.5 -8s48.5 3.33301 65.5 10zM118.003 688.999v54h191v-54h-191z" />
    <glyph glyph-name="Abreve" unicode="&#x102;" horiz-adv-x="493" 
d="M411 0l-54 203h-223l-53 -203h-60l189 688h73l189 -688h-61zM248 608h-5l-94 -353h193zM348.5 809.5c-4.33301 -19 -14.332 -34.167 -29.999 -45.5s-40.167 -17 -73.5 -17s-57.666 5.66699 -72.999 17s-25 26.333 -29 45s-6 45 -6 79h43
c0 -27.333 1.16699 -47.666 3.5 -60.999s8 -23.666 17 -30.999s23.833 -11 44.5 -11c21.333 0 36.666 3.66699 45.999 11s15.166 17.666 17.499 30.999s3.5 33.666 3.5 60.999h43c0 -33.333 -2.16699 -59.5 -6.5 -78.5z" />
    <glyph glyph-name="abreve" unicode="&#x103;" horiz-adv-x="427" 
d="M95 4.5c-19.333 8.33301 -33.8311 23.168 -43.498 44.501s-14.5 51.333 -14.5 90s3.83301 68.5 11.5 89.5s20.5 36.167 38.5 45.5s43.667 14 77 14c20 0 67.333 -1.66699 142 -5v40c0 45.333 -3 77.833 -9 97.5s-17 32.667 -33 39s-42.333 9.5 -79 9.5
c-16.667 0 -37.334 -1.16699 -62.001 -3.5s-44.667 -5.16602 -60 -8.49902v48c43.333 8.66699 89.333 13 138 13c45.333 0 79.166 -5.5 101.499 -16.5s37.833 -29.833 46.5 -56.5s13 -66.334 13 -119.001v-326h-48l-4 73h-4c-10 -32.667 -26.667 -54.334 -50 -65.001
s-51 -16 -83 -16c-32.667 0 -58.667 4.16699 -78 12.5zM252.502 51.002c17 6.66699 29.501 20.3311 37.501 40.998c6 16.667 10.167 33.834 12.5 51.501s3.5 39.167 3.5 64.5v35h-129c-23.333 0 -40.833 -2.5 -52.5 -7.5s-19.834 -14.5 -24.501 -28.5s-7 -35.667 -7 -65
c0 -28 2.5 -49.167 7.5 -63.5s14 -24.166 27 -29.499s32.833 -8 59.5 -8s48.5 3.33301 65.5 10zM315.503 664.499c-4.33301 -19 -14.332 -34.167 -29.999 -45.5s-40.167 -17 -73.5 -17s-57.666 5.66699 -72.999 17s-25 26.333 -29 45s-6 45 -6 79h43
c0 -27.333 1.16699 -47.666 3.5 -60.999s8 -23.666 17 -30.999s23.833 -11 44.5 -11c21.333 0 36.666 3.66699 45.999 11s15.166 17.666 17.499 30.999s3.5 33.666 3.5 60.999h43c0 -33.333 -2.16699 -59.5 -6.5 -78.5z" />
    <glyph glyph-name="Aogonek" unicode="&#x104;" horiz-adv-x="493" 
d="M447 -154c6 0 11.667 0.332031 17 0.999023v-41c-8 -1.33301 -18 -2 -30 -2c-29.333 0 -50.5 6.83301 -63.5 20.5s-19.5 31.834 -19.5 54.501c0 19.333 5.5 40.166 16.5 62.499s25.5 42.5 43.5 60.5l-54 200h-223l-53 -202h-59l188 688h74l188 -688h-13
c-14.667 -14 -28 -31.667 -40 -53s-18 -40.666 -18 -57.999c0 -28.667 15.333 -43 46 -43zM149 254.999h193l-94 353h-5z" />
    <glyph glyph-name="aogonek" unicode="&#x105;" horiz-adv-x="427" 
d="M366 -153l0.00195312 -40.998c-8.66699 -1.33301 -18.667 -2 -30 -2c-28.667 0 -49.667 6.83301 -63 20.5s-20 31.167 -20 52.5c0 20.667 5.5 41.667 16.5 63s25.833 41.666 44.5 60.999l-4 72h-4c-10 -32.667 -26.667 -54.334 -50 -65.001s-51 -16 -83 -16
c-32.667 0 -58.667 4.16699 -78 12.5s-33.833 23.166 -43.5 44.499s-14.5 51.333 -14.5 90s3.83301 68.5 11.5 89.5s20.5 36.167 38.5 45.5s43.667 14 77 14c20 0 67.333 -1.66699 142 -5v40c0 45.333 -3 77.833 -9 97.5s-17 32.667 -33 39s-42.333 9.5 -79 9.5
c-16.667 0 -37.334 -1.16699 -62.001 -3.5s-44.667 -5.16602 -60 -8.49902v48c43.333 8.66699 89.333 13 138 13c45.333 0 79.166 -5.5 101.499 -16.5s37.833 -29.833 46.5 -56.5s13 -66.334 13 -119.001v-326c-14 -11.333 -27.333 -28.166 -40 -50.499
s-19 -42.833 -19 -61.5c0 -28 15.333 -42 46 -42c6 0 11.667 0.333008 17 1zM306.002 243.002l-128.999 -0.00292969c-23.333 0 -40.833 -2.5 -52.5 -7.5s-19.834 -14.5 -24.501 -28.5s-7 -35.667 -7 -65c0 -28 2.5 -49.167 7.5 -63.5s14 -24.166 27 -29.499
s32.833 -8 59.5 -8s48.5 3.33301 65.5 10s29.5 20.334 37.5 41.001c6 16.667 10.167 33.834 12.5 51.501s3.5 39.167 3.5 64.5v35z" />
    <glyph glyph-name="Cacute" unicode="&#x106;" horiz-adv-x="401" 
d="M313 -5c-20.667 -2 -39.665 -3.00098 -56.998 -3.00098c-59.333 0 -102.5 8.5 -129.5 25.5s-45.333 49.333 -55 97s-14.5 124.167 -14.5 229.5c0 104 4.83301 179.833 14.5 227.5s28 80.334 55 98.001s70.167 26.5 129.5 26.5c18 0 37.167 -1.33301 57.5 -4
s37.166 -5.66699 50.499 -9v-49c-36 6 -68 9 -96 9c-49.333 0 -83.833 -6.33301 -103.5 -19s-32.667 -38.5 -39 -77.5s-9.5 -106.5 -9.5 -202.5s3.16699 -163.5 9.5 -202.5s19.333 -64.833 39 -77.5s54.167 -19 103.5 -19c34 0 66.667 3 98 9v-51
c-14.667 -3.33301 -32.334 -6 -53.001 -8zM174.002 747.999v5l56 135h61v-5l-76 -135h-41z" />
    <glyph glyph-name="cacute" unicode="&#x107;" horiz-adv-x="352" 
d="M269 -4.5c-19.333 -2.33301 -38.3369 -3.50195 -57.0039 -3.50195c-48.667 0 -84.5 8.66699 -107.5 26s-37.833 43.5 -44.5 78.5s-10 87.5 -10 157.5c0 71.333 4.16699 125.333 12.5 162s23.666 62.834 45.999 78.501s55.833 23.5 100.5 23.5
c17.333 0 35.833 -1.16699 55.5 -3.5s35.834 -5.16602 48.501 -8.49902v-48c-33.333 7.33301 -64.333 11 -93 11c-34 0 -58.833 -5.66699 -74.5 -17s-26.167 -31.333 -31.5 -60s-8 -74 -8 -136c0 -63.333 2.83301 -109.666 8.5 -138.999s16.334 -49.333 32.001 -60
s40.834 -16 75.501 -16c14.667 0 30.834 1.16699 48.501 3.5s32.834 5.16602 45.501 8.49902v-48c-12 -4 -27.667 -7.16699 -47 -9.5zM149.996 602.998v5l56 135h61v-5l-76 -135h-41z" />
    <glyph glyph-name="Ccircumflex" unicode="&#x108;" horiz-adv-x="401" 
d="M313 -5c-20.667 -2 -39.665 -3.00098 -56.998 -3.00098c-59.333 0 -102.5 8.5 -129.5 25.5s-45.333 49.333 -55 97s-14.5 124.167 -14.5 229.5c0 104 4.83301 179.833 14.5 227.5s28 80.334 55 98.001s70.167 26.5 129.5 26.5c18 0 37.167 -1.33301 57.5 -4
s37.166 -5.66699 50.499 -9v-49c-36 6 -68 9 -96 9c-49.333 0 -83.833 -6.33301 -103.5 -19s-32.667 -38.5 -39 -77.5s-9.5 -106.5 -9.5 -202.5s3.16699 -163.5 9.5 -202.5s19.333 -64.833 39 -77.5s54.167 -19 103.5 -19c34 0 66.667 3 98 9v-51
c-14.667 -3.33301 -32.334 -6 -53.001 -8zM89.002 749.999v5l78 133h65l78 -133v-5h-40l-70 101l-70 -101h-41z" />
    <glyph glyph-name="ccircumflex" unicode="&#x109;" horiz-adv-x="352" 
d="M269 -4.5c-19.333 -2.33301 -38.3369 -3.50195 -57.0039 -3.50195c-48.667 0 -84.5 8.66699 -107.5 26s-37.833 43.5 -44.5 78.5s-10 87.5 -10 157.5c0 71.333 4.16699 125.333 12.5 162s23.666 62.834 45.999 78.501s55.833 23.5 100.5 23.5
c17.333 0 35.833 -1.16699 55.5 -3.5s35.834 -5.16602 48.501 -8.49902v-48c-33.333 7.33301 -64.333 11 -93 11c-34 0 -58.833 -5.66699 -74.5 -17s-26.167 -31.333 -31.5 -60s-8 -74 -8 -136c0 -63.333 2.83301 -109.666 8.5 -138.999s16.334 -49.333 32.001 -60
s40.834 -16 75.501 -16c14.667 0 30.834 1.16699 48.501 3.5s32.834 5.16602 45.501 8.49902v-48c-12 -4 -27.667 -7.16699 -47 -9.5zM64.9961 604.998v5l78 133h65l78 -133v-5h-40l-70 101l-70 -101h-41z" />
    <glyph glyph-name="Cdotaccent" unicode="&#x10a;" horiz-adv-x="401" 
d="M313 -5c-20.667 -2 -39.665 -3.00098 -56.998 -3.00098c-59.333 0 -102.5 8.5 -129.5 25.5s-45.333 49.333 -55 97s-14.5 124.167 -14.5 229.5c0 104 4.83301 179.833 14.5 227.5s28 80.334 55 98.001s70.167 26.5 129.5 26.5c18 0 37.167 -1.33301 57.5 -4
s37.166 -5.66699 50.499 -9v-49c-36 6 -68 9 -96 9c-49.333 0 -83.833 -6.33301 -103.5 -19s-32.667 -38.5 -39 -77.5s-9.5 -106.5 -9.5 -202.5s3.16699 -163.5 9.5 -202.5s19.333 -64.833 39 -77.5s54.167 -19 103.5 -19c34 0 66.667 3 98 9v-51
c-14.667 -3.33301 -32.334 -6 -53.001 -8zM171.002 804.999v70h57v-70h-57z" />
    <glyph glyph-name="cdotaccent" unicode="&#x10b;" horiz-adv-x="352" 
d="M269 -4.5c-19.333 -2.33301 -38.3369 -3.50195 -57.0039 -3.50195c-48.667 0 -84.5 8.66699 -107.5 26s-37.833 43.5 -44.5 78.5s-10 87.5 -10 157.5c0 71.333 4.16699 125.333 12.5 162s23.666 62.834 45.999 78.501s55.833 23.5 100.5 23.5
c17.333 0 35.833 -1.16699 55.5 -3.5s35.834 -5.16602 48.501 -8.49902v-48c-33.333 7.33301 -64.333 11 -93 11c-34 0 -58.833 -5.66699 -74.5 -17s-26.167 -31.333 -31.5 -60s-8 -74 -8 -136c0 -63.333 2.83301 -109.666 8.5 -138.999s16.334 -49.333 32.001 -60
s40.834 -16 75.501 -16c14.667 0 30.834 1.16699 48.501 3.5s32.834 5.16602 45.501 8.49902v-48c-12 -4 -27.667 -7.16699 -47 -9.5zM146.996 659.998v70h57v-70h-57z" />
    <glyph glyph-name="Ccaron" unicode="&#x10c;" horiz-adv-x="401" 
d="M313 -5c-20.667 -2 -39.665 -3.00098 -56.998 -3.00098c-59.333 0 -102.5 8.5 -129.5 25.5s-45.333 49.333 -55 97s-14.5 124.167 -14.5 229.5c0 104 4.83301 179.833 14.5 227.5s28 80.334 55 98.001s70.167 26.5 129.5 26.5c18 0 37.167 -1.33301 57.5 -4
s37.166 -5.66699 50.499 -9v-49c-36 6 -68 9 -96 9c-49.333 0 -83.833 -6.33301 -103.5 -19s-32.667 -38.5 -39 -77.5s-9.5 -106.5 -9.5 -202.5s3.16699 -163.5 9.5 -202.5s19.333 -64.833 39 -77.5s54.167 -19 103.5 -19c34 0 66.667 3 98 9v-51
c-14.667 -3.33301 -32.334 -6 -53.001 -8zM167.002 749.999l-78 132v6h41l70 -102l70 102h40v-6l-78 -132h-65z" />
    <glyph glyph-name="ccaron" unicode="&#x10d;" horiz-adv-x="352" 
d="M269 -4.5c-19.333 -2.33301 -38.3369 -3.50195 -57.0039 -3.50195c-48.667 0 -84.5 8.66699 -107.5 26s-37.833 43.5 -44.5 78.5s-10 87.5 -10 157.5c0 71.333 4.16699 125.333 12.5 162s23.666 62.834 45.999 78.501s55.833 23.5 100.5 23.5
c17.333 0 35.833 -1.16699 55.5 -3.5s35.834 -5.16602 48.501 -8.49902v-48c-33.333 7.33301 -64.333 11 -93 11c-34 0 -58.833 -5.66699 -74.5 -17s-26.167 -31.333 -31.5 -60s-8 -74 -8 -136c0 -63.333 2.83301 -109.666 8.5 -138.999s16.334 -49.333 32.001 -60
s40.834 -16 75.501 -16c14.667 0 30.834 1.16699 48.501 3.5s32.834 5.16602 45.501 8.49902v-48c-12 -4 -27.667 -7.16699 -47 -9.5zM142.996 604.998l-78 132v6h41l70 -102l70 102h40v-6l-78 -132h-65z" />
    <glyph glyph-name="Dcaron" unicode="&#x10e;" horiz-adv-x="498" 
d="M74 688h160c65.333 0 112 -8.33301 140 -25s46.167 -47.5 54.5 -92.5s12.5 -120.5 12.5 -226.5s-4.16699 -181.5 -12.5 -226.5s-26.5 -75.833 -54.5 -92.5s-74.667 -25 -140 -25h-160v688zM230 53c50.667 0 85.5 5 104.5 15s31.667 34 38 72s9.5 106 9.5 204
s-3.33301 166 -10 204s-19.5 62 -38.5 72s-53.5 15 -103.5 15h-97v-582h97zM216 750l-78 132v6h41l70 -102l70 102h40v-6l-78 -132h-65z" />
    <glyph glyph-name="dcaron" unicode="&#x10f;" horiz-adv-x="457" 
d="M106.5 14c-21 14.667 -35.666 40.3301 -43.999 76.9971s-12.5 91.334 -12.5 164.001s4 127.334 12 164.001s22.5 62.334 43.5 77.001s52.5 22 94.5 22c33.333 0 60.166 -5.5 80.499 -16.5s34.833 -29.5 43.5 -55.5h5v297h56v-743h-48l-4 73h-5
c-9.33301 -32 -25 -53.5 -47 -64.5s-49 -16.5 -81 -16.5c-41.333 0 -72.5 7.33301 -93.5 22zM284.001 58.9961c16 10.667 26.999 27.332 32.999 49.999c4.66699 20 7.83398 41.667 9.50098 65s2.5 53.666 2.5 90.999c0 56 -3.33301 97.667 -10 125
c-6.66699 28 -18 47.833 -34 59.5s-39.333 17.5 -70 17.5c-33.333 0 -57.333 -4.83301 -72 -14.5s-24.5 -28.667 -29.5 -57s-7.5 -75.166 -7.5 -140.499s2.5 -112.166 7.5 -140.499s15 -47.333 30 -57s39.833 -14.5 74.5 -14.5c28 0 50 5.33301 66 16zM419 448.994l13 157
v82h57v-82l-32 -157h-38z" />
    <glyph glyph-name="Dcroat" unicode="&#x110;" horiz-adv-x="498" 
d="M74 323h-58v52h58v313h160c65.333 0 112 -8.33301 140 -25s46.167 -47.5 54.5 -92.5s12.5 -120.5 12.5 -226.5s-4.16699 -181.5 -12.5 -226.5s-26.5 -75.833 -54.5 -92.5s-74.667 -25 -140 -25h-160v323zM334.5 68c19 10 31.667 34 38 72s9.5 106 9.5 204
s-3.33301 166 -10 204s-19.5 62 -38.5 72s-53.5 15 -103.5 15h-97v-260h110v-52h-110v-270h97c50.667 0 85.5 5 104.5 15z" />
    <glyph glyph-name="dcroat" unicode="&#x111;" horiz-adv-x="452" 
d="M441 639l-55.999 -0.00390625v-639h-48l-4 73h-5c-9.33301 -32 -25 -53.5 -47 -64.5s-49 -16.5 -81 -16.5c-41.333 0 -72.5 7.33301 -93.5 22s-35.667 40.334 -44 77.001s-12.5 91.334 -12.5 164.001s4 127.334 12 164.001s22.5 62.334 43.5 77.001s52.5 22 94.5 22
c33.333 0 60.166 -5.5 80.499 -16.5s34.833 -29.5 43.5 -55.5h5v193h-120v49h120v55h56v-55h56v-49zM326.501 173.996c1.66699 23.333 2.49902 53.6641 2.49902 90.9971c0 56 -3.33301 97.667 -10 125c-6.66699 28 -18 47.833 -34 59.5s-39.333 17.5 -70 17.5
c-33.333 0 -57.333 -4.83301 -72 -14.5s-24.5 -28.667 -29.5 -57s-7.5 -75.166 -7.5 -140.499s2.5 -112.166 7.5 -140.499s15 -47.333 30 -57s39.833 -14.5 74.5 -14.5c28 0 50 5.33301 66 16s27 27.334 33 50.001c4.66699 20 7.83398 41.667 9.50098 65z" />
    <glyph glyph-name="Emacron" unicode="&#x112;" horiz-adv-x="432" 
d="M74 0v688h320v-53h-260v-261h226v-52h-226v-269h260v-53h-320zM138 834v54h191v-54h-191z" />
    <glyph glyph-name="emacron" unicode="&#x113;" horiz-adv-x="429" 
d="M378 236h-272c0 -58 2.66699 -99.833 8 -125.5s16.833 -43.667 34.5 -54s46.5 -15.5 86.5 -15.5c20 0 42 1.16699 66 3.5s45 5.5 63 9.5v-48c-15.333 -4 -36 -7.33301 -62 -10s-51.333 -4 -76 -4c-52.667 0 -91.167 7.5 -115.5 22.5s-40.5 40.333 -48.5 76
s-12 90.167 -12 163.5c0 74 3.33301 128.333 10 163s22 60.167 46 76.5s63 24.5 117 24.5c48.667 0 83.667 -7.83301 105 -23.5s35 -40.667 41 -75s9 -88.833 9 -163.5v-20zM144.5 455.5c-15.667 -9 -25.832 -25.833 -30.499 -50.5s-7.33398 -66 -8.00098 -124h217v15
c0 52 -2.83301 90 -8.5 114s-15.5 39.833 -29.5 47.5s-35.333 11.5 -64 11.5c-35.333 0 -60.833 -4.5 -76.5 -13.5zM118.002 689v54h191v-54h-191z" />
    <glyph glyph-name="Ebreve" unicode="&#x114;" horiz-adv-x="432" 
d="M74 0v688h320v-53h-260v-261h226v-52h-226v-269h260v-53h-320zM335.5 809.5c-4.33301 -19 -14.332 -34.167 -29.999 -45.5s-40.167 -17 -73.5 -17s-57.666 5.66699 -72.999 17s-25 26.333 -29 45s-6 45 -6 79h43c0 -27.333 1.16699 -47.666 3.5 -60.999
s8 -23.666 17 -30.999s23.833 -11 44.5 -11c21.333 0 36.666 3.66699 45.999 11s15.166 17.666 17.499 30.999s3.5 33.666 3.5 60.999h43c0 -33.333 -2.16699 -59.5 -6.5 -78.5z" />
    <glyph glyph-name="ebreve" unicode="&#x115;" horiz-adv-x="429" 
d="M378 236h-272c0 -58 2.66699 -99.833 8 -125.5s16.833 -43.667 34.5 -54s46.5 -15.5 86.5 -15.5c20 0 42 1.16699 66 3.5s45 5.5 63 9.5v-48c-15.333 -4 -36 -7.33301 -62 -10s-51.333 -4 -76 -4c-52.667 0 -91.167 7.5 -115.5 22.5s-40.5 40.333 -48.5 76
s-12 90.167 -12 163.5c0 74 3.33301 128.333 10 163s22 60.167 46 76.5s63 24.5 117 24.5c48.667 0 83.667 -7.83301 105 -23.5s35 -40.667 41 -75s9 -88.833 9 -163.5v-20zM144.5 455.5c-15.667 -9 -25.832 -25.833 -30.499 -50.5s-7.33398 -66 -8.00098 -124h217v15
c0 52 -2.83301 90 -8.5 114s-15.5 39.833 -29.5 47.5s-35.333 11.5 -64 11.5c-35.333 0 -60.833 -4.5 -76.5 -13.5zM315.502 664.5c-4.33301 -19 -14.332 -34.167 -29.999 -45.5s-40.167 -17 -73.5 -17s-57.666 5.66699 -72.999 17s-25 26.333 -29 45s-6 45 -6 79h43
c0 -27.333 1.16699 -47.666 3.5 -60.999s8 -23.666 17 -30.999s23.833 -11 44.5 -11c21.333 0 36.666 3.66699 45.999 11s15.166 17.666 17.499 30.999s3.5 33.666 3.5 60.999h43c0 -33.333 -2.16699 -59.5 -6.5 -78.5z" />
    <glyph glyph-name="Edotaccent" unicode="&#x116;" horiz-adv-x="432" 
d="M74 0v688h320v-53h-260v-261h226v-52h-226v-269h260v-53h-320zM205 805v70h57v-70h-57z" />
    <glyph glyph-name="edotaccent" unicode="&#x117;" horiz-adv-x="429" 
d="M378 236h-272c0 -58 2.66699 -99.833 8 -125.5s16.833 -43.667 34.5 -54s46.5 -15.5 86.5 -15.5c20 0 42 1.16699 66 3.5s45 5.5 63 9.5v-48c-15.333 -4 -36 -7.33301 -62 -10s-51.333 -4 -76 -4c-52.667 0 -91.167 7.5 -115.5 22.5s-40.5 40.333 -48.5 76
s-12 90.167 -12 163.5c0 74 3.33301 128.333 10 163s22 60.167 46 76.5s63 24.5 117 24.5c48.667 0 83.667 -7.83301 105 -23.5s35 -40.667 41 -75s9 -88.833 9 -163.5v-20zM144.5 455.5c-15.667 -9 -25.832 -25.833 -30.499 -50.5s-7.33398 -66 -8.00098 -124h217v15
c0 52 -2.83301 90 -8.5 114s-15.5 39.833 -29.5 47.5s-35.333 11.5 -64 11.5c-35.333 0 -60.833 -4.5 -76.5 -13.5zM185.002 660v70h57v-70h-57z" />
    <glyph glyph-name="Eogonek" unicode="&#x118;" horiz-adv-x="432" 
d="M296 -176c-13.333 13.333 -20 30.6689 -20 52.002s6 42.833 18 64.5s28.333 41.5 49 59.5h-268v688h318v-53h-259v-261h226v-53h-226v-268h259v-53c-16.667 -12.667 -32 -29.834 -46 -51.501s-21 -41.834 -21 -60.501c0 -12 3.66699 -22 11 -30s19 -12 35 -12
c6 0 11.667 0.333008 17 1v-41c-13.333 -1.33301 -23.333 -2 -30 -2c-28.667 0 -49.667 6.66699 -63 20z" />
    <glyph glyph-name="eogonek" unicode="&#x119;" horiz-adv-x="429" 
d="M378 236l-272 0.000976562c0 -58 2.66699 -99.833 8 -125.5s16.833 -43.667 34.5 -54s46.5 -15.5 86.5 -15.5c20 0 42 1.16699 66 3.5s45 5.5 63 9.5v-48c-17.333 -13.333 -33.833 -31.5 -49.5 -54.5s-23.5 -44.167 -23.5 -63.5c0 -12 3.66699 -22 11 -30s19 -12 35 -12
c6.66699 0 12.334 0.333008 17.001 1v-41c-12 -1.33301 -21.667 -2 -29 -2c-28.667 0 -49.834 6.66699 -63.501 20s-20.5 30.666 -20.5 51.999c0 20 5.5 40.5 16.5 61.5s26.167 40.5 45.5 58.5c-32 -2.66699 -57.667 -4 -77 -4c-52.667 0 -91.167 7.5 -115.5 22.5
s-40.5 40.333 -48.5 76s-12 90.167 -12 163.5c0 74 3.33301 128.333 10 163s22 60.167 46 76.5s63 24.5 117 24.5c48.667 0 83.667 -7.83301 105 -23.5s35 -40.667 41 -75s9 -88.833 9 -163.5v-20zM144.5 455.501c-15.667 -9 -25.832 -25.833 -30.499 -50.5
s-7.33398 -66 -8.00098 -124h217v15c0 52 -2.83301 90 -8.5 114s-15.5 39.833 -29.5 47.5s-35.333 11.5 -64 11.5c-35.333 0 -60.833 -4.5 -76.5 -13.5z" />
    <glyph glyph-name="Ecaron" unicode="&#x11a;" horiz-adv-x="432" 
d="M74 0v688h320v-53h-260v-261h226v-52h-226v-269h260v-53h-320zM201 750l-78 132v6h41l70 -102l70 102h40v-6l-78 -132h-65z" />
    <glyph glyph-name="ecaron" unicode="&#x11b;" horiz-adv-x="429" 
d="M378 236h-272c0 -58 2.66699 -99.833 8 -125.5s16.833 -43.667 34.5 -54s46.5 -15.5 86.5 -15.5c20 0 42 1.16699 66 3.5s45 5.5 63 9.5v-48c-15.333 -4 -36 -7.33301 -62 -10s-51.333 -4 -76 -4c-52.667 0 -91.167 7.5 -115.5 22.5s-40.5 40.333 -48.5 76
s-12 90.167 -12 163.5c0 74 3.33301 128.333 10 163s22 60.167 46 76.5s63 24.5 117 24.5c48.667 0 83.667 -7.83301 105 -23.5s35 -40.667 41 -75s9 -88.833 9 -163.5v-20zM144.5 455.5c-15.667 -9 -25.832 -25.833 -30.499 -50.5s-7.33398 -66 -8.00098 -124h217v15
c0 52 -2.83301 90 -8.5 114s-15.5 39.833 -29.5 47.5s-35.333 11.5 -64 11.5c-35.333 0 -60.833 -4.5 -76.5 -13.5zM181.002 605l-78 132v6h41l70 -102l70 102h40v-6l-78 -132h-65z" />
    <glyph glyph-name="Gcircumflex" unicode="&#x11c;" horiz-adv-x="484" 
d="M253 307v52.001h172v-349c-24 -5.33301 -50.5 -9.66602 -79.5 -12.999s-55.167 -5 -78.5 -5c-60 0 -104.333 8.66699 -133 26s-48.667 50.166 -60 98.499s-17 124.166 -17 227.499c0 102 5.5 177.167 16.5 225.5s31 81.5 60 99.5s73.833 27 134.5 27
c26 0 53.5 -1.83301 82.5 -5.5s53.167 -8.16699 72.5 -13.5v-49c-20 4 -42.333 7.5 -67 10.5s-45 4.5 -61 4.5c-56 0 -95.333 -5.16699 -118 -15.5s-38.5 -35.5 -47.5 -75.5s-13.5 -109.333 -13.5 -208c0 -90.667 3.33301 -156 10 -196s20.167 -67.333 40.5 -82
s53.833 -22 100.5 -22c16.667 0 34.5 1 53.5 3s34.5 4.33301 46.5 7v253h-114zM131 750.001v5l78 133h65l78 -133v-5h-40l-70 101l-70 -101h-41z" />
    <glyph glyph-name="gcircumflex" unicode="&#x11d;" horiz-adv-x="451" 
d="M66 -193v48c41.333 -3.33301 83 -5 125 -5c41.333 0 71.5 5.66699 90.5 17s31.5 30.666 37.5 57.999s9 70.666 9 129.999v11h-4c-8.66699 -26 -23 -44.5 -43 -55.5s-47 -16.5 -81 -16.5c-42 0 -73.5 7.16699 -94.5 21.5s-35.5 39.833 -43.5 76.5s-12 91 -12 163
c0 72.667 4.16699 127.334 12.5 164.001s23 62.334 44 77.001s52.5 22 94.5 22c32 0 58.833 -5.5 80.5 -16.5s37.167 -32.5 46.5 -64.5h5l3 73h48v-434c0 -74 -4.16699 -129.833 -12.5 -167.5s-25.5 -65 -51.5 -82s-66 -25.5 -120 -25.5c-51.333 0 -96 2 -134 6zM283.5 60.5
c15.667 11 26.833 28.832 33.5 53.499c4.66699 16.667 7.66699 35.667 9 57s2 49.333 2 84c0 33.333 -0.5 60.333 -1.5 81s-3.5 38.667 -7.5 54c-6.66699 28 -18 47.833 -34 59.5s-38.333 17.5 -67 17.5c-34.667 0 -59.5 -4.66699 -74.5 -14s-25 -28.166 -30 -56.499
s-7.5 -75.5 -7.5 -141.5c0 -65.333 2.5 -112 7.5 -140s15 -46.833 30 -56.5s39.833 -14.5 74.5 -14.5c28 0 49.833 5.5 65.5 16.5zM114.999 604.999v5l78 133h65l78 -133v-5h-40l-70 101l-70 -101h-41z" />
    <glyph glyph-name="Gbreve" unicode="&#x11e;" horiz-adv-x="484" 
d="M253 307v52.001h172v-349c-24 -5.33301 -50.5 -9.66602 -79.5 -12.999s-55.167 -5 -78.5 -5c-60 0 -104.333 8.66699 -133 26s-48.667 50.166 -60 98.499s-17 124.166 -17 227.499c0 102 5.5 177.167 16.5 225.5s31 81.5 60 99.5s73.833 27 134.5 27
c26 0 53.5 -1.83301 82.5 -5.5s53.167 -8.16699 72.5 -13.5v-49c-20 4 -42.333 7.5 -67 10.5s-45 4.5 -61 4.5c-56 0 -95.333 -5.16699 -118 -15.5s-38.5 -35.5 -47.5 -75.5s-13.5 -109.333 -13.5 -208c0 -90.667 3.33301 -156 10 -196s20.167 -67.333 40.5 -82
s53.833 -22 100.5 -22c16.667 0 34.5 1 53.5 3s34.5 4.33301 46.5 7v253h-114zM343.5 809.501c-4.33301 -19 -14.332 -34.167 -29.999 -45.5s-40.167 -17 -73.5 -17s-57.666 5.66699 -72.999 17s-25 26.333 -29 45s-6 45 -6 79h43c0 -27.333 1.16699 -47.666 3.5 -60.999
s8 -23.666 17 -30.999s23.833 -11 44.5 -11c21.333 0 36.666 3.66699 45.999 11s15.166 17.666 17.499 30.999s3.5 33.666 3.5 60.999h43c0 -33.333 -2.16699 -59.5 -6.5 -78.5z" />
    <glyph glyph-name="gbreve" unicode="&#x11f;" horiz-adv-x="451" 
d="M66 -193v48c41.333 -3.33301 83 -5 125 -5c41.333 0 71.5 5.66699 90.5 17s31.5 30.666 37.5 57.999s9 70.666 9 129.999v11h-4c-8.66699 -26 -23 -44.5 -43 -55.5s-47 -16.5 -81 -16.5c-42 0 -73.5 7.16699 -94.5 21.5s-35.5 39.833 -43.5 76.5s-12 91 -12 163
c0 72.667 4.16699 127.334 12.5 164.001s23 62.334 44 77.001s52.5 22 94.5 22c32 0 58.833 -5.5 80.5 -16.5s37.167 -32.5 46.5 -64.5h5l3 73h48v-434c0 -74 -4.16699 -129.833 -12.5 -167.5s-25.5 -65 -51.5 -82s-66 -25.5 -120 -25.5c-51.333 0 -96 2 -134 6zM283.5 60.5
c15.667 11 26.833 28.832 33.5 53.499c4.66699 16.667 7.66699 35.667 9 57s2 49.333 2 84c0 33.333 -0.5 60.333 -1.5 81s-3.5 38.667 -7.5 54c-6.66699 28 -18 47.833 -34 59.5s-38.333 17.5 -67 17.5c-34.667 0 -59.5 -4.66699 -74.5 -14s-25 -28.166 -30 -56.499
s-7.5 -75.5 -7.5 -141.5c0 -65.333 2.5 -112 7.5 -140s15 -46.833 30 -56.5s39.833 -14.5 74.5 -14.5c28 0 49.833 5.5 65.5 16.5zM327.499 664.499c-4.33301 -19 -14.332 -34.167 -29.999 -45.5s-40.167 -17 -73.5 -17s-57.666 5.66699 -72.999 17s-25 26.333 -29 45
s-6 45 -6 79h43c0 -27.333 1.16699 -47.666 3.5 -60.999s8 -23.666 17 -30.999s23.833 -11 44.5 -11c21.333 0 36.666 3.66699 45.999 11s15.166 17.666 17.499 30.999s3.5 33.666 3.5 60.999h43c0 -33.333 -2.16699 -59.5 -6.5 -78.5z" />
    <glyph glyph-name="Gdotaccent" unicode="&#x120;" horiz-adv-x="484" 
d="M253 307v52.001h172v-349c-24 -5.33301 -50.5 -9.66602 -79.5 -12.999s-55.167 -5 -78.5 -5c-60 0 -104.333 8.66699 -133 26s-48.667 50.166 -60 98.499s-17 124.166 -17 227.499c0 102 5.5 177.167 16.5 225.5s31 81.5 60 99.5s73.833 27 134.5 27
c26 0 53.5 -1.83301 82.5 -5.5s53.167 -8.16699 72.5 -13.5v-49c-20 4 -42.333 7.5 -67 10.5s-45 4.5 -61 4.5c-56 0 -95.333 -5.16699 -118 -15.5s-38.5 -35.5 -47.5 -75.5s-13.5 -109.333 -13.5 -208c0 -90.667 3.33301 -156 10 -196s20.167 -67.333 40.5 -82
s53.833 -22 100.5 -22c16.667 0 34.5 1 53.5 3s34.5 4.33301 46.5 7v253h-114zM213 805.001v70h57v-70h-57z" />
    <glyph glyph-name="gdotaccent" unicode="&#x121;" horiz-adv-x="451" 
d="M66 -193v48c41.333 -3.33301 83 -5 125 -5c41.333 0 71.5 5.66699 90.5 17s31.5 30.666 37.5 57.999s9 70.666 9 129.999v11h-4c-8.66699 -26 -23 -44.5 -43 -55.5s-47 -16.5 -81 -16.5c-42 0 -73.5 7.16699 -94.5 21.5s-35.5 39.833 -43.5 76.5s-12 91 -12 163
c0 72.667 4.16699 127.334 12.5 164.001s23 62.334 44 77.001s52.5 22 94.5 22c32 0 58.833 -5.5 80.5 -16.5s37.167 -32.5 46.5 -64.5h5l3 73h48v-434c0 -74 -4.16699 -129.833 -12.5 -167.5s-25.5 -65 -51.5 -82s-66 -25.5 -120 -25.5c-51.333 0 -96 2 -134 6zM283.5 60.5
c15.667 11 26.833 28.832 33.5 53.499c4.66699 16.667 7.66699 35.667 9 57s2 49.333 2 84c0 33.333 -0.5 60.333 -1.5 81s-3.5 38.667 -7.5 54c-6.66699 28 -18 47.833 -34 59.5s-38.333 17.5 -67 17.5c-34.667 0 -59.5 -4.66699 -74.5 -14s-25 -28.166 -30 -56.499
s-7.5 -75.5 -7.5 -141.5c0 -65.333 2.5 -112 7.5 -140s15 -46.833 30 -56.5s39.833 -14.5 74.5 -14.5c28 0 49.833 5.5 65.5 16.5zM196.999 659.999v70h57v-70h-57z" />
    <glyph glyph-name="Gcommaaccent" unicode="&#x122;" horiz-adv-x="484" 
d="M253 307v52.001h172v-349c-24 -5.33301 -50.5 -9.66602 -79.5 -12.999s-55.167 -5 -78.5 -5c-60 0 -104.333 8.66699 -133 26s-48.667 50.166 -60 98.499s-17 124.166 -17 227.499c0 102 5.5 177.167 16.5 225.5s31 81.5 60 99.5s73.833 27 134.5 27
c26 0 53.5 -1.83301 82.5 -5.5s53.167 -8.16699 72.5 -13.5v-49c-20 4 -42.333 7.5 -67 10.5s-45 4.5 -61 4.5c-56 0 -95.333 -5.16699 -118 -15.5s-38.5 -35.5 -47.5 -75.5s-13.5 -109.333 -13.5 -208c0 -90.667 3.33301 -156 10 -196s20.167 -67.333 40.5 -82
s53.833 -22 100.5 -22c16.667 0 34.5 1 53.5 3s34.5 4.33301 46.5 7v253h-114zM238.5 -204.499c5.66699 7.66699 8.49805 23.5 8.49805 47.5v17h-28v78h67v-77c0 -29.333 -2.16699 -51.333 -6.5 -66s-12.666 -25 -24.999 -31s-31.166 -9 -56.499 -9v29
c21.333 0 34.833 3.83301 40.5 11.5z" />
    <glyph glyph-name="gcommaaccent" unicode="&#x123;" horiz-adv-x="451" 
d="M66 -193v48c41.333 -3.33301 83 -5 125 -5c41.333 0 71.5 5.66699 90.5 17s31.5 30.666 37.5 57.999s9 70.666 9 129.999v11h-4c-8.66699 -26 -23 -44.5 -43 -55.5s-47 -16.5 -81 -16.5c-42 0 -73.5 7.16699 -94.5 21.5s-35.5 39.833 -43.5 76.5s-12 91 -12 163
c0 72.667 4.16699 127.334 12.5 164.001s23 62.334 44 77.001s52.5 22 94.5 22c32 0 58.833 -5.5 80.5 -16.5s37.167 -32.5 46.5 -64.5h5l3 73h48v-434c0 -74 -4.16699 -129.833 -12.5 -167.5s-25.5 -65 -51.5 -82s-66 -25.5 -120 -25.5c-51.333 0 -96 2 -134 6zM283.5 60.5
c15.667 11 26.833 28.832 33.5 53.499c4.66699 16.667 7.66699 35.667 9 57s2 49.333 2 84c0 33.333 -0.5 60.333 -1.5 81s-3.5 38.667 -7.5 54c-6.66699 28 -18 47.833 -34 59.5s-38.333 17.5 -67 17.5c-34.667 0 -59.5 -4.66699 -74.5 -14s-25 -28.166 -30 -56.499
s-7.5 -75.5 -7.5 -141.5c0 -65.333 2.5 -112 7.5 -140s15 -46.833 30 -56.5s39.833 -14.5 74.5 -14.5c28 0 49.833 5.5 65.5 16.5zM240.499 746.999c-5.66699 -7.33301 -8.49805 -22.999 -8.49805 -46.999v-17h28v-78h-67v77c0 29.333 2.16699 51.166 6.5 65.499
s12.666 24.5 24.999 30.5s31.166 9 56.499 9v-29c-21.333 0 -34.833 -3.66699 -40.5 -11z" />
    <glyph glyph-name="Hcircumflex" unicode="&#x124;" horiz-adv-x="530" 
d="M397 0v320h-264v-320h-58v688h58v-313h264v313h58v-688h-58zM154 750v5l78 133h65l78 -133v-5h-40l-70 101l-70 -101h-41z" />
    <glyph glyph-name="hcircumflex" unicode="&#x125;" horiz-adv-x="455" 
d="M334 304c0 50 -2.33203 86 -6.99902 108s-13.834 36.667 -27.501 44s-35.5 11 -65.5 11c-34.667 0 -59.834 -8.16699 -75.501 -24.5s-25.5 -37.833 -29.5 -64.5s-6 -64.667 -6 -114v-264h-56v743h56v-296h5c8 20.667 21.333 37.667 40 51s47.334 20 86.001 20
s67.667 -6.5 87 -19.5s32.333 -33 39 -60s10 -65.833 10 -116.5v-322h-56v304zM-15.999 783v5l78 133h65l78 -133v-5h-40l-70 101l-70 -101h-41z" />
    <glyph glyph-name="Hbar" unicode="&#x126;" horiz-adv-x="530" 
d="M397 688h58v-688h-58v295h-264v-295h-58v688h58v-147h264v147zM133 349h264v139h-264v-139z" />
    <glyph glyph-name="hbar" unicode="&#x127;" horiz-adv-x="455" 
d="M341 498.5c19.333 -13 32.334 -33 39.001 -60s10 -65.833 10 -116.5v-322h-56v304c0 50 -2.33301 86 -7 108s-13.834 36.667 -27.501 44s-35.5 11 -65.5 11c-34.667 0 -59.834 -8.16699 -75.501 -24.5s-25.5 -37.833 -29.5 -64.5s-6 -64.667 -6 -114v-264h-56v639h-56v49
h56v55h56v-55h120v-49h-120v-192h5c8 20.667 21.333 37.667 40 51s47.334 20 86.001 20s67.667 -6.5 87 -19.5z" />
    <glyph glyph-name="Itilde" unicode="&#x128;" horiz-adv-x="214" 
d="M78 0v688h58v-688h-58zM232.5 807c-7 -14.667 -22.501 -22.001 -46.501 -22.001c-12.667 0 -25.167 2 -37.5 6s-28.5 10 -48.5 18c-16 7.33301 -29.167 12.833 -39.5 16.5s-20.5 5.5 -30.5 5.5s-16.5 -4 -19.5 -12s-4.5 -23 -4.5 -45h-37c0 38.667 3.66699 65.5 11 80.5
s23 22.5 47 22.5c13.333 0 26.5 -2.16699 39.5 -6.5s29.167 -10.833 48.5 -19.5c16.667 -6.66699 29.834 -11.667 39.501 -15s19.167 -5 28.5 -5c10 0 16.333 3.83301 19 11.5s4 22.834 4 45.501h37c0 -39.333 -3.5 -66.333 -10.5 -81z" />
    <glyph glyph-name="itilde" unicode="&#x129;" horiz-adv-x="190" 
d="M67 0v510h56v-510h-56zM220.5 662c-7 -14.667 -22.501 -22.001 -46.501 -22.001c-12.667 0 -25.167 2 -37.5 6s-28.5 10 -48.5 18c-16 7.33301 -29.167 12.833 -39.5 16.5s-20.5 5.5 -30.5 5.5s-16.5 -4 -19.5 -12s-4.5 -23 -4.5 -45h-37c0 38.667 3.66699 65.5 11 80.5
s23 22.5 47 22.5c13.333 0 26.5 -2.16699 39.5 -6.5s29.167 -10.833 48.5 -19.5c16.667 -6.66699 29.834 -11.667 39.501 -15s19.167 -5 28.5 -5c10 0 16.333 3.83301 19 11.5s4 22.834 4 45.501h37c0 -39.333 -3.5 -66.333 -10.5 -81z" />
    <glyph glyph-name="Imacron" unicode="&#x12a;" horiz-adv-x="214" 
d="M78 0v688h58v-688h-58zM11 834v54h191v-54h-191z" />
    <glyph glyph-name="imacron" unicode="&#x12b;" horiz-adv-x="190" 
d="M67 0v510h56v-510h-56zM-1 689v54h191v-54h-191z" />
    <glyph glyph-name="Ibreve" unicode="&#x12c;" horiz-adv-x="214" 
d="M78 0v688h58v-688h-58zM208.5 809.5c-4.33301 -19 -14.332 -34.167 -29.999 -45.5s-40.167 -17 -73.5 -17s-57.666 5.66699 -72.999 17s-25 26.333 -29 45s-6 45 -6 79h43c0 -27.333 1.16699 -47.666 3.5 -60.999s8 -23.666 17 -30.999s23.833 -11 44.5 -11
c21.333 0 36.666 3.66699 45.999 11s15.166 17.666 17.499 30.999s3.5 33.666 3.5 60.999h43c0 -33.333 -2.16699 -59.5 -6.5 -78.5z" />
    <glyph glyph-name="ibreve" unicode="&#x12d;" horiz-adv-x="190" 
d="M67 0v510h56v-510h-56zM196.5 664.5c-4.33301 -19 -14.332 -34.167 -29.999 -45.5s-40.167 -17 -73.5 -17s-57.666 5.66699 -72.999 17s-25 26.333 -29 45s-6 45 -6 79h43c0 -27.333 1.16699 -47.666 3.5 -60.999s8 -23.666 17 -30.999s23.833 -11 44.5 -11
c21.333 0 36.666 3.66699 45.999 11s15.166 17.666 17.499 30.999s3.5 33.666 3.5 60.999h43c0 -33.333 -2.16699 -59.5 -6.5 -78.5z" />
    <glyph glyph-name="Iogonek" unicode="&#x12e;" horiz-adv-x="214" 
d="M44 -175.5c-13.333 13.667 -20.001 31.833 -20.001 54.5c0 19.333 5.66699 39.833 17 61.5s26.333 41.5 45 59.5h-8v688h58v-688c-14.667 -12.667 -28.5 -30 -41.5 -52s-19.5 -41.667 -19.5 -59c0 -28.667 15.333 -43 46 -43c6 0 11.333 0.333008 16 1v-41
c-12 -1.33301 -21.667 -2 -29 -2c-29.333 0 -50.666 6.83301 -63.999 20.5z" />
    <glyph glyph-name="iogonek" unicode="&#x12f;" horiz-adv-x="190" 
d="M66 730h58v-70h-58v70zM107 -154c6 0 11.666 0.333984 16.999 1.00098v-41c-8 -1.33301 -17.667 -2 -29 -2c-29.333 0 -50.666 6.83301 -63.999 20.5s-20 31.5 -20 53.5c0 20 5.66699 40.833 17 62.5s26.333 41.5 45 59.5h-6v510h56v-510
c-14.667 -12.667 -28.667 -29.834 -42 -51.501s-20 -41.5 -20 -59.5c0 -28.667 15.333 -43 46 -43z" />
    <glyph glyph-name="Idotaccent" unicode="&#x130;" horiz-adv-x="214" 
d="M78 0v688h58v-688h-58zM78 805v70h57v-70h-57z" />
    <glyph glyph-name="dotlessi" unicode="&#x131;" horiz-adv-x="190" 
d="M67 0v510h56v-510h-56z" />
    <glyph glyph-name="IJ" unicode="&#x132;" horiz-adv-x="454" 
d="M78 0v688h58v-688h-58zM299.5 63c11.667 6.66699 18.998 20.832 21.998 42.499s4.5 64.834 4.5 129.501v453h59v-440c0 -84.667 -2.66699 -142.5 -8 -173.5s-17.666 -51 -36.999 -60s-55.666 -13.833 -108.999 -14.5v51c34 1.33301 56.833 5.33301 68.5 12z" />
    <glyph glyph-name="ij" unicode="&#x133;" horiz-adv-x="380" 
d="M65 668v75h60v-75h-60zM67 0v510h56v-510h-56zM255 668v75h60v-75h-60zM186 -147c22 0 37.833 1.66797 47.5 5.00098s16 8.66602 19 15.999s4.5 19 4.5 35v601h56v-585c0 -36.667 -4 -63.167 -12 -79.5s-20.5 -26.833 -37.5 -31.5s-42.833 -7 -77.5 -7v46z" />
    <glyph glyph-name="Jcircumflex" unicode="&#x134;" horiz-adv-x="240" 
d="M85.5 63c11.667 6.66699 18.998 20.832 21.998 42.499s4.5 64.834 4.5 129.501v453h59v-440c0 -84.667 -2.66699 -142.5 -8 -173.5s-17.666 -51 -36.999 -60s-55.666 -13.833 -108.999 -14.5v51c34 1.33301 56.833 5.33301 68.5 12zM30.998 749.998v5l78 133h65l78 -133
v-5h-40l-70 101l-70 -101h-41z" />
    <glyph glyph-name="jcircumflex" unicode="&#x135;" horiz-adv-x="190" 
d="M-4 -147c22 0 37.833 1.66797 47.5 5.00098s16 8.66602 19 15.999s4.5 19 4.5 35v601h56v-585c0 -36.667 -4 -63.167 -12 -79.5s-20.5 -26.833 -37.5 -31.5s-42.833 -7 -77.5 -7v46zM-16 605.001v5l78 133h65l78 -133v-5h-40l-70 101l-70 -101h-41z" />
    <glyph glyph-name="Kcommaaccent" unicode="&#x136;" horiz-adv-x="479" 
d="M396 0l-171 323h-92v-323h-59v688h59v-313h92l171 313h63l-185 -337l187 -351h-65zM236.5 -204.5c5.66699 7.66699 8.49805 23.5 8.49805 47.5v17h-28v78h67v-77c0 -29.333 -2.16699 -51.333 -6.5 -66s-12.666 -25 -24.999 -31s-31.166 -9 -56.499 -9v29
c21.333 0 34.833 3.83301 40.5 11.5z" />
    <glyph glyph-name="kcommaaccent" unicode="&#x137;" horiz-adv-x="402" 
d="M317 0l-134 233h-60v-233h-56v743h56v-459h60l132 226h62l-149 -247l153 -263h-64zM197.5 -204.5c5.66699 7.66699 8.49805 23.5 8.49805 47.5v17h-28v78h67v-77c0 -29.333 -2.16699 -51.333 -6.5 -66s-12.666 -25 -24.999 -31s-31.166 -9 -56.499 -9v29
c21.333 0 34.833 3.83301 40.5 11.5z" />
    <glyph glyph-name="kgreenlandic" unicode="&#x138;" horiz-adv-x="402" 
d="M317 0l-134 233h-60v-233h-56v510h56v-226h60l132 226h62l-149 -247l153 -263h-64z" />
    <glyph glyph-name="Lacute" unicode="&#x139;" horiz-adv-x="378" 
d="M74 0v688h60v-634h231v-54h-291zM85 748v5l56 135h61v-5l-76 -135h-41z" />
    <glyph glyph-name="lacute" unicode="&#x13a;" horiz-adv-x="190" 
d="M67 0v743h56v-743h-56zM69 781v5l56 135h61v-5l-76 -135h-41z" />
    <glyph glyph-name="Lcommaaccent" unicode="&#x13b;" horiz-adv-x="378" 
d="M74 0v688h60v-634h231v-54h-291zM197.5 -204.5c5.66699 7.66699 8.49805 23.5 8.49805 47.5v17h-28v78h67v-77c0 -29.333 -2.16699 -51.333 -6.5 -66s-12.666 -25 -24.999 -31s-31.166 -9 -56.499 -9v29c21.333 0 34.833 3.83301 40.5 11.5z" />
    <glyph glyph-name="lcommaaccent" unicode="&#x13c;" horiz-adv-x="190" 
d="M67 0v743h56v-743h-56zM91.5 -204.5c5.66699 7.66699 8.49805 23.5 8.49805 47.5v17h-28v78h67v-77c0 -29.333 -2.16699 -51.333 -6.5 -66s-12.666 -25 -24.999 -31s-31.166 -9 -56.499 -9v29c21.333 0 34.833 3.83301 40.5 11.5z" />
    <glyph glyph-name="Lcaron" unicode="&#x13d;" horiz-adv-x="378" 
d="M74 0v688h60v-634h231v-54h-291zM243 460l13 157v82h57v-82l-32 -157h-38z" />
    <glyph glyph-name="lcaron" unicode="&#x13e;" horiz-adv-x="197" 
d="M67 0v743h56v-743h-56zM157 449l13 157v82h57v-82l-32 -157h-38z" />
    <glyph glyph-name="Ldot" unicode="&#x13f;" horiz-adv-x="379" 
d="M74 0v688h60v-634h231v-54h-291zM272 319v80h66v-80h-66z" />
    <glyph glyph-name="ldot" unicode="&#x140;" horiz-adv-x="231" 
d="M67 0v743h56v-743h-56zM176 259v80h66v-80h-66z" />
    <glyph glyph-name="Lslash" unicode="&#x141;" horiz-adv-x="379" 
d="M134 54h231v-54h-291v288l-50 -19v50l50 19v350h60v-328l146 54v-50l-146 -54v-256z" />
    <glyph glyph-name="lslash" unicode="&#x142;" horiz-adv-x="195" 
d="M68 0v323l-51 -18v51l51 18v369h56v-349l54 19v-51l-54 -19v-343h-56z" />
    <glyph glyph-name="Nacute" unicode="&#x143;" horiz-adv-x="530" 
d="M395 0l-260 559h-4v-559h-56v688h63l257 -554h4v554h57v-688h-61zM239 748v5l56 135h61v-5l-76 -135h-41z" />
    <glyph glyph-name="nacute" unicode="&#x144;" horiz-adv-x="455" 
d="M334 304c0 50 -2.33105 86.001 -6.99805 108.001s-13.834 36.667 -27.501 44s-35.5 11 -65.5 11c-34.667 0 -59.834 -8.16699 -75.501 -24.5s-25.5 -37.833 -29.5 -64.5s-6 -64.667 -6 -114v-264h-56v510h48l4 -73h5c8 25.333 21.667 45.166 41 59.499s49 21.5 89 21.5
c38.667 0 67.667 -6.5 87 -19.5s32.333 -33.167 39 -60.5s10 -66.333 10 -117v-321h-56v304zM201.002 603.001v5l56 135h61v-5l-76 -135h-41z" />
    <glyph glyph-name="Ncommaaccent" unicode="&#x145;" horiz-adv-x="530" 
d="M395 0l-260 559h-4v-559h-56v688h63l257 -554h4v554h57v-688h-61zM261.5 -204.5c5.66699 7.66699 8.49805 23.5 8.49805 47.5v17h-28v78h67v-77c0 -29.333 -2.16699 -51.333 -6.5 -66s-12.666 -25 -24.999 -31s-31.166 -9 -56.499 -9v29
c21.333 0 34.833 3.83301 40.5 11.5z" />
    <glyph glyph-name="ncommaaccent" unicode="&#x146;" horiz-adv-x="455" 
d="M334 304c0 50 -2.33105 86.001 -6.99805 108.001s-13.834 36.667 -27.501 44s-35.5 11 -65.5 11c-34.667 0 -59.834 -8.16699 -75.501 -24.5s-25.5 -37.833 -29.5 -64.5s-6 -64.667 -6 -114v-264h-56v510h48l4 -73h5c8 25.333 21.667 45.166 41 59.499s49 21.5 89 21.5
c38.667 0 67.667 -6.5 87 -19.5s32.333 -33.167 39 -60.5s10 -66.333 10 -117v-321h-56v304zM223.502 -204.499c5.66699 7.66699 8.49805 23.5 8.49805 47.5v17h-28v78h67v-77c0 -29.333 -2.16699 -51.333 -6.5 -66s-12.666 -25 -24.999 -31s-31.166 -9 -56.499 -9v29
c21.333 0 34.833 3.83301 40.5 11.5z" />
    <glyph glyph-name="Ncaron" unicode="&#x147;" horiz-adv-x="530" 
d="M395 0l-260 559h-4v-559h-56v688h63l257 -554h4v554h57v-688h-61zM232 750l-78 132v6h41l70 -102l70 102h40v-6l-78 -132h-65z" />
    <glyph glyph-name="ncaron" unicode="&#x148;" horiz-adv-x="455" 
d="M334 304c0 50 -2.33105 86.001 -6.99805 108.001s-13.834 36.667 -27.501 44s-35.5 11 -65.5 11c-34.667 0 -59.834 -8.16699 -75.501 -24.5s-25.5 -37.833 -29.5 -64.5s-6 -64.667 -6 -114v-264h-56v510h48l4 -73h5c8 25.333 21.667 45.166 41 59.499s49 21.5 89 21.5
c38.667 0 67.667 -6.5 87 -19.5s32.333 -33.167 39 -60.5s10 -66.333 10 -117v-321h-56v304zM194.002 605.001l-78 132v6h41l70 -102l70 102h40v-6l-78 -132h-65z" />
    <glyph glyph-name="napostrophe" unicode="&#x149;" horiz-adv-x="478" 
d="M37.5 596.5c7 3.66699 11.498 9.66699 13.498 18s3 21.5 3 39.5v17h-27v72h66v-71c0 -30.667 -2.16699 -53.667 -6.5 -69s-12.666 -26 -24.999 -32s-31.166 -9 -56.499 -9v29c14.667 0 25.5 1.83301 32.5 5.5zM356.998 304c0 50 -2.33105 86.001 -6.99805 108.001
s-13.834 36.667 -27.501 44s-35.5 11 -65.5 11c-34.667 0 -59.834 -8.16699 -75.501 -24.5s-25.5 -37.833 -29.5 -64.5s-6 -64.667 -6 -114v-264h-56v510h48l4 -73h5c8 25.333 21.667 45.166 41 59.499s49 21.5 89 21.5c38.667 0 67.667 -6.5 87 -19.5
s32.333 -33.167 39 -60.5s10 -66.333 10 -117v-321h-56v304z" />
    <glyph glyph-name="Eng" unicode="&#x14a;" horiz-adv-x="530" 
d="M456 688v-762.999c0 -36.667 -4.16699 -63.167 -12.5 -79.5s-20.833 -26.833 -37.5 -31.5s-42.667 -7 -78 -7v46c22 0 37.833 1.66699 47.5 5s16 8.66602 19 15.999s4.5 19 4.5 35v92l-264 558h-4v-559h-56v688h63l257 -549h4v549h57z" />
    <glyph glyph-name="eng" unicode="&#x14b;" horiz-adv-x="455" 
d="M341 498.5c19.333 -13 32.335 -33.165 39.002 -60.498s10 -66.333 10 -117v-396c0 -36.667 -4 -63.167 -12 -79.5s-20.5 -26.833 -37.5 -31.5s-42.833 -7 -77.5 -7v46c22 0 37.833 1.66699 47.5 5s16 8.66602 19 15.999s4.5 19 4.5 35v395c0 50 -2.33301 86 -7 108
s-13.834 36.667 -27.501 44s-35.5 11 -65.5 11c-34.667 0 -59.834 -8.16699 -75.501 -24.5s-25.5 -37.833 -29.5 -64.5s-6 -64.667 -6 -114v-264h-56v510h48l4 -73h5c8 25.333 21.667 45.166 41 59.499s49 21.5 89 21.5c38.667 0 67.667 -6.5 87 -19.5z" />
    <glyph glyph-name="Omacron" unicode="&#x14c;" horiz-adv-x="521" 
d="M123 18c-27.333 17.333 -45.166 49.002 -53.499 95.002s-12.5 123 -12.5 231s4.16699 185 12.5 231s26.166 77.667 53.499 95s73 26 137 26c64.667 0 110.667 -8.66699 138 -26s45 -48.833 53 -94.5s12 -122.834 12 -231.501s-4 -185.834 -12 -231.501
s-25.667 -77.167 -53 -94.5s-73.333 -26 -138 -26c-64 0 -109.667 8.66699 -137 26zM358 60.502c18 10.333 30.167 35.166 36.5 74.499s9.5 109 9.5 209s-3.16699 169.667 -9.5 209s-18.5 64.166 -36.5 74.499s-50.667 15.5 -98 15.5s-80 -5.16699 -98 -15.5
s-30.167 -35.166 -36.5 -74.499s-9.5 -109 -9.5 -209s3.16699 -169.667 9.5 -209s18.5 -64.166 36.5 -74.499s50.667 -15.5 98 -15.5s80 5.16699 98 15.5zM164 834.002v54h191v-54h-191z" />
    <glyph glyph-name="omacron" unicode="&#x14d;" horiz-adv-x="441" 
d="M105.5 13c-23 14 -38 38.167 -45 72.5s-10.5 90.5 -10.5 168.5c0 78.667 3.5 135.334 10.5 170.001s22 59 45 73s61.167 21 114.5 21s91.666 -7 114.999 -21s38.333 -38.333 45 -73s10 -91.334 10 -170.001c0 -78 -3.33301 -134.167 -10 -168.5s-21.667 -58.5 -45 -72.5
s-61.666 -21 -114.999 -21s-91.5 7 -114.5 21zM299.5 56c15 10 24.498 28.5 28.498 55.5s6 74.5 6 142.5s-2 115.667 -6 143s-13.667 46.166 -29 56.499s-41.666 15.5 -78.999 15.5s-63.666 -5.16699 -78.999 -15.5s-25 -29.166 -29 -56.499s-6 -75 -6 -143
s2 -115.5 6 -142.5s13.5 -45.5 28.5 -55.5s41.5 -15 79.5 -15s64.5 5 79.5 15zM123.998 689v54h191v-54h-191z" />
    <glyph glyph-name="Obreve" unicode="&#x14e;" horiz-adv-x="521" 
d="M123 18c-27.333 17.333 -45.166 49.002 -53.499 95.002s-12.5 123 -12.5 231s4.16699 185 12.5 231s26.166 77.667 53.499 95s73 26 137 26c64.667 0 110.667 -8.66699 138 -26s45 -48.833 53 -94.5s12 -122.834 12 -231.501s-4 -185.834 -12 -231.501
s-25.667 -77.167 -53 -94.5s-73.333 -26 -138 -26c-64 0 -109.667 8.66699 -137 26zM358 60.502c18 10.333 30.167 35.166 36.5 74.499s9.5 109 9.5 209s-3.16699 169.667 -9.5 209s-18.5 64.166 -36.5 74.499s-50.667 15.5 -98 15.5s-80 -5.16699 -98 -15.5
s-30.167 -35.166 -36.5 -74.499s-9.5 -109 -9.5 -209s3.16699 -169.667 9.5 -209s18.5 -64.166 36.5 -74.499s50.667 -15.5 98 -15.5s80 5.16699 98 15.5zM361.5 809.502c-4.33301 -19 -14.332 -34.167 -29.999 -45.5s-40.167 -17 -73.5 -17s-57.666 5.66699 -72.999 17
s-25 26.333 -29 45s-6 45 -6 79h43c0 -27.333 1.16699 -47.666 3.5 -60.999s8 -23.666 17 -30.999s23.833 -11 44.5 -11c21.333 0 36.666 3.66699 45.999 11s15.166 17.666 17.499 30.999s3.5 33.666 3.5 60.999h43c0 -33.333 -2.16699 -59.5 -6.5 -78.5z" />
    <glyph glyph-name="obreve" unicode="&#x14f;" horiz-adv-x="441" 
d="M105.5 13c-23 14 -38 38.167 -45 72.5s-10.5 90.5 -10.5 168.5c0 78.667 3.5 135.334 10.5 170.001s22 59 45 73s61.167 21 114.5 21s91.666 -7 114.999 -21s38.333 -38.333 45 -73s10 -91.334 10 -170.001c0 -78 -3.33301 -134.167 -10 -168.5s-21.667 -58.5 -45 -72.5
s-61.666 -21 -114.999 -21s-91.5 7 -114.5 21zM299.5 56c15 10 24.498 28.5 28.498 55.5s6 74.5 6 142.5s-2 115.667 -6 143s-13.667 46.166 -29 56.499s-41.666 15.5 -78.999 15.5s-63.666 -5.16699 -78.999 -15.5s-25 -29.166 -29 -56.499s-6 -75 -6 -143
s2 -115.5 6 -142.5s13.5 -45.5 28.5 -55.5s41.5 -15 79.5 -15s64.5 5 79.5 15zM321.498 664.5c-4.33301 -19 -14.332 -34.167 -29.999 -45.5s-40.167 -17 -73.5 -17s-57.666 5.66699 -72.999 17s-25 26.333 -29 45s-6 45 -6 79h43c0 -27.333 1.16699 -47.666 3.5 -60.999
s8 -23.666 17 -30.999s23.833 -11 44.5 -11c21.333 0 36.666 3.66699 45.999 11s15.166 17.666 17.499 30.999s3.5 33.666 3.5 60.999h43c0 -33.333 -2.16699 -59.5 -6.5 -78.5z" />
    <glyph glyph-name="Ohungarumlaut" unicode="&#x150;" horiz-adv-x="521" 
d="M123 18c-27.333 17.333 -45.166 49.002 -53.499 95.002s-12.5 123 -12.5 231s4.16699 185 12.5 231s26.166 77.667 53.499 95s73 26 137 26c64.667 0 110.667 -8.66699 138 -26s45 -48.833 53 -94.5s12 -122.834 12 -231.501s-4 -185.834 -12 -231.501
s-25.667 -77.167 -53 -94.5s-73.333 -26 -138 -26c-64 0 -109.667 8.66699 -137 26zM358 60.502c18 10.333 30.167 35.166 36.5 74.499s9.5 109 9.5 209s-3.16699 169.667 -9.5 209s-18.5 64.166 -36.5 74.499s-50.667 15.5 -98 15.5s-80 -5.16699 -98 -15.5
s-30.167 -35.166 -36.5 -74.499s-9.5 -109 -9.5 -209s3.16699 -169.667 9.5 -209s18.5 -64.166 36.5 -74.499s50.667 -15.5 98 -15.5s80 5.16699 98 15.5zM176 754.002v5l52 119h57v-5l-72 -119h-37zM308 754.002v5l52 119h56v-5l-71 -119h-37z" />
    <glyph glyph-name="ohungarumlaut" unicode="&#x151;" horiz-adv-x="441" 
d="M105.5 13c-23 14 -38 38.167 -45 72.5s-10.5 90.5 -10.5 168.5c0 78.667 3.5 135.334 10.5 170.001s22 59 45 73s61.167 21 114.5 21s91.666 -7 114.999 -21s38.333 -38.333 45 -73s10 -91.334 10 -170.001c0 -78 -3.33301 -134.167 -10 -168.5s-21.667 -58.5 -45 -72.5
s-61.666 -21 -114.999 -21s-91.5 7 -114.5 21zM299.5 56c15 10 24.498 28.5 28.498 55.5s6 74.5 6 142.5s-2 115.667 -6 143s-13.667 46.166 -29 56.499s-41.666 15.5 -78.999 15.5s-63.666 -5.16699 -78.999 -15.5s-25 -29.166 -29 -56.499s-6 -75 -6 -143
s2 -115.5 6 -142.5s13.5 -45.5 28.5 -55.5s41.5 -15 79.5 -15s64.5 5 79.5 15zM142.998 609v5l52 119h57v-5l-72 -119h-37zM274.998 609v5l52 119h56v-5l-71 -119h-37z" />
    <glyph glyph-name="OE" unicode="&#x152;" horiz-adv-x="747" 
d="M123 25.5c-27.333 17 -45.168 48 -53.501 93s-12.5 120.167 -12.5 225.5s4.16699 180.5 12.5 225.5s26.166 76 53.499 93s73 25.5 137 25.5h449v-53h-237c-15.333 0 -34.666 1.66699 -57.999 5c18.667 -18 31.334 -47 38.001 -87s10.334 -99.667 11.001 -179h212v-53
h-212c-0.666992 -82 -4.33398 -143.5 -11.001 -184.5s-19.667 -70.5 -39 -88.5c23.333 3.33301 43 5 59 5h237v-53h-449c-64 0 -109.667 8.5 -137 25.5zM357.998 68.5c18 10.333 30.167 34.5 36.5 72.5s9.5 105.667 9.5 203s-3.16699 165 -9.5 203s-18.5 62.167 -36.5 72.5
s-50.667 15.5 -98 15.5s-80 -5.16699 -98 -15.5s-30.167 -34.5 -36.5 -72.5s-9.5 -105.667 -9.5 -203s3.16699 -165 9.5 -203s18.5 -62.167 36.5 -72.5s50.667 -15.5 98 -15.5s80 5.16699 98 15.5z" />
    <glyph glyph-name="oe" unicode="&#x153;" horiz-adv-x="713" 
d="M662 236l-271.001 -0.00195312c0 -58 2.66699 -99.833 8 -125.5s16.666 -43.667 33.999 -54s46 -15.5 86 -15.5c20 0 42 1.16699 66 3.5s45 5.5 63 9.5v-48c-15.333 -4 -36 -7.33301 -62 -10s-51.333 -4 -76 -4c-40 0 -71.5 5 -94.5 15s-40.5 27 -52.5 51
c-10 -24.667 -26 -41.834 -48 -51.501s-53.667 -14.5 -95 -14.5c-53.333 0 -91.5 7 -114.5 21s-38 38.167 -45 72.5s-10.5 90.5 -10.5 168.5c0 78.667 3.5 135.334 10.5 170.001s22 59 45 73s61.167 21 114.5 21c40.667 0 72 -4.66699 94 -14s38 -25.666 48 -48.999
c11.333 22 28.333 38 51 48s54 15 94 15c48.667 0 83.834 -7.83301 105.501 -23.5s35.334 -40.667 41.001 -75s8.5 -89.166 8.5 -164.499v-19zM299.499 55.998c15 10 24.498 28.5 28.498 55.5s6 74.5 6 142.5s-2 115.667 -6 143s-13.667 46.166 -29 56.499
s-41.666 15.5 -78.999 15.5s-63.666 -5.16699 -78.999 -15.5s-25 -29.166 -29 -56.499s-6 -75 -6 -143s2 -115.5 6 -142.5s13.5 -45.5 28.5 -55.5s41.5 -15 79.5 -15s64.5 5 79.5 15zM428.997 455.498c-15.333 -9 -25.501 -26 -30.501 -51s-7.5 -66.167 -7.5 -123.5h217v15
c0 52 -3 90 -9 114s-15.833 39.833 -29.5 47.5s-35.167 11.5 -64.5 11.5c-35.333 0 -60.666 -4.5 -75.999 -13.5z" />
    <glyph glyph-name="Racute" unicode="&#x154;" horiz-adv-x="494" 
d="M386 0l-90.001 284.001h-19h-144v-284h-59v688h208c46 0 80.333 -8.66699 103 -26s37.167 -40 43.5 -68s9.5 -64 9.5 -108c0 -51.333 -5.16699 -92.833 -15.5 -124.5s-33.166 -53.834 -68.499 -66.501l95 -295h-63zM341.499 353.001
c15.667 11.333 25.8311 27.167 30.498 47.5s7 48.833 7 85.5c0 37.333 -2.16699 66 -6.5 86s-14.166 35.5 -29.499 46.5s-39.666 16.5 -72.999 16.5h-137v-299h135c33.333 0 57.833 5.66699 73.5 17zM220.996 748.002v5l56 135h61v-5l-76 -135h-41z" />
    <glyph glyph-name="racute" unicode="&#x155;" horiz-adv-x="277" 
d="M67 510l48.001 -0.000976562l4 -98h5c8.66699 40.667 24.167 68.5 46.5 83.5s51.5 22.5 87.5 22.5v-57c-35.333 0 -62.833 -7.83301 -82.5 -23.5s-33.334 -38.667 -41.001 -69s-11.5 -70.166 -11.5 -119.499v-249h-56v510zM113.001 602.999v5l56 135h61v-5l-76 -135h-41z
" />
    <glyph glyph-name="Rcommaaccent" unicode="&#x156;" horiz-adv-x="494" 
d="M386 0l-90.001 284.001h-19h-144v-284h-59v688h208c46 0 80.333 -8.66699 103 -26s37.167 -40 43.5 -68s9.5 -64 9.5 -108c0 -51.333 -5.16699 -92.833 -15.5 -124.5s-33.166 -53.834 -68.499 -66.501l95 -295h-63zM341.499 353.001
c15.667 11.333 25.8311 27.167 30.498 47.5s7 48.833 7 85.5c0 37.333 -2.16699 66 -6.5 86s-14.166 35.5 -29.499 46.5s-39.666 16.5 -72.999 16.5h-137v-299h135c33.333 0 57.833 5.66699 73.5 17zM243.496 -204.498c5.66699 7.66699 8.49805 23.5 8.49805 47.5v17h-28v78
h67v-77c0 -29.333 -2.16699 -51.333 -6.5 -66s-12.666 -25 -24.999 -31s-31.166 -9 -56.499 -9v29c21.333 0 34.833 3.83301 40.5 11.5z" />
    <glyph glyph-name="rcommaaccent" unicode="&#x157;" horiz-adv-x="277" 
d="M67 510l48.001 -0.000976562l4 -98h5c8.66699 40.667 24.167 68.5 46.5 83.5s51.5 22.5 87.5 22.5v-57c-35.333 0 -62.833 -7.83301 -82.5 -23.5s-33.334 -38.667 -41.001 -69s-11.5 -70.166 -11.5 -119.499v-249h-56v510zM91.501 -204.501
c5.66699 7.66699 8.49805 23.5 8.49805 47.5v17h-28v78h67v-77c0 -29.333 -2.16699 -51.333 -6.5 -66s-12.666 -25 -24.999 -31s-31.166 -9 -56.499 -9v29c21.333 0 34.833 3.83301 40.5 11.5z" />
    <glyph glyph-name="Rcaron" unicode="&#x158;" horiz-adv-x="494" 
d="M386 0l-90.001 284.001h-19h-144v-284h-59v688h208c46 0 80.333 -8.66699 103 -26s37.167 -40 43.5 -68s9.5 -64 9.5 -108c0 -51.333 -5.16699 -92.833 -15.5 -124.5s-33.166 -53.834 -68.499 -66.501l95 -295h-63zM341.499 353.001
c15.667 11.333 25.8311 27.167 30.498 47.5s7 48.833 7 85.5c0 37.333 -2.16699 66 -6.5 86s-14.166 35.5 -29.499 46.5s-39.666 16.5 -72.999 16.5h-137v-299h135c33.333 0 57.833 5.66699 73.5 17zM213.996 750.002l-78 132v6h41l70 -102l70 102h40v-6l-78 -132h-65z" />
    <glyph glyph-name="rcaron" unicode="&#x159;" horiz-adv-x="277" 
d="M67 510l48.001 -0.000976562l4 -98h5c8.66699 40.667 24.167 68.5 46.5 83.5s51.5 22.5 87.5 22.5v-57c-35.333 0 -62.833 -7.83301 -82.5 -23.5s-33.334 -38.667 -41.001 -69s-11.5 -70.166 -11.5 -119.499v-249h-56v510zM106.001 604.999l-78 132v6h41l70 -102l70 102
h40v-6l-78 -132h-65z" />
    <glyph glyph-name="Sacute" unicode="&#x15a;" horiz-adv-x="444" 
d="M138.5 -4.5c-31 2.33301 -57.832 5.49609 -80.499 9.49609v52c23.333 -3.33301 49.166 -6.16602 77.499 -8.49902s52.5 -3.5 72.5 -3.5c26.667 0 48.167 1.83301 64.5 5.5s30.5 10.5 42.5 20.5c10.667 8.66699 17.667 22.334 21 41.001s5 43.334 5 74.001
c0 40.667 -1.33301 68.834 -4 84.501s-9.33398 26.667 -20.001 33s-29.667 11.833 -57 16.5l-123 19c-28 4 -48.667 13 -62 27s-21.833 31.833 -25.5 53.5s-5.5 51.5 -5.5 89.5c0 67.333 14.167 115.333 42.5 144s74.833 43 139.5 43c27.333 0 54.833 -1.33301 82.5 -4
s49.5 -6 65.5 -10v-51c-18.667 3.33301 -40.667 6.16602 -66 8.49902s-48.666 3.5 -69.999 3.5c-30 0 -53.833 -2.5 -71.5 -7.5s-31.167 -13.167 -40.5 -24.5s-15.5 -24.833 -18.5 -40.5s-4.5 -36.167 -4.5 -61.5c0 -32.667 1.5 -56.334 4.5 -71.001s8.66699 -25 17 -31
s22.5 -10.667 42.5 -14l116 -18c30 -5.33301 53.167 -12.666 69.5 -21.999s28.833 -25.333 37.5 -48c6.66699 -17.333 10 -54.666 10 -111.999c0 -50 -5.33301 -89.333 -16 -118s-28.5 -49.667 -53.5 -63s-59.833 -20 -104.5 -20c-27.333 0 -56.5 1.16699 -87.5 3.5z
M196.001 747.996v5l56 135h61v-5l-76 -135h-41z" />
    <glyph glyph-name="sacute" unicode="&#x15b;" horiz-adv-x="378" 
d="M115 -4.5c-25.333 2.33301 -46.0039 5.16895 -62.0039 8.50195v48c40 -7.33301 85 -11 135 -11c38 0 63.167 7.5 75.5 22.5s18.5 39.167 18.5 72.5c0 26.667 -1.5 46 -4.5 58s-8 20 -15 24s-18.5 7 -34.5 9l-103 14c-32 4.66699 -54 16.667 -66 36s-18 50.666 -18 93.999
c0 40 6.16699 70.667 18.5 92s29.5 35.833 51.5 43.5s50.667 11.5 86 11.5c19.333 0 40.333 -1.33301 63 -4s41.334 -5.66699 56.001 -9v-48c-35.333 8 -76.666 12 -123.999 12c-33.333 0 -57.666 -6.33301 -72.999 -19s-23 -37.334 -23 -74.001c0 -24 1.5 -41.667 4.5 -53
s8 -19 15 -23s18.167 -7 33.5 -9l101 -14c22.667 -3.33301 40 -9 52 -17s20.833 -21.333 26.5 -40s8.5 -46 8.5 -82c0 -54.667 -11.667 -92.667 -35 -114s-61.666 -32 -114.999 -32c-22.667 0 -46.667 1.16699 -72 3.5zM162.996 603.003v5l56 135h61v-5l-76 -135h-41z" />
    <glyph glyph-name="Scircumflex" unicode="&#x15c;" horiz-adv-x="444" 
d="M138.5 -4.5c-31 2.33301 -57.832 5.49609 -80.499 9.49609v52c23.333 -3.33301 49.166 -6.16602 77.499 -8.49902s52.5 -3.5 72.5 -3.5c26.667 0 48.167 1.83301 64.5 5.5s30.5 10.5 42.5 20.5c10.667 8.66699 17.667 22.334 21 41.001s5 43.334 5 74.001
c0 40.667 -1.33301 68.834 -4 84.501s-9.33398 26.667 -20.001 33s-29.667 11.833 -57 16.5l-123 19c-28 4 -48.667 13 -62 27s-21.833 31.833 -25.5 53.5s-5.5 51.5 -5.5 89.5c0 67.333 14.167 115.333 42.5 144s74.833 43 139.5 43c27.333 0 54.833 -1.33301 82.5 -4
s49.5 -6 65.5 -10v-51c-18.667 3.33301 -40.667 6.16602 -66 8.49902s-48.666 3.5 -69.999 3.5c-30 0 -53.833 -2.5 -71.5 -7.5s-31.167 -13.167 -40.5 -24.5s-15.5 -24.833 -18.5 -40.5s-4.5 -36.167 -4.5 -61.5c0 -32.667 1.5 -56.334 4.5 -71.001s8.66699 -25 17 -31
s22.5 -10.667 42.5 -14l116 -18c30 -5.33301 53.167 -12.666 69.5 -21.999s28.833 -25.333 37.5 -48c6.66699 -17.333 10 -54.666 10 -111.999c0 -50 -5.33301 -89.333 -16 -118s-28.5 -49.667 -53.5 -63s-59.833 -20 -104.5 -20c-27.333 0 -56.5 1.16699 -87.5 3.5z
M111.001 749.996v5l78 133h65l78 -133v-5h-40l-70 101l-70 -101h-41z" />
    <glyph glyph-name="scircumflex" unicode="&#x15d;" horiz-adv-x="378" 
d="M115 -4.5c-25.333 2.33301 -46.0039 5.16895 -62.0039 8.50195v48c40 -7.33301 85 -11 135 -11c38 0 63.167 7.5 75.5 22.5s18.5 39.167 18.5 72.5c0 26.667 -1.5 46 -4.5 58s-8 20 -15 24s-18.5 7 -34.5 9l-103 14c-32 4.66699 -54 16.667 -66 36s-18 50.666 -18 93.999
c0 40 6.16699 70.667 18.5 92s29.5 35.833 51.5 43.5s50.667 11.5 86 11.5c19.333 0 40.333 -1.33301 63 -4s41.334 -5.66699 56.001 -9v-48c-35.333 8 -76.666 12 -123.999 12c-33.333 0 -57.666 -6.33301 -72.999 -19s-23 -37.334 -23 -74.001c0 -24 1.5 -41.667 4.5 -53
s8 -19 15 -23s18.167 -7 33.5 -9l101 -14c22.667 -3.33301 40 -9 52 -17s20.833 -21.333 26.5 -40s8.5 -46 8.5 -82c0 -54.667 -11.667 -92.667 -35 -114s-61.666 -32 -114.999 -32c-22.667 0 -46.667 1.16699 -72 3.5zM77.9961 605.003v5l78 133h65l78 -133v-5h-40l-70 101
l-70 -101h-41z" />
    <glyph glyph-name="Scedilla" unicode="&#x15e;" horiz-adv-x="444" 
d="M385.5 78c-9.66699 -28.667 -25.999 -49.8369 -48.999 -63.5039s-54.833 -21.167 -95.5 -22.5l-41 -182h-57v5l55 177c-60 2.66699 -106.667 7 -140 13v52c23.333 -3.33301 49.166 -6.16602 77.499 -8.49902s52.5 -3.5 72.5 -3.5c26.667 0 48.167 1.83301 64.5 5.5
s30.5 10.5 42.5 20.5c10.667 8.66699 17.667 22.334 21 41.001s5 43.334 5 74.001c0 40.667 -1.33301 68.834 -4 84.501s-9.33398 26.667 -20.001 33s-29.667 11.833 -57 16.5l-123 19c-28 4 -48.667 13 -62 27s-21.833 31.833 -25.5 53.5s-5.5 51.5 -5.5 89.5
c0 67.333 14.167 115.333 42.5 144s74.833 43 139.5 43c27.333 0 54.833 -1.33301 82.5 -4s49.5 -6 65.5 -10v-51c-18.667 3.33301 -40.667 6.16602 -66 8.49902s-48.666 3.5 -69.999 3.5c-30 0 -53.833 -2.5 -71.5 -7.5s-31.167 -13.167 -40.5 -24.5
s-15.5 -24.833 -18.5 -40.5s-4.5 -36.167 -4.5 -61.5c0 -32.667 1.5 -56.334 4.5 -71.001s8.66699 -25 17 -31s22.5 -10.667 42.5 -14l116 -18c30 -5.33301 53.167 -12.666 69.5 -21.999s28.833 -25.333 37.5 -48c6.66699 -17.333 10 -54.666 10 -111.999
c0 -48 -4.83301 -86.333 -14.5 -115z" />
    <glyph glyph-name="scedilla" unicode="&#x15f;" horiz-adv-x="378" 
d="M306.5 29c-20.333 -22 -53.1699 -34.3311 -98.5029 -36.998l-41 -182h-57v5l55 177c-50 2.66699 -87.333 6.66699 -112 12v48c40 -7.33301 85 -11 135 -11c38 0 63.167 7.5 75.5 22.5s18.5 39.167 18.5 72.5c0 26.667 -1.5 46 -4.5 58s-8 20 -15 24s-18.5 7 -34.5 9
l-103 14c-32 4.66699 -54 16.667 -66 36s-18 50.666 -18 93.999c0 40 6.16699 70.667 18.5 92s29.5 35.833 51.5 43.5s50.667 11.5 86 11.5c19.333 0 40.333 -1.33301 63 -4s41.334 -5.66699 56.001 -9v-48c-35.333 8 -76.666 12 -123.999 12
c-33.333 0 -57.666 -6.33301 -72.999 -19s-23 -37.334 -23 -74.001c0 -24 1.5 -41.667 4.5 -53s8 -19 15 -23s18.167 -7 33.5 -9l101 -14c22.667 -3.33301 40 -9 52 -17s20.833 -21.333 26.5 -40s8.5 -46 8.5 -82c0 -50.667 -10.167 -87 -30.5 -109z" />
    <glyph glyph-name="Scaron" unicode="&#x160;" horiz-adv-x="445" 
d="M138.5 -4.5c-31 2.33301 -57.832 5.49609 -80.499 9.49609v52c23.333 -3.33301 49.166 -6.16602 77.499 -8.49902s52.5 -3.5 72.5 -3.5c26.667 0 48.167 1.83301 64.5 5.5s30.5 10.5 42.5 20.5c10.667 8.66699 17.667 22.334 21 41.001s5 43.334 5 74.001
c0 40.667 -1.33301 68.834 -4 84.501s-9.33398 26.667 -20.001 33s-29.667 11.833 -57 16.5l-123 19c-28 4 -48.667 13 -62 27s-21.833 31.833 -25.5 53.5s-5.5 51.5 -5.5 89.5c0 67.333 14.167 115.333 42.5 144s74.833 43 139.5 43c27.333 0 54.833 -1.33301 82.5 -4
s49.5 -6 65.5 -10v-51c-18.667 3.33301 -40.667 6.16602 -66 8.49902s-48.666 3.5 -69.999 3.5c-30 0 -53.833 -2.5 -71.5 -7.5s-31.167 -13.167 -40.5 -24.5s-15.5 -24.833 -18.5 -40.5s-4.5 -36.167 -4.5 -61.5c0 -32.667 1.5 -56.334 4.5 -71.001s8.66699 -25 17 -31
s22.5 -10.667 42.5 -14l116 -18c30 -5.33301 53.167 -12.666 69.5 -21.999s28.833 -25.333 37.5 -48c6.66699 -17.333 10 -54.666 10 -111.999c0 -50 -5.33301 -89.333 -16 -118s-28.5 -49.667 -53.5 -63s-59.833 -20 -104.5 -20c-27.333 0 -56.5 1.16699 -87.5 3.5z
M194.001 749.996l-78 132v6h41l70 -102l70 102h40v-6l-78 -132h-65z" />
    <glyph glyph-name="scaron" unicode="&#x161;" horiz-adv-x="378" 
d="M115 -4.5c-25.333 2.33301 -46.0039 5.16895 -62.0039 8.50195v48c40 -7.33301 85 -11 135 -11c38 0 63.167 7.5 75.5 22.5s18.5 39.167 18.5 72.5c0 26.667 -1.5 46 -4.5 58s-8 20 -15 24s-18.5 7 -34.5 9l-103 14c-32 4.66699 -54 16.667 -66 36s-18 50.666 -18 93.999
c0 40 6.16699 70.667 18.5 92s29.5 35.833 51.5 43.5s50.667 11.5 86 11.5c19.333 0 40.333 -1.33301 63 -4s41.334 -5.66699 56.001 -9v-48c-35.333 8 -76.666 12 -123.999 12c-33.333 0 -57.666 -6.33301 -72.999 -19s-23 -37.334 -23 -74.001c0 -24 1.5 -41.667 4.5 -53
s8 -19 15 -23s18.167 -7 33.5 -9l101 -14c22.667 -3.33301 40 -9 52 -17s20.833 -21.333 26.5 -40s8.5 -46 8.5 -82c0 -54.667 -11.667 -92.667 -35 -114s-61.666 -32 -114.999 -32c-22.667 0 -46.667 1.16699 -72 3.5zM158.996 605.003l-78 132v6h41l70 -102l70 102h40v-6
l-78 -132h-65z" />
    <glyph glyph-name="uni0162" unicode="&#x162;" horiz-adv-x="413" 
d="M19 688h375v-54h-158v-634h-10l-42 -190h-57v5l58 185h-8v634h-158v54z" />
    <glyph glyph-name="uni0163" unicode="&#x163;" horiz-adv-x="265" 
d="M154 510h89v-49h-89v-461h-8l-42 -190h-57v5l58 185h-7v461h-77v49h77v148h56v-148z" />
    <glyph glyph-name="Tcaron" unicode="&#x164;" horiz-adv-x="413" 
d="M177 0v634h-158v54h375v-54h-158v-634h-59zM173 750l-78 132v6h41l70 -102l70 102h40v-6l-78 -132h-65z" />
    <glyph glyph-name="tcaron" unicode="&#x165;" horiz-adv-x="282" 
d="M98 0v461h-77v49h77v148h56v-148h89v-49h-89v-461h-56zM273 449l13 157v82h57v-82l-32 -157h-38z" />
    <glyph glyph-name="Tbar" unicode="&#x166;" horiz-adv-x="413" 
d="M394 634h-158v-264h130v-49h-130v-321h-59v321h-130v49h130v264h-158v54h375v-54z" />
    <glyph glyph-name="tbar" unicode="&#x167;" horiz-adv-x="265" 
d="M243 461h-89v-181h85v-49h-85v-231h-56v231h-69v49h69v181h-77v49h77v148h56v-148h89v-49z" />
    <glyph glyph-name="Utilde" unicode="&#x168;" horiz-adv-x="517" 
d="M448 688v-391c0 -88.667 -4 -153.167 -12 -193.5s-25 -69 -51 -86s-68 -25.5 -126 -25.5c-58.667 0 -101 8.5 -127 25.5s-43 45.667 -51 86s-12 104.833 -12 193.5v391h58v-424c0 -66 2.5 -113.167 7.5 -141.5s16.5 -48.333 34.5 -60s48 -17.5 90 -17.5
c41.333 0 70.833 5.83301 88.5 17.5s29 31.667 34 60s7.5 75.5 7.5 141.5v424h59zM384.5 807c-7 -14.667 -22.501 -22.001 -46.501 -22.001c-12.667 0 -25.167 2 -37.5 6s-28.5 10 -48.5 18c-16 7.33301 -29.167 12.833 -39.5 16.5s-20.5 5.5 -30.5 5.5s-16.5 -4 -19.5 -12
s-4.5 -23 -4.5 -45h-37c0 38.667 3.66699 65.5 11 80.5s23 22.5 47 22.5c13.333 0 26.5 -2.16699 39.5 -6.5s29.167 -10.833 48.5 -19.5c16.667 -6.66699 29.834 -11.667 39.501 -15s19.167 -5 28.5 -5c10 0 16.333 3.83301 19 11.5s4 22.834 4 45.501h37
c0 -39.333 -3.5 -66.333 -10.5 -81z" />
    <glyph glyph-name="utilde" unicode="&#x169;" horiz-adv-x="455" 
d="M336 73l-4.99805 -0.000976562c-8 -25.333 -21.833 -45.166 -41.5 -59.499s-49.167 -21.5 -88.5 -21.5c-38.667 0 -67.834 6.5 -87.501 19.5s-32.834 33.167 -39.501 60.5s-10 66.333 -10 117v321h56v-304c0 -50 2.5 -86 7.5 -108s14.167 -36.667 27.5 -44
s35.333 -11 66 -11c34 0 59 8.16699 75 24.5s25.833 37.833 29.5 64.5s5.5 64.667 5.5 114v264h56v-510h-47zM352.502 661.999c-7 -14.667 -22.501 -22.001 -46.501 -22.001c-12.667 0 -25.167 2 -37.5 6s-28.5 10 -48.5 18c-16 7.33301 -29.167 12.833 -39.5 16.5
s-20.5 5.5 -30.5 5.5s-16.5 -4 -19.5 -12s-4.5 -23 -4.5 -45h-37c0 38.667 3.66699 65.5 11 80.5s23 22.5 47 22.5c13.333 0 26.5 -2.16699 39.5 -6.5s29.167 -10.833 48.5 -19.5c16.667 -6.66699 29.834 -11.667 39.501 -15s19.167 -5 28.5 -5c10 0 16.333 3.83301 19 11.5
s4 22.834 4 45.501h37c0 -39.333 -3.5 -66.333 -10.5 -81z" />
    <glyph glyph-name="Umacron" unicode="&#x16a;" horiz-adv-x="517" 
d="M448 688v-391c0 -88.667 -4 -153.167 -12 -193.5s-25 -69 -51 -86s-68 -25.5 -126 -25.5c-58.667 0 -101 8.5 -127 25.5s-43 45.667 -51 86s-12 104.833 -12 193.5v391h58v-424c0 -66 2.5 -113.167 7.5 -141.5s16.5 -48.333 34.5 -60s48 -17.5 90 -17.5
c41.333 0 70.833 5.83301 88.5 17.5s29 31.667 34 60s7.5 75.5 7.5 141.5v424h59zM163 834v54h191v-54h-191z" />
    <glyph glyph-name="umacron" unicode="&#x16b;" horiz-adv-x="455" 
d="M336 73l-4.99805 -0.000976562c-8 -25.333 -21.833 -45.166 -41.5 -59.499s-49.167 -21.5 -88.5 -21.5c-38.667 0 -67.834 6.5 -87.501 19.5s-32.834 33.167 -39.501 60.5s-10 66.333 -10 117v321h56v-304c0 -50 2.5 -86 7.5 -108s14.167 -36.667 27.5 -44
s35.333 -11 66 -11c34 0 59 8.16699 75 24.5s25.833 37.833 29.5 64.5s5.5 64.667 5.5 114v264h56v-510h-47zM131.002 688.999v54h191v-54h-191z" />
    <glyph glyph-name="Ubreve" unicode="&#x16c;" horiz-adv-x="517" 
d="M448 688v-391c0 -88.667 -4 -153.167 -12 -193.5s-25 -69 -51 -86s-68 -25.5 -126 -25.5c-58.667 0 -101 8.5 -127 25.5s-43 45.667 -51 86s-12 104.833 -12 193.5v391h58v-424c0 -66 2.5 -113.167 7.5 -141.5s16.5 -48.333 34.5 -60s48 -17.5 90 -17.5
c41.333 0 70.833 5.83301 88.5 17.5s29 31.667 34 60s7.5 75.5 7.5 141.5v424h59zM360.5 809.5c-4.33301 -19 -14.332 -34.167 -29.999 -45.5s-40.167 -17 -73.5 -17s-57.666 5.66699 -72.999 17s-25 26.333 -29 45s-6 45 -6 79h43c0 -27.333 1.16699 -47.666 3.5 -60.999
s8 -23.666 17 -30.999s23.833 -11 44.5 -11c21.333 0 36.666 3.66699 45.999 11s15.166 17.666 17.499 30.999s3.5 33.666 3.5 60.999h43c0 -33.333 -2.16699 -59.5 -6.5 -78.5z" />
    <glyph glyph-name="ubreve" unicode="&#x16d;" horiz-adv-x="455" 
d="M336 73l-4.99805 -0.000976562c-8 -25.333 -21.833 -45.166 -41.5 -59.499s-49.167 -21.5 -88.5 -21.5c-38.667 0 -67.834 6.5 -87.501 19.5s-32.834 33.167 -39.501 60.5s-10 66.333 -10 117v321h56v-304c0 -50 2.5 -86 7.5 -108s14.167 -36.667 27.5 -44
s35.333 -11 66 -11c34 0 59 8.16699 75 24.5s25.833 37.833 29.5 64.5s5.5 64.667 5.5 114v264h56v-510h-47zM328.502 664.499c-4.33301 -19 -14.332 -34.167 -29.999 -45.5s-40.167 -17 -73.5 -17s-57.666 5.66699 -72.999 17s-25 26.333 -29 45s-6 45 -6 79h43
c0 -27.333 1.16699 -47.666 3.5 -60.999s8 -23.666 17 -30.999s23.833 -11 44.5 -11c21.333 0 36.666 3.66699 45.999 11s15.166 17.666 17.499 30.999s3.5 33.666 3.5 60.999h43c0 -33.333 -2.16699 -59.5 -6.5 -78.5z" />
    <glyph glyph-name="Uring" unicode="&#x16e;" horiz-adv-x="517" 
d="M448 688v-391c0 -88.667 -4 -153.167 -12 -193.5s-25 -69 -51 -86s-68 -25.5 -126 -25.5c-58.667 0 -101 8.5 -127 25.5s-43 45.667 -51 86s-12 104.833 -12 193.5v391h58v-424c0 -66 2.5 -113.167 7.5 -141.5s16.5 -48.333 34.5 -60s48 -17.5 90 -17.5
c41.333 0 70.833 5.83301 88.5 17.5s29 31.667 34 60s7.5 75.5 7.5 141.5v424h59zM192.5 738c-13.667 6 -22.5 15.167 -26.5 27.5s-6 31.166 -6 56.499s2 44.333 6 57s12.833 22 26.5 28s35.5 9 65.5 9s51.833 -3 65.5 -9s22.5 -15.333 26.5 -28s6 -31.667 6 -57
s-2 -44.166 -6 -56.499s-12.833 -21.5 -26.5 -27.5s-35.5 -9 -65.5 -9s-51.833 3 -65.5 9zM295.5 769c7.66699 3.33301 12.667 8.82715 15 16.4941s3.5 19.834 3.5 36.501s-1.16699 28.834 -3.5 36.501s-7.33301 13.167 -15 16.5s-20.167 5 -37.5 5
s-29.833 -1.66699 -37.5 -5s-12.5 -8.66602 -14.5 -15.999s-3 -19.666 -3 -36.999s1 -29.666 3 -36.999s6.83301 -12.666 14.5 -15.999s20.167 -5 37.5 -5s29.833 1.66699 37.5 5z" />
    <glyph glyph-name="uring" unicode="&#x16f;" horiz-adv-x="455" 
d="M336 73l-4.99805 -0.000976562c-8 -25.333 -21.833 -45.166 -41.5 -59.499s-49.167 -21.5 -88.5 -21.5c-38.667 0 -67.834 6.5 -87.501 19.5s-32.834 33.167 -39.501 60.5s-10 66.333 -10 117v321h56v-304c0 -50 2.5 -86 7.5 -108s14.167 -36.667 27.5 -44
s35.333 -11 66 -11c34 0 59 8.16699 75 24.5s25.833 37.833 29.5 64.5s5.5 64.667 5.5 114v264h56v-510h-47zM160.502 622.999c-13.667 6 -22.5 15.167 -26.5 27.5s-6 31.166 -6 56.499s2 44.333 6 57s12.833 22 26.5 28s35.5 9 65.5 9s51.833 -3 65.5 -9
s22.5 -15.333 26.5 -28s6 -31.667 6 -57s-2 -44.166 -6 -56.499s-12.833 -21.5 -26.5 -27.5s-35.5 -9 -65.5 -9s-51.833 3 -65.5 9zM263.502 653.999c7.66699 3.33301 12.667 8.82715 15 16.4941s3.5 19.834 3.5 36.501s-1.16699 28.834 -3.5 36.501
s-7.33301 13.167 -15 16.5s-20.167 5 -37.5 5s-29.833 -1.66699 -37.5 -5s-12.5 -8.66602 -14.5 -15.999s-3 -19.666 -3 -36.999s1 -29.666 3 -36.999s6.83301 -12.666 14.5 -15.999s20.167 -5 37.5 -5s29.833 1.66699 37.5 5z" />
    <glyph glyph-name="Uhungarumlaut" unicode="&#x170;" horiz-adv-x="517" 
d="M448 688v-391c0 -88.667 -4 -153.167 -12 -193.5s-25 -69 -51 -86s-68 -25.5 -126 -25.5c-58.667 0 -101 8.5 -127 25.5s-43 45.667 -51 86s-12 104.833 -12 193.5v391h58v-424c0 -66 2.5 -113.167 7.5 -141.5s16.5 -48.333 34.5 -60s48 -17.5 90 -17.5
c41.333 0 70.833 5.83301 88.5 17.5s29 31.667 34 60s7.5 75.5 7.5 141.5v424h59zM175 754v5l52 119h57v-5l-72 -119h-37zM307 754v5l52 119h56v-5l-71 -119h-37z" />
    <glyph glyph-name="uhungarumlaut" unicode="&#x171;" horiz-adv-x="455" 
d="M336 73l-4.99805 -0.000976562c-8 -25.333 -21.833 -45.166 -41.5 -59.499s-49.167 -21.5 -88.5 -21.5c-38.667 0 -67.834 6.5 -87.501 19.5s-32.834 33.167 -39.501 60.5s-10 66.333 -10 117v321h56v-304c0 -50 2.5 -86 7.5 -108s14.167 -36.667 27.5 -44
s35.333 -11 66 -11c34 0 59 8.16699 75 24.5s25.833 37.833 29.5 64.5s5.5 64.667 5.5 114v264h56v-510h-47zM150.002 608.999v5l52 119h57v-5l-72 -119h-37zM282.002 608.999v5l52 119h56v-5l-71 -119h-37z" />
    <glyph glyph-name="Uogonek" unicode="&#x172;" horiz-adv-x="517" 
d="M448 688v-391.002c0 -60 -1.5 -107.5 -4.5 -142.5s-9 -63.667 -18 -86s-22.5 -39.5 -40.5 -51.5c-22 -14.667 -40.5 -33.667 -55.5 -57s-22.5 -47 -22.5 -71c0 -28.667 15.333 -43 46 -43c6 0 11.667 0.333008 17 1v-41c-8.66699 -1.33301 -18.667 -2 -30 -2
c-29.333 0 -50.5 6.83301 -63.5 20.5s-19.5 31.834 -19.5 54.501c0 18 5 37.333 15 58s23.667 40.334 41 59.001c-14 -2.66699 -32 -4 -54 -4c-58.667 0 -101 8.5 -127 25.5s-43 45.667 -51 86s-12 104.833 -12 193.5v391h58v-424c0 -66 2.5 -113.167 7.5 -141.5
s16.5 -48.333 34.5 -60s48 -17.5 90 -17.5c41.333 0 70.833 5.83301 88.5 17.5s29 31.667 34 60s7.5 75.5 7.5 141.5v424h59z" />
    <glyph glyph-name="uogonek" unicode="&#x173;" horiz-adv-x="455" 
d="M389 -153l0.00195312 -41c-8 -1.33301 -18 -2 -30 -2c-29.333 0 -50.5 6.66699 -63.5 20s-19.5 31.333 -19.5 54c0 20.667 5.83301 42.167 17.5 64.5s27.167 42.5 46.5 60.5l-4 70h-5c-8 -25.333 -21.833 -45.166 -41.5 -59.499s-49.167 -21.5 -88.5 -21.5
c-38.667 0 -67.834 6.5 -87.501 19.5s-32.834 33.167 -39.501 60.5s-10 66.333 -10 117v321h56v-304c0 -50 2.5 -86 7.5 -108s14.167 -36.667 27.5 -44s35.333 -11 66 -11c34 0 59 8.16699 75 24.5s25.833 37.833 29.5 64.5s5.5 64.667 5.5 114v264h56v-510
c-14.667 -12.667 -28.5 -29.834 -41.5 -51.501s-19.5 -41.5 -19.5 -59.5c0 -28.667 15.333 -43 46 -43c6 0 11.667 0.333008 17 1z" />
    <glyph glyph-name="Wcircumflex" unicode="&#x174;" horiz-adv-x="688" 
d="M468 0l-122 582h-4l-121 -582h-70l-134 688h60l109 -593h5l121 593h66l122 -593h6l107 593h59l-133 -688h-71zM233 750v5l78 133h65l78 -133v-5h-40l-70 101l-70 -101h-41z" />
    <glyph glyph-name="wcircumflex" unicode="&#x175;" horiz-adv-x="607" 
d="M396 0l-90 411h-5l-90 -411h-66l-122 510h58l96 -429h5l92 429h61l93 -429h5l95 429h56l-122 -510h-66zM193 605v5l78 133h65l78 -133v-5h-40l-70 101l-70 -101h-41z" />
    <glyph glyph-name="Ycircumflex" unicode="&#x176;" horiz-adv-x="428" 
d="M184 0v271l-180 417h62l146 -344h6l146 344h60l-181 -417v-271h-59zM103 750v5l78 133h65l78 -133v-5h-40l-70 101l-70 -101h-41z" />
    <glyph glyph-name="ycircumflex" unicode="&#x177;" horiz-adv-x="455" 
d="M77 -194l-0.000976562 47.998c46.667 -2.66699 86.667 -4 120 -4c40.667 0 70.5 6.33301 89.5 19s31.167 32.5 36.5 59.5s8 67.5 8 121.5v17h-4c-8 -22.667 -21.333 -40.667 -40 -54s-48 -20 -88 -20c-38.667 0 -67.5 6.66699 -86.5 20s-31.833 34 -38.5 62
s-10 68 -10 120v315h56v-304c0 -49.333 2.5 -85 7.5 -107s14.167 -36.667 27.5 -44s35.333 -11 66 -11c34.667 0 59.834 8 75.501 24s25.334 37.167 29.001 63.5s5.5 64.5 5.5 114.5v264h56v-438c0 -71.333 -4.33301 -125.666 -13 -162.999s-25.834 -64.666 -51.501 -81.999
s-64.5 -26 -116.5 -26c-46 0 -89 1.66699 -129 5zM115.999 604.998v5l78 133h65l78 -133v-5h-40l-70 101l-70 -101h-41z" />
    <glyph glyph-name="Ydieresis" unicode="&#x178;" horiz-adv-x="428" 
d="M184 0v271l-180 417h62l146 -344h6l146 344h60l-181 -417v-271h-59zM99 773v70h57v-70h-57zM275 773v70h57v-70h-57z" />
    <glyph glyph-name="Zacute" unicode="&#x179;" horiz-adv-x="422" 
d="M31 0v50l288 585h-280v53h348v-49l-287 -587h292v-52h-361zM185 748v5l56 135h61v-5l-76 -135h-41z" />
    <glyph glyph-name="zacute" unicode="&#x17a;" horiz-adv-x="369" 
d="M35 0v45l230 416h-222v49h290v-44l-231 -417h232v-49h-299zM158 603v5l56 135h61v-5l-76 -135h-41z" />
    <glyph glyph-name="Zdotaccent" unicode="&#x17b;" horiz-adv-x="422" 
d="M31 0v50l288 585h-280v53h348v-49l-287 -587h292v-52h-361zM182 805v70h57v-70h-57z" />
    <glyph glyph-name="zdotaccent" unicode="&#x17c;" horiz-adv-x="369" 
d="M35 0v45l230 416h-222v49h290v-44l-231 -417h232v-49h-299zM155 660v70h57v-70h-57z" />
    <glyph glyph-name="Zcaron" unicode="&#x17d;" horiz-adv-x="423" 
d="M31 0v50l288 585h-280v53h348v-49l-287 -587h292v-52h-361zM185 750l-78 132v6h41l70 -102l70 102h40v-6l-78 -132h-65z" />
    <glyph glyph-name="zcaron" unicode="&#x17e;" horiz-adv-x="369" 
d="M35 0v45l230 416h-222v49h290v-44l-231 -417h232v-49h-299zM156 605l-78 132v6h41l70 -102l70 102h40v-6l-78 -132h-65z" />
    <glyph glyph-name="longs" unicode="&#x17f;" horiz-adv-x="257" 
d="M98 461h-76v49h76v98c0 40 5 69.667 15 89s25.333 31.833 46 37.5s51 8.5 91 8.5v-45c-27.333 0 -47.5 -2 -60.5 -6s-22.167 -11.667 -27.5 -23s-8 -28.333 -8 -51v-618h-56v461z" />
    <glyph glyph-name="uni018F" unicode="&#x18f;" horiz-adv-x="514" 
d="M383.5 670.5c28.333 -17 47.667 -49.3359 58 -97.0029s15.5 -124.167 15.5 -229.5c0 -108 -4 -185 -12 -231s-25.5 -77.667 -52.5 -95s-72.167 -26 -135.5 -26s-108.5 8.66699 -135.5 26s-44.5 49 -52.5 95s-12 123 -12 231v30h341
c-0.666992 84.667 -4.83398 144.834 -12.501 180.501s-22.5 59.334 -44.5 71.001s-59.333 17.5 -112 17.5c-18 0 -38 -1.16699 -60 -3.5s-40.667 -5.16602 -56 -8.49902v51c16.667 4 37.334 7.33301 62.001 10s48.667 4 72 4c62.667 0 108.167 -8.5 136.5 -25.5z
M351.501 58.9971c17.667 10 29.6641 33.333 35.9971 70s9.83301 101 10.5 193h-282c0.666992 -92 4.33398 -156.333 11.001 -193s18.834 -60 36.501 -70s48.834 -15 93.501 -15c45.333 0 76.833 5 94.5 15z" />
    <glyph glyph-name="florin" unicode="&#x192;" horiz-adv-x="312" 
d="M256 687c-14 -6.66699 -25.668 -21.332 -35.001 -43.999s-19.666 -61 -30.999 -115l-3 -18h96l-11 -49h-96l-95 -449c-13.333 -62.667 -27.833 -108.167 -43.5 -136.5s-34.334 -46.5 -56.001 -54.5s-53.5 -12 -95.5 -12l11 46c26.667 0 47 2.16699 61 6.5
s24.833 12.666 32.5 24.999s14.5 31.833 20.5 58.5l109 516h-76l10 49h77l2 11c14.667 68.667 29.834 118.5 45.501 149.5s34.5 50.833 56.5 59.5s54.667 13 98 13l-10 -46c-30.667 0 -53 -3.33301 -67 -10z" />
    <glyph glyph-name="uni019D" unicode="&#x19d;" horiz-adv-x="530" 
d="M456 688v-687.999h-61l-260 559h-4v-634c0 -36.667 -4.16699 -63.167 -12.5 -79.5s-20.833 -26.833 -37.5 -31.5s-42.667 -7 -78 -7v46c22 0 38 1.66699 48 5s16.5 8.66602 19.5 15.999s4.5 19 4.5 35v779h63l257 -554h4v554h57z" />
    <glyph glyph-name="Ohorn" unicode="&#x1a0;" horiz-adv-x="521" 
d="M493 785v-33.001c0 -24.667 -2 -43.667 -6 -57s-11.5 -23.166 -22.5 -29.499s-27.167 -10.166 -48.5 -11.499c20 -21.333 32.833 -54.333 38.5 -99s8.5 -115 8.5 -211c0 -108.667 -4 -185.834 -12 -231.501s-25.667 -77.167 -53 -94.5s-73.333 -26 -138 -26
c-64 0 -109.667 8.66699 -137 26s-45.166 49 -53.499 95s-12.5 123 -12.5 231s4.16699 185 12.5 231s26.166 77.667 53.499 95s73 26 137 26c40.667 0 72 -2.66699 94 -8h44c22 0 36.167 3.83301 42.5 11.5s9.5 22.167 9.5 43.5v42h43zM358 60.499
c18 10.333 30.167 35.166 36.5 74.499s9.5 109 9.5 209s-3.16699 169.667 -9.5 209s-18.5 64.166 -36.5 74.499s-50.667 15.5 -98 15.5s-80 -5.16699 -98 -15.5s-30.167 -35.166 -36.5 -74.499s-9.5 -109 -9.5 -209s3.16699 -169.667 9.5 -209s18.5 -64.166 36.5 -74.499
s50.667 -15.5 98 -15.5s80 5.16699 98 15.5z" />
    <glyph glyph-name="ohorn" unicode="&#x1a1;" horiz-adv-x="441" 
d="M441 607l-0.000976562 -33.001c0 -26 -2.16699 -45.667 -6.5 -59s-12.333 -23 -24 -29s-29.167 -9.33301 -52.5 -10c13.333 -17.333 22 -42.5 26 -75.5s6 -81.833 6 -146.5c0 -78 -3.33301 -134.167 -10 -168.5s-21.667 -58.5 -45 -72.5s-61.666 -21 -114.999 -21
s-91.5 7 -114.5 21s-38 38.167 -45 72.5s-10.5 90.5 -10.5 168.5c0 78.667 3.5 135.334 10.5 170.001s22 59 45 73s61.167 21 114.5 21c36 0 63.667 -2.66699 83 -8h43c22 0 36.167 3.83301 42.5 11.5s9.5 22.167 9.5 43.5v42h43zM299.499 55.999
c15 10 24.498 28.5 28.498 55.5s6 74.5 6 142.5s-2 115.667 -6 143s-13.667 46.166 -29 56.499s-41.666 15.5 -78.999 15.5s-63.666 -5.16699 -78.999 -15.5s-25 -29.166 -29 -56.499s-6 -75 -6 -143s2 -115.5 6 -142.5s13.5 -45.5 28.5 -55.5s41.5 -15 79.5 -15
s64.5 5 79.5 15z" />
    <glyph glyph-name="Uhorn" unicode="&#x1af;" horiz-adv-x="517" 
d="M538 785l0.000976562 -32.999c0 -26.667 -2.33301 -46.667 -7 -60s-13.334 -22.833 -26.001 -28.5s-31.667 -8.83398 -57 -9.50098v-357c0 -88.667 -4 -153.167 -12 -193.5s-25 -69 -51 -86s-68 -25.5 -126 -25.5c-58.667 0 -101 8.5 -127 25.5s-43 45.667 -51 86
s-12 104.833 -12 193.5v391h58v-424c0 -66 2.5 -113.167 7.5 -141.5s16.5 -48.333 34.5 -60s48 -17.5 90 -17.5c41.333 0 70.833 5.83301 88.5 17.5s29 31.667 34 60s7.5 75.5 7.5 141.5v424h54c22 0 36.167 3.83301 42.5 11.5s9.5 22.167 9.5 43.5v42h43z" />
    <glyph glyph-name="uhorn" unicode="&#x1b0;" horiz-adv-x="455" 
d="M476 607l0.000976562 -32.999c0 -26 -2.33301 -45.833 -7 -59.5s-13.167 -23.334 -25.5 -29.001s-31.166 -8.83398 -56.499 -9.50098v-476h-47l-4 73h-5c-8 -25.333 -21.833 -45.166 -41.5 -59.499s-49.167 -21.5 -88.5 -21.5c-38.667 0 -67.834 6.5 -87.501 19.5
s-32.834 33.167 -39.501 60.5s-10 66.333 -10 117v321h56v-304c0 -50 2.5 -86 7.5 -108s14.167 -36.667 27.5 -44s35.333 -11 66 -11c34 0 59 8.16699 75 24.5s25.833 37.833 29.5 64.5s5.5 64.667 5.5 114v264h50c22 0 36.167 3.83301 42.5 11.5s9.5 22.167 9.5 43.5v42h43
z" />
    <glyph glyph-name="uni01C4" unicode="&#x1c4;" horiz-adv-x="920" 
d="M74 688h160c65.333 0 112 -8.33301 140 -25s46.167 -47.5 54.5 -92.5s12.5 -120.5 12.5 -226.5s-4.16699 -181.5 -12.5 -226.5s-26.5 -75.833 -54.5 -92.5s-74.667 -25 -140 -25h-160v688zM230 53c50.667 0 85.5 5 104.5 15s31.667 34 38 72s9.5 106 9.5 204
s-3.33301 166 -10 204s-19.5 62 -38.5 72s-53.5 15 -103.5 15h-97v-582h97zM529 0v50l288 585h-280v53h348v-49l-287 -587h292v-52h-361zM677 750l-78 132v6h41l70 -102l70 102h40v-6l-78 -132h-65z" />
    <glyph glyph-name="uni01C5" unicode="&#x1c5;" horiz-adv-x="867" 
d="M74 688h160c65.333 0 112 -8.33301 140 -25s46.167 -47.5 54.5 -92.5s12.5 -120.5 12.5 -226.5s-4.16699 -181.5 -12.5 -226.5s-26.5 -75.833 -54.5 -92.5s-74.667 -25 -140 -25h-160v688zM230 53c50.667 0 85.5 5 104.5 15s31.667 34 38 72s9.5 106 9.5 204
s-3.33301 166 -10 204s-19.5 62 -38.5 72s-53.5 15 -103.5 15h-97v-582h97zM533 0v45l230 416h-222v49h290v-44l-231 -417h232v-49h-299zM658 605l-78 132v6h41l70 -102l70 102h40v-6l-78 -132h-65z" />
    <glyph glyph-name="uni01C6" unicode="&#x1c6;" horiz-adv-x="821" 
d="M106.5 14c-21 14.667 -35.666 40.3301 -43.999 76.9971s-12.5 91.334 -12.5 164.001s4 127.334 12 164.001s22.5 62.334 43.5 77.001s52.5 22 94.5 22c33.333 0 60.166 -5.5 80.499 -16.5s34.833 -29.5 43.5 -55.5h5v297h56v-743h-48l-4 73h-5
c-9.33301 -32 -25 -53.5 -47 -64.5s-49 -16.5 -81 -16.5c-41.333 0 -72.5 7.33301 -93.5 22zM284.001 58.9961c16 10.667 26.999 27.332 32.999 49.999c4.66699 20 7.83398 41.667 9.50098 65s2.5 53.666 2.5 90.999c0 56 -3.33301 97.667 -10 125
c-6.66699 28 -18 47.833 -34 59.5s-39.333 17.5 -70 17.5c-33.333 0 -57.333 -4.83301 -72 -14.5s-24.5 -28.667 -29.5 -57s-7.5 -75.166 -7.5 -140.499s2.5 -112.166 7.5 -140.499s15 -47.333 30 -57s39.833 -14.5 74.5 -14.5c28 0 50 5.33301 66 16zM487 -0.00585938v45
l230 416h-222v49h290v-44l-231 -417h232v-49h-299zM600 604.994l-78 132v6h41l70 -102l70 102h40v-6l-78 -132h-65z" />
    <glyph glyph-name="uni01C7" unicode="&#x1c7;" horiz-adv-x="618" 
d="M74 0v688h60v-634h231v-54h-291zM463.5 63c11.667 6.66699 18.998 20.832 21.998 42.499s4.5 64.834 4.5 129.501v453h59v-440c0 -84.667 -2.66699 -142.5 -8 -173.5s-17.666 -51 -36.999 -60s-55.666 -13.833 -108.999 -14.5v51c34 1.33301 56.833 5.33301 68.5 12z" />
    <glyph glyph-name="uni01C8" unicode="&#x1c8;" horiz-adv-x="568" 
d="M74 0v688h60v-634h231v-54h-291zM443 668v75h60v-75h-60zM374 -147c22 0 37.833 1.66797 47.5 5.00098s16 8.66602 19 15.999s4.5 19 4.5 35v601h56v-585c0 -36.667 -4 -63.167 -12 -79.5s-20.5 -26.833 -37.5 -31.5s-42.833 -7 -77.5 -7v46z" />
    <glyph glyph-name="uni01C9" unicode="&#x1c9;" horiz-adv-x="380" 
d="M67 0v743h56v-743h-56zM255 668v75h60v-75h-60zM186 -147c22 0 37.833 1.66797 47.5 5.00098s16 8.66602 19 15.999s4.5 19 4.5 35v601h56v-585c0 -36.667 -4 -63.167 -12 -79.5s-20.5 -26.833 -37.5 -31.5s-42.833 -7 -77.5 -7v46z" />
    <glyph glyph-name="uni01CA" unicode="&#x1ca;" horiz-adv-x="770" 
d="M395 0l-260 559h-4v-559h-56v688h63l257 -554h4v554h57v-688h-61zM615.5 63c11.667 6.66699 18.998 20.832 21.998 42.499s4.5 64.834 4.5 129.501v453h59v-440c0 -84.667 -2.66699 -142.5 -8 -173.5s-17.666 -51 -36.999 -60s-55.666 -13.833 -108.999 -14.5v51
c34 1.33301 56.833 5.33301 68.5 12z" />
    <glyph glyph-name="uni01CB" unicode="&#x1cb;" horiz-adv-x="720" 
d="M395 0l-260 559h-4v-559h-56v688h63l257 -554h4v554h57v-688h-61zM595 668v75h60v-75h-60zM526 -147c22 0 37.833 1.66797 47.5 5.00098s16 8.66602 19 15.999s4.5 19 4.5 35v601h56v-585c0 -36.667 -4 -63.167 -12 -79.5s-20.5 -26.833 -37.5 -31.5s-42.833 -7 -77.5 -7
v46z" />
    <glyph glyph-name="uni01CC" unicode="&#x1cc;" horiz-adv-x="645" 
d="M334 304c0 50 -2.33105 86.001 -6.99805 108.001s-13.834 36.667 -27.501 44s-35.5 11 -65.5 11c-34.667 0 -59.834 -8.16699 -75.501 -24.5s-25.5 -37.833 -29.5 -64.5s-6 -64.667 -6 -114v-264h-56v510h48l4 -73h5c8 25.333 21.667 45.166 41 59.499s49 21.5 89 21.5
c38.667 0 67.667 -6.5 87 -19.5s32.333 -33.167 39 -60.5s10 -66.333 10 -117v-321h-56v304zM520.002 668.001v75h60v-75h-60zM451.002 -146.999c22 0 37.833 1.66797 47.5 5.00098s16 8.66602 19 15.999s4.5 19 4.5 35v601h56v-585c0 -36.667 -4 -63.167 -12 -79.5
s-20.5 -26.833 -37.5 -31.5s-42.833 -7 -77.5 -7v46z" />
    <glyph glyph-name="uni01CD" unicode="&#x1cd;" horiz-adv-x="493" 
d="M411 0l-54 203h-223l-53 -203h-60l189 688h73l189 -688h-61zM248 608h-5l-94 -353h193zM214 750l-78 132v6h41l70 -102l70 102h40v-6l-78 -132h-65z" />
    <glyph glyph-name="uni01CE" unicode="&#x1ce;" horiz-adv-x="427" 
d="M95 4.5c-19.333 8.33301 -33.8311 23.168 -43.498 44.501s-14.5 51.333 -14.5 90s3.83301 68.5 11.5 89.5s20.5 36.167 38.5 45.5s43.667 14 77 14c20 0 67.333 -1.66699 142 -5v40c0 45.333 -3 77.833 -9 97.5s-17 32.667 -33 39s-42.333 9.5 -79 9.5
c-16.667 0 -37.334 -1.16699 -62.001 -3.5s-44.667 -5.16602 -60 -8.49902v48c43.333 8.66699 89.333 13 138 13c45.333 0 79.166 -5.5 101.499 -16.5s37.833 -29.833 46.5 -56.5s13 -66.334 13 -119.001v-326h-48l-4 73h-4c-10 -32.667 -26.667 -54.334 -50 -65.001
s-51 -16 -83 -16c-32.667 0 -58.667 4.16699 -78 12.5zM252.502 51.002c17 6.66699 29.501 20.3311 37.501 40.998c6 16.667 10.167 33.834 12.5 51.501s3.5 39.167 3.5 64.5v35h-129c-23.333 0 -40.833 -2.5 -52.5 -7.5s-19.834 -14.5 -24.501 -28.5s-7 -35.667 -7 -65
c0 -28 2.5 -49.167 7.5 -63.5s14 -24.166 27 -29.499s32.833 -8 59.5 -8s48.5 3.33301 65.5 10zM181.003 604.999l-78 132v6h41l70 -102l70 102h40v-6l-78 -132h-65z" />
    <glyph glyph-name="uni01CF" unicode="&#x1cf;" horiz-adv-x="214" 
d="M78 0v688h58v-688h-58zM74 750l-78 132v6h41l70 -102l70 102h40v-6l-78 -132h-65z" />
    <glyph glyph-name="uni01D0" unicode="&#x1d0;" horiz-adv-x="190" 
d="M67 0v510h56v-510h-56zM62 605l-78 132v6h41l70 -102l70 102h40v-6l-78 -132h-65z" />
    <glyph glyph-name="uni01D1" unicode="&#x1d1;" horiz-adv-x="521" 
d="M123 18c-27.333 17.333 -45.166 49.002 -53.499 95.002s-12.5 123 -12.5 231s4.16699 185 12.5 231s26.166 77.667 53.499 95s73 26 137 26c64.667 0 110.667 -8.66699 138 -26s45 -48.833 53 -94.5s12 -122.834 12 -231.501s-4 -185.834 -12 -231.501
s-25.667 -77.167 -53 -94.5s-73.333 -26 -138 -26c-64 0 -109.667 8.66699 -137 26zM358 60.502c18 10.333 30.167 35.166 36.5 74.499s9.5 109 9.5 209s-3.16699 169.667 -9.5 209s-18.5 64.166 -36.5 74.499s-50.667 15.5 -98 15.5s-80 -5.16699 -98 -15.5
s-30.167 -35.166 -36.5 -74.499s-9.5 -109 -9.5 -209s3.16699 -169.667 9.5 -209s18.5 -64.166 36.5 -74.499s50.667 -15.5 98 -15.5s80 5.16699 98 15.5zM227 750.002l-78 132v6h41l70 -102l70 102h40v-6l-78 -132h-65z" />
    <glyph glyph-name="uni01D2" unicode="&#x1d2;" horiz-adv-x="441" 
d="M105.5 13c-23 14 -38 38.167 -45 72.5s-10.5 90.5 -10.5 168.5c0 78.667 3.5 135.334 10.5 170.001s22 59 45 73s61.167 21 114.5 21s91.666 -7 114.999 -21s38.333 -38.333 45 -73s10 -91.334 10 -170.001c0 -78 -3.33301 -134.167 -10 -168.5s-21.667 -58.5 -45 -72.5
s-61.666 -21 -114.999 -21s-91.5 7 -114.5 21zM299.5 56c15 10 24.498 28.5 28.498 55.5s6 74.5 6 142.5s-2 115.667 -6 143s-13.667 46.166 -29 56.499s-41.666 15.5 -78.999 15.5s-63.666 -5.16699 -78.999 -15.5s-25 -29.166 -29 -56.499s-6 -75 -6 -143
s2 -115.5 6 -142.5s13.5 -45.5 28.5 -55.5s41.5 -15 79.5 -15s64.5 5 79.5 15zM186.998 605l-78 132v6h41l70 -102l70 102h40v-6l-78 -132h-65z" />
    <glyph glyph-name="uni01D3" unicode="&#x1d3;" horiz-adv-x="517" 
d="M448 688v-391c0 -88.667 -4 -153.167 -12 -193.5s-25 -69 -51 -86s-68 -25.5 -126 -25.5c-58.667 0 -101 8.5 -127 25.5s-43 45.667 -51 86s-12 104.833 -12 193.5v391h58v-424c0 -66 2.5 -113.167 7.5 -141.5s16.5 -48.333 34.5 -60s48 -17.5 90 -17.5
c41.333 0 70.833 5.83301 88.5 17.5s29 31.667 34 60s7.5 75.5 7.5 141.5v424h59zM226 750l-78 132v6h41l70 -102l70 102h40v-6l-78 -132h-65z" />
    <glyph glyph-name="uni01D4" unicode="&#x1d4;" horiz-adv-x="455" 
d="M336 73l-4.99805 -0.000976562c-8 -25.333 -21.833 -45.166 -41.5 -59.499s-49.167 -21.5 -88.5 -21.5c-38.667 0 -67.834 6.5 -87.501 19.5s-32.834 33.167 -39.501 60.5s-10 66.333 -10 117v321h56v-304c0 -50 2.5 -86 7.5 -108s14.167 -36.667 27.5 -44
s35.333 -11 66 -11c34 0 59 8.16699 75 24.5s25.833 37.833 29.5 64.5s5.5 64.667 5.5 114v264h56v-510h-47zM194.002 604.999l-78 132v6h41l70 -102l70 102h40v-6l-78 -132h-65z" />
    <glyph glyph-name="uni01D5" unicode="&#x1d5;" horiz-adv-x="517" 
d="M448 688v-391c0 -88.667 -4 -153.167 -12 -193.5s-25 -69 -51 -86s-68 -25.5 -126 -25.5c-58.667 0 -101 8.5 -127 25.5s-43 45.667 -51 86s-12 104.833 -12 193.5v391h58v-424c0 -66 2.5 -113.167 7.5 -141.5s16.5 -48.333 34.5 -60s48 -17.5 90 -17.5
c41.333 0 70.833 5.83301 88.5 17.5s29 31.667 34 60s7.5 75.5 7.5 141.5v424h59zM142 805v70h57v-70h-57zM318 805v70h57v-70h-57zM165 961v54h191v-54h-191z" />
    <glyph glyph-name="uni01D6" unicode="&#x1d6;" horiz-adv-x="455" 
d="M336 73l-4.99805 -0.000976562c-8 -25.333 -21.833 -45.166 -41.5 -59.499s-49.167 -21.5 -88.5 -21.5c-38.667 0 -67.834 6.5 -87.501 19.5s-32.834 33.167 -39.501 60.5s-10 66.333 -10 117v321h56v-304c0 -50 2.5 -86 7.5 -108s14.167 -36.667 27.5 -44
s35.333 -11 66 -11c34 0 59 8.16699 75 24.5s25.833 37.833 29.5 64.5s5.5 64.667 5.5 114v264h56v-510h-47zM110.002 659.999v70h57v-70h-57zM286.002 659.999v70h57v-70h-57zM133.002 848.999v54h191v-54h-191z" />
    <glyph glyph-name="uni01D7" unicode="&#x1d7;" horiz-adv-x="517" 
d="M448 688v-391c0 -88.667 -4 -153.167 -12 -193.5s-25 -69 -51 -86s-68 -25.5 -126 -25.5c-58.667 0 -101 8.5 -127 25.5s-43 45.667 -51 86s-12 104.833 -12 193.5v391h58v-424c0 -66 2.5 -113.167 7.5 -141.5s16.5 -48.333 34.5 -60s48 -17.5 90 -17.5
c41.333 0 70.833 5.83301 88.5 17.5s29 31.667 34 60s7.5 75.5 7.5 141.5v424h59zM142 805v70h57v-70h-57zM318 805v70h57v-70h-57zM235 875v5l56 135h61v-5l-76 -135h-41z" />
    <glyph glyph-name="uni01D8" unicode="&#x1d8;" horiz-adv-x="455" 
d="M336 73l-4.99805 -0.000976562c-8 -25.333 -21.833 -45.166 -41.5 -59.499s-49.167 -21.5 -88.5 -21.5c-38.667 0 -67.834 6.5 -87.501 19.5s-32.834 33.167 -39.501 60.5s-10 66.333 -10 117v321h56v-304c0 -50 2.5 -86 7.5 -108s14.167 -36.667 27.5 -44
s35.333 -11 66 -11c34 0 59 8.16699 75 24.5s25.833 37.833 29.5 64.5s5.5 64.667 5.5 114v264h56v-510h-47zM110.002 659.999v70h57v-70h-57zM286.002 659.999v70h57v-70h-57zM203.002 762.999v5l56 135h61v-5l-76 -135h-41z" />
    <glyph glyph-name="uni01D9" unicode="&#x1d9;" horiz-adv-x="517" 
d="M448 688v-391c0 -88.667 -4 -153.167 -12 -193.5s-25 -69 -51 -86s-68 -25.5 -126 -25.5c-58.667 0 -101 8.5 -127 25.5s-43 45.667 -51 86s-12 104.833 -12 193.5v391h58v-424c0 -66 2.5 -113.167 7.5 -141.5s16.5 -48.333 34.5 -60s48 -17.5 90 -17.5
c41.333 0 70.833 5.83301 88.5 17.5s29 31.667 34 60s7.5 75.5 7.5 141.5v424h59zM142 805v70h57v-70h-57zM318 805v70h57v-70h-57zM228 877l-78 132v6h41l70 -102l70 102h40v-6l-78 -132h-65z" />
    <glyph glyph-name="uni01DA" unicode="&#x1da;" horiz-adv-x="455" 
d="M336 73l-4.99805 -0.000976562c-8 -25.333 -21.833 -45.166 -41.5 -59.499s-49.167 -21.5 -88.5 -21.5c-38.667 0 -67.834 6.5 -87.501 19.5s-32.834 33.167 -39.501 60.5s-10 66.333 -10 117v321h56v-304c0 -50 2.5 -86 7.5 -108s14.167 -36.667 27.5 -44
s35.333 -11 66 -11c34 0 59 8.16699 75 24.5s25.833 37.833 29.5 64.5s5.5 64.667 5.5 114v264h56v-510h-47zM110.002 659.999v70h57v-70h-57zM286.002 659.999v70h57v-70h-57zM196.002 764.999l-78 132v6h41l70 -102l70 102h40v-6l-78 -132h-65z" />
    <glyph glyph-name="uni01DB" unicode="&#x1db;" horiz-adv-x="517" 
d="M448 688v-391c0 -88.667 -4 -153.167 -12 -193.5s-25 -69 -51 -86s-68 -25.5 -126 -25.5c-58.667 0 -101 8.5 -127 25.5s-43 45.667 -51 86s-12 104.833 -12 193.5v391h58v-424c0 -66 2.5 -113.167 7.5 -141.5s16.5 -48.333 34.5 -60s48 -17.5 90 -17.5
c41.333 0 70.833 5.83301 88.5 17.5s29 31.667 34 60s7.5 75.5 7.5 141.5v424h59zM142 805v70h57v-70h-57zM318 805v70h57v-70h-57zM245 875l-76 135v5h62l55 -135v-5h-41z" />
    <glyph glyph-name="uni01DC" unicode="&#x1dc;" horiz-adv-x="455" 
d="M336 73l-4.99805 -0.000976562c-8 -25.333 -21.833 -45.166 -41.5 -59.499s-49.167 -21.5 -88.5 -21.5c-38.667 0 -67.834 6.5 -87.501 19.5s-32.834 33.167 -39.501 60.5s-10 66.333 -10 117v321h56v-304c0 -50 2.5 -86 7.5 -108s14.167 -36.667 27.5 -44
s35.333 -11 66 -11c34 0 59 8.16699 75 24.5s25.833 37.833 29.5 64.5s5.5 64.667 5.5 114v264h56v-510h-47zM110.002 659.999v70h57v-70h-57zM286.002 659.999v70h57v-70h-57zM211.002 762.999l-76 135v5h62l55 -135v-5h-41z" />
    <glyph glyph-name="Gcaron" unicode="&#x1e6;" horiz-adv-x="484" 
d="M253 307v52.001h172v-349c-24 -5.33301 -50.5 -9.66602 -79.5 -12.999s-55.167 -5 -78.5 -5c-60 0 -104.333 8.66699 -133 26s-48.667 50.166 -60 98.499s-17 124.166 -17 227.499c0 102 5.5 177.167 16.5 225.5s31 81.5 60 99.5s73.833 27 134.5 27
c26 0 53.5 -1.83301 82.5 -5.5s53.167 -8.16699 72.5 -13.5v-49c-20 4 -42.333 7.5 -67 10.5s-45 4.5 -61 4.5c-56 0 -95.333 -5.16699 -118 -15.5s-38.5 -35.5 -47.5 -75.5s-13.5 -109.333 -13.5 -208c0 -90.667 3.33301 -156 10 -196s20.167 -67.333 40.5 -82
s53.833 -22 100.5 -22c16.667 0 34.5 1 53.5 3s34.5 4.33301 46.5 7v253h-114zM209 750.001l-78 132v6h41l70 -102l70 102h40v-6l-78 -132h-65z" />
    <glyph glyph-name="gcaron" unicode="&#x1e7;" horiz-adv-x="451" 
d="M66 -193v48c41.333 -3.33301 83 -5 125 -5c41.333 0 71.5 5.66699 90.5 17s31.5 30.666 37.5 57.999s9 70.666 9 129.999v11h-4c-8.66699 -26 -23 -44.5 -43 -55.5s-47 -16.5 -81 -16.5c-42 0 -73.5 7.16699 -94.5 21.5s-35.5 39.833 -43.5 76.5s-12 91 -12 163
c0 72.667 4.16699 127.334 12.5 164.001s23 62.334 44 77.001s52.5 22 94.5 22c32 0 58.833 -5.5 80.5 -16.5s37.167 -32.5 46.5 -64.5h5l3 73h48v-434c0 -74 -4.16699 -129.833 -12.5 -167.5s-25.5 -65 -51.5 -82s-66 -25.5 -120 -25.5c-51.333 0 -96 2 -134 6zM283.5 60.5
c15.667 11 26.833 28.832 33.5 53.499c4.66699 16.667 7.66699 35.667 9 57s2 49.333 2 84c0 33.333 -0.5 60.333 -1.5 81s-3.5 38.667 -7.5 54c-6.66699 28 -18 47.833 -34 59.5s-38.333 17.5 -67 17.5c-34.667 0 -59.5 -4.66699 -74.5 -14s-25 -28.166 -30 -56.499
s-7.5 -75.5 -7.5 -141.5c0 -65.333 2.5 -112 7.5 -140s15 -46.833 30 -56.5s39.833 -14.5 74.5 -14.5c28 0 49.833 5.5 65.5 16.5zM192.999 604.999l-78 132v6h41l70 -102l70 102h40v-6l-78 -132h-65z" />
    <glyph glyph-name="uni01EA" unicode="&#x1ea;" horiz-adv-x="521" 
d="M290.5 -176c-13.667 13.333 -20.498 30.666 -20.498 51.999c0 19.333 4.83301 39.333 14.5 60s23.167 40.334 40.5 59.001c-18 -2 -39.667 -3 -65 -3c-64 0 -109.667 8.66699 -137 26s-45.166 49 -53.499 95s-12.5 123 -12.5 231s4.16699 185 12.5 231
s26.166 77.667 53.499 95s73 26 137 26c64.667 0 110.667 -8.66699 138 -26s45.166 -49 53.499 -95s12.5 -123 12.5 -231c0 -73.333 -1.5 -130.5 -4.5 -171.5s-9.16699 -74 -18.5 -99s-23.666 -43.833 -42.999 -56.5c-20.667 -13.333 -38.834 -32.666 -54.501 -57.999
s-23.5 -49 -23.5 -71c0 -12.667 3.66699 -22.834 11 -30.501s19 -11.5 35 -11.5c6 0 11.667 0.333008 17 1v-41c-8 -1.33301 -17.667 -2 -29 -2c-28.667 0 -49.834 6.66699 -63.501 20zM358.502 60.5c18.333 10.333 30.666 35.166 36.999 74.499s9.5 109 9.5 209
s-3.16699 169.667 -9.5 209s-18.666 64.166 -36.999 74.499s-51.166 15.5 -98.499 15.5s-80 -5.16699 -98 -15.5s-30.167 -35.166 -36.5 -74.499s-9.5 -109 -9.5 -209s3.16699 -169.667 9.5 -209s18.5 -64.166 36.5 -74.499s50.667 -15.5 98 -15.5
s80.166 5.16699 98.499 15.5z" />
    <glyph glyph-name="uni01EB" unicode="&#x1eb;" horiz-adv-x="441" 
d="M335 497c23.333 -14 38.334 -38.333 45.001 -73s10 -91.334 10 -170.001c0 -76 -3 -131 -9 -165s-19.667 -58.333 -41 -73c-17.333 -12 -33.333 -30.833 -48 -56.5s-22 -49.167 -22 -70.5c0 -28.667 15.333 -43 46 -43c6 0 11.667 0.333008 17 1v-41
c-12 -1.33301 -22 -2 -30 -2c-29.333 0 -50.5 6.66699 -63.5 20s-19.5 31.333 -19.5 54c0 18.667 4.66699 38.167 14 58.5s22 39.5 38 57.5c-20 -1.33301 -37.333 -2 -52 -2c-53.333 0 -91.5 7 -114.5 21s-38 38.167 -45 72.5s-10.5 90.5 -10.5 168.5
c0 78.667 3.5 135.334 10.5 170.001s22 59 45 73s61.167 21 114.5 21s91.666 -7 114.999 -21zM299.501 56c15 10 24.498 28.5 28.498 55.5s6 74.5 6 142.5s-2 115.667 -6 143s-13.667 46.166 -29 56.499s-41.666 15.5 -78.999 15.5s-63.666 -5.16699 -78.999 -15.5
s-25 -29.166 -29 -56.499s-6 -75 -6 -143s2 -115.5 6 -142.5s13.5 -45.5 28.5 -55.5s41.5 -15 79.5 -15s64.5 5 79.5 15z" />
    <glyph glyph-name="uni01F1" unicode="&#x1f1;" horiz-adv-x="920" 
d="M74 688h160c65.333 0 112 -8.33301 140 -25s46.167 -47.5 54.5 -92.5s12.5 -120.5 12.5 -226.5s-4.16699 -181.5 -12.5 -226.5s-26.5 -75.833 -54.5 -92.5s-74.667 -25 -140 -25h-160v688zM230 53c50.667 0 85.5 5 104.5 15s31.667 34 38 72s9.5 106 9.5 204
s-3.33301 166 -10 204s-19.5 62 -38.5 72s-53.5 15 -103.5 15h-97v-582h97zM529 0v50l288 585h-280v53h348v-49l-287 -587h292v-52h-361z" />
    <glyph glyph-name="uni01F2" unicode="&#x1f2;" horiz-adv-x="867" 
d="M74 688h160c65.333 0 112 -8.33301 140 -25s46.167 -47.5 54.5 -92.5s12.5 -120.5 12.5 -226.5s-4.16699 -181.5 -12.5 -226.5s-26.5 -75.833 -54.5 -92.5s-74.667 -25 -140 -25h-160v688zM230 53c50.667 0 85.5 5 104.5 15s31.667 34 38 72s9.5 106 9.5 204
s-3.33301 166 -10 204s-19.5 62 -38.5 72s-53.5 15 -103.5 15h-97v-582h97zM533 0v45l230 416h-222v49h290v-44l-231 -417h232v-49h-299z" />
    <glyph glyph-name="uni01F3" unicode="&#x1f3;" horiz-adv-x="821" 
d="M106.5 14c-21 14.667 -35.666 40.3301 -43.999 76.9971s-12.5 91.334 -12.5 164.001s4 127.334 12 164.001s22.5 62.334 43.5 77.001s52.5 22 94.5 22c33.333 0 60.166 -5.5 80.499 -16.5s34.833 -29.5 43.5 -55.5h5v297h56v-743h-48l-4 73h-5
c-9.33301 -32 -25 -53.5 -47 -64.5s-49 -16.5 -81 -16.5c-41.333 0 -72.5 7.33301 -93.5 22zM284.001 58.9961c16 10.667 26.999 27.332 32.999 49.999c4.66699 20 7.83398 41.667 9.50098 65s2.5 53.666 2.5 90.999c0 56 -3.33301 97.667 -10 125
c-6.66699 28 -18 47.833 -34 59.5s-39.333 17.5 -70 17.5c-33.333 0 -57.333 -4.83301 -72 -14.5s-24.5 -28.667 -29.5 -57s-7.5 -75.166 -7.5 -140.499s2.5 -112.166 7.5 -140.499s15 -47.333 30 -57s39.833 -14.5 74.5 -14.5c28 0 50 5.33301 66 16zM487 -0.00585938v45
l230 416h-222v49h290v-44l-231 -417h232v-49h-299z" />
    <glyph glyph-name="uni01F4" unicode="&#x1f4;" horiz-adv-x="484" 
d="M253 307v52.001h172v-349c-24 -5.33301 -50.5 -9.66602 -79.5 -12.999s-55.167 -5 -78.5 -5c-60 0 -104.333 8.66699 -133 26s-48.667 50.166 -60 98.499s-17 124.166 -17 227.499c0 102 5.5 177.167 16.5 225.5s31 81.5 60 99.5s73.833 27 134.5 27
c26 0 53.5 -1.83301 82.5 -5.5s53.167 -8.16699 72.5 -13.5v-49c-20 4 -42.333 7.5 -67 10.5s-45 4.5 -61 4.5c-56 0 -95.333 -5.16699 -118 -15.5s-38.5 -35.5 -47.5 -75.5s-13.5 -109.333 -13.5 -208c0 -90.667 3.33301 -156 10 -196s20.167 -67.333 40.5 -82
s53.833 -22 100.5 -22c16.667 0 34.5 1 53.5 3s34.5 4.33301 46.5 7v253h-114zM216 748.001v5l56 135h61v-5l-76 -135h-41z" />
    <glyph glyph-name="uni01F5" unicode="&#x1f5;" horiz-adv-x="451" 
d="M66 -193v48c41.333 -3.33301 83 -5 125 -5c41.333 0 71.5 5.66699 90.5 17s31.5 30.666 37.5 57.999s9 70.666 9 129.999v11h-4c-8.66699 -26 -23 -44.5 -43 -55.5s-47 -16.5 -81 -16.5c-42 0 -73.5 7.16699 -94.5 21.5s-35.5 39.833 -43.5 76.5s-12 91 -12 163
c0 72.667 4.16699 127.334 12.5 164.001s23 62.334 44 77.001s52.5 22 94.5 22c32 0 58.833 -5.5 80.5 -16.5s37.167 -32.5 46.5 -64.5h5l3 73h48v-434c0 -74 -4.16699 -129.833 -12.5 -167.5s-25.5 -65 -51.5 -82s-66 -25.5 -120 -25.5c-51.333 0 -96 2 -134 6zM283.5 60.5
c15.667 11 26.833 28.832 33.5 53.499c4.66699 16.667 7.66699 35.667 9 57s2 49.333 2 84c0 33.333 -0.5 60.333 -1.5 81s-3.5 38.667 -7.5 54c-6.66699 28 -18 47.833 -34 59.5s-38.333 17.5 -67 17.5c-34.667 0 -59.5 -4.66699 -74.5 -14s-25 -28.166 -30 -56.499
s-7.5 -75.5 -7.5 -141.5c0 -65.333 2.5 -112 7.5 -140s15 -46.833 30 -56.5s39.833 -14.5 74.5 -14.5c28 0 49.833 5.5 65.5 16.5zM199.999 602.999v5l56 135h61v-5l-76 -135h-41z" />
    <glyph glyph-name="Aringacute" unicode="&#x1fa;" horiz-adv-x="493" 
d="M472 0l-61.002 -0.000976562l-54 203h-223l-53 -203h-60l187 682c-18 2.66699 -31.167 7.33398 -39.5 14.001s-13.666 15.834 -15.999 27.501s-3.5 28.167 -3.5 49.5c0 25.333 2 44.166 6 56.499s12.833 21.5 26.5 27.5s35.167 9 64.5 9s51 -3 65 -9s23 -15.167 27 -27.5
s6 -31.166 6 -56.499c0 -21.333 -1.33301 -37.833 -4 -49.5s-8.16699 -20.834 -16.5 -27.501s-21.166 -11 -38.499 -13zM193.998 736.499c2 -7.66699 6.83301 -13.167 14.5 -16.5s20.167 -5 37.5 -5s29.833 1.66699 37.5 5s12.667 8.83301 15 16.5s3.5 19.834 3.5 36.501
s-1.16699 28.834 -3.5 36.501s-7.33301 13.167 -15 16.5s-20.167 5 -37.5 5s-29.833 -1.66699 -37.5 -5s-12.5 -8.83301 -14.5 -16.5s-3 -19.834 -3 -36.501s1 -28.834 3 -36.501zM148.998 254.999h193l-94 353h-5zM219.998 925.999v5l56 135h61v-5l-76 -135h-41z" />
    <glyph glyph-name="aringacute" unicode="&#x1fb;" horiz-adv-x="427" 
d="M95 4.5c-19.333 8.33301 -33.8311 23.168 -43.498 44.501s-14.5 51.333 -14.5 90s3.83301 68.5 11.5 89.5s20.5 36.167 38.5 45.5s43.667 14 77 14c20 0 67.333 -1.66699 142 -5v40c0 45.333 -3 77.833 -9 97.5s-17 32.667 -33 39s-42.333 9.5 -79 9.5
c-16.667 0 -37.334 -1.16699 -62.001 -3.5s-44.667 -5.16602 -60 -8.49902v48c43.333 8.66699 89.333 13 138 13c45.333 0 79.166 -5.5 101.499 -16.5s37.833 -29.833 46.5 -56.5s13 -66.334 13 -119.001v-326h-48l-4 73h-4c-10 -32.667 -26.667 -54.334 -50 -65.001
s-51 -16 -83 -16c-32.667 0 -58.667 4.16699 -78 12.5zM252.502 51.002c17 6.66699 29.501 20.3311 37.501 40.998c6 16.667 10.167 33.834 12.5 51.501s3.5 39.167 3.5 64.5v35h-129c-23.333 0 -40.833 -2.5 -52.5 -7.5s-19.834 -14.5 -24.501 -28.5s-7 -35.667 -7 -65
c0 -28 2.5 -49.167 7.5 -63.5s14 -24.166 27 -29.499s32.833 -8 59.5 -8s48.5 3.33301 65.5 10zM147.503 622.999c-13.667 6 -22.5 15.167 -26.5 27.5s-6 31.166 -6 56.499s2 44.333 6 57s12.833 22 26.5 28s35.5 9 65.5 9s51.833 -3 65.5 -9s22.5 -15.333 26.5 -28
s6 -31.667 6 -57s-2 -44.166 -6 -56.499s-12.833 -21.5 -26.5 -27.5s-35.5 -9 -65.5 -9s-51.833 3 -65.5 9zM250.503 653.999c7.66699 3.33301 12.667 8.82715 15 16.4941s3.5 19.834 3.5 36.501s-1.16699 28.834 -3.5 36.501s-7.33301 13.167 -15 16.5s-20.167 5 -37.5 5
s-29.833 -1.66699 -37.5 -5s-12.5 -8.66602 -14.5 -15.999s-3 -19.666 -3 -36.999s1 -29.666 3 -36.999s6.83301 -12.666 14.5 -15.999s20.167 -5 37.5 -5s29.833 1.66699 37.5 5zM190.003 833.993v5l56 135h61v-5l-76 -135h-41z" />
    <glyph glyph-name="AEacute" unicode="&#x1fc;" horiz-adv-x="678" 
d="M386 0l-36 203h-222l-72 -203h-59l250 688h393v-53h-309l47 -261h228v-53h-218l49 -268h203v-53h-254zM278 608h-5l-126 -353h194zM313 748v5l56 135h61v-5l-76 -135h-41z" />
    <glyph glyph-name="aeacute" unicode="&#x1fd;" horiz-adv-x="685" 
d="M634 239h-271.996c0 -58.667 2.66699 -101.167 8 -127.5s16.833 -44.666 34.5 -54.999s46.5 -15.5 86.5 -15.5c20 0 42 1.16699 66 3.5s45 5.5 63 9.5v-48c-15.333 -4 -36 -7.33301 -62 -10s-51.333 -4 -76 -4c-44.667 0 -78.834 6.16699 -102.501 18.5
s-40.834 33.833 -51.501 64.5c-12.667 -34 -31.834 -56.333 -57.501 -67s-56.167 -16 -91.5 -16c-34.667 0 -62 4.16699 -82 12.5s-35 23.166 -45 44.499s-15 51.333 -15 90c0 38 3.83301 67.333 11.5 88s20.5 35.5 38.5 44.5s43.667 13.5 77 13.5l142 -1v39
c0 45.333 -3 77.833 -9 97.5s-17 32.667 -33 39s-42.333 9.5 -79 9.5c-16.667 0 -37.5 -1.16699 -62.5 -3.5s-45.167 -5.16602 -60.5 -8.49902v48c44.667 8.66699 91 13 139 13c38 0 67.5 -4.5 88.5 -13.5s36.833 -24.5 47.5 -46.5
c11.333 21.333 28.166 36.666 50.499 45.999s52.833 14 91.5 14c48.667 0 83.667 -7.83301 105 -23.5s35 -40.5 41 -74.5s9 -88 9 -162v-19zM400.004 456c-15.333 -8.66699 -25.332 -25.168 -29.999 -49.501s-7.33398 -65.166 -8.00098 -122.499h217v12
c0 52 -2.83301 90 -8.5 114s-15.5 39.833 -29.5 47.5s-35.333 11.5 -64 11.5c-36 0 -61.667 -4.33301 -77 -13zM306.005 238.999h-129.999c-24 0 -41.667 -2.33301 -53 -7s-19.333 -13.667 -24 -27s-7 -34.333 -7 -63s2.5 -50 7.5 -64s14.167 -23.667 27.5 -29
s33.333 -8 60 -8c27.333 0 49.666 3.5 66.999 10.5s30 22.167 38 45.5c9.33301 27.333 14 64 14 110v32zM317.006 602.999v5l56 135h61v-5l-76 -135h-41z" />
    <glyph glyph-name="Oslashacute" unicode="&#x1fe;" horiz-adv-x="520" 
d="M421 649c17.333 -22 28.667 -55.499 34 -100.499s8 -113.167 8 -204.5c0 -108.667 -4 -185.834 -12 -231.501s-25.667 -77.167 -53 -94.5s-73.333 -26 -138 -26c-55.333 0 -96 5.66699 -122 17l-28 -64h-53l42 95c-17.333 22 -28.666 55.333 -33.999 100
s-8 112.667 -8 204c0 108 4.16699 185 12.5 231s26.166 77.667 53.499 95s73 26 137 26c56 0 96.667 -5.66699 122 -17l28 64h53zM118.501 192.001c1.66699 -36 5.16699 -64.001 10.5 -84.001l231 521c-10 6 -22.333 9.83301 -37 11.5s-35.667 2.5 -63 2.5
c-47.333 0 -80 -5.16699 -98 -15.5s-30.167 -35.166 -36.5 -74.499s-9.5 -109 -9.5 -209c0 -65.333 0.833008 -116 2.5 -152zM401.501 496c-1.66699 36 -5.16699 64.001 -10.5 84.001l-231 -521c10 -6 22.333 -9.83301 37 -11.5s35.667 -2.5 63 -2.5
c47.333 0 80 5.16699 98 15.5s30.167 35.166 36.5 74.499s9.5 109 9.5 209c0 65.333 -0.833008 116 -2.5 152zM234.001 748.001v5l56 135h61v-5l-76 -135h-41z" />
    <glyph glyph-name="oslashacute" unicode="&#x1ff;" horiz-adv-x="441" 
d="M352 483c16 -16.667 26.332 -41.6689 30.999 -75.002s7 -84.666 7 -153.999c0 -78 -3.33301 -134.167 -10 -168.5s-21.667 -58.5 -45 -72.5s-61.666 -21 -114.999 -21c-40 0 -70.667 3.66699 -92 11l-27 -58h-51l38 82c-16 16.667 -26.333 41.667 -31 75s-7 84 -7 152
c0 78.667 3.5 135.334 10.5 170.001s22 59 45 73s61.167 21 114.5 21c40 0 70.667 -3.66699 92 -11l27 58h51zM107.499 143.498c1 -23 3.83203 -41.834 8.49902 -56.501l174 373c-14 6 -37.333 9 -70 9c-37.333 0 -63.666 -5.16699 -78.999 -15.5s-25 -29.166 -29 -56.499
s-6 -75 -6 -143c0 -50.667 0.5 -87.5 1.5 -110.5zM331.998 365.497c-1.33301 23.667 -4.33301 42.499 -9 56.499l-173 -373c14 -5.33301 37.333 -8 70 -8c38 0 64.5 5 79.5 15s24.5 28.5 28.5 55.5s6 74.5 6 142.5c0 50.667 -0.666992 87.834 -2 111.501zM193.998 602.996v5
l56 135h61v-5l-76 -135h-41z" />
    <glyph glyph-name="uni0200" unicode="&#x200;" horiz-adv-x="493" 
d="M411 0l-54 203h-223l-53 -203h-60l189 688h73l189 -688h-61zM248 608h-5l-94 -353h193zM204 754h-37l-71 119v5h56l52 -119v-5zM336 754h-37l-72 119v5h57l52 -119v-5z" />
    <glyph glyph-name="uni0201" unicode="&#x201;" horiz-adv-x="427" 
d="M95 4.5c-19.333 8.33301 -33.8311 23.168 -43.498 44.501s-14.5 51.333 -14.5 90s3.83301 68.5 11.5 89.5s20.5 36.167 38.5 45.5s43.667 14 77 14c20 0 67.333 -1.66699 142 -5v40c0 45.333 -3 77.833 -9 97.5s-17 32.667 -33 39s-42.333 9.5 -79 9.5
c-16.667 0 -37.334 -1.16699 -62.001 -3.5s-44.667 -5.16602 -60 -8.49902v48c43.333 8.66699 89.333 13 138 13c45.333 0 79.166 -5.5 101.499 -16.5s37.833 -29.833 46.5 -56.5s13 -66.334 13 -119.001v-326h-48l-4 73h-4c-10 -32.667 -26.667 -54.334 -50 -65.001
s-51 -16 -83 -16c-32.667 0 -58.667 4.16699 -78 12.5zM252.502 51.002c17 6.66699 29.501 20.3311 37.501 40.998c6 16.667 10.167 33.834 12.5 51.501s3.5 39.167 3.5 64.5v35h-129c-23.333 0 -40.833 -2.5 -52.5 -7.5s-19.834 -14.5 -24.501 -28.5s-7 -35.667 -7 -65
c0 -28 2.5 -49.167 7.5 -63.5s14 -24.166 27 -29.499s32.833 -8 59.5 -8s48.5 3.33301 65.5 10zM171.003 608.999h-37l-71 119v5h56l52 -119v-5zM303.003 608.999h-37l-72 119v5h57l52 -119v-5z" />
    <glyph glyph-name="uni0202" unicode="&#x202;" horiz-adv-x="493" 
d="M411 0l-54 203h-223l-53 -203h-60l189 688h73l189 -688h-61zM248 608h-5l-94 -353h193zM143.5 831.5c4.33301 19 14.332 34.167 29.999 45.5s40.167 17 73.5 17s57.666 -5.66699 72.999 -17s25 -26.333 29 -45s6 -45 6 -79h-43c0 27.333 -1.16699 47.666 -3.5 60.999
s-8 23.666 -17 30.999s-23.833 11 -44.5 11c-21.333 0 -36.666 -3.66699 -45.999 -11s-15.166 -17.666 -17.499 -30.999s-3.5 -33.666 -3.5 -60.999h-43c0 33.333 2.16699 59.5 6.5 78.5z" />
    <glyph glyph-name="uni0203" unicode="&#x203;" horiz-adv-x="427" 
d="M95 4.5c-19.333 8.33301 -33.8311 23.168 -43.498 44.501s-14.5 51.333 -14.5 90s3.83301 68.5 11.5 89.5s20.5 36.167 38.5 45.5s43.667 14 77 14c20 0 67.333 -1.66699 142 -5v40c0 45.333 -3 77.833 -9 97.5s-17 32.667 -33 39s-42.333 9.5 -79 9.5
c-16.667 0 -37.334 -1.16699 -62.001 -3.5s-44.667 -5.16602 -60 -8.49902v48c43.333 8.66699 89.333 13 138 13c45.333 0 79.166 -5.5 101.499 -16.5s37.833 -29.833 46.5 -56.5s13 -66.334 13 -119.001v-326h-48l-4 73h-4c-10 -32.667 -26.667 -54.334 -50 -65.001
s-51 -16 -83 -16c-32.667 0 -58.667 4.16699 -78 12.5zM252.502 51.002c17 6.66699 29.501 20.3311 37.501 40.998c6 16.667 10.167 33.834 12.5 51.501s3.5 39.167 3.5 64.5v35h-129c-23.333 0 -40.833 -2.5 -52.5 -7.5s-19.834 -14.5 -24.501 -28.5s-7 -35.667 -7 -65
c0 -28 2.5 -49.167 7.5 -63.5s14 -24.166 27 -29.499s32.833 -8 59.5 -8s48.5 3.33301 65.5 10zM110.503 686.499c4.33301 19 14.332 34.167 29.999 45.5s40.167 17 73.5 17s57.666 -5.66699 72.999 -17s25 -26.333 29 -45s6 -45 6 -79h-43
c0 27.333 -1.16699 47.666 -3.5 60.999s-8 23.666 -17 30.999s-23.833 11 -44.5 11c-21.333 0 -36.666 -3.66699 -45.999 -11s-15.166 -17.666 -17.499 -30.999s-3.5 -33.666 -3.5 -60.999h-43c0 33.333 2.16699 59.5 6.5 78.5z" />
    <glyph glyph-name="uni0204" unicode="&#x204;" horiz-adv-x="432" 
d="M74 0v688h320v-53h-260v-261h226v-52h-226v-269h260v-53h-320zM191 754h-37l-71 119v5h56l52 -119v-5zM323 754h-37l-72 119v5h57l52 -119v-5z" />
    <glyph glyph-name="uni0205" unicode="&#x205;" horiz-adv-x="429" 
d="M378 236h-272c0 -58 2.66699 -99.833 8 -125.5s16.833 -43.667 34.5 -54s46.5 -15.5 86.5 -15.5c20 0 42 1.16699 66 3.5s45 5.5 63 9.5v-48c-15.333 -4 -36 -7.33301 -62 -10s-51.333 -4 -76 -4c-52.667 0 -91.167 7.5 -115.5 22.5s-40.5 40.333 -48.5 76
s-12 90.167 -12 163.5c0 74 3.33301 128.333 10 163s22 60.167 46 76.5s63 24.5 117 24.5c48.667 0 83.667 -7.83301 105 -23.5s35 -40.667 41 -75s9 -88.833 9 -163.5v-20zM144.5 455.5c-15.667 -9 -25.832 -25.833 -30.499 -50.5s-7.33398 -66 -8.00098 -124h217v15
c0 52 -2.83301 90 -8.5 114s-15.5 39.833 -29.5 47.5s-35.333 11.5 -64 11.5c-35.333 0 -60.833 -4.5 -76.5 -13.5zM171.002 609h-37l-71 119v5h56l52 -119v-5zM303.002 609h-37l-72 119v5h57l52 -119v-5z" />
    <glyph glyph-name="uni0206" unicode="&#x206;" horiz-adv-x="432" 
d="M74 0v688h320v-53h-260v-261h226v-52h-226v-269h260v-53h-320zM130.5 831.5c4.33301 19 14.332 34.167 29.999 45.5s40.167 17 73.5 17s57.666 -5.66699 72.999 -17s25 -26.333 29 -45s6 -45 6 -79h-43c0 27.333 -1.16699 47.666 -3.5 60.999s-8 23.666 -17 30.999
s-23.833 11 -44.5 11c-21.333 0 -36.666 -3.66699 -45.999 -11s-15.166 -17.666 -17.499 -30.999s-3.5 -33.666 -3.5 -60.999h-43c0 33.333 2.16699 59.5 6.5 78.5z" />
    <glyph glyph-name="uni0207" unicode="&#x207;" horiz-adv-x="429" 
d="M378 236h-272c0 -58 2.66699 -99.833 8 -125.5s16.833 -43.667 34.5 -54s46.5 -15.5 86.5 -15.5c20 0 42 1.16699 66 3.5s45 5.5 63 9.5v-48c-15.333 -4 -36 -7.33301 -62 -10s-51.333 -4 -76 -4c-52.667 0 -91.167 7.5 -115.5 22.5s-40.5 40.333 -48.5 76
s-12 90.167 -12 163.5c0 74 3.33301 128.333 10 163s22 60.167 46 76.5s63 24.5 117 24.5c48.667 0 83.667 -7.83301 105 -23.5s35 -40.667 41 -75s9 -88.833 9 -163.5v-20zM144.5 455.5c-15.667 -9 -25.832 -25.833 -30.499 -50.5s-7.33398 -66 -8.00098 -124h217v15
c0 52 -2.83301 90 -8.5 114s-15.5 39.833 -29.5 47.5s-35.333 11.5 -64 11.5c-35.333 0 -60.833 -4.5 -76.5 -13.5zM110.502 686.5c4.33301 19 14.332 34.167 29.999 45.5s40.167 17 73.5 17s57.666 -5.66699 72.999 -17s25 -26.333 29 -45s6 -45 6 -79h-43
c0 27.333 -1.16699 47.666 -3.5 60.999s-8 23.666 -17 30.999s-23.833 11 -44.5 11c-21.333 0 -36.666 -3.66699 -45.999 -11s-15.166 -17.666 -17.499 -30.999s-3.5 -33.666 -3.5 -60.999h-43c0 33.333 2.16699 59.5 6.5 78.5z" />
    <glyph glyph-name="uni0208" unicode="&#x208;" horiz-adv-x="214" 
d="M78 0v688h58v-688h-58zM64 754h-37l-71 119v5h56l52 -119v-5zM196 754h-37l-72 119v5h57l52 -119v-5z" />
    <glyph glyph-name="uni0209" unicode="&#x209;" horiz-adv-x="190" 
d="M67 0v510h56v-510h-56zM52 609h-37l-71 119v5h56l52 -119v-5zM184 609h-37l-72 119v5h57l52 -119v-5z" />
    <glyph glyph-name="uni020A" unicode="&#x20a;" horiz-adv-x="214" 
d="M78 0v688h58v-688h-58zM3.5 831.5c4.33301 19 14.332 34.167 29.999 45.5s40.167 17 73.5 17s57.666 -5.66699 72.999 -17s25 -26.333 29 -45s6 -45 6 -79h-43c0 27.333 -1.16699 47.666 -3.5 60.999s-8 23.666 -17 30.999s-23.833 11 -44.5 11
c-21.333 0 -36.666 -3.66699 -45.999 -11s-15.166 -17.666 -17.499 -30.999s-3.5 -33.666 -3.5 -60.999h-43c0 33.333 2.16699 59.5 6.5 78.5z" />
    <glyph glyph-name="uni020B" unicode="&#x20b;" horiz-adv-x="190" 
d="M67 0v510h56v-510h-56zM-8.5 686.5c4.33301 19 14.332 34.167 29.999 45.5s40.167 17 73.5 17s57.666 -5.66699 72.999 -17s25 -26.333 29 -45s6 -45 6 -79h-43c0 27.333 -1.16699 47.666 -3.5 60.999s-8 23.666 -17 30.999s-23.833 11 -44.5 11
c-21.333 0 -36.666 -3.66699 -45.999 -11s-15.166 -17.666 -17.499 -30.999s-3.5 -33.666 -3.5 -60.999h-43c0 33.333 2.16699 59.5 6.5 78.5z" />
    <glyph glyph-name="uni020C" unicode="&#x20c;" horiz-adv-x="521" 
d="M123 18c-27.333 17.333 -45.166 49.002 -53.499 95.002s-12.5 123 -12.5 231s4.16699 185 12.5 231s26.166 77.667 53.499 95s73 26 137 26c64.667 0 110.667 -8.66699 138 -26s45 -48.833 53 -94.5s12 -122.834 12 -231.501s-4 -185.834 -12 -231.501
s-25.667 -77.167 -53 -94.5s-73.333 -26 -138 -26c-64 0 -109.667 8.66699 -137 26zM358 60.502c18 10.333 30.167 35.166 36.5 74.499s9.5 109 9.5 209s-3.16699 169.667 -9.5 209s-18.5 64.166 -36.5 74.499s-50.667 15.5 -98 15.5s-80 -5.16699 -98 -15.5
s-30.167 -35.166 -36.5 -74.499s-9.5 -109 -9.5 -209s3.16699 -169.667 9.5 -209s18.5 -64.166 36.5 -74.499s50.667 -15.5 98 -15.5s80 5.16699 98 15.5zM217 754.002h-37l-71 119v5h56l52 -119v-5zM349 754.002h-37l-72 119v5h57l52 -119v-5z" />
    <glyph glyph-name="uni020D" unicode="&#x20d;" horiz-adv-x="441" 
d="M105.5 13c-23 14 -38 38.167 -45 72.5s-10.5 90.5 -10.5 168.5c0 78.667 3.5 135.334 10.5 170.001s22 59 45 73s61.167 21 114.5 21s91.666 -7 114.999 -21s38.333 -38.333 45 -73s10 -91.334 10 -170.001c0 -78 -3.33301 -134.167 -10 -168.5s-21.667 -58.5 -45 -72.5
s-61.666 -21 -114.999 -21s-91.5 7 -114.5 21zM299.5 56c15 10 24.498 28.5 28.498 55.5s6 74.5 6 142.5s-2 115.667 -6 143s-13.667 46.166 -29 56.499s-41.666 15.5 -78.999 15.5s-63.666 -5.16699 -78.999 -15.5s-25 -29.166 -29 -56.499s-6 -75 -6 -143
s2 -115.5 6 -142.5s13.5 -45.5 28.5 -55.5s41.5 -15 79.5 -15s64.5 5 79.5 15zM176.998 609h-37l-71 119v5h56l52 -119v-5zM308.998 609h-37l-72 119v5h57l52 -119v-5z" />
    <glyph glyph-name="uni020E" unicode="&#x20e;" horiz-adv-x="521" 
d="M123 18c-27.333 17.333 -45.166 49.002 -53.499 95.002s-12.5 123 -12.5 231s4.16699 185 12.5 231s26.166 77.667 53.499 95s73 26 137 26c64.667 0 110.667 -8.66699 138 -26s45 -48.833 53 -94.5s12 -122.834 12 -231.501s-4 -185.834 -12 -231.501
s-25.667 -77.167 -53 -94.5s-73.333 -26 -138 -26c-64 0 -109.667 8.66699 -137 26zM358 60.502c18 10.333 30.167 35.166 36.5 74.499s9.5 109 9.5 209s-3.16699 169.667 -9.5 209s-18.5 64.166 -36.5 74.499s-50.667 15.5 -98 15.5s-80 -5.16699 -98 -15.5
s-30.167 -35.166 -36.5 -74.499s-9.5 -109 -9.5 -209s3.16699 -169.667 9.5 -209s18.5 -64.166 36.5 -74.499s50.667 -15.5 98 -15.5s80 5.16699 98 15.5zM156.5 831.502c4.33301 19 14.332 34.167 29.999 45.5s40.167 17 73.5 17s57.666 -5.66699 72.999 -17
s25 -26.333 29 -45s6 -45 6 -79h-43c0 27.333 -1.16699 47.666 -3.5 60.999s-8 23.666 -17 30.999s-23.833 11 -44.5 11c-21.333 0 -36.666 -3.66699 -45.999 -11s-15.166 -17.666 -17.499 -30.999s-3.5 -33.666 -3.5 -60.999h-43c0 33.333 2.16699 59.5 6.5 78.5z" />
    <glyph glyph-name="uni020F" unicode="&#x20f;" horiz-adv-x="441" 
d="M105.5 13c-23 14 -38 38.167 -45 72.5s-10.5 90.5 -10.5 168.5c0 78.667 3.5 135.334 10.5 170.001s22 59 45 73s61.167 21 114.5 21s91.666 -7 114.999 -21s38.333 -38.333 45 -73s10 -91.334 10 -170.001c0 -78 -3.33301 -134.167 -10 -168.5s-21.667 -58.5 -45 -72.5
s-61.666 -21 -114.999 -21s-91.5 7 -114.5 21zM299.5 56c15 10 24.498 28.5 28.498 55.5s6 74.5 6 142.5s-2 115.667 -6 143s-13.667 46.166 -29 56.499s-41.666 15.5 -78.999 15.5s-63.666 -5.16699 -78.999 -15.5s-25 -29.166 -29 -56.499s-6 -75 -6 -143
s2 -115.5 6 -142.5s13.5 -45.5 28.5 -55.5s41.5 -15 79.5 -15s64.5 5 79.5 15zM116.498 686.5c4.33301 19 14.332 34.167 29.999 45.5s40.167 17 73.5 17s57.666 -5.66699 72.999 -17s25 -26.333 29 -45s6 -45 6 -79h-43c0 27.333 -1.16699 47.666 -3.5 60.999
s-8 23.666 -17 30.999s-23.833 11 -44.5 11c-21.333 0 -36.666 -3.66699 -45.999 -11s-15.166 -17.666 -17.499 -30.999s-3.5 -33.666 -3.5 -60.999h-43c0 33.333 2.16699 59.5 6.5 78.5z" />
    <glyph glyph-name="uni0210" unicode="&#x210;" horiz-adv-x="494" 
d="M386 0l-90.001 284.001h-19h-144v-284h-59v688h208c46 0 80.333 -8.66699 103 -26s37.167 -40 43.5 -68s9.5 -64 9.5 -108c0 -51.333 -5.16699 -92.833 -15.5 -124.5s-33.166 -53.834 -68.499 -66.501l95 -295h-63zM341.499 353.001
c15.667 11.333 25.8311 27.167 30.498 47.5s7 48.833 7 85.5c0 37.333 -2.16699 66 -6.5 86s-14.166 35.5 -29.499 46.5s-39.666 16.5 -72.999 16.5h-137v-299h135c33.333 0 57.833 5.66699 73.5 17zM203.996 754.002h-37l-71 119v5h56l52 -119v-5zM335.996 754.002h-37
l-72 119v5h57l52 -119v-5z" />
    <glyph glyph-name="uni0211" unicode="&#x211;" horiz-adv-x="277" 
d="M67 510l48.001 -0.000976562l4 -98h5c8.66699 40.667 24.167 68.5 46.5 83.5s51.5 22.5 87.5 22.5v-57c-35.333 0 -62.833 -7.83301 -82.5 -23.5s-33.334 -38.667 -41.001 -69s-11.5 -70.166 -11.5 -119.499v-249h-56v510zM96.001 608.999h-37l-71 119v5h56l52 -119v-5z
M228.001 608.999h-37l-72 119v5h57l52 -119v-5z" />
    <glyph glyph-name="uni0212" unicode="&#x212;" horiz-adv-x="494" 
d="M386 0l-90.001 284.001h-19h-144v-284h-59v688h208c46 0 80.333 -8.66699 103 -26s37.167 -40 43.5 -68s9.5 -64 9.5 -108c0 -51.333 -5.16699 -92.833 -15.5 -124.5s-33.166 -53.834 -68.499 -66.501l95 -295h-63zM341.499 353.001
c15.667 11.333 25.8311 27.167 30.498 47.5s7 48.833 7 85.5c0 37.333 -2.16699 66 -6.5 86s-14.166 35.5 -29.499 46.5s-39.666 16.5 -72.999 16.5h-137v-299h135c33.333 0 57.833 5.66699 73.5 17zM143.496 831.502c4.33301 19 14.332 34.167 29.999 45.5
s40.167 17 73.5 17s57.666 -5.66699 72.999 -17s25 -26.333 29 -45s6 -45 6 -79h-43c0 27.333 -1.16699 47.666 -3.5 60.999s-8 23.666 -17 30.999s-23.833 11 -44.5 11c-21.333 0 -36.666 -3.66699 -45.999 -11s-15.166 -17.666 -17.499 -30.999s-3.5 -33.666 -3.5 -60.999
h-43c0 33.333 2.16699 59.5 6.5 78.5z" />
    <glyph glyph-name="uni0213" unicode="&#x213;" horiz-adv-x="277" 
d="M67 510l48.001 -0.000976562l4 -98h5c8.66699 40.667 24.167 68.5 46.5 83.5s51.5 22.5 87.5 22.5v-57c-35.333 0 -62.833 -7.83301 -82.5 -23.5s-33.334 -38.667 -41.001 -69s-11.5 -70.166 -11.5 -119.499v-249h-56v510zM35.501 686.499
c4.33301 19 14.332 34.167 29.999 45.5s40.167 17 73.5 17s57.666 -5.66699 72.999 -17s25 -26.333 29 -45s6 -45 6 -79h-43c0 27.333 -1.16699 47.666 -3.5 60.999s-8 23.666 -17 30.999s-23.833 11 -44.5 11c-21.333 0 -36.666 -3.66699 -45.999 -11
s-15.166 -17.666 -17.499 -30.999s-3.5 -33.666 -3.5 -60.999h-43c0 33.333 2.16699 59.5 6.5 78.5z" />
    <glyph glyph-name="uni0214" unicode="&#x214;" horiz-adv-x="517" 
d="M448 688v-391c0 -88.667 -4 -153.167 -12 -193.5s-25 -69 -51 -86s-68 -25.5 -126 -25.5c-58.667 0 -101 8.5 -127 25.5s-43 45.667 -51 86s-12 104.833 -12 193.5v391h58v-424c0 -66 2.5 -113.167 7.5 -141.5s16.5 -48.333 34.5 -60s48 -17.5 90 -17.5
c41.333 0 70.833 5.83301 88.5 17.5s29 31.667 34 60s7.5 75.5 7.5 141.5v424h59zM216 754h-37l-71 119v5h56l52 -119v-5zM348 754h-37l-72 119v5h57l52 -119v-5z" />
    </font>
</defs>
</svg>
