<?xml version="1.0" standalone="no"?>
<!DOCTYPE svg PUBLIC "-//W3C//DTD SVG 1.1//EN" "http://www.w3.org/Graphics/SVG/1.1/DTD/svg11.dtd" >
<svg>
<metadata>
Created by FontForge 20090914 at Thu Dec  9 15:52:57 2021
 By www-data
Copyright 2016 The Saira Project Authors (omnibus.type@gmail.com), with reserved font name "Saira".
</metadata>
<defs>
<font id="SairaCondensed-Bold" horiz-adv-x="506" >
  <font-face 
    font-family="Saira Condensed Condensed"
    font-weight="700"
    font-stretch="condensed"
    units-per-em="1000"
    panose-1="0 0 8 6 0 0 0 0 0 0"
    ascent="800"
    descent="-200"
    x-height="510"
    cap-height="688"
    bbox="-467 -396.002 904.001 1111"
    underline-thickness="50"
    underline-position="-50"
    unicode-range="U+000D-U+FB02"
  />
<missing-glyph horiz-adv-x="500" 
d="M0 0v700h500v-700h-500zM450 650h-400v-600h400v600zM229 278c0 19.333 4.5 35.3291 13.5 47.9961s22.5 26.334 40.5 41.001c18.667 15.333 32.667 29.833 42 43.5s14 31.834 14 54.501c0 20.667 -6.33301 40.334 -19 59.001s-36 28 -70 28
c-38.667 0 -64.667 -11.167 -78 -33.5s-20 -44.5 -20 -66.5v-28h-49c-2.66699 8 -4 18.333 -4 31c0 15.333 3.5 34 10.5 56s21.667 42.667 44 62s54.5 29 96.5 29s73.5 -9.33301 94.5 -28s34.333 -38 40 -58s8.5 -36.333 8.5 -49c0 -30 -6.16699 -54.667 -18.5 -74
s-28.5 -37.666 -48.5 -54.999c-14.667 -12 -25.667 -23 -33 -33s-11 -22.333 -11 -37v-53h-53v63zM225 98.9961v70h60v-70h-60z" />
    <glyph glyph-name="fi" unicode="fi" horiz-adv-x="530" 
d="M78 402l-62.999 -0.00292969v108h63v30c0 64.667 5.5 110.834 16.5 138.501s30.167 45.334 57.5 53.001s73.666 11.5 138.999 11.5v-96c-26.667 0 -45.5 -1.5 -56.5 -4.5s-18.333 -9.66699 -22 -20s-5.5 -28.166 -5.5 -53.499v-59h84v-108h-84v-402h-129v402z
M354.001 620.997v122h131v-122h-131zM355.001 -0.00292969v510h129v-510h-129z" />
    <glyph glyph-name="fl" unicode="fl" horiz-adv-x="530" 
d="M78 402l-62.999 -0.00292969v108h63v30c0 64.667 5.5 110.834 16.5 138.501s30.167 45.334 57.5 53.001s73.666 11.5 138.999 11.5v-96c-26.667 0 -45.5 -1.5 -56.5 -4.5s-18.333 -9.66699 -22 -20s-5.5 -28.166 -5.5 -53.499v-59h84v-108h-84v-402h-129v402z
M355.001 -0.00292969v743h129v-743h-129z" />
    <glyph glyph-name="f_f" unicode="ff" horiz-adv-x="618" 
d="M78 402l-62.999 -0.00292969v108h63v30c0 64.667 5.5 110.834 16.5 138.501s30.167 45.334 57.5 53.001s73.666 11.5 138.999 11.5v-96c-26.667 0 -45.5 -1.5 -56.5 -4.5s-18.333 -9.66699 -22 -20s-5.5 -28.166 -5.5 -53.499v-59h84v-108h-84v-402h-129v402z
M387.001 401.997l-62.999 -0.00292969v108h63v30c0 64.667 5.5 110.834 16.5 138.501s30.167 45.334 57.5 53.001s73.666 11.5 138.999 11.5v-96c-26.667 0 -45.5 -1.5 -56.5 -4.5s-18.333 -9.66699 -22 -20s-5.5 -28.166 -5.5 -53.499v-59h84v-108h-84v-402h-129v402z" />
    <glyph glyph-name=".notdef" horiz-adv-x="500" 
d="M0 0v700h500v-700h-500zM450 650h-400v-600h400v600zM229 278c0 19.333 4.5 35.3291 13.5 47.9961s22.5 26.334 40.5 41.001c18.667 15.333 32.667 29.833 42 43.5s14 31.834 14 54.501c0 20.667 -6.33301 40.334 -19 59.001s-36 28 -70 28
c-38.667 0 -64.667 -11.167 -78 -33.5s-20 -44.5 -20 -66.5v-28h-49c-2.66699 8 -4 18.333 -4 31c0 15.333 3.5 34 10.5 56s21.667 42.667 44 62s54.5 29 96.5 29s73.5 -9.33301 94.5 -28s34.333 -38 40 -58s8.5 -36.333 8.5 -49c0 -30 -6.16699 -54.667 -18.5 -74
s-28.5 -37.666 -48.5 -54.999c-14.667 -12 -25.667 -23 -33 -33s-11 -22.333 -11 -37v-53h-53v63zM225 98.9961v70h60v-70h-60z" />
    <glyph glyph-name="NULL" horiz-adv-x="0" 
 />
    <glyph glyph-name="NULL" horiz-adv-x="0" 
 />
    <glyph glyph-name="nonmarkingreturn" unicode="&#xd;" horiz-adv-x="179" 
 />
    <glyph glyph-name="space" unicode=" " horiz-adv-x="179" 
 />
    <glyph glyph-name="exclam" unicode="!" horiz-adv-x="259" 
d="M66 442.5c-8.66699 101.667 -12.998 166.833 -12.998 195.5v50h157v-50c0 -27.333 -4.33301 -91.333 -13 -192s-16.334 -176.667 -23.001 -228h-85c-6.66699 48 -14.334 122.833 -23.001 224.5zM61.002 -0.000976562v132h141v-132h-141z" />
    <glyph glyph-name="quotedbl" unicode="&#x22;" horiz-adv-x="382" 
d="M61 428l-14 206v54h121v-54l-14 -206h-93zM227 428l-14 206v54h121v-54l-14 -206h-93z" />
    <glyph glyph-name="numbersign" unicode="#" horiz-adv-x="573" 
d="M279 0l25 180h-99l-24 -180h-93l24 180h-67v92h79l19 143h-76v91h88l26 182h92l-25 -182h99l25 182h93l-25 -182h74v-91h-86l-20 -143h84v-92h-95l-25 -180h-93zM335 415h-99l-19 -143h99z" />
    <glyph glyph-name="dollar" unicode="$" horiz-adv-x="407" 
d="M160 71c-46 3.33301 -82.666 8.66602 -109.999 15.999v103c48 -4.66699 87.333 -7 118 -7c20 0 35 1.33301 45 4s17 7.5 21 14.5s6 17.5 6 31.5c0 15.333 -1 26.5 -3 33.5s-5.33301 11.667 -10 14s-12.667 4.5 -24 6.5l-58 10c-29.333 5.33301 -51.5 13.833 -66.5 25.5
s-25.5 28 -31.5 49s-9 49.833 -9 86.5c0 49.333 10.333 86.5 31 111.5s51 40.5 91 46.5v80h95v-79c16.667 -1.33301 33.167 -3.33301 49.5 -6s29.166 -5.66699 38.499 -9v-103c-39.333 5.33301 -75.666 8 -108.999 8c-26 0 -43.333 -3 -52 -9s-13 -18.667 -13 -38
c0 -15.333 0.666992 -26.166 2 -32.499s4.16602 -10.666 8.49902 -12.999s11.833 -4.16602 22.5 -5.49902l64 -10c23.333 -3.33301 42 -9.33301 56 -18s25.167 -23.667 33.5 -45s12.5 -52.333 12.5 -93c0 -54.667 -9.5 -94.834 -28.5 -120.501
s-47.167 -41.834 -84.5 -48.501v-82h-95v79z" />
    <glyph glyph-name="percent" unicode="%" horiz-adv-x="731" 
d="M86.5 327.5c-17.667 11 -29.167 29.333 -34.5 55s-8 65.834 -8 120.501s2.66699 94.834 8 120.501s17 44.167 35 55.5s46.667 17 86 17s68 -5.66699 86 -17s29.667 -29.833 35 -55.5s8 -65.834 8 -120.501s-2.66699 -94.834 -8 -120.501s-17 -44 -35 -55
s-46.667 -16.5 -86 -16.5c-40 0 -68.833 5.5 -86.5 16.5zM144 0l363 688h81l-365 -688h-79zM200.5 388c5 4 8.16699 13.667 9.5 29s2 44 2 86c0 42.667 -0.666992 71.667 -2 87s-4.5 25 -9.5 29s-14.167 6 -27.5 6c-14 0 -23.5 -2 -28.5 -6s-8.16699 -13.667 -9.5 -29
s-2 -44.333 -2 -87s0.666992 -71.5 2 -86.5s4.5 -24.5 9.5 -28.5s14.5 -6 28.5 -6c13.333 0 22.5 2 27.5 6zM472.5 8.5c-17.667 11 -29.167 29.332 -34.5 54.999s-8 65.834 -8 120.501s2.66699 94.834 8 120.501s17 44.167 35 55.5s46.667 17 86 17s68 -5.66699 86 -17
s29.667 -30 35 -56s8 -66 8 -120c0 -54.667 -2.66699 -94.834 -8 -120.501s-17 -44 -35 -55s-46.667 -16.5 -86 -16.5c-40 0 -68.833 5.5 -86.5 16.5zM586.5 67.999c5 4 8.16699 13.667 9.5 29s2 44.333 2 87s-0.666992 71.667 -2 87s-4.5 25 -9.5 29s-14.167 6 -27.5 6
s-22.5 -2 -27.5 -6s-8.16699 -13.667 -9.5 -29s-2 -44.333 -2 -87s0.666992 -71.667 2 -87s4.5 -25 9.5 -29s14.167 -6 27.5 -6s22.5 2 27.5 6z" />
    <glyph glyph-name="ampersand" unicode="&#x26;" horiz-adv-x="547" 
d="M529 403l-0.00488281 -111.003h-77v-282c-27.333 -5.33301 -58.5 -9.66602 -93.5 -12.999s-66.167 -5 -93.5 -5c-58 0 -103.167 6.5 -135.5 19.5s-55.333 33.167 -69 60.5s-20.5 63.666 -20.5 108.999c0 54.667 7.83301 94 23.5 118s40.834 40.667 75.501 50v4
c-32 8.66699 -55.5 25.834 -70.5 51.501s-22.5 63.5 -22.5 113.5c0 64 17.333 109.667 52 137s92.334 41 173.001 41c26 0 55.833 -1.83301 89.5 -5.5s63.834 -8.16699 90.501 -13.5v-101c-48 6 -95.333 9 -142 9c-41.333 0 -70.666 -2.16699 -87.999 -6.5
s-29 -12.5 -35 -24.5s-9 -32.333 -9 -61c0 -25.333 1.66699 -44.166 5 -56.499s9.83301 -21 19.5 -26s24.5 -7.5 44.5 -7.5h28v-111h-28c-21.333 0 -37.166 -2.33301 -47.499 -7s-17.5 -13.667 -21.5 -27s-6 -33.666 -6 -60.999c0 -29.333 3.33301 -50.5 10 -63.5
s17.5 -21.5 32.5 -25.5s38.5 -6 70.5 -6c8 0 21.333 0.666992 40 2v299h205z" />
    <glyph glyph-name="quotesingle" unicode="'" horiz-adv-x="216" 
d="M61 428l-14 206v54h121v-54l-14 -206h-93z" />
    <glyph glyph-name="parenleft" unicode="(" horiz-adv-x="289" 
d="M93 -22.5c-14.667 31 -25.666 70.668 -32.999 119.001s-11 115.166 -11 200.499c0 86 3.66699 153.5 11 202.5s18.666 89.667 33.999 122s39.333 72.833 72 121.5h103c-25.333 -42.667 -43.666 -78 -54.999 -106s-20.333 -68 -27 -120s-10 -125.333 -10 -220
c0 -95.333 3.33301 -169 10 -221s15.667 -91.833 27 -119.5s29.666 -63.167 54.999 -106.5h-103c-34 54 -58.333 96.5 -73 127.5z" />
    <glyph glyph-name="parenright" unicode=")" horiz-adv-x="289" 
d="M75 -43.5c11.333 27.667 20.167 67.499 26.5 119.499s9.5 125.667 9.5 221c0 94.667 -3.16699 168 -9.5 220s-15.166 91.833 -26.499 119.5s-29.666 63.167 -54.999 106.5h102c32.667 -48 56.667 -88.333 72 -121s26.666 -73.5 33.999 -122.5s11 -116.5 11 -202.5
s-3.66699 -153 -11 -201s-18.333 -87.667 -33 -119s-39 -73.666 -73 -126.999h-102c25.333 43.333 43.666 78.833 54.999 106.5z" />
    <glyph glyph-name="asterisk" unicode="*" horiz-adv-x="407" 
d="M231 476l11 -114h-76l10 114l-95 -67l-39 67l104 48l-104 49l39 67l95 -66l-10 114h76l-11 -114l96 66l38 -67l-105 -49l105 -48l-38 -67z" />
    <glyph glyph-name="plus" unicode="+" horiz-adv-x="472" 
d="M182 73v125h-125v109h125v126h108v-126h126v-109h-126v-125h-108z" />
    <glyph glyph-name="comma" unicode="," horiz-adv-x="242" 
d="M91 -75c6.66699 10 9.99902 29.999 9.99902 59.999v15h-50v132h141v-94c0 -53.333 -3.33301 -92.666 -10 -117.999s-20 -43.5 -40 -54.5s-51.667 -16.5 -95 -16.5v61c22.667 0 37.334 5 44.001 15z" />
    <glyph glyph-name="hyphen" unicode="-" horiz-adv-x="297" 
d="M48 227v116h201v-116h-201z" />
    <glyph glyph-name="period" unicode="." horiz-adv-x="242" 
d="M51 0v132h141v-132h-141z" />
    <glyph glyph-name="slash" unicode="/" horiz-adv-x="327" 
d="M12 -55l189 798h114l-189 -798h-114z" />
    <glyph glyph-name="zero" unicode="0" horiz-adv-x="477" 
d="M101 22c-27.333 20 -44.5 52.5 -51.5 97.5s-10.5 119.833 -10.5 224.5s3.5 179.5 10.5 224.5s24.167 77.5 51.5 97.5s73 30 137 30c64.667 0 110.667 -10 138 -30s44.5 -52.5 51.5 -97.5s10.5 -119.833 10.5 -224.5s-3.5 -179.5 -10.5 -224.5s-24.167 -77.5 -51.5 -97.5
s-73.333 -30 -138 -30c-64 0 -109.667 10 -137 30zM284 124c8 7.33301 13.167 25.498 15.5 54.498s3.5 84.167 3.5 165.5s-1.16699 136.5 -3.5 165.5s-7.5 47.167 -15.5 54.5s-23.333 11 -46 11s-38 -3.66699 -46 -11s-13 -25.166 -15 -53.499s-3 -83.833 -3 -166.5
s1 -138.167 3 -166.5s7 -46.166 15 -53.499s23.333 -11 46 -11s38 3.66699 46 11z" />
    <glyph glyph-name="one" unicode="1" horiz-adv-x="310" 
d="M118 0v530l-101 -41v126l136 73h103v-688h-138z" />
    <glyph glyph-name="two" unicode="2" horiz-adv-x="450" 
d="M173 121l239.996 0.00195312v-121h-376v88c0 64 1.33301 110.5 4 139.5s9.33398 52.667 20.001 71s28.334 34.166 53.001 47.499l111 60c14.667 8 25.334 15 32.001 21s11.5 13.833 14.5 23.5s4.5 24.167 4.5 43.5c0 26 -2.66699 44.5 -8 55.5s-14 18 -26 21
s-31.667 4.5 -59 4.5c-29.333 0 -75.333 -3 -138 -9v112c22.667 5.33301 50.667 9.66602 84 12.999s64 5 92 5c41.333 0 75.333 -4 102 -12s48.334 -26 65.001 -54s25 -70 25 -126c0 -58.667 -6.83301 -101.334 -20.5 -128.001s-35.167 -47.667 -64.5 -63
c-24 -12 -63.667 -33 -119 -63c-14.667 -7.33301 -24 -15.333 -28 -24c-3.33301 -7.33301 -5.5 -17.166 -6.5 -29.499s-1.5 -31.833 -1.5 -58.5v-17z" />
    <glyph glyph-name="three" unicode="3" horiz-adv-x="437" 
d="M110 -3c-32 3.33301 -60.335 7.66992 -85.002 13.0029v111c51.333 -5.33301 98 -8 140 -8c27.333 0 47.5 1.66699 60.5 5s22.5 10.833 28.5 22.5s9 30.5 9 56.5s-2.33301 45.5 -7 58.5s-12.167 21.667 -22.5 26s-25.5 6.5 -45.5 6.5h-94v120h94
c18.667 0 32.667 1.83301 42 5.5s16.166 11.5 20.499 23.5s6.5 30.667 6.5 56s-2.66699 43.666 -8 54.999s-14.5 18.666 -27.5 21.999s-33.833 5 -62.5 5c-31.333 0 -75.666 -2.66699 -132.999 -8v111c24.667 5.33301 52.834 9.66602 84.501 12.999s59.834 5 84.501 5
c48 0 86.5 -5.66699 115.5 -17s50.333 -29.833 64 -55.5s20.5 -60.834 20.5 -105.501c0 -50 -7.5 -88 -22.5 -114s-37.833 -43 -68.5 -51v-4c33.333 -8.66699 57.833 -25.167 73.5 -49.5s23.5 -63.833 23.5 -118.5c0 -45.333 -6.5 -81.666 -19.5 -108.999
s-34.5 -47.5 -64.5 -60.5s-70.667 -19.5 -122 -19.5c-24.667 0 -53 1.66699 -85 5z" />
    <glyph glyph-name="four" unicode="4" horiz-adv-x="469" 
d="M256 0v137h-235v105l139 446h143l-145 -431h99l37 175h99v-175h58v-120h-58v-137h-137z" />
    <glyph glyph-name="five" unicode="5" horiz-adv-x="453" 
d="M180 113c30.667 0 52.999 2.33301 66.999 7s23.5 13.834 28.5 27.501s7.5 35.5 7.5 65.5c0 31.333 -2.66699 53.833 -8 67.5s-15 22.667 -29 27s-36.667 6.5 -68 6.5c-40 0 -82.333 -3 -127 -9v383h341v-121h-214v-139c8.66699 2 20.334 3.66699 35.001 5s28.667 2 42 2
c63.333 0 106.833 -17.167 130.5 -51.5s35.5 -86.5 35.5 -156.5c0 -58.667 -5.66699 -104.667 -17 -138s-31.666 -57.833 -60.999 -73.5s-71.333 -23.5 -126 -23.5c-24.667 0 -53 1.66699 -85 5s-60.333 7.66602 -85 12.999v111c49.333 -5.33301 93.666 -8 132.999 -8z" />
    <glyph glyph-name="six" unicode="6" horiz-adv-x="473" 
d="M146 2c-24 6.66699 -43.5 19.665 -58.5 38.998s-26.5 48 -34.5 86c-9.33301 39.333 -14 111.333 -14 216c0 106 6.66699 181.333 20 226c14 46.667 36.5 79.5 67.5 98.5s76.167 28.5 135.5 28.5c22 0 47.333 -2 76 -6s54.667 -9 78 -15v-111
c-54 7.33301 -96.667 11 -128 11c-36.667 0 -62.5 -4.33301 -77.5 -13s-24.667 -25.167 -29 -49.5s-6.5 -66.166 -6.5 -125.499h8c18.667 32 54.667 48 108 48c35.333 0 63.333 -4.83301 84 -14.5s36.5 -29.167 47.5 -58.5s16.5 -73 16.5 -131
c0 -63.333 -5.33301 -111.666 -16 -144.999s-29.667 -57.333 -57 -72s-68 -22 -122 -22c-41.333 0 -74 3.33301 -98 10zM283 117.498c8.66699 3.66699 14.667 12.166 18 25.499s5 36.333 5 69c0 33.333 -1.66699 56.833 -5 70.5s-9.16602 22.334 -17.499 26.001
s-22.833 5.5 -43.5 5.5c-20 0 -34.333 -2 -43 -6s-14.334 -12.167 -17.001 -24.5s-4 -32.833 -4 -61.5c0 -34.667 1.83301 -59.667 5.5 -75s9.66699 -25 18 -29s21.833 -6 40.5 -6c20 0 34.333 1.83301 43 5.5z" />
    <glyph glyph-name="seven" unicode="7" horiz-adv-x="421" 
d="M65 0l193 567h-236v121h380v-108l-191 -580h-146z" />
    <glyph glyph-name="eight" unicode="8" horiz-adv-x="487" 
d="M120 11c-30 12.667 -51.5 32.668 -64.5 60.001s-19.5 64 -19.5 110c0 55.333 7.66699 94.833 23 118.5s40 40.167 74 49.5v4c-31.333 8.66699 -54.333 26 -69 52s-22 63.667 -22 113c0 44.667 6.83301 79.834 20.5 105.501s35.167 44.167 64.5 55.5s68.333 17 117 17
c48 0 86.667 -5.66699 116 -17s50.833 -29.833 64.5 -55.5s20.5 -60.834 20.5 -105.501c0 -50 -7.33301 -87.833 -22 -113.5s-37.667 -42.834 -69 -51.501v-4c34 -9.33301 58.667 -25.833 74 -49.5s23 -63.167 23 -118.5c0 -46 -6.5 -82.667 -19.5 -110
s-34.5 -47.333 -64.5 -60s-71 -19 -123 -19c-52.667 0 -94 6.33301 -124 19zM286 409.501c8.66699 3.66699 14.667 11.501 18 23.501s5 31.333 5 58c0 27.333 -1.5 47 -4.5 59s-8.83301 19.833 -17.5 23.5s-23 5.5 -43 5.5s-34.5 -1.83301 -43.5 -5.5s-15 -11.5 -18 -23.5
s-4.5 -31.667 -4.5 -59s1.5 -46.833 4.5 -58.5s9 -19.334 18 -23.001s23.5 -5.5 43.5 -5.5c19.333 0 33.333 1.83301 42 5.5zM287.5 115.002c9 4 15.332 12.168 18.999 24.501s5.5 32.166 5.5 59.499c0 28 -1.83301 48.5 -5.5 61.5s-10 21.5 -19 25.5s-23.5 6 -43.5 6
c-20.667 0 -35.667 -2 -45 -6s-15.666 -12.333 -18.999 -25s-5 -33.334 -5 -62.001c0 -27.333 1.83301 -47.166 5.5 -59.499s10.167 -20.5 19.5 -24.5s24 -6 44 -6s34.5 2 43.5 6z" />
    <glyph glyph-name="nine" unicode="9" horiz-adv-x="473" 
d="M134.5 -2c-29 4 -55.168 9.00098 -78.501 15.001v111c54 -7.33301 97 -11 129 -11c36.667 0 62.5 4.33301 77.5 13s24.667 25.167 29 49.5s6.5 66.166 6.5 125.499h-7c-18.667 -32 -55 -48 -109 -48c-36 0 -64.333 4.83301 -85 14.5s-36.5 29.167 -47.5 58.5
s-16.5 73 -16.5 131c0 62.667 5.33301 110.834 16 144.501s29.834 57.834 57.501 72.501s68.5 22 122.5 22c39.333 0 71 -2.83301 95 -8.5s43.5 -16.834 58.5 -33.501s26.5 -41 34.5 -73c6 -25.333 10.333 -56.833 13 -94.5s4 -84.834 4 -141.501
c0 -110.667 -8 -189.667 -24 -237c-14 -42.667 -36.5 -72.667 -67.5 -90s-74.833 -26 -131.5 -26c-22 0 -47.5 2 -76.5 6zM274.999 380.001c8.66699 4 14.501 12.168 17.501 24.501s4.5 32.833 4.5 61.5c0 34.667 -1.83301 59.667 -5.5 75s-9.83398 25 -18.501 29
s-22.334 6 -41.001 6c-20 0 -34.167 -1.83301 -42.5 -5.5s-14.166 -12.167 -17.499 -25.5s-5 -36.333 -5 -69c0 -33.333 1.66699 -56.833 5 -70.5s9 -22.334 17 -26.001s22.333 -5.5 43 -5.5c20 0 34.333 2 43 6z" />
    <glyph glyph-name="colon" unicode=":" horiz-adv-x="242" 
d="M51 378v132h141v-132h-141zM51 0v132h141v-132h-141z" />
    <glyph glyph-name="semicolon" unicode=";" horiz-adv-x="242" 
d="M51 378v132h141v-132h-141zM91 -75c6.66699 10 9.99902 29.999 9.99902 59.999v15h-50v132h141v-94c0 -53.333 -3.33301 -92.666 -10 -117.999s-20 -43.5 -40 -54.5s-51.667 -16.5 -95 -16.5v61c22.667 0 37.334 5 44.001 15z" />
    <glyph glyph-name="less" unicode="&#x3c;" horiz-adv-x="473" 
d="M416 66l-359 131v111l359 132v-110l-228 -77l228 -77v-110z" />
    <glyph glyph-name="equal" unicode="=" horiz-adv-x="472" 
d="M57 289v110h359v-110h-359zM57 108v109h359v-109h-359z" />
    <glyph glyph-name="greater" unicode="&#x3e;" horiz-adv-x="473" 
d="M57 66v110l227 77l-227 77v110l359 -132v-111z" />
    <glyph glyph-name="question" unicode="?" horiz-adv-x="393" 
d="M97 304c0 23.333 1.66797 41.6689 5.00098 55.002s8.5 23.833 15.5 31.5s17.5 15.5 31.5 23.5l19 11c20 12.667 32.833 24 38.5 34s8.5 27 8.5 51c0 20 -2.83301 34.667 -8.5 44s-14.167 15.166 -25.5 17.499s-28.666 3.5 -51.999 3.5c-31.333 0 -64 -2.66699 -98 -8v113
c22 4.66699 47.333 8.5 76 11.5s54 4.5 76 4.5c56 0 98.333 -12.667 127 -38s43 -68 43 -128c0 -33.333 -2.16699 -60 -6.5 -80s-11.833 -36.667 -22.5 -50s-25.667 -26.333 -45 -39l-17 -10c-16.667 -10.667 -27.834 -18.834 -33.501 -24.501s-9.33398 -12.5 -11.001 -20.5
s-2.5 -22 -2.5 -42v-47h-118v87zM86.001 0.00292969v132h140v-132h-140z" />
    <glyph glyph-name="at" unicode="@" horiz-adv-x="705" 
d="M144 -81.5c-39.333 17.667 -63.998 51.668 -73.998 102.001s-15 141.5 -15 273.5s5 223.167 15 273.5s34.667 84.333 74 102s109.333 26.5 210 26.5s170.667 -8.83301 210 -26.5s64 -51.5 74 -101.5s15 -141.333 15 -274c0 -70.667 -3.66699 -121.334 -11 -152.001
s-18 -49.5 -32 -56.5s-37.333 -10.5 -70 -10.5h-141l-4 50h-6c-7.33301 -20 -18.833 -34.5 -34.5 -43.5s-33.5 -13.5 -53.5 -13.5c-35.333 0 -60.333 10.5 -75 31.5s-22 54.5 -22 100.5c0 34 3.33301 60.667 10 80s17.667 33.166 33 41.499s37 12.5 65 12.5
c22.667 0 50 -1 82 -3v20c0 24 -1.66699 40.833 -5 50.5s-9.83301 15.834 -19.5 18.501s-26.834 4 -51.501 4c-32.667 0 -64 -1.66699 -94 -5v86c46.667 8.66699 89.334 13 128.001 13c42.667 0 74.667 -5.66699 96 -17s35.833 -29.333 43.5 -54s11.5 -59.667 11.5 -105
v-209h43c14.667 0 25 2.5 31 7.5s10.167 18.333 12.5 40s3.5 59.5 3.5 113.5c0 98.667 -1.83301 168.5 -5.5 209.5s-12.834 71.333 -27.501 91s-39.667 32.5 -75 38.5c-14.667 2 -33.5 3.33301 -56.5 4s-47.833 1 -74.5 1c-60.667 0 -101.667 -1.33301 -123 -4
c-38 -4.66699 -64.833 -16.5 -80.5 -35.5s-25.334 -49 -29.001 -90s-5.5 -112.5 -5.5 -214.5c0 -110 2.33301 -185.833 7 -227.5s17.167 -70.667 37.5 -87s56.166 -25.833 107.499 -28.5c14.667 -0.666992 43.334 -1 86.001 -1c78 0 127.667 1 149 3v-59
c-21.333 -1.33301 -71 -2 -149 -2c-100.667 0 -170.667 8.83301 -210 26.5zM385.002 177.501c6 9.66699 8.99902 29.166 8.99902 58.499v25h-51c-14 0 -23.333 -3.16699 -28 -9.5s-7 -20.166 -7 -41.499c0 -18.667 2.33301 -31.167 7 -37.5s15.334 -9.5 32.001 -9.5
c19.333 0 32 4.83301 38 14.5z" />
    <glyph glyph-name="A" unicode="A" horiz-adv-x="501" 
d="M353 0l-27 141h-154l-27 -141h-137l142 688h201l142 -688h-140zM252 558h-6l-54 -298h113z" />
    <glyph glyph-name="B" unicode="B" horiz-adv-x="488" 
d="M52 688l236 0.00195312c54 0 94.5 -14.333 121.5 -43s40.5 -72 40.5 -130c0 -48.667 -7.33301 -85.834 -22 -111.501s-37.667 -42.5 -69 -50.5v-4c34.667 -8.66699 59.5 -25.334 74.5 -50.001s22.5 -63 22.5 -115c0 -60.667 -13 -106.5 -39 -137.5s-69 -46.5 -129 -46.5
h-236v688zM290.5 413.002c9 4 15.334 11.667 19.001 23s5.5 28.333 5.5 51c0 24 -1.66699 41.5 -5 52.5s-9.33301 18.333 -18 22s-22.334 5.5 -41.001 5.5h-63v-160h63c17.333 0 30.5 2 39.5 6zM295.001 127.002c8.66699 4 14.666 11.666 17.999 22.999s5 29.333 5 54
s-1.66699 42.834 -5 54.501s-9.5 19.5 -18.5 23.5s-22.5 6 -40.5 6h-66v-167h66c18.667 0 32.334 2 41.001 6z" />
    <glyph glyph-name="C" unicode="C" horiz-adv-x="396" 
d="M313.5 -3c-22.333 -3.33301 -43.5 -5.00195 -63.5 -5.00195c-62.667 0 -108.667 10.333 -138 31s-48.833 55 -58.5 103s-14.5 120.667 -14.5 218c0 96.667 5 169.167 15 217.5s29.833 82.833 59.5 103.5s75.167 31 136.5 31c22 0 43.833 -1.5 65.5 -4.5
s38.5 -6.83301 50.5 -11.5v-112c-38.667 4.66699 -68 7 -88 7c-34 0 -57.5 -4.5 -70.5 -13.5s-21.333 -28.167 -25 -57.5s-5.5 -82.666 -5.5 -159.999s1.83301 -130.666 5.5 -159.999s12 -48.5 25 -57.5s36.5 -13.5 70.5 -13.5c30.667 0 60.667 2.33301 90 7v-111
c-14 -4.66699 -32.167 -8.66699 -54.5 -12z" />
    <glyph glyph-name="D" unicode="D" horiz-adv-x="496" 
d="M52 688l186 0.00390625c70.667 0 121.167 -9.83301 151.5 -29.5s49.166 -51.334 56.499 -95.001s11 -116.834 11 -219.501s-3.66699 -175.834 -11 -219.501s-26.166 -75.334 -56.499 -95.001s-80.833 -29.5 -151.5 -29.5h-186v688zM236 121.004
c29.333 0 49.167 3.5 59.5 10.5s17 24.5 20 52.5s4.5 81.333 4.5 160c0 78 -1.66699 131.167 -5 159.5s-10 46 -20 53s-29.667 10.5 -59 10.5h-47v-446h47z" />
    <glyph glyph-name="E" unicode="E" horiz-adv-x="421" 
d="M52 0v688h334v-121h-196v-159h169v-121h-169v-166h196v-121h-334z" />
    <glyph glyph-name="F" unicode="F" horiz-adv-x="392" 
d="M52 0v688h319v-121h-181v-175h159v-121h-159v-271h-138z" />
    <glyph glyph-name="G" unicode="G" horiz-adv-x="487" 
d="M251 282l-0.000976562 117.999h189v-387c-23.333 -6 -51.666 -11 -84.999 -15s-64.333 -6 -93 -6c-63.333 0 -110.5 9.5 -141.5 28.5s-52.333 53 -64 102s-17.5 122.833 -17.5 221.5c0 98 6.16699 171.5 18.5 220.5s34.833 83.167 67.5 102.5s81.667 29 147 29
c26.667 0 55.667 -2 87 -6s58 -8.66699 80 -14v-113c-57.333 8 -99 12 -125 12c-45.333 0 -76.5 -3.66699 -93.5 -11s-28.667 -26.166 -35 -56.499s-9.5 -84.833 -9.5 -163.5c0 -73.333 2 -125.5 6 -156.5s11.833 -51.833 23.5 -62.5s31.5 -16 59.5 -16c6 0 22 1 48 3v170
h-62z" />
    <glyph glyph-name="H" unicode="H" horiz-adv-x="519" 
d="M330 0v283h-141v-283h-137v688h137v-278h141v278h137v-688h-137z" />
    <glyph glyph-name="I" unicode="I" horiz-adv-x="243" 
d="M53 0v688h137v-688h-137z" />
    <glyph glyph-name="J" unicode="J" horiz-adv-x="296" 
d="M81 122c12.667 4.66699 20.667 14.999 24 30.999s5 46.333 5 91v444h138v-380c0 -106 -4.16699 -178.167 -12.5 -216.5s-27.333 -63 -57 -74s-85.5 -16.833 -167.5 -17.5v114c34 0.666992 57.333 3.33398 70 8.00098z" />
    <glyph glyph-name="K" unicode="K" horiz-adv-x="492" 
d="M336 0l-108 287h-38v-287h-138v688h138v-277h38l111 277h142l-143 -329l146 -359h-148z" />
    <glyph glyph-name="L" unicode="L" horiz-adv-x="379" 
d="M52 0v688h138v-563h174v-125h-312z" />
    <glyph glyph-name="M" unicode="M" horiz-adv-x="703" 
d="M518 0v507h-6l-99 -507h-127l-97 507h-8v-507h-129v688h208l90 -476h7l89 476h205v-688h-133z" />
    <glyph glyph-name="N" unicode="N" horiz-adv-x="523" 
d="M347 0l-160 377h-4v-377h-131v688h133l149 -348h5v348h132v-688h-124z" />
    <glyph glyph-name="O" unicode="O" 
d="M105 22.5c-29.333 20.333 -47.666 53 -54.999 98s-11 119.5 -11 223.5c0 104.667 3.66699 179.334 11 224.001s25.666 77.167 54.999 97.5s78.666 30.5 147.999 30.5s118.666 -10.167 147.999 -30.5s47.666 -52.833 54.999 -97.5s11 -119.334 11 -224.001
c0 -104 -3.66699 -178.5 -11 -223.5s-25.666 -77.667 -54.999 -98s-78.666 -30.5 -147.999 -30.5s-118.666 10.167 -147.999 30.5zM307 124c9.33301 7.33301 15.333 25.333 18 54s4 84 4 166s-1.33301 137.333 -4 166s-8.66699 46.667 -18 54s-27.333 11 -54 11
s-44.667 -3.66699 -54 -11s-15.333 -25.333 -18 -54s-4 -84 -4 -166s1.33301 -137.333 4 -166s8.66699 -46.667 18 -54s27.333 -11 54 -11s44.667 3.66699 54 11z" />
    <glyph glyph-name="P" unicode="P" horiz-adv-x="475" 
d="M52 688h227c48.667 0 85.5 -8.66699 110.5 -26s41.833 -42.5 50.5 -75.5s13 -76.833 13 -131.5c0 -52.667 -4 -95.5 -12 -128.5s-24.667 -59 -50 -78s-63 -28.5 -113 -28.5h-88v-220h-138v688zM244 341c22.667 0 38.667 2.66699 48 8s15.5 15.5 18.5 30.5
s4.5 40.167 4.5 75.5s-1.5 60.333 -4.5 75s-9 24.5 -18 29.5s-24.833 7.5 -47.5 7.5h-55v-226h54z" />
    <glyph glyph-name="Q" unicode="Q" 
d="M296 -6c-17.333 -1.33301 -31.6689 -2.00195 -43.002 -2.00195c-69.333 0 -118.666 10.167 -147.999 30.5s-47.666 52.833 -54.999 97.5s-11 119.334 -11 224.001s3.66699 179.334 11 224.001s25.666 77.167 54.999 97.5s78.666 30.5 147.999 30.5
c68.667 0 117.834 -10.167 147.501 -30.5s48.167 -53 55.5 -98s11 -119.5 11 -223.5c0 -94 -3.16699 -163 -9.5 -207s-21.166 -77.667 -44.499 -101l90 -146v-5h-145zM306.997 123.998c9.33301 7.33301 15.333 25.5 18 54.5s4 84.167 4 165.5s-1.33301 136.5 -4 165.5
s-8.66699 47.167 -18 54.5s-27.333 11 -54 11s-44.667 -3.66699 -54 -11s-15.333 -25.333 -18 -54s-4 -84 -4 -166s1.33301 -137.333 4 -166s8.66699 -46.667 18 -54s27.333 -11 54 -11s44.667 3.66699 54 11z" />
    <glyph glyph-name="R" unicode="R" horiz-adv-x="494" 
d="M331 0l-67 240.001h-74v-240h-138v688h232c49.333 0 86.5 -8.33301 111.5 -25s41.833 -40.667 50.5 -72s13 -73.333 13 -126c0 -50 -4.5 -91.333 -13.5 -124s-27.167 -57.334 -54.5 -74.001l83 -267h-143zM298 366.501c9.33301 5 15.5 14.332 18.5 27.999
s4.5 36.834 4.5 69.501c0 32 -1.5 54.667 -4.5 68s-9.16699 22.5 -18.5 27.5s-25 7.5 -47 7.5h-61v-208h61c22 0 37.667 2.5 47 7.5z" />
    <glyph glyph-name="S" unicode="S" horiz-adv-x="443" 
d="M129.5 -3.5c-33 3 -62.165 7.16699 -87.498 12.5v112c68 -5.33301 115 -8 141 -8c23.333 0 41 1.33301 53 4s21 7.33398 27 14.001c5.33301 5.33301 8.83301 12.833 10.5 22.5s2.5 23.5 2.5 41.5c0 24.667 -1.33301 42.167 -4 52.5s-8.16699 18 -16.5 23
s-22.833 9.5 -43.5 13.5l-94 17c-33.333 6 -56.333 24.333 -69 55s-19 75 -19 133c0 56.667 8.16699 100 24.5 130s38.833 50.333 67.5 61s65 16 109 16c30.667 0 60.167 -2 88.5 -6s51.5 -8 69.5 -12v-112c-36 6 -76.333 9 -121 9c-24 0 -42.5 -1 -55.5 -3
s-22.5 -5.66699 -28.5 -11c-7.33301 -5.33301 -12 -13 -14 -23s-3 -24.667 -3 -44c0 -20.667 1.16699 -35.667 3.5 -45s6.5 -16 12.5 -20s16.333 -7.33301 31 -10l88 -16c23.333 -3.33301 43.166 -10.5 59.499 -21.5s29.166 -29.167 38.499 -54.5
c9.33301 -26.667 14 -64.334 14 -113.001c0 -63.333 -7.66699 -111 -23 -143s-36.5 -53.167 -63.5 -63.5s-62.5 -15.5 -106.5 -15.5c-28 0 -58.5 1.5 -91.5 4.5z" />
    <glyph glyph-name="T" unicode="T" horiz-adv-x="418" 
d="M140 0v563h-130v125h398v-125h-130v-563h-138z" />
    <glyph glyph-name="U" unicode="U" 
d="M458 688l-0.000976562 -383c0 -90.667 -3.83301 -156.5 -11.5 -197.5s-25.667 -70.5 -54 -88.5s-74.833 -27 -139.5 -27s-111.167 9 -139.5 27s-46.333 47.5 -54 88.5s-11.5 106.833 -11.5 197.5v383h137v-429c0 -48.667 1.16699 -82.167 3.5 -100.5s8 -30.5 17 -36.5
s24.833 -9 47.5 -9s38.334 3 47.001 9s14.167 18 16.5 36s3.5 51.667 3.5 101v429h138z" />
    <glyph glyph-name="V" unicode="V" horiz-adv-x="485" 
d="M142 0l-132 688h140l90 -544h9l87 544h138l-132 -688h-200z" />
    <glyph glyph-name="W" unicode="W" horiz-adv-x="756" 
d="M452 0l-71 479h-6l-70 -479h-189l-99 688h139l59 -539h7l78 539h162l79 -539h7l56 539h136l-100 -688h-188z" />
    <glyph glyph-name="X" unicode="X" horiz-adv-x="501" 
d="M341 0l-89 247h-8l-88 -247h-144l144 346l-142 342h148l87 -237h7l87 237h144l-140 -338l143 -350h-149z" />
    <glyph glyph-name="Y" unicode="Y" horiz-adv-x="463" 
d="M163 0v238l-163 450h141l90 -297h9l87 297h136l-163 -450v-238h-137z" />
    <glyph glyph-name="Z" unicode="Z" horiz-adv-x="439" 
d="M31 0v114l221 453h-214v121h368v-113l-222 -454h224v-121h-377z" />
    <glyph glyph-name="bracketleft" unicode="[" horiz-adv-x="301" 
d="M53 -150v893h214v-83l-90 -4v-718l90 -4v-84h-214z" />
    <glyph glyph-name="backslash" unicode="\" horiz-adv-x="327" 
d="M201 -55l-189 798h114l189 -798h-114z" />
    <glyph glyph-name="bracketright" unicode="]" horiz-adv-x="300" 
d="M33 -150v84l90 4v718l-90 4v83h215v-893h-215z" />
    <glyph glyph-name="asciicircum" unicode="^" horiz-adv-x="389" 
d="M267 476l-72 176l-73 -176h-109l127 274h110l126 -274h-109z" />
    <glyph glyph-name="underscore" unicode="_" horiz-adv-x="361" 
d="M0 -186v107h361v-107h-361z" />
    <glyph glyph-name="grave" unicode="`" horiz-adv-x="193" 
d="M84 597l-78 141v5h128l53 -141v-5h-103z" />
    <glyph glyph-name="a" unicode="a" horiz-adv-x="426" 
d="M52 29.5c-18 25 -26.999 64.1689 -26.999 117.502c0 39.333 4 70.166 12 92.499s21.5 38.666 40.5 48.999s45.5 15.5 79.5 15.5c24 0 56 -1.33301 96 -4v23c0 28 -2.16699 47.833 -6.5 59.5s-12.333 19.167 -24 22.5s-31.834 5 -60.501 5c-28 0 -65.333 -2.33301 -112 -7
v100c50 10 100.333 15 151 15c50 0 88 -6.66699 114 -20s43.667 -34.333 53 -63s14 -69.667 14 -123v-312h-123l-4 60h-7c-8.66699 -24.667 -22.667 -42.167 -42 -52.5s-41 -15.5 -65 -15.5c-41.333 0 -71 12.5 -89 37.5zM224.501 108.002
c7 2.66699 12.833 7.66602 17.5 14.999c7.33301 11.333 11 34.333 11 69v25h-60c-17.333 0 -28.833 -3.66699 -34.5 -11s-8.5 -23.333 -8.5 -48c0 -21.333 2.83301 -35.666 8.5 -42.999s18.5 -11 38.5 -11c11.333 0 20.5 1.33301 27.5 4z" />
    <glyph glyph-name="b" unicode="b" horiz-adv-x="446" 
d="M180 60l-8 -0.000976562l-4 -60h-122v743h129v-287h7c16 41.333 50.667 62 104 62c33.333 0 59 -8.16699 77 -24.5s30.667 -43.166 38 -80.499s11 -90.333 11 -159c0 -69.333 -4 -122.833 -12 -160.5s-21.167 -64 -39.5 -79s-43.833 -22.5 -76.5 -22.5
c-55.333 0 -90 22.667 -104 68zM265.5 115.999c7 5.33301 11.667 17.501 14 36.501s3.5 53.167 3.5 102.5s-1.16699 83.5 -3.5 102.5s-7 31.167 -14 36.5s-19.5 8 -37.5 8c-12.667 0 -22.5 -2 -29.5 -6s-12.167 -11.333 -15.5 -22c-5.33301 -18 -8 -57.667 -8 -119
c0 -59.333 2.33301 -97.333 7 -114c2.66699 -12.667 7.5 -21.334 14.5 -26.001s17.5 -7 31.5 -7c18 0 30.5 2.66699 37.5 8z" />
    <glyph glyph-name="c" unicode="c" horiz-adv-x="341" 
d="M203 -8c-49.333 0 -86 9.33496 -110 28.002s-39.833 46 -47.5 82s-11.5 87 -11.5 153s4.16699 117.333 12.5 154s24.5 64 48.5 82s59.667 27 107 27c45.333 0 82 -4.66699 110 -14v-100c-30.667 4 -55 6 -73 6c-24 0 -41 -3.33301 -51 -10s-16.667 -20.334 -20 -41.001
s-5 -55.334 -5 -104.001c0 -49.333 1.83301 -84.333 5.5 -105s10.5 -34.167 20.5 -40.5s27 -9.5 51 -9.5c16.667 0 41.667 2 75 6v-99c-34 -10 -71.333 -15 -112 -15z" />
    <glyph glyph-name="d" unicode="d" horiz-adv-x="446" 
d="M85 14.5c-18 15 -31 41.168 -39 78.501s-12 91 -12 161c0 68.667 3.66699 121.667 11 159s20 64.166 38 80.499s43.667 24.5 77 24.5c26 0 47.667 -5 65 -15s30.333 -25.667 39 -47h7v287h129v-743h-122l-4 60h-8c-14 -45.333 -48.667 -68 -104 -68
c-33.333 0 -59 7.5 -77 22.5zM249.5 115.001c7 4.66699 12.166 13.667 15.499 27c4 19.333 6 57 6 113c0 54 -1.33301 88.333 -4 103c-2.66699 17.333 -7.66699 29 -15 35s-18.666 9 -33.999 9c-18 0 -30.5 -2.66699 -37.5 -8s-11.667 -17.5 -14 -36.5
s-3.5 -53.167 -3.5 -102.5s1.16699 -83.5 3.5 -102.5s7 -31.167 14 -36.5s19.5 -8 37.5 -8c14 0 24.5 2.33301 31.5 7z" />
    <glyph glyph-name="e" unicode="e" horiz-adv-x="425" 
d="M390 215l-227 0.000976562c0 -38 1.66699 -64.333 5 -79s11 -24.334 23 -29.001s33.667 -7 65 -7c25.333 0 66 2 122 6v-99c-18 -4 -41.333 -7.5 -70 -10.5s-56 -4.5 -82 -4.5c-59.333 0 -102.5 8.83301 -129.5 26.5s-44.167 43.834 -51.5 78.501s-11 87 -11 157
c0 68.667 3.66699 120.667 11 156s24 62.166 50 80.499s67 27.5 123 27.5c54.667 0 94.167 -8.5 118.5 -25.5s39.333 -42.5 45 -76.5s8.5 -88 8.5 -162v-39zM181.5 404.001c-7 -4.66699 -11.832 -14.333 -14.499 -29s-4 -39 -4 -73h106c0 34 -1.33301 58.5 -4 73.5
s-7.33398 24.667 -14.001 29s-18 6.5 -34 6.5c-16.667 0 -28.5 -2.33301 -35.5 -7z" />
    <glyph glyph-name="f" unicode="f" horiz-adv-x="309" 
d="M78 402l-62.999 -0.00292969v108h63v30c0 64.667 5.5 110.834 16.5 138.501s30.167 45.334 57.5 53.001s73.666 11.5 138.999 11.5v-96c-26.667 0 -45.5 -1.5 -56.5 -4.5s-18.333 -9.66699 -22 -20s-5.5 -28.166 -5.5 -53.499v-59h84v-108h-84v-402h-129v402z" />
    <glyph glyph-name="g" unicode="g" horiz-adv-x="446" 
d="M131 -200c-26.667 2 -48.335 4.66992 -65.002 8.00293v99c12 0 20.667 -0.333008 26 -1l85 -1c31.333 0 53.166 2.66699 65.499 8s20.166 15.666 23.499 30.999s5 42.666 5 81.999v38h-8c-15.333 -41.333 -49.333 -62 -102 -62c-33.333 0 -59.166 7.83301 -77.499 23.5
s-31.166 41.667 -38.499 78s-11 88.166 -11 155.499c0 68.667 4 121.5 12 158.5s21 63 39 78s43.667 22.5 77 22.5c23.333 0 44.5 -5.16699 63.5 -15.5s32.5 -27.833 40.5 -52.5h8l4 60h122v-449c0 -69.333 -3.66699 -121.5 -11 -156.5s-24.666 -61.667 -51.999 -80
s-70.666 -27.5 -129.999 -27.5c-24 0 -49.333 1 -76 3zM249.499 124.003c7 4.66699 12.167 13.666 15.5 26.999c4 16 6 52 6 108c0 50 -1.66699 83.333 -5 100c-2.66699 16.667 -7.5 27.834 -14.5 33.501s-18.5 8.5 -34.5 8.5c-18 0 -30.333 -2.5 -37 -7.5
s-11.167 -16.667 -13.5 -35s-3.5 -51.5 -3.5 -99.5s1.16699 -81.167 3.5 -99.5s6.83301 -30 13.5 -35s19 -7.5 37 -7.5c14.667 0 25.5 2.33301 32.5 7z" />
    <glyph glyph-name="h" unicode="h" horiz-adv-x="450" 
d="M277 276c0 42.667 -1 71.999 -3 87.999s-6 26.167 -12 30.5s-17.333 6.5 -34 6.5c-17.333 0 -29.5 -3.33301 -36.5 -10s-11.5 -19.167 -13.5 -37.5s-3 -49.166 -3 -92.499v-261h-129v743h129v-292h7c8.66699 24.667 22.5 42 41.5 52s41.833 15 68.5 15
c32 0 56.167 -6.33301 72.5 -19s27.333 -31.667 33 -57s8.5 -60.333 8.5 -105v-337h-129v276z" />
    <glyph glyph-name="i" unicode="i" horiz-adv-x="221" 
d="M45 621v122h131v-122h-131zM46 0v510h129v-510h-129z" />
    <glyph glyph-name="j" unicode="j" horiz-adv-x="221" 
d="M45 621v122h131v-122h-131zM-14 -98c18.667 0 32.333 1.66602 41 4.99902s14 8.33301 16 15s3 17.334 3 32.001v556h129v-503c0 -63.333 -5.16699 -108.833 -15.5 -136.5s-28 -45.667 -53 -54s-65.167 -12.5 -120.5 -12.5v98z" />
    <glyph glyph-name="k" unicode="k" horiz-adv-x="430" 
d="M284 0l-82 199h-27v-199h-129v743h129v-435h27l85 202h132l-110 -243l111 -267h-136z" />
    <glyph glyph-name="l" unicode="l" horiz-adv-x="221" 
d="M46 0v743h129v-743h-129z" />
    <glyph glyph-name="m" unicode="m" horiz-adv-x="669" 
d="M495 276c0 42 -0.999023 71.168 -2.99902 87.501s-5.83301 26.666 -11.5 30.999s-16.167 6.5 -31.5 6.5c-16 0 -27.333 -3.33301 -34 -10s-10.834 -18.834 -12.501 -36.501s-2.5 -48.834 -2.5 -93.501v-261h-129v276c0 42 -1 71.167 -3 87.5
s-5.83301 26.666 -11.5 30.999s-16.5 6.5 -32.5 6.5s-27.167 -3.33301 -33.5 -10s-10.5 -19.167 -12.5 -37.5s-3 -49.166 -3 -92.499v-261h-129v510h122l4 -61h7c10 24.667 24 42.334 42 53.001s41 16 69 16c30 0 53 -5.5 69 -16.5s27 -28.5 33 -52.5h8
c9.33301 24.667 23.333 42.334 42 53.001s42 16 70 16c30.667 0 54 -6.16699 70 -18.5s27 -31 33 -56s9 -59.167 9 -102.5v-341h-129v276z" />
    <glyph glyph-name="n" unicode="n" horiz-adv-x="450" 
d="M277 276c0 42.667 -0.998047 72.001 -2.99805 88.001s-6 26.167 -12 30.5s-17.333 6.5 -34 6.5c-17.333 0 -29.5 -3.33301 -36.5 -10s-11.5 -19.167 -13.5 -37.5s-3 -49.166 -3 -92.499v-261h-129v510h122l4 -61h7c9.33301 25.333 23.666 43.166 42.999 53.499
s42.666 15.5 69.999 15.5c32 0 56.167 -6.33301 72.5 -19s27.333 -31.834 33 -57.501s8.5 -61.167 8.5 -106.5v-335h-129v276z" />
    <glyph glyph-name="o" unicode="o" horiz-adv-x="436" 
d="M94 14c-25.333 14.667 -41.666 39.334 -48.999 74.001s-11 90.334 -11 167.001s3.66699 132.334 11 167.001s23.666 59.334 48.999 74.001s66.666 22 123.999 22s98.666 -7.33301 123.999 -22s41.666 -39.334 48.999 -74.001s11 -90.334 11 -167.001
s-3.66699 -132.334 -11 -167.001s-23.666 -59.334 -48.999 -74.001s-66.666 -22 -123.999 -22s-98.666 7.33301 -123.999 22zM257.5 109c7 6 11.333 18.5 13 37.5s2.5 55.167 2.5 108.5s-0.833008 89.5 -2.5 108.5s-6 31.5 -13 37.5s-20.167 9 -39.5 9s-32.5 -3 -39.5 -9
s-11.333 -18.5 -13 -37.5s-2.5 -55.167 -2.5 -108.5s0.833008 -89.5 2.5 -108.5s6 -31.5 13 -37.5s20.167 -9 39.5 -9s32.5 3 39.5 9z" />
    <glyph glyph-name="p" unicode="p" horiz-adv-x="446" 
d="M46 510l122 -0.000976562l4 -60h8c14 45.333 48.667 68 104 68c32.667 0 58.167 -7.5 76.5 -22.5s31.5 -41.167 39.5 -78.5s12 -91 12 -161c0 -68.667 -3.66699 -121.667 -11 -159s-20 -64.166 -38 -80.499s-43.667 -24.5 -77 -24.5c-54 0 -88.333 21 -103 63h-8v-251
h-129v706zM265.5 115.999c7 5.33301 11.668 17.5 14.001 36.5s3.5 53.167 3.5 102.5s-1.16699 83.5 -3.5 102.5s-7 31.167 -14 36.5s-19.5 8 -37.5 8c-14 0 -24.667 -2.5 -32 -7.5s-12.333 -14.5 -15 -28.5c-4 -16.667 -6 -53.667 -6 -111c0 -52 1.33301 -86.333 4 -103
c2.66699 -17.333 7.66699 -29 15 -35s18.666 -9 33.999 -9c18 0 30.5 2.66699 37.5 8z" />
    <glyph glyph-name="q" unicode="q" horiz-adv-x="446" 
d="M271 55l-7 0.00195312c-8.66699 -22 -21.667 -38 -39 -48s-39 -15 -65 -15c-33.333 0 -59 8.16699 -77 24.5s-30.667 43.166 -38 80.499s-11 90 -11 158c0 70 4 123.667 12 161s21 63.666 39 78.999s43.667 23 77 23c55.333 0 90 -22.667 104 -68h8l4 60h122v-706h-129
v251zM250 115.502c7.33301 5 12.667 14.5 16 28.5c3.33301 16 5 53 5 111c0 35.333 -0.333008 61 -1 77s-2.66699 29 -6 39c-2.66699 12 -7.5 20.167 -14.5 24.5s-17.5 6.5 -31.5 6.5c-18 0 -30.5 -2.66699 -37.5 -8s-11.667 -17.5 -14 -36.5s-3.5 -53.167 -3.5 -102.5
s1.16699 -83.5 3.5 -102.5s7 -31.167 14 -36.5s19.5 -8 37.5 -8c14 0 24.667 2.5 32 7.5z" />
    <glyph glyph-name="r" unicode="r" horiz-adv-x="312" 
d="M46 510h122l4 -84h8c10 34.667 24.333 58.667 43 72s43.667 20 75 20v-135c-30 0 -53.833 -4.33301 -71.5 -13s-30.667 -24 -39 -46s-12.5 -52.667 -12.5 -92v-232h-129v510z" />
    <glyph glyph-name="s" unicode="s" horiz-adv-x="371" 
d="M109.5 -3.5c-28.333 3 -52.502 6.83789 -72.502 11.5049v99c44 -4.66699 82 -7 114 -7c20 0 34.833 1.16699 44.5 3.5s16.334 6.83301 20.001 13.5s5.5 17 5.5 31c0 15.333 -0.833008 26.166 -2.5 32.499s-5 10.666 -10 12.999s-13.833 4.5 -26.5 6.5l-84 14
c-26.667 4 -45.5 17.167 -56.5 39.5s-16.5 58.833 -16.5 109.5c0 57.333 14 97.5 42 120.5s69.667 34.5 125 34.5c22 0 45.333 -1.5 70 -4.5s44.667 -6.83301 60 -11.5v-100c-42.667 5.33301 -78 8 -106 8c-25.333 0 -42.166 -2.83301 -50.499 -8.5
s-12.5 -17.834 -12.5 -36.501c0 -14.667 0.666992 -25 2 -31s4.16602 -10.167 8.49902 -12.5s11.833 -4.16602 22.5 -5.49902l73 -11c18.667 -3.33301 34 -8.83301 46 -16.5s21.833 -21.834 29.5 -42.501s11.5 -50.334 11.5 -89.001c0 -62.667 -13 -105.834 -39 -129.501
s-66 -35.5 -120 -35.5c-23.333 0 -49.166 1.5 -77.499 4.5z" />
    <glyph glyph-name="t" unicode="t" horiz-adv-x="302" 
d="M78 0v402h-63v108h63v148h129v-148h81v-108h-81v-402h-129z" />
    <glyph glyph-name="u" unicode="u" horiz-adv-x="450" 
d="M279 61h-8c-16 -46 -53.333 -69 -112 -69c-32.667 0 -57.167 6.33301 -73.5 19s-27.333 31.834 -33 57.501s-8.5 61.167 -8.5 106.5v335h129v-276c0 -42.667 1 -72 3 -88s6.16699 -26.167 12.5 -30.5s17.833 -6.5 34.5 -6.5s28.5 3.33301 35.5 10s11.5 19.167 13.5 37.5
s3 49.166 3 92.499v261h129v-510h-121z" />
    <glyph glyph-name="v" unicode="v" horiz-adv-x="417" 
d="M119 0l-110 510h131l66 -374h9l63 374h129l-110 -510h-178z" />
    <glyph glyph-name="w" unicode="w" horiz-adv-x="644" 
d="M379 0l-52 280h-9l-51 -280h-161l-94 510h128l49 -353h8l65 353h125l66 -353h8l48 353h122l-93 -510h-159z" />
    <glyph glyph-name="x" unicode="x" horiz-adv-x="426" 
d="M281 0l-66 166h-8l-66 -166h-131l118 257l-115 253h137l63 -156h7l62 156h131l-114 -251l118 -259h-136z" />
    <glyph glyph-name="y" unicode="y" horiz-adv-x="450" 
d="M137 -200c-26.667 2 -48.335 4.33105 -65.002 6.99805v100c24.667 -0.666992 61.667 -1 111 -1c30.667 0 52.167 2.5 64.5 7.5s20 15 23 30s4.5 41.833 4.5 80.5v43h-7c-16 -44 -52.333 -66 -109 -66c-33.333 0 -58.166 6.83301 -74.499 20.5s-27.166 34 -32.499 61
s-8 65.5 -8 115.5v312h129v-268c0 -42.667 1 -72 3 -88s6.16699 -26.167 12.5 -30.5s17.833 -6.5 34.5 -6.5c17.333 0 29.333 3.33301 36 10s11 18.834 13 36.501s3 48.834 3 93.501v253h129v-450c0 -68.667 -3.66699 -120.5 -11 -155.5s-24.5 -61.667 -51.5 -80
s-69.833 -27.5 -128.5 -27.5c-24 0 -49.333 1 -76 3z" />
    <glyph glyph-name="z" unicode="z" horiz-adv-x="394" 
d="M32 0v101l178 301h-171v108h321v-101l-177 -301h179v-108h-330z" />
    <glyph glyph-name="braceleft" unicode="{" horiz-adv-x="315" 
d="M130 -76c-22 33.333 -33 67.6689 -33 103.002v124c0 32.667 -5.33301 59.167 -16 79.5s-30.667 32.166 -60 35.499v59c29.333 3.33301 49.333 15.333 60 36s16 47.334 16 80.001v124c0 36 11 70.667 33 104s48 58 78 74h84c-26 -32.667 -44.167 -62.167 -54.5 -88.5
s-15.5 -58.833 -15.5 -97.5v-112c0 -82 -33.667 -130.333 -101 -145v-7c67.333 -14.667 101 -63.334 101 -146.001v-112c0 -38.667 5.16699 -70.834 15.5 -96.501s28.5 -55.167 54.5 -88.5h-84c-30 16 -56 40.667 -78 74z" />
    <glyph glyph-name="bar" unicode="|" horiz-adv-x="236" 
d="M58 -161v904h119v-904h-119z" />
    <glyph glyph-name="braceright" unicode="}" horiz-adv-x="315" 
d="M77 -61c10.667 26 16 58 16 96v112c0 82.667 33.667 131.334 101 146.001v7c-67.333 14.667 -101 63 -101 145v112c0 38 -5.16699 69.667 -15.5 95s-28.833 55.666 -55.5 90.999h84c30 -16 56 -40.667 78 -74s33 -68 33 -104v-124c0 -32.667 5.33301 -59.334 16 -80.001
s30.667 -32.667 60 -36v-59c-29.333 -3.33301 -49.333 -15.166 -60 -35.499s-16 -46.833 -16 -79.5v-124c0 -36 -11 -70.5 -33 -103.5s-48 -57.5 -78 -73.5h-84c26 33.333 44.333 63 55 89z" />
    <glyph glyph-name="asciitilde" unicode="~" horiz-adv-x="460" 
d="M402.5 298.5c-3 -17 -10.5029 -30.3311 -22.5029 -39.998s-31.333 -14.5 -58 -14.5c-15.333 0 -32.666 1.66699 -51.999 5s-37.666 7 -54.999 11c-12 3.33301 -24 6.16602 -36 8.49902s-21.667 3.5 -29 3.5c-10 0 -16.167 -2.5 -18.5 -7.5s-3.5 -15.5 -3.5 -31.5h-76
c0 33.333 1.5 58.666 4.5 75.999s10.667 30.833 23 40.5s31.5 14.5 57.5 14.5c24.667 0 60.334 -5.66699 107.001 -17l31.5 -6.5c14.333 -3 25.833 -4.5 34.5 -4.5c10 0 16.167 2.5 18.5 7.5s3.5 15.167 3.5 30.5h75c0 -33.333 -1.5 -58.5 -4.5 -75.5z" />
    <glyph glyph-name="uni00A0" unicode="&#xa0;" horiz-adv-x="179" 
 />
    <glyph glyph-name="exclamdown" unicode="&#xa1;" horiz-adv-x="254" 
d="M56 378v132h141v-132h-141zM48 -128c0 27.333 4.33105 91.333 12.998 192s16.334 176.667 23.001 228h85c6.66699 -51.333 14.334 -127.333 23.001 -228s13 -164.667 13 -192v-50h-157v50z" />
    <glyph glyph-name="cent" unicode="&#xa2;" horiz-adv-x="354" 
d="M158 72c-34 6.66699 -59.833 20.8311 -77.5 42.498s-29.334 50.334 -35.001 86.001s-8.5 82.834 -8.5 141.501c0 60 3.16699 108 9.5 144s18.333 64.5 36 85.5s42.834 34.5 75.501 40.5v84h96v-81c21.333 -2 43 -6 65 -12v-104c-40 4 -64.333 6 -73 6
c-24 0 -41 -3.5 -51 -10.5s-16.833 -21.333 -20.5 -43s-5.5 -58.167 -5.5 -109.5s1.83301 -87.833 5.5 -109.5s10.667 -35.667 21 -42s27.5 -9.5 51.5 -9.5c22 0 47 2 75 6v-103c-22 -6.66699 -44.667 -11 -68 -13v-79h-96v80z" />
    <glyph glyph-name="sterling" unicode="&#xa3;" horiz-adv-x="436" 
d="M401 121l0.00195312 -121h-370v121h58v173h-58v120h58v10c0 68 4.83301 121 14.5 159s28.167 66.333 55.5 85s67.333 28 120 28c20 0 40.833 -1.33301 62.5 -4s39.167 -6 52.5 -10v-114c-26.667 4.66699 -53.334 7 -80.001 7c-16.667 0 -29.834 -0.833008 -39.501 -2.5
s-17.5 -5.16699 -23.5 -10.5c-10 -8 -16.667 -22 -20 -42s-5 -52 -5 -96v-10h124v-120h-124v-173h175z" />
    <glyph glyph-name="currency" unicode="&#xa4;" horiz-adv-x="538" 
d="M34 83l68 68.001c-7.33301 19.333 -12.333 44 -15 74s-4 70 -4 120c0 49.333 1.33301 88.833 4 118.5s7.66699 54.5 15 74.5l-68 67l78 78l74 -75c17.333 4 44.333 6 81 6c35.333 0 63.333 -2.33301 84 -7l76 76l77 -78l-70 -70
c7.33301 -19.333 12.166 -43.833 14.499 -73.5s3.5 -68.5 3.5 -116.5c0 -48.667 -1.16699 -87.834 -3.5 -117.501s-7.16602 -54.167 -14.499 -73.5l70 -71l-77 -77l-76 75c-20.667 -4.66699 -48.667 -7 -84 -7c-33.333 0 -60.333 2.33301 -81 7l-74 -75zM306.5 191.501
c7 6.33301 11.5 19.666 13.5 39.999s3 58.166 3 113.499c0 54.667 -1 92 -3 112s-6.5 33.167 -13.5 39.5s-20.167 9.5 -39.5 9.5c-18.667 0 -31.5 -3.16699 -38.5 -9.5s-11.5 -19.5 -13.5 -39.5s-3 -57.333 -3 -112c0 -55.333 1 -93.166 3 -113.499
s6.5 -33.666 13.5 -39.999s19.833 -9.5 38.5 -9.5c19.333 0 32.5 3.16699 39.5 9.5z" />
    <glyph glyph-name="yen" unicode="&#xa5;" horiz-adv-x="508" 
d="M184 0v212h-136v72h124l-31 81h-93v72h67l-86 251h139l84 -297h9l81 297h136l-87 -251h68v-72h-94l-31 -81h125v-72h-137v-212h-138z" />
    <glyph glyph-name="brokenbar" unicode="&#xa6;" horiz-adv-x="236" 
d="M58 390v353h119v-353h-119zM58 -161v353h119v-353h-119z" />
    <glyph glyph-name="section" unicode="&#xa7;" horiz-adv-x="501" 
d="M151 -165c-26.667 3.33301 -47.334 7.33594 -62.001 12.0029v110c43.333 -4.66699 82.333 -7 117 -7c21.333 0 37.333 1.5 48 4.5s18 8 22 15s6 17.167 6 30.5c0 12.667 -0.833008 22 -2.5 28s-4.66699 10.667 -9 14s-12.166 7.33301 -23.499 12l-93 38
c-27.333 12 -49 23 -65 33s-29.833 25.667 -41.5 47s-17.5 50 -17.5 86c0 48.667 6.33301 86 19 112s33.334 43 62.001 51c-8.66699 12.667 -15 27.167 -19 43.5s-6 36.5 -6 60.5c0 62 15.5 106 46.5 132s76.5 39 136.5 39c28 0 55.167 -1.83301 81.5 -5.5
s46.5 -7.83398 60.5 -12.501v-110c-13.333 2 -31.333 3.83301 -54 5.5s-43.334 2.5 -62.001 2.5c-21.333 0 -37.333 -1.5 -48 -4.5s-18 -8 -22 -15s-6 -17.167 -6 -30.5c0 -18 2 -29.833 6 -35.5s13 -11.5 27 -17.5l92 -38c27.333 -11.333 49.333 -22.333 66 -33
s30.834 -26.834 42.501 -48.501s17.5 -50.834 17.5 -87.501c0 -48.667 -6.33301 -86 -19 -112s-33.334 -43 -62.001 -51c17.333 -23.333 26 -57.333 26 -102c0 -62 -15.5 -106 -46.5 -132s-76.5 -39 -136.5 -39c-27.333 0 -54.333 1.66699 -81 5zM339 246.003
c0 30.667 -8 49.667 -24 57l-101 43c-14 6 -23 9 -27 9c-16.667 0 -25 -25.333 -25 -76c0 -15.333 2 -27.833 6 -37.5s11 -16.5 21 -20.5l99 -43c12 -4.66699 20.667 -7 26 -7c16.667 0 25 25 25 75z" />
    <glyph glyph-name="dieresis" unicode="&#xa8;" horiz-adv-x="301" 
d="M8 627v103h111v-103h-111zM183 627v103h111v-103h-111z" />
    <glyph glyph-name="copyright" unicode="&#xa9;" horiz-adv-x="581" 
d="M126 16c-30.667 16 -50 46 -58 90s-12 123.333 -12 238s4 194 12 238s27.333 74 58 90s85.334 24 164.001 24s133.5 -8 164.5 -24s50.5 -46 58.5 -90s12 -123.333 12 -238s-4 -194 -12 -238s-27.5 -74 -58.5 -90s-85.833 -24 -164.5 -24s-133.334 8 -164.001 24z
M422.5 57c22.333 10 36.5 33.333 42.5 70s9 109 9 217s-3 180.333 -9 217s-20.167 60 -42.5 70s-66.5 15 -132.5 15c-65.333 0 -109.166 -5 -131.499 -15s-36.5 -33.333 -42.5 -70s-9 -109 -9 -217s3 -180.333 9 -217s20.167 -60 42.5 -70s66.166 -15 131.499 -15
c66 0 110.167 5 132.5 15zM233.5 172c-15.667 11.333 -26.002 29.834 -31.002 55.501s-7.5 64.167 -7.5 115.5s2.66699 90 8 116s15.833 44.667 31.5 56s39.834 17 72.501 17c12 0 23.833 -0.833008 35.5 -2.5s20.834 -3.83398 27.501 -6.50098v-62
c-17.333 2.66699 -33.333 4 -48 4c-17.333 0 -29.166 -2.33301 -35.499 -7s-10.333 -14.5 -12 -29.5s-2.5 -43.5 -2.5 -85.5c0 -41.333 0.833008 -69.5 2.5 -84.5s5.66699 -24.833 12 -29.5s18.166 -7 35.499 -7c16.667 0 33 1.33301 49 4v-62c-18 -6 -39.333 -9 -64 -9
c-33.333 0 -57.833 5.66699 -73.5 17z" />
    <glyph glyph-name="ordfeminine" unicode="&#xaa;" horiz-adv-x="329" 
d="M47.5 335c-13 18.667 -19.5 47.667 -19.5 87c0 42.667 6.83301 72.5 20.5 89.5s38.834 25.5 75.501 25.5c26 0 49.333 -1 70 -3v18c0 20 -1.5 34.167 -4.5 42.5s-8.66699 13.666 -17 15.999s-23.5 3.5 -45.5 3.5c-20.667 0 -47.667 -1.66699 -81 -5v75
c38 8 75.333 12 112 12s64.5 -5 83.5 -15s32 -25.667 39 -47s10.5 -51.666 10.5 -90.999v-231h-93l-3 43h-6c-12.667 -32 -38.334 -48 -77.001 -48c-30 0 -51.5 9.33301 -64.5 28zM178 394.5c5.33301 3 9.33301 8.5 12 16.5s4 22.333 4 43v19h-43c-12 0 -20 -2.66699 -24 -8
s-6 -17 -6 -35c0 -16 2 -26.667 6 -32s13.333 -8 28 -8c10 0 17.667 1.5 23 4.5z" />
    <glyph glyph-name="guillemotleft" unicode="&#xab;" horiz-adv-x="415" 
d="M120 121l-86 194l86 195h92l-68 -195l68 -194h-92zM282 121l-87 194l87 195h91l-67 -195l67 -194h-91z" />
    <glyph glyph-name="logicalnot" unicode="&#xac;" horiz-adv-x="473" 
d="M306 67v125h-249v110h359v-235h-110z" />
    <glyph glyph-name="uni00AD" unicode="&#xad;" horiz-adv-x="297" 
d="M48 227v116h201v-116h-201z" />
    <glyph glyph-name="registered" unicode="&#xae;" horiz-adv-x="581" 
d="M454.5 672c31 -16 50.5 -46 58.5 -90s12 -123.333 12 -238c0 -115.333 -4 -195 -12 -239s-27.5 -73.833 -58.5 -89.5s-85.833 -23.5 -164.5 -23.5s-133.334 7.83301 -164.001 23.5s-50 45.5 -58 89.5s-12 123.667 -12 239c0 114.667 4 194 12 238s27.333 74 58 90
s85.334 24 164.001 24s133.5 -8 164.5 -24zM422.5 57c22.333 10 36.5 33.333 42.5 70s9 109 9 217c0 107.333 -3 179.5 -9 216.5s-20.333 60.5 -43 70.5s-66.667 15 -132 15s-109.166 -5 -131.499 -15s-36.5 -33.5 -42.5 -70.5s-9 -109.167 -9 -216.5
c0 -108 3 -180.333 9 -217s20.167 -60 42.5 -70s66.166 -15 131.499 -15c66 0 110.167 5 132.5 15zM394 341.5c-4.66699 -17.667 -14.001 -30.498 -28.001 -38.498l43 -144h-78l-36 129h-35v-129h-75v369h122c26.667 0 46.834 -4.5 60.501 -13.5s22.667 -21.833 27 -38.5
s6.5 -39.334 6.5 -68.001c0 -26.667 -2.33301 -48.834 -7 -66.501zM313.499 356.502c5 2.33301 8.33301 7.16699 10 14.5s2.5 19.333 2.5 36s-1 28.5 -3 35.5s-5.33301 11.667 -10 14s-12.667 3.5 -24 3.5h-29v-107h28c12 0 20.5 1.16699 25.5 3.5z" />
    <glyph glyph-name="macron" unicode="&#xaf;" horiz-adv-x="298" 
d="M48 627v116h202v-116h-202z" />
    <glyph glyph-name="degree" unicode="&#xb0;" horiz-adv-x="320" 
d="M75.5 411c-17 9.33301 -27.667 23.666 -32 42.999s-6.5 50 -6.5 92s2.16699 72.667 6.5 92s15 33.833 32 43.5s45.167 14.5 84.5 14.5s67.666 -4.83301 84.999 -14.5s28.166 -24.167 32.499 -43.5s6.5 -50 6.5 -92s-2.16699 -72.667 -6.5 -92
s-15.166 -33.666 -32.499 -42.999s-45.666 -14 -84.999 -14s-67.5 4.66699 -84.5 14zM188.5 469c5.66699 4 9.16797 11.166 10.501 21.499s2 28.833 2 55.5s-0.666992 45.167 -2 55.5s-4.66602 17.5 -9.99902 21.5s-15 6 -29 6s-23.5 -1.83301 -28.5 -5.5
s-8.16699 -10.667 -9.5 -21s-2 -29.166 -2 -56.499s0.666992 -46 2 -56s4.66602 -17 9.99902 -21s14.666 -6 27.999 -6s22.833 2 28.5 6z" />
    <glyph glyph-name="plusminus" unicode="&#xb1;" horiz-adv-x="472" 
d="M182 195v126h-125v109h125v125h108v-125h126v-109h-126v-126h-108zM57 29v110h359v-110h-359z" />
    <glyph glyph-name="uni00B2" unicode="&#xb2;" horiz-adv-x="298" 
d="M126 391l131.001 0.000976562v-76h-215v57c0 44 2 74.5 6 91.5s14 29.833 30 38.5l65 37c11.333 6 18.833 11.667 22.5 17s5.5 14.333 5.5 27c0 16 -2.83301 26 -8.5 30s-18.5 6 -38.5 6c-14 0 -40.333 -1.66699 -79 -5v72c33.333 6.66699 67.333 10 102 10
c24 0 43.5 -2.16699 58.5 -6.5s27.333 -14.333 37 -30s14.5 -39.5 14.5 -71.5c0 -31.333 -3.83301 -54.5 -11.5 -69.5s-19.834 -27.167 -36.501 -36.5l-63 -34c-8.66699 -4.66699 -14.167 -9.33398 -16.5 -14.001s-3.5 -14 -3.5 -28v-15z" />
    <glyph glyph-name="uni00B3" unicode="&#xb3;" horiz-adv-x="297" 
d="M40 317l0.000976562 70.999c35.333 -3.33301 62.333 -5 81 -5s31 2.33301 37 7s9 15.667 9 33c0 18 -2.33301 29.667 -7 35s-13.334 8 -26.001 8h-57v73h57c12 0 20 2.66699 24 8s6 17 6 35c0 16.667 -2.83301 27.167 -8.5 31.5s-18.5 6.5 -38.5 6.5
c-18.667 0 -43.667 -2.33301 -75 -7v73c37.333 6.66699 69.333 10 96 10c40 0 68.833 -7.5 86.5 -22.5s26.5 -41.167 26.5 -78.5c0 -24.667 -3.83301 -44 -11.5 -58s-19.167 -24 -34.5 -30v-4c16 -6 28.167 -15.833 36.5 -29.5s12.5 -33.5 12.5 -59.5
c0 -39.333 -8.5 -67.166 -25.5 -83.499s-47.5 -24.5 -91.5 -24.5c-24.667 0 -57 3.66699 -97 11z" />
    <glyph glyph-name="acute" unicode="&#xb4;" horiz-adv-x="193" 
d="M6 597v5l53 141h128v-5l-79 -141h-102z" />
    <glyph glyph-name="uni00B5" unicode="&#xb5;" horiz-adv-x="452" 
d="M406 510l0.000976562 -509.999h-122l-4 61h-7c-8.66699 -22 -20.834 -38.167 -36.501 -48.5s-36.167 -15.833 -61.5 -16.5v-185h-129v699h129v-276c0 -42.667 1 -72 3 -88s6 -26.167 12 -30.5s17.333 -6.5 34 -6.5c17.333 0 29.5 3.33301 36.5 10s11.5 19.167 13.5 37.5
s3 49.166 3 92.499v261h129z" />
    <glyph glyph-name="paragraph" unicode="&#xb6;" horiz-adv-x="484" 
d="M173 222c-45.333 0 -77.5 5.33203 -96.5 15.999s-31.5 31.167 -37.5 61.5s-9 81.833 -9 154.5s3 124.334 9 155.001s18.5 51.5 37.5 62.5s51.167 16.5 96.5 16.5h100v-832h-100v366zM325 -144.001v832h100v-832h-100z" />
    <glyph glyph-name="periodcentered" unicode="&#xb7;" horiz-adv-x="242" 
d="M51 233v131h141v-131h-141z" />
    <glyph glyph-name="cedilla" unicode="&#xb8;" horiz-adv-x="162" 
d="M7 -189v5l64 192h84v-5l-35 -192h-113z" />
    <glyph glyph-name="uni00B9" unicode="&#xb9;" horiz-adv-x="225" 
d="M93 315v273l-55 -23v81l78 42h63v-373h-86z" />
    <glyph glyph-name="ordmasculine" unicode="&#xba;" horiz-adv-x="337" 
d="M77.5 324.5c-19 11 -31.333 29.333 -37 55s-8.5 66.167 -8.5 121.5s2.83301 96 8.5 122s18 44.667 37 56s49.5 17 91.5 17s72.333 -5.66699 91 -17s30.834 -29.833 36.501 -55.5s8.5 -66.5 8.5 -122.5c0 -55.333 -2.83301 -95.833 -8.5 -121.5s-17.834 -44 -36.501 -55
s-49 -16.5 -91 -16.5s-72.5 5.5 -91.5 16.5zM196.5 395.5c5 4.33301 8 13.166 9 26.499s1.5 39.666 1.5 78.999c0 40 -0.5 66.833 -1.5 80.5s-4 22.667 -9 27s-14.167 6.5 -27.5 6.5c-14 0 -23.333 -2.16699 -28 -6.5s-7.66699 -13.333 -9 -27s-2 -40.5 -2 -80.5
c0 -39.333 0.666992 -65.666 2 -78.999s4.33301 -22.166 9 -26.499s14 -6.5 28 -6.5c13.333 0 22.5 2.16699 27.5 6.5z" />
    <glyph glyph-name="guillemotright" unicode="&#xbb;" horiz-adv-x="415" 
d="M42 121l67 194l-67 195h91l87 -195l-87 -194h-91zM203 121l68 194l-68 195h92l86 -195l-86 -194h-92z" />
    <glyph glyph-name="onequarter" unicode="&#xbc;" horiz-adv-x="624" 
d="M92 315v273l-54 -23v81l78 42h62v-373h-86zM77 0l348 688h82l-348 -688h-82zM468 0v72h-129v63l77 239h90l-82 -225h46l28 94h56v-94h31v-77h-31v-72h-86z" />
    <glyph glyph-name="onehalf" unicode="&#xbd;" horiz-adv-x="653" 
d="M92 315v273l-54 -23v81l78 42h62v-373h-86zM425 688h82l-348 -688h-82zM479 77l130.004 0.00292969v-77h-215v57c0 44 2 74.333 6 91s14 29.667 30 39c10.667 6.66699 32.667 19 66 37c11.333 6.66699 18.666 12.5 21.999 17.5s5 13.833 5 26.5c0 16 -3 26.167 -9 30.5
s-18.333 6.5 -37 6.5c-5.33301 0 -23.333 -1.33301 -54 -4l-25 -2v72c32 6.66699 66 10 102 10c23.333 0 42.5 -2.16699 57.5 -6.5s27.333 -14.333 37 -30s14.5 -39.5 14.5 -71.5c0 -31.333 -3.83301 -54.5 -11.5 -69.5s-19.834 -26.833 -36.501 -35.5
c-8.66699 -5.33301 -16.834 -9.83301 -24.501 -13.5s-13.834 -6.83398 -18.501 -9.50098l-19 -11c-8.66699 -4.66699 -14.167 -9.83398 -16.5 -15.501s-3.5 -14.834 -3.5 -27.501v-14z" />
    <glyph glyph-name="threequarters" unicode="&#xbe;" horiz-adv-x="672" 
d="M121 383c18.667 0 31.001 2.33203 37.001 6.99902s9 15.667 9 33c0 18 -2.33301 29.667 -7 35s-13.334 8 -26.001 8h-57v73h57c12 0 20 2.66699 24 8s6 17 6 35c0 16.667 -2.83301 27.167 -8.5 31.5s-18.5 6.5 -38.5 6.5c-18.667 0 -43.667 -2.33301 -75 -7v73
c37.333 6.66699 69.333 10 96 10c40 0 68.833 -7.5 86.5 -22.5s26.5 -41.167 26.5 -78.5c0 -25.333 -3.66699 -44.833 -11 -58.5s-19 -23.5 -35 -29.5v-4c16 -6 28.167 -15.833 36.5 -29.5s12.5 -33.5 12.5 -59.5c0 -39.333 -8.5 -67.166 -25.5 -83.499
s-47.167 -24.5 -90.5 -24.5c-25.333 0 -58 3.66699 -98 11v71c35.333 -3.33301 62.333 -5 81 -5zM126.001 -0.000976562l348 688h81l-347 -688h-82zM516.001 -0.000976562v72h-129v63l77 239h89l-82 -225h47l27 94h57v-94h31v-77h-31v-72h-86z" />
    <glyph glyph-name="questiondown" unicode="&#xbf;" horiz-adv-x="363" 
d="M165 378v132h140v-132h-140zM81.5 -149c-29 24.667 -43.4971 67.667 -43.4971 129c0 34.667 2.33301 62.167 7 82.5s12 36.666 22 48.999s24 24.5 42 36.5l33 20c11.333 7.33301 19.166 13.333 23.499 18s7.16602 11 8.49902 19s2 21.667 2 41v47h118v-87
c0 -23.333 -1.66699 -41.666 -5 -54.999s-8.5 -23.833 -15.5 -31.5s-17.5 -15.5 -31.5 -23.5l-16 -10c-21.333 -13.333 -35 -25 -41 -35s-9 -27 -9 -51c0 -20 2.83301 -34.5 8.5 -43.5s14.167 -14.833 25.5 -17.5s29 -4 53 -4c30.667 0 63 2.66699 97 8v-113
c-21.333 -4.66699 -46.333 -8.5 -75 -11.5s-54.334 -4.5 -77.001 -4.5c-55.333 0 -97.5 12.333 -126.5 37z" />
    <glyph glyph-name="Agrave" unicode="&#xc0;" horiz-adv-x="501" 
d="M353 0l-27 141h-154l-27 -141h-137l142 688h201l142 -688h-140zM252 558h-6l-54 -298h113zM210 749l-78 141v5h128l53 -141v-5h-103z" />
    <glyph glyph-name="Aacute" unicode="&#xc1;" horiz-adv-x="501" 
d="M353 0l-27 141h-154l-27 -141h-137l142 688h201l142 -688h-140zM252 558h-6l-54 -298h113zM185 750v5l53 141h128v-5l-79 -141h-102z" />
    <glyph glyph-name="Acircumflex" unicode="&#xc2;" horiz-adv-x="501" 
d="M353 0l-27 141h-154l-27 -141h-137l142 688h201l142 -688h-140zM252 558h-6l-54 -298h113zM111 750v8l75 123h129l76 -123v-8h-89l-52 71l-51 -71h-88z" />
    <glyph glyph-name="Atilde" unicode="&#xc3;" horiz-adv-x="501" 
d="M353 0l-27 141h-154l-27 -141h-137l142 688h201l142 -688h-140zM252 558h-6l-54 -298h113zM401 816.5c-2.66699 -17 -9.1709 -30.3311 -19.5039 -39.998s-27.166 -14.5 -50.499 -14.5s-53 5.33301 -89 16c-4 1.33301 -12.167 3.66602 -24.5 6.99902s-22.166 5 -29.499 5
c-8.66699 0 -14 -2.66699 -16 -8s-3 -16 -3 -32h-74c0 33.333 1.33301 58.666 4 75.999s9.33398 30.833 20.001 40.5s27.667 14.5 51 14.5c22 0 51.333 -5.66699 88 -17c26.667 -7.33301 45 -11 55 -11c8.66699 0 13.834 2.5 15.501 7.5s2.5 15.5 2.5 31.5h74
c0 -33.333 -1.33301 -58.5 -4 -75.5z" />
    <glyph glyph-name="Adieresis" unicode="&#xc4;" horiz-adv-x="501" 
d="M353 0l-27 141h-154l-27 -141h-137l142 688h201l142 -688h-140zM252 558h-6l-54 -298h113zM108 779v103h111v-103h-111zM283 779v103h111v-103h-111z" />
    <glyph glyph-name="Aring" unicode="&#xc5;" horiz-adv-x="501" 
d="M493 0l-140.001 -0.000976562l-27 141h-154l-27 -141h-137l142 686c-12 8 -19.5 18.5 -22.5 31.5s-4.5 32.167 -4.5 57.5c0 29.333 2.33301 51.333 7 66s16 25.834 34 33.501s46.667 11.5 86 11.5c40 0 69 -3.83301 87 -11.5s29.333 -18.834 34 -33.501s7 -36.667 7 -66
c0 -24.667 -1.66699 -43.667 -5 -57s-10.666 -23.666 -21.999 -30.999zM218.499 816.999c-6.33301 -2.66699 -10.166 -6.83398 -11.499 -12.501s-2 -15.5 -2 -29.5s0.666992 -23.833 2 -29.5s5.16602 -9.83398 11.499 -12.501s16.833 -4 31.5 -4
c15.333 0 26.166 1.33301 32.499 4s10.333 6.83398 12 12.501s2.5 15.5 2.5 29.5s-0.833008 23.833 -2.5 29.5s-5.66699 9.83398 -12 12.501s-17.166 4 -32.499 4c-14.667 0 -25.167 -1.33301 -31.5 -4zM191.999 259.999h113l-53 298h-6z" />
    <glyph glyph-name="AE" unicode="&#xc6;" horiz-adv-x="677" 
d="M333 0l-17 141h-156l-37 -141h-136l190 688h465v-121h-244l21 -159h196v-122h-181l23 -165h185v-121h-309zM268 559h-6l-74 -299h115z" />
    <glyph glyph-name="Ccedilla" unicode="&#xc7;" horiz-adv-x="396" 
d="M368 120l0.000976562 -111c-14 -4.66699 -32.167 -8.66699 -54.5 -12s-43.5 -5 -63.5 -5h-10l-33 -181h-113v5l62 187c-33.333 9.33301 -58.333 26.666 -75 51.999s-27.834 60.166 -33.501 104.499s-8.5 105.833 -8.5 184.5c0 96.667 5 169.167 15 217.5
s29.833 82.833 59.5 103.5s75.167 31 136.5 31c22 0 43.833 -1.5 65.5 -4.5s38.5 -6.83301 50.5 -11.5v-112c-38.667 4.66699 -68 7 -88 7c-34 0 -57.5 -4.5 -70.5 -13.5s-21.333 -28.167 -25 -57.5s-5.5 -82.666 -5.5 -159.999s1.83301 -130.666 5.5 -159.999
s12 -48.5 25 -57.5s36.5 -13.5 70.5 -13.5c30.667 0 60.667 2.33301 90 7z" />
    <glyph glyph-name="Egrave" unicode="&#xc8;" horiz-adv-x="421" 
d="M52 0v688h334v-121h-196v-159h169v-121h-169v-166h196v-121h-334zM181 750l-78 141v5h128l53 -141v-5h-103z" />
    <glyph glyph-name="Eacute" unicode="&#xc9;" horiz-adv-x="421" 
d="M52 0v688h334v-121h-196v-159h169v-121h-169v-166h196v-121h-334zM169 750v5l53 141h128v-5l-79 -141h-102z" />
    <glyph glyph-name="Ecircumflex" unicode="&#xca;" horiz-adv-x="421" 
d="M52 0v688h334v-121h-196v-159h169v-121h-169v-166h196v-121h-334zM78 750v8l75 123h129l76 -123v-8h-89l-52 71l-51 -71h-88z" />
    <glyph glyph-name="Edieresis" unicode="&#xcb;" horiz-adv-x="421" 
d="M52 0v688h334v-121h-196v-159h169v-121h-169v-166h196v-121h-334zM77 777v103h111v-103h-111zM252 777v103h111v-103h-111z" />
    <glyph glyph-name="Igrave" unicode="&#xcc;" horiz-adv-x="243" 
d="M53 0v688h137v-688h-137zM88 750l-78 141v5h128l53 -141v-5h-103z" />
    <glyph glyph-name="Iacute" unicode="&#xcd;" horiz-adv-x="243" 
d="M53 0v688h137v-688h-137zM56 750v5l53 141h128v-5l-79 -141h-102z" />
    <glyph glyph-name="Icircumflex" unicode="&#xce;" horiz-adv-x="243" 
d="M53 0v688h137v-688h-137zM-18 750v8l75 123h129l76 -123v-8h-89l-52 71l-51 -71h-88z" />
    <glyph glyph-name="Idieresis" unicode="&#xcf;" horiz-adv-x="243" 
d="M53 0v688h137v-688h-137zM-21 779v103h111v-103h-111zM154 779v103h111v-103h-111z" />
    <glyph glyph-name="Eth" unicode="&#xd0;" horiz-adv-x="496" 
d="M52 289l-47 0.00390625v117h47v282h186c70.667 0 121.167 -9.83301 151.5 -29.5s49.166 -51.334 56.499 -95.001s11 -116.834 11 -219.501s-3.66699 -175.834 -11 -219.501s-26.166 -75.334 -56.499 -95.001s-80.833 -29.5 -151.5 -29.5h-186v289zM295.5 131.504
c10.333 7 17.001 24.5 20.001 52.5s4.5 81.333 4.5 160c0 78 -1.66699 131.167 -5 159.5s-10 46 -20 53s-29.667 10.5 -59 10.5h-47v-161h60v-117h-60v-168h47c29.333 0 49.166 3.5 59.499 10.5z" />
    <glyph glyph-name="Ntilde" unicode="&#xd1;" horiz-adv-x="523" 
d="M347 0l-160 377h-4v-377h-131v688h133l149 -348h5v348h132v-688h-124zM412 817.5c-2.66699 -17 -9.1709 -30.3311 -19.5039 -39.998s-27.166 -14.5 -50.499 -14.5s-53 5.33301 -89 16c-4 1.33301 -12.167 3.66602 -24.5 6.99902s-22.166 5 -29.499 5
c-8.66699 0 -14 -2.66699 -16 -8s-3 -16 -3 -32h-74c0 33.333 1.33301 58.666 4 75.999s9.33398 30.833 20.001 40.5s27.667 14.5 51 14.5c22 0 51.333 -5.66699 88 -17c26.667 -7.33301 45 -11 55 -11c8.66699 0 13.834 2.5 15.501 7.5s2.5 15.5 2.5 31.5h74
c0 -33.333 -1.33301 -58.5 -4 -75.5z" />
    <glyph glyph-name="Ograve" unicode="&#xd2;" 
d="M105 22.5c-29.333 20.333 -47.666 53 -54.999 98s-11 119.5 -11 223.5c0 104.667 3.66699 179.334 11 224.001s25.666 77.167 54.999 97.5s78.666 30.5 147.999 30.5s118.666 -10.167 147.999 -30.5s47.666 -52.833 54.999 -97.5s11 -119.334 11 -224.001
c0 -104 -3.66699 -178.5 -11 -223.5s-25.666 -77.667 -54.999 -98s-78.666 -30.5 -147.999 -30.5s-118.666 10.167 -147.999 30.5zM307 124c9.33301 7.33301 15.333 25.333 18 54s4 84 4 166s-1.33301 137.333 -4 166s-8.66699 46.667 -18 54s-27.333 11 -54 11
s-44.667 -3.66699 -54 -11s-15.333 -25.333 -18 -54s-4 -84 -4 -166s1.33301 -137.333 4 -166s8.66699 -46.667 18 -54s27.333 -11 54 -11s44.667 3.66699 54 11zM205 750l-78 141v5h128l53 -141v-5h-103z" />
    <glyph glyph-name="Oacute" unicode="&#xd3;" 
d="M105 22.5c-29.333 20.333 -47.666 53 -54.999 98s-11 119.5 -11 223.5c0 104.667 3.66699 179.334 11 224.001s25.666 77.167 54.999 97.5s78.666 30.5 147.999 30.5s118.666 -10.167 147.999 -30.5s47.666 -52.833 54.999 -97.5s11 -119.334 11 -224.001
c0 -104 -3.66699 -178.5 -11 -223.5s-25.666 -77.667 -54.999 -98s-78.666 -30.5 -147.999 -30.5s-118.666 10.167 -147.999 30.5zM307 124c9.33301 7.33301 15.333 25.333 18 54s4 84 4 166s-1.33301 137.333 -4 166s-8.66699 46.667 -18 54s-27.333 11 -54 11
s-44.667 -3.66699 -54 -11s-15.333 -25.333 -18 -54s-4 -84 -4 -166s1.33301 -137.333 4 -166s8.66699 -46.667 18 -54s27.333 -11 54 -11s44.667 3.66699 54 11zM193 750v5l53 141h128v-5l-79 -141h-102z" />
    <glyph glyph-name="Ocircumflex" unicode="&#xd4;" 
d="M105 22.5c-29.333 20.333 -47.666 53 -54.999 98s-11 119.5 -11 223.5c0 104.667 3.66699 179.334 11 224.001s25.666 77.167 54.999 97.5s78.666 30.5 147.999 30.5s118.666 -10.167 147.999 -30.5s47.666 -52.833 54.999 -97.5s11 -119.334 11 -224.001
c0 -104 -3.66699 -178.5 -11 -223.5s-25.666 -77.667 -54.999 -98s-78.666 -30.5 -147.999 -30.5s-118.666 10.167 -147.999 30.5zM307 124c9.33301 7.33301 15.333 25.333 18 54s4 84 4 166s-1.33301 137.333 -4 166s-8.66699 46.667 -18 54s-27.333 11 -54 11
s-44.667 -3.66699 -54 -11s-15.333 -25.333 -18 -54s-4 -84 -4 -166s1.33301 -137.333 4 -166s8.66699 -46.667 18 -54s27.333 -11 54 -11s44.667 3.66699 54 11zM113 750v8l75 123h129l76 -123v-8h-89l-52 71l-51 -71h-88z" />
    <glyph glyph-name="Otilde" unicode="&#xd5;" 
d="M105 22.5c-29.333 20.333 -47.666 53 -54.999 98s-11 119.5 -11 223.5c0 104.667 3.66699 179.334 11 224.001s25.666 77.167 54.999 97.5s78.666 30.5 147.999 30.5s118.666 -10.167 147.999 -30.5s47.666 -52.833 54.999 -97.5s11 -119.334 11 -224.001
c0 -104 -3.66699 -178.5 -11 -223.5s-25.666 -77.667 -54.999 -98s-78.666 -30.5 -147.999 -30.5s-118.666 10.167 -147.999 30.5zM307 124c9.33301 7.33301 15.333 25.333 18 54s4 84 4 166s-1.33301 137.333 -4 166s-8.66699 46.667 -18 54s-27.333 11 -54 11
s-44.667 -3.66699 -54 -11s-15.333 -25.333 -18 -54s-4 -84 -4 -166s1.33301 -137.333 4 -166s8.66699 -46.667 18 -54s27.333 -11 54 -11s44.667 3.66699 54 11zM404 816.5c-2.66699 -17 -9.1709 -30.3311 -19.5039 -39.998s-27.166 -14.5 -50.499 -14.5
s-53 5.33301 -89 16c-4 1.33301 -12.167 3.66602 -24.5 6.99902s-22.166 5 -29.499 5c-8.66699 0 -14 -2.66699 -16 -8s-3 -16 -3 -32h-74c0 33.333 1.33301 58.666 4 75.999s9.33398 30.833 20.001 40.5s27.667 14.5 51 14.5c22 0 51.333 -5.66699 88 -17
c26.667 -7.33301 45 -11 55 -11c8.66699 0 13.834 2.5 15.501 7.5s2.5 15.5 2.5 31.5h74c0 -33.333 -1.33301 -58.5 -4 -75.5z" />
    <glyph glyph-name="Odieresis" unicode="&#xd6;" 
d="M105 22.5c-29.333 20.333 -47.666 53 -54.999 98s-11 119.5 -11 223.5c0 104.667 3.66699 179.334 11 224.001s25.666 77.167 54.999 97.5s78.666 30.5 147.999 30.5s118.666 -10.167 147.999 -30.5s47.666 -52.833 54.999 -97.5s11 -119.334 11 -224.001
c0 -104 -3.66699 -178.5 -11 -223.5s-25.666 -77.667 -54.999 -98s-78.666 -30.5 -147.999 -30.5s-118.666 10.167 -147.999 30.5zM307 124c9.33301 7.33301 15.333 25.333 18 54s4 84 4 166s-1.33301 137.333 -4 166s-8.66699 46.667 -18 54s-27.333 11 -54 11
s-44.667 -3.66699 -54 -11s-15.333 -25.333 -18 -54s-4 -84 -4 -166s1.33301 -137.333 4 -166s8.66699 -46.667 18 -54s27.333 -11 54 -11s44.667 3.66699 54 11zM110 779v103h111v-103h-111zM285 779v103h111v-103h-111z" />
    <glyph glyph-name="multiply" unicode="&#xd7;" horiz-adv-x="447" 
d="M223 175l-90 -90l-78 77l91 91l-91 90l78 78l90 -91l91 91l77 -78l-90 -90l90 -91l-77 -77z" />
    <glyph glyph-name="Oslash" unicode="&#xd8;" 
d="M426 642c18 -24 29.335 -57.335 34.002 -100.002s7 -108.667 7 -198c0 -104 -3.66699 -178.5 -11 -223.5s-25.666 -77.667 -54.999 -98s-78.666 -30.5 -147.999 -30.5c-30.667 0 -57.334 2 -80.001 6l-20 -53h-114l40 102c-17.333 24 -28.333 57.333 -33 100
s-7 108.334 -7 197.001c0 104.667 3.66699 179.334 11 224.001s25.666 77.167 54.999 97.5s78.666 30.5 147.999 30.5c27.333 0 53.666 -1.66699 78.999 -5l20 52h115zM307.002 123.998c9.33301 7.33301 15.333 25.333 18 54s4 84 4 166s-1.33301 137.333 -4 166
s-8.66699 46.667 -18 54s-27.333 11 -54 11s-44.667 -3.66699 -54 -11s-15.333 -25.333 -18 -54s-4 -84 -4 -166s1.33301 -137.333 4 -166s8.66699 -46.667 18 -54s27.333 -11 54 -11s44.667 3.66699 54 11z" />
    <glyph glyph-name="Ugrave" unicode="&#xd9;" 
d="M458 688l-0.000976562 -383c0 -90.667 -3.83301 -156.5 -11.5 -197.5s-25.667 -70.5 -54 -88.5s-74.833 -27 -139.5 -27s-111.167 9 -139.5 27s-46.333 47.5 -54 88.5s-11.5 106.833 -11.5 197.5v383h137v-429c0 -48.667 1.16699 -82.167 3.5 -100.5s8 -30.5 17 -36.5
s24.833 -9 47.5 -9s38.334 3 47.001 9s14.167 18 16.5 36s3.5 51.667 3.5 101v429h138zM208.999 750l-78 141v5h128l53 -141v-5h-103z" />
    <glyph glyph-name="Uacute" unicode="&#xda;" 
d="M458 688l-0.000976562 -383c0 -90.667 -3.83301 -156.5 -11.5 -197.5s-25.667 -70.5 -54 -88.5s-74.833 -27 -139.5 -27s-111.167 9 -139.5 27s-46.333 47.5 -54 88.5s-11.5 106.833 -11.5 197.5v383h137v-429c0 -48.667 1.16699 -82.167 3.5 -100.5s8 -30.5 17 -36.5
s24.833 -9 47.5 -9s38.334 3 47.001 9s14.167 18 16.5 36s3.5 51.667 3.5 101v429h138zM198.999 750v5l53 141h128v-5l-79 -141h-102z" />
    <glyph glyph-name="Ucircumflex" unicode="&#xdb;" 
d="M458 688l-0.000976562 -383c0 -90.667 -3.83301 -156.5 -11.5 -197.5s-25.667 -70.5 -54 -88.5s-74.833 -27 -139.5 -27s-111.167 9 -139.5 27s-46.333 47.5 -54 88.5s-11.5 106.833 -11.5 197.5v383h137v-429c0 -48.667 1.16699 -82.167 3.5 -100.5s8 -30.5 17 -36.5
s24.833 -9 47.5 -9s38.334 3 47.001 9s14.167 18 16.5 36s3.5 51.667 3.5 101v429h138zM113.999 750v8l75 123h129l76 -123v-8h-89l-52 71l-51 -71h-88z" />
    <glyph glyph-name="Udieresis" unicode="&#xdc;" 
d="M458 688l-0.000976562 -383c0 -90.667 -3.83301 -156.5 -11.5 -197.5s-25.667 -70.5 -54 -88.5s-74.833 -27 -139.5 -27s-111.167 9 -139.5 27s-46.333 47.5 -54 88.5s-11.5 106.833 -11.5 197.5v383h137v-429c0 -48.667 1.16699 -82.167 3.5 -100.5s8 -30.5 17 -36.5
s24.833 -9 47.5 -9s38.334 3 47.001 9s14.167 18 16.5 36s3.5 51.667 3.5 101v429h138zM109.999 779v103h111v-103h-111zM284.999 779v103h111v-103h-111z" />
    <glyph glyph-name="Yacute" unicode="&#xdd;" horiz-adv-x="463" 
d="M163 0v238l-163 450h141l90 -297h9l87 297h136l-163 -450v-238h-137zM181 750v5l53 141h128v-5l-79 -141h-102z" />
    <glyph glyph-name="Thorn" unicode="&#xde;" horiz-adv-x="475" 
d="M52 688l138 0.000976562v-103h89c48.667 0 85.5 -8.66699 110.5 -26s41.833 -42.333 50.5 -75s13 -76.667 13 -132c0 -52.667 -4 -95.334 -12 -128.001s-24.833 -58.5 -50.5 -77.5s-63.167 -28.5 -112.5 -28.5h-88v-118h-138v688zM244 239.001
c22 0 37.833 2.66699 47.5 8s16 15.333 19 30s4.5 39.667 4.5 75s-1.5 60.333 -4.5 75s-9 24.5 -18 29.5s-24.833 7.5 -47.5 7.5h-55v-225h54z" />
    <glyph glyph-name="germandbls" unicode="&#xdf;" horiz-adv-x="457" 
d="M221 0l0.00292969 107.995h14c19.333 0 32.666 2.5 39.999 7.5s12.166 16.833 14.499 35.5s3.5 52.334 3.5 101.001c0 40.667 -1.5 69.834 -4.5 87.501s-8.33301 29 -16 34s-20.167 7.5 -37.5 7.5h-9v109h9c16 0 27.5 2 34.5 6s11.667 11.167 14 21.5s3.5 26.5 3.5 48.5
s-1.83301 38.333 -5.5 49s-9.33398 17.834 -17.001 21.501s-18.834 5.5 -33.501 5.5c-15.333 0 -26.833 -2.16699 -34.5 -6.5s-13.167 -13.666 -16.5 -27.999s-5 -36.5 -5 -66.5v-541h-129v545c0 48.667 5.66699 87.667 17 117s30.5 51.333 57.5 66s64.167 22 111.5 22
c67.333 0 115 -13.333 143 -40s42 -68.667 42 -126c0 -42.667 -7.5 -75.167 -22.5 -97.5s-38.5 -37.166 -70.5 -44.499v-4c34.667 -8 59.667 -26.5 75 -55.5s23 -75.5 23 -139.5c0 -60 -4.33301 -107 -13 -141s-25.667 -59.5 -51 -76.5s-62.666 -25.5 -111.999 -25.5h-25z
" />
    <glyph glyph-name="agrave" unicode="&#xe0;" horiz-adv-x="426" 
d="M52 29.5c-18 25 -26.999 64.1689 -26.999 117.502c0 39.333 4 70.166 12 92.499s21.5 38.666 40.5 48.999s45.5 15.5 79.5 15.5c24 0 56 -1.33301 96 -4v23c0 28 -2.16699 47.833 -6.5 59.5s-12.333 19.167 -24 22.5s-31.834 5 -60.501 5c-28 0 -65.333 -2.33301 -112 -7
v100c50 10 100.333 15 151 15c50 0 88 -6.66699 114 -20s43.667 -34.333 53 -63s14 -69.667 14 -123v-312h-123l-4 60h-7c-8.66699 -24.667 -22.667 -42.167 -42 -52.5s-41 -15.5 -65 -15.5c-41.333 0 -71 12.5 -89 37.5zM224.501 108.002
c7 2.66699 12.833 7.66602 17.5 14.999c7.33301 11.333 11 34.333 11 69v25h-60c-17.333 0 -28.833 -3.66699 -34.5 -11s-8.5 -23.333 -8.5 -48c0 -21.333 2.83301 -35.666 8.5 -42.999s18.5 -11 38.5 -11c11.333 0 20.5 1.33301 27.5 4zM171.001 597.001l-78 141v5h128
l53 -141v-5h-103z" />
    <glyph glyph-name="aacute" unicode="&#xe1;" horiz-adv-x="426" 
d="M52 29.5c-18 25 -26.999 64.1689 -26.999 117.502c0 39.333 4 70.166 12 92.499s21.5 38.666 40.5 48.999s45.5 15.5 79.5 15.5c24 0 56 -1.33301 96 -4v23c0 28 -2.16699 47.833 -6.5 59.5s-12.333 19.167 -24 22.5s-31.834 5 -60.501 5c-28 0 -65.333 -2.33301 -112 -7
v100c50 10 100.333 15 151 15c50 0 88 -6.66699 114 -20s43.667 -34.333 53 -63s14 -69.667 14 -123v-312h-123l-4 60h-7c-8.66699 -24.667 -22.667 -42.167 -42 -52.5s-41 -15.5 -65 -15.5c-41.333 0 -71 12.5 -89 37.5zM224.501 108.002
c7 2.66699 12.833 7.66602 17.5 14.999c7.33301 11.333 11 34.333 11 69v25h-60c-17.333 0 -28.833 -3.66699 -34.5 -11s-8.5 -23.333 -8.5 -48c0 -21.333 2.83301 -35.666 8.5 -42.999s18.5 -11 38.5 -11c11.333 0 20.5 1.33301 27.5 4zM157.001 597.001v5l53 141h128v-5
l-79 -141h-102z" />
    <glyph glyph-name="acircumflex" unicode="&#xe2;" horiz-adv-x="426" 
d="M52 29.5c-18 25 -26.999 64.1689 -26.999 117.502c0 39.333 4 70.166 12 92.499s21.5 38.666 40.5 48.999s45.5 15.5 79.5 15.5c24 0 56 -1.33301 96 -4v23c0 28 -2.16699 47.833 -6.5 59.5s-12.333 19.167 -24 22.5s-31.834 5 -60.501 5c-28 0 -65.333 -2.33301 -112 -7
v100c50 10 100.333 15 151 15c50 0 88 -6.66699 114 -20s43.667 -34.333 53 -63s14 -69.667 14 -123v-312h-123l-4 60h-7c-8.66699 -24.667 -22.667 -42.167 -42 -52.5s-41 -15.5 -65 -15.5c-41.333 0 -71 12.5 -89 37.5zM224.501 108.002
c7 2.66699 12.833 7.66602 17.5 14.999c7.33301 11.333 11 34.333 11 69v25h-60c-17.333 0 -28.833 -3.66699 -34.5 -11s-8.5 -23.333 -8.5 -48c0 -21.333 2.83301 -35.666 8.5 -42.999s18.5 -11 38.5 -11c11.333 0 20.5 1.33301 27.5 4zM74.001 612.001v8l75 123h129
l76 -123v-8h-89l-52 71l-51 -71h-88z" />
    <glyph glyph-name="atilde" unicode="&#xe3;" horiz-adv-x="426" 
d="M52 29.5c-18 25 -26.999 64.1689 -26.999 117.502c0 39.333 4 70.166 12 92.499s21.5 38.666 40.5 48.999s45.5 15.5 79.5 15.5c24 0 56 -1.33301 96 -4v23c0 28 -2.16699 47.833 -6.5 59.5s-12.333 19.167 -24 22.5s-31.834 5 -60.501 5c-28 0 -65.333 -2.33301 -112 -7
v100c50 10 100.333 15 151 15c50 0 88 -6.66699 114 -20s43.667 -34.333 53 -63s14 -69.667 14 -123v-312h-123l-4 60h-7c-8.66699 -24.667 -22.667 -42.167 -42 -52.5s-41 -15.5 -65 -15.5c-41.333 0 -71 12.5 -89 37.5zM224.501 108.002
c7 2.66699 12.833 7.66602 17.5 14.999c7.33301 11.333 11 34.333 11 69v25h-60c-17.333 0 -28.833 -3.66699 -34.5 -11s-8.5 -23.333 -8.5 -48c0 -21.333 2.83301 -35.666 8.5 -42.999s18.5 -11 38.5 -11c11.333 0 20.5 1.33301 27.5 4zM364.001 667.501
c-2.66699 -17 -9.1709 -30.3311 -19.5039 -39.998s-27.166 -14.5 -50.499 -14.5s-53 5.33301 -89 16c-4 1.33301 -12.167 3.66602 -24.5 6.99902s-22.166 5 -29.499 5c-8.66699 0 -14 -2.66699 -16 -8s-3 -16 -3 -32h-74c0 33.333 1.33301 58.666 4 75.999
s9.33398 30.833 20.001 40.5s27.667 14.5 51 14.5c22 0 51.333 -5.66699 88 -17c26.667 -7.33301 45 -11 55 -11c8.66699 0 13.834 2.5 15.501 7.5s2.5 15.5 2.5 31.5h74c0 -33.333 -1.33301 -58.5 -4 -75.5z" />
    <glyph glyph-name="adieresis" unicode="&#xe4;" horiz-adv-x="426" 
d="M52 29.5c-18 25 -26.999 64.1689 -26.999 117.502c0 39.333 4 70.166 12 92.499s21.5 38.666 40.5 48.999s45.5 15.5 79.5 15.5c24 0 56 -1.33301 96 -4v23c0 28 -2.16699 47.833 -6.5 59.5s-12.333 19.167 -24 22.5s-31.834 5 -60.501 5c-28 0 -65.333 -2.33301 -112 -7
v100c50 10 100.333 15 151 15c50 0 88 -6.66699 114 -20s43.667 -34.333 53 -63s14 -69.667 14 -123v-312h-123l-4 60h-7c-8.66699 -24.667 -22.667 -42.167 -42 -52.5s-41 -15.5 -65 -15.5c-41.333 0 -71 12.5 -89 37.5zM224.501 108.002
c7 2.66699 12.833 7.66602 17.5 14.999c7.33301 11.333 11 34.333 11 69v25h-60c-17.333 0 -28.833 -3.66699 -34.5 -11s-8.5 -23.333 -8.5 -48c0 -21.333 2.83301 -35.666 8.5 -42.999s18.5 -11 38.5 -11c11.333 0 20.5 1.33301 27.5 4zM71.001 623.001v103h111v-103h-111z
M246.001 623.001v103h111v-103h-111z" />
    <glyph glyph-name="aring" unicode="&#xe5;" horiz-adv-x="426" 
d="M52 29.5c-18 25 -26.999 64.1689 -26.999 117.502c0 39.333 4 70.166 12 92.499s21.5 38.666 40.5 48.999s45.5 15.5 79.5 15.5c24 0 56 -1.33301 96 -4v23c0 28 -2.16699 47.833 -6.5 59.5s-12.333 19.167 -24 22.5s-31.834 5 -60.501 5c-28 0 -65.333 -2.33301 -112 -7
v100c50 10 100.333 15 151 15c50 0 88 -6.66699 114 -20s43.667 -34.333 53 -63s14 -69.667 14 -123v-312h-123l-4 60h-7c-8.66699 -24.667 -22.667 -42.167 -42 -52.5s-41 -15.5 -65 -15.5c-41.333 0 -71 12.5 -89 37.5zM224.501 108.002
c7 2.66699 12.833 7.66602 17.5 14.999c7.33301 11.333 11 34.333 11 69v25h-60c-17.333 0 -28.833 -3.66699 -34.5 -11s-8.5 -23.333 -8.5 -48c0 -21.333 2.83301 -35.666 8.5 -42.999s18.5 -11 38.5 -11c11.333 0 20.5 1.33301 27.5 4zM127.501 595.501
c-17.667 7.66699 -28.834 18.667 -33.501 33s-7 35.833 -7 64.5c0 29.333 2.33301 51.166 7 65.499s15.834 25.333 33.501 33s46.167 11.5 85.5 11.5c40 0 68.833 -3.83301 86.5 -11.5s28.834 -18.667 33.501 -33s7 -36.166 7 -65.499s-2.33301 -51 -7 -65
s-15.834 -24.833 -33.501 -32.5s-46.5 -11.5 -86.5 -11.5c-39.333 0 -67.833 3.83301 -85.5 11.5zM245.501 651.501c6.33301 2.33301 10.333 6.33301 12 12s2.5 15.5 2.5 29.5s-0.833008 24 -2.5 30s-5.66699 10.333 -12 13s-17.166 4 -32.499 4
c-14.667 0 -25 -1.33301 -31 -4s-9.83301 -7 -11.5 -13s-2.5 -16 -2.5 -30s0.833008 -23.833 2.5 -29.5s5.5 -9.66699 11.5 -12s16.333 -3.5 31 -3.5c15.333 0 26.166 1.16699 32.499 3.5z" />
    <glyph glyph-name="ae" unicode="&#xe6;" horiz-adv-x="643" 
d="M608 215h-227.001c0 -38 1.66699 -64.333 5 -79s11 -24.334 23 -29.001s33.667 -7 65 -7c28 0 68.667 2 122 6v-99c-18 -4.66699 -41.167 -8.33398 -69.5 -11.001s-55.5 -4 -81.5 -4c-34.667 0 -62.834 3.33301 -84.501 10s-39.167 17.667 -52.5 33
c-31.333 -28.667 -78 -43 -140 -43c-52.667 0 -89.667 12.333 -111 37s-32 63.667 -32 117c0 39.333 4 70.333 12 93s21.5 39.167 40.5 49.5s45.5 15.5 79.5 15.5s65.667 -1.33301 95 -4v22c0 28.667 -2 48.834 -6 60.501s-12 19.167 -24 22.5s-32.333 5 -61 5
c-30.667 0 -68 -2.33301 -112 -7v100c57.333 10 107.666 15 150.999 15c54 0 93.667 -11.333 119 -34c26.667 22.667 66.334 34 119.001 34c54.667 0 93.834 -8.66699 117.501 -26s38.334 -42.666 44.001 -75.999s8.5 -87.333 8.5 -162v-39zM399.499 404
c-7 -4.66699 -11.666 -14.333 -13.999 -29s-3.83301 -39 -4.5 -73h106c0 34 -1.33301 58.5 -4 73.5s-7.33398 24.667 -14.001 29s-18 6.5 -34 6.5c-16.667 0 -28.5 -2.33301 -35.5 -7zM252 216.001l-60 0.000976562c-18 0 -29.667 -3.66699 -35 -11s-8 -23 -8 -47
c0 -23.333 2.83301 -39 8.5 -47s18.5 -12 38.5 -12c14 0 24.833 2.16699 32.5 6.5s13.5 12.166 17.5 23.499c4 14 6 34 6 60v27z" />
    <glyph glyph-name="ccedilla" unicode="&#xe7;" horiz-adv-x="341" 
d="M315 7c-30.667 -8.66699 -64.667 -13.6641 -102 -14.9971l-33 -181h-113v5l62 186c-27.333 8.66699 -47.833 23.5 -61.5 44.5s-22.667 47.667 -27 80s-6.5 75.166 -6.5 128.499c0 66 4.16699 117.333 12.5 154s24.5 64 48.5 82s59.667 27 107 27
c45.333 0 82 -4.66699 110 -14v-100c-30.667 4 -55 6 -73 6c-24 0 -41 -3.33301 -51 -10s-16.667 -20.334 -20 -41.001s-5 -55.334 -5 -104.001c0 -49.333 1.83301 -84.333 5.5 -105s10.5 -34.167 20.5 -40.5s27 -9.5 51 -9.5c16.667 0 41.667 2 75 6v-99z" />
    <glyph glyph-name="egrave" unicode="&#xe8;" horiz-adv-x="425" 
d="M390 215l-227 0.000976562c0 -38 1.66699 -64.333 5 -79s11 -24.334 23 -29.001s33.667 -7 65 -7c25.333 0 66 2 122 6v-99c-18 -4 -41.333 -7.5 -70 -10.5s-56 -4.5 -82 -4.5c-59.333 0 -102.5 8.83301 -129.5 26.5s-44.167 43.834 -51.5 78.501s-11 87 -11 157
c0 68.667 3.66699 120.667 11 156s24 62.166 50 80.499s67 27.5 123 27.5c54.667 0 94.167 -8.5 118.5 -25.5s39.333 -42.5 45 -76.5s8.5 -88 8.5 -162v-39zM181.5 404.001c-7 -4.66699 -11.832 -14.333 -14.499 -29s-4 -39 -4 -73h106c0 34 -1.33301 58.5 -4 73.5
s-7.33398 24.667 -14.001 29s-18 6.5 -34 6.5c-16.667 0 -28.5 -2.33301 -35.5 -7zM174.001 597.002l-78 141v5h128l53 -141v-5h-103z" />
    <glyph glyph-name="eacute" unicode="&#xe9;" horiz-adv-x="425" 
d="M390 215l-227 0.000976562c0 -38 1.66699 -64.333 5 -79s11 -24.334 23 -29.001s33.667 -7 65 -7c25.333 0 66 2 122 6v-99c-18 -4 -41.333 -7.5 -70 -10.5s-56 -4.5 -82 -4.5c-59.333 0 -102.5 8.83301 -129.5 26.5s-44.167 43.834 -51.5 78.501s-11 87 -11 157
c0 68.667 3.66699 120.667 11 156s24 62.166 50 80.499s67 27.5 123 27.5c54.667 0 94.167 -8.5 118.5 -25.5s39.333 -42.5 45 -76.5s8.5 -88 8.5 -162v-39zM181.5 404.001c-7 -4.66699 -11.832 -14.333 -14.499 -29s-4 -39 -4 -73h106c0 34 -1.33301 58.5 -4 73.5
s-7.33398 24.667 -14.001 29s-18 6.5 -34 6.5c-16.667 0 -28.5 -2.33301 -35.5 -7zM164.001 597.002v5l53 141h128v-5l-79 -141h-102z" />
    <glyph glyph-name="ecircumflex" unicode="&#xea;" horiz-adv-x="425" 
d="M390 215l-227 0.000976562c0 -38 1.66699 -64.333 5 -79s11 -24.334 23 -29.001s33.667 -7 65 -7c25.333 0 66 2 122 6v-99c-18 -4 -41.333 -7.5 -70 -10.5s-56 -4.5 -82 -4.5c-59.333 0 -102.5 8.83301 -129.5 26.5s-44.167 43.834 -51.5 78.501s-11 87 -11 157
c0 68.667 3.66699 120.667 11 156s24 62.166 50 80.499s67 27.5 123 27.5c54.667 0 94.167 -8.5 118.5 -25.5s39.333 -42.5 45 -76.5s8.5 -88 8.5 -162v-39zM181.5 404.001c-7 -4.66699 -11.832 -14.333 -14.499 -29s-4 -39 -4 -73h106c0 34 -1.33301 58.5 -4 73.5
s-7.33398 24.667 -14.001 29s-18 6.5 -34 6.5c-16.667 0 -28.5 -2.33301 -35.5 -7zM80.001 612.002v8l75 123h129l76 -123v-8h-89l-52 71l-51 -71h-88z" />
    <glyph glyph-name="edieresis" unicode="&#xeb;" horiz-adv-x="425" 
d="M390 215l-227 0.000976562c0 -38 1.66699 -64.333 5 -79s11 -24.334 23 -29.001s33.667 -7 65 -7c25.333 0 66 2 122 6v-99c-18 -4 -41.333 -7.5 -70 -10.5s-56 -4.5 -82 -4.5c-59.333 0 -102.5 8.83301 -129.5 26.5s-44.167 43.834 -51.5 78.501s-11 87 -11 157
c0 68.667 3.66699 120.667 11 156s24 62.166 50 80.499s67 27.5 123 27.5c54.667 0 94.167 -8.5 118.5 -25.5s39.333 -42.5 45 -76.5s8.5 -88 8.5 -162v-39zM181.5 404.001c-7 -4.66699 -11.832 -14.333 -14.499 -29s-4 -39 -4 -73h106c0 34 -1.33301 58.5 -4 73.5
s-7.33398 24.667 -14.001 29s-18 6.5 -34 6.5c-16.667 0 -28.5 -2.33301 -35.5 -7zM76.001 623.002v103h111v-103h-111zM251.001 623.002v103h111v-103h-111z" />
    <glyph glyph-name="igrave" unicode="&#xec;" horiz-adv-x="221" 
d="M46 0v510h129v-510h-129zM72 597l-78 141v5h128l53 -141v-5h-103z" />
    <glyph glyph-name="iacute" unicode="&#xed;" horiz-adv-x="221" 
d="M46 0v510h129v-510h-129zM47 597v5l53 141h128v-5l-79 -141h-102z" />
    <glyph glyph-name="icircumflex" unicode="&#xee;" horiz-adv-x="221" 
d="M46 0v510h129v-510h-129zM-29 612v8l75 123h129l76 -123v-8h-89l-52 71l-51 -71h-88z" />
    <glyph glyph-name="idieresis" unicode="&#xef;" horiz-adv-x="221" 
d="M46 0v510h129v-510h-129zM-31 623v103h111v-103h-111zM144 623v103h111v-103h-111z" />
    <glyph glyph-name="eth" unicode="&#xf0;" horiz-adv-x="439" 
d="M94.5 15c-25.667 15.333 -42.167 40.168 -49.5 74.501s-11 89.166 -11 164.499c0 66 3 117 9 153s19.167 63.333 39.5 82s51.166 28 92.499 28c28 0 51.667 -4 71 -12l3 4c-10 37.333 -20.667 68 -32 92l-89 -13v76l53 7c-17.333 26.667 -33.333 49.334 -48 68.001v4h131
c6 -7.33301 19.333 -25 40 -53l88 13v-76l-51 -8c18 -40 33.333 -92.667 46 -158c10 -50 15 -118 15 -204c0 -76.667 -3.5 -132.334 -10.5 -167.001s-23.167 -59.667 -48.5 -75s-66.666 -23 -123.999 -23s-98.833 7.66699 -124.5 23zM257.5 109.002
c7 6 11.333 18.167 13 36.5s2.5 54.5 2.5 108.5c0 52.667 -0.833008 88.334 -2.5 107.001s-6.16699 31.5 -13.5 38.5s-20.333 10.5 -39 10.5c-19.333 0 -32.5 -3 -39.5 -9s-11.333 -18.333 -13 -37s-2.5 -55.334 -2.5 -110.001c0 -54 0.833008 -90.167 2.5 -108.5
s6 -30.5 13 -36.5s20.167 -9 39.5 -9s32.5 3 39.5 9z" />
    <glyph glyph-name="ntilde" unicode="&#xf1;" horiz-adv-x="450" 
d="M277 276c0 42.667 -0.998047 72.001 -2.99805 88.001s-6 26.167 -12 30.5s-17.333 6.5 -34 6.5c-17.333 0 -29.5 -3.33301 -36.5 -10s-11.5 -19.167 -13.5 -37.5s-3 -49.166 -3 -92.499v-261h-129v510h122l4 -61h7c9.33301 25.333 23.666 43.166 42.999 53.499
s42.666 15.5 69.999 15.5c32 0 56.167 -6.33301 72.5 -19s27.333 -31.834 33 -57.501s8.5 -61.167 8.5 -106.5v-335h-129v276zM379.002 667.501c-2.66699 -17 -9.1709 -30.3311 -19.5039 -39.998s-27.166 -14.5 -50.499 -14.5s-53 5.33301 -89 16
c-4 1.33301 -12.167 3.66602 -24.5 6.99902s-22.166 5 -29.499 5c-8.66699 0 -14 -2.66699 -16 -8s-3 -16 -3 -32h-74c0 33.333 1.33301 58.666 4 75.999s9.33398 30.833 20.001 40.5s27.667 14.5 51 14.5c22 0 51.333 -5.66699 88 -17c26.667 -7.33301 45 -11 55 -11
c8.66699 0 13.834 2.5 15.501 7.5s2.5 15.5 2.5 31.5h74c0 -33.333 -1.33301 -58.5 -4 -75.5z" />
    <glyph glyph-name="ograve" unicode="&#xf2;" horiz-adv-x="436" 
d="M94 14c-25.333 14.667 -41.666 39.334 -48.999 74.001s-11 90.334 -11 167.001s3.66699 132.334 11 167.001s23.666 59.334 48.999 74.001s66.666 22 123.999 22s98.666 -7.33301 123.999 -22s41.666 -39.334 48.999 -74.001s11 -90.334 11 -167.001
s-3.66699 -132.334 -11 -167.001s-23.666 -59.334 -48.999 -74.001s-66.666 -22 -123.999 -22s-98.666 7.33301 -123.999 22zM257.5 109c7 6 11.333 18.5 13 37.5s2.5 55.167 2.5 108.5s-0.833008 89.5 -2.5 108.5s-6 31.5 -13 37.5s-20.167 9 -39.5 9s-32.5 -3 -39.5 -9
s-11.333 -18.5 -13 -37.5s-2.5 -55.167 -2.5 -108.5s0.833008 -89.5 2.5 -108.5s6 -31.5 13 -37.5s20.167 -9 39.5 -9s32.5 3 39.5 9zM172 597l-78 141v5h128l53 -141v-5h-103z" />
    <glyph glyph-name="oacute" unicode="&#xf3;" horiz-adv-x="436" 
d="M94 14c-25.333 14.667 -41.666 39.334 -48.999 74.001s-11 90.334 -11 167.001s3.66699 132.334 11 167.001s23.666 59.334 48.999 74.001s66.666 22 123.999 22s98.666 -7.33301 123.999 -22s41.666 -39.334 48.999 -74.001s11 -90.334 11 -167.001
s-3.66699 -132.334 -11 -167.001s-23.666 -59.334 -48.999 -74.001s-66.666 -22 -123.999 -22s-98.666 7.33301 -123.999 22zM257.5 109c7 6 11.333 18.5 13 37.5s2.5 55.167 2.5 108.5s-0.833008 89.5 -2.5 108.5s-6 31.5 -13 37.5s-20.167 9 -39.5 9s-32.5 -3 -39.5 -9
s-11.333 -18.5 -13 -37.5s-2.5 -55.167 -2.5 -108.5s0.833008 -89.5 2.5 -108.5s6 -31.5 13 -37.5s20.167 -9 39.5 -9s32.5 3 39.5 9zM161 597v5l53 141h128v-5l-79 -141h-102z" />
    <glyph glyph-name="ocircumflex" unicode="&#xf4;" horiz-adv-x="436" 
d="M94 14c-25.333 14.667 -41.666 39.334 -48.999 74.001s-11 90.334 -11 167.001s3.66699 132.334 11 167.001s23.666 59.334 48.999 74.001s66.666 22 123.999 22s98.666 -7.33301 123.999 -22s41.666 -39.334 48.999 -74.001s11 -90.334 11 -167.001
s-3.66699 -132.334 -11 -167.001s-23.666 -59.334 -48.999 -74.001s-66.666 -22 -123.999 -22s-98.666 7.33301 -123.999 22zM257.5 109c7 6 11.333 18.5 13 37.5s2.5 55.167 2.5 108.5s-0.833008 89.5 -2.5 108.5s-6 31.5 -13 37.5s-20.167 9 -39.5 9s-32.5 -3 -39.5 -9
s-11.333 -18.5 -13 -37.5s-2.5 -55.167 -2.5 -108.5s0.833008 -89.5 2.5 -108.5s6 -31.5 13 -37.5s20.167 -9 39.5 -9s32.5 3 39.5 9zM79 612v8l75 123h129l76 -123v-8h-89l-52 71l-51 -71h-88z" />
    <glyph glyph-name="otilde" unicode="&#xf5;" horiz-adv-x="436" 
d="M94 14c-25.333 14.667 -41.666 39.334 -48.999 74.001s-11 90.334 -11 167.001s3.66699 132.334 11 167.001s23.666 59.334 48.999 74.001s66.666 22 123.999 22s98.666 -7.33301 123.999 -22s41.666 -39.334 48.999 -74.001s11 -90.334 11 -167.001
s-3.66699 -132.334 -11 -167.001s-23.666 -59.334 -48.999 -74.001s-66.666 -22 -123.999 -22s-98.666 7.33301 -123.999 22zM257.5 109c7 6 11.333 18.5 13 37.5s2.5 55.167 2.5 108.5s-0.833008 89.5 -2.5 108.5s-6 31.5 -13 37.5s-20.167 9 -39.5 9s-32.5 -3 -39.5 -9
s-11.333 -18.5 -13 -37.5s-2.5 -55.167 -2.5 -108.5s0.833008 -89.5 2.5 -108.5s6 -31.5 13 -37.5s20.167 -9 39.5 -9s32.5 3 39.5 9zM371 667.5c-2.66699 -17 -9.1709 -30.3311 -19.5039 -39.998s-27.166 -14.5 -50.499 -14.5s-53 5.33301 -89 16
c-4 1.33301 -12.167 3.66602 -24.5 6.99902s-22.166 5 -29.499 5c-8.66699 0 -14 -2.66699 -16 -8s-3 -16 -3 -32h-74c0 33.333 1.33301 58.666 4 75.999s9.33398 30.833 20.001 40.5s27.667 14.5 51 14.5c22 0 51.333 -5.66699 88 -17c26.667 -7.33301 45 -11 55 -11
c8.66699 0 13.834 2.5 15.501 7.5s2.5 15.5 2.5 31.5h74c0 -33.333 -1.33301 -58.5 -4 -75.5z" />
    <glyph glyph-name="odieresis" unicode="&#xf6;" horiz-adv-x="436" 
d="M94 14c-25.333 14.667 -41.666 39.334 -48.999 74.001s-11 90.334 -11 167.001s3.66699 132.334 11 167.001s23.666 59.334 48.999 74.001s66.666 22 123.999 22s98.666 -7.33301 123.999 -22s41.666 -39.334 48.999 -74.001s11 -90.334 11 -167.001
s-3.66699 -132.334 -11 -167.001s-23.666 -59.334 -48.999 -74.001s-66.666 -22 -123.999 -22s-98.666 7.33301 -123.999 22zM257.5 109c7 6 11.333 18.5 13 37.5s2.5 55.167 2.5 108.5s-0.833008 89.5 -2.5 108.5s-6 31.5 -13 37.5s-20.167 9 -39.5 9s-32.5 -3 -39.5 -9
s-11.333 -18.5 -13 -37.5s-2.5 -55.167 -2.5 -108.5s0.833008 -89.5 2.5 -108.5s6 -31.5 13 -37.5s20.167 -9 39.5 -9s32.5 3 39.5 9zM76 623v103h111v-103h-111zM251 623v103h111v-103h-111z" />
    <glyph glyph-name="divide" unicode="&#xf7;" horiz-adv-x="472" 
d="M181 371v94h110v-94h-110zM57 198v109h359v-109h-359zM181 41v93h110v-93h-110z" />
    <glyph glyph-name="oslash" unicode="&#xf8;" horiz-adv-x="436" 
d="M70 34c-14.667 18 -24.334 43.333 -29.001 76s-7 81 -7 145c0 76.667 3.66699 132.334 11 167.001s23.666 59.334 48.999 74.001s66.666 22 123.999 22c19.333 0 36.333 -1 51 -3l21 50h112l-36 -89c14.667 -18 24.334 -43.333 29.001 -76s7 -81 7 -145
c0 -76.667 -3.66699 -132.334 -11 -167.001s-23.666 -59.334 -48.999 -74.001s-66.666 -22 -123.999 -22c-20 0 -37 1 -51 3l-20 -50h-113zM257.5 109c7 6 11.333 18.5 13 37.5s2.5 55.167 2.5 108.5s-0.833008 89.5 -2.5 108.5s-6 31.5 -13 37.5s-20.167 9 -39.5 9
s-32.5 -3 -39.5 -9s-11.333 -18.5 -13 -37.5s-2.5 -55.167 -2.5 -108.5s0.833008 -89.5 2.5 -108.5s6 -31.5 13 -37.5s20.167 -9 39.5 -9s32.5 3 39.5 9z" />
    <glyph glyph-name="ugrave" unicode="&#xf9;" horiz-adv-x="450" 
d="M279 61h-8c-16 -46 -53.333 -69 -112 -69c-32.667 0 -57.167 6.33301 -73.5 19s-27.333 31.834 -33 57.501s-8.5 61.167 -8.5 106.5v335h129v-276c0 -42.667 1 -72 3 -88s6.16699 -26.167 12.5 -30.5s17.833 -6.5 34.5 -6.5s28.5 3.33301 35.5 10s11.5 19.167 13.5 37.5
s3 49.166 3 92.499v261h129v-510h-121zM179 597l-78 141v5h128l53 -141v-5h-103z" />
    <glyph glyph-name="uacute" unicode="&#xfa;" horiz-adv-x="450" 
d="M279 61h-8c-16 -46 -53.333 -69 -112 -69c-32.667 0 -57.167 6.33301 -73.5 19s-27.333 31.834 -33 57.501s-8.5 61.167 -8.5 106.5v335h129v-276c0 -42.667 1 -72 3 -88s6.16699 -26.167 12.5 -30.5s17.833 -6.5 34.5 -6.5s28.5 3.33301 35.5 10s11.5 19.167 13.5 37.5
s3 49.166 3 92.499v261h129v-510h-121zM170 597v5l53 141h128v-5l-79 -141h-102z" />
    <glyph glyph-name="ucircumflex" unicode="&#xfb;" horiz-adv-x="450" 
d="M279 61h-8c-16 -46 -53.333 -69 -112 -69c-32.667 0 -57.167 6.33301 -73.5 19s-27.333 31.834 -33 57.501s-8.5 61.167 -8.5 106.5v335h129v-276c0 -42.667 1 -72 3 -88s6.16699 -26.167 12.5 -30.5s17.833 -6.5 34.5 -6.5s28.5 3.33301 35.5 10s11.5 19.167 13.5 37.5
s3 49.166 3 92.499v261h129v-510h-121zM85 612v8l75 123h129l76 -123v-8h-89l-52 71l-51 -71h-88z" />
    <glyph glyph-name="udieresis" unicode="&#xfc;" horiz-adv-x="450" 
d="M279 61h-8c-16 -46 -53.333 -69 -112 -69c-32.667 0 -57.167 6.33301 -73.5 19s-27.333 31.834 -33 57.501s-8.5 61.167 -8.5 106.5v335h129v-276c0 -42.667 1 -72 3 -88s6.16699 -26.167 12.5 -30.5s17.833 -6.5 34.5 -6.5s28.5 3.33301 35.5 10s11.5 19.167 13.5 37.5
s3 49.166 3 92.499v261h129v-510h-121zM82 623v103h111v-103h-111zM257 623v103h111v-103h-111z" />
    <glyph glyph-name="yacute" unicode="&#xfd;" horiz-adv-x="450" 
d="M137 -200c-26.667 2 -48.335 4.33105 -65.002 6.99805v100c24.667 -0.666992 61.667 -1 111 -1c30.667 0 52.167 2.5 64.5 7.5s20 15 23 30s4.5 41.833 4.5 80.5v43h-7c-16 -44 -52.333 -66 -109 -66c-33.333 0 -58.166 6.83301 -74.499 20.5s-27.166 34 -32.499 61
s-8 65.5 -8 115.5v312h129v-268c0 -42.667 1 -72 3 -88s6.16699 -26.167 12.5 -30.5s17.833 -6.5 34.5 -6.5c17.333 0 29.333 3.33301 36 10s11 18.834 13 36.501s3 48.834 3 93.501v253h129v-450c0 -68.667 -3.66699 -120.5 -11 -155.5s-24.5 -61.667 -51.5 -80
s-69.833 -27.5 -128.5 -27.5c-24 0 -49.333 1 -76 3zM168.999 596.998v5l53 141h128v-5l-79 -141h-102z" />
    <glyph glyph-name="thorn" unicode="&#xfe;" horiz-adv-x="446" 
d="M46 743l129 -0.000976562v-292h7c14 44.667 48 67 102 67c32.667 0 58.167 -7.5 76.5 -22.5s31.5 -41.333 39.5 -79s12 -91.167 12 -160.5c0 -68.667 -3.66699 -121.667 -11 -159s-20 -64.166 -38 -80.499s-43.667 -24.5 -77 -24.5c-53.333 0 -88 20.667 -104 62h-7v-244
h-129v933zM265.5 115.999c7 5.33301 11.667 17.498 14 36.498s3.5 53.167 3.5 102.5s-1.16699 83.5 -3.5 102.5s-7 31.167 -14 36.5s-19.5 8 -37.5 8c-15.333 0 -26.5 -2.83301 -33.5 -8.5s-11.833 -17.5 -14.5 -35.5c-3.33301 -17.333 -5 -51.666 -5 -102.999
c0 -43.333 1 -74.666 3 -93.999c2.66699 -21.333 7.66699 -35.5 15 -42.5s19 -10.5 35 -10.5c18 0 30.5 2.66699 37.5 8z" />
    <glyph glyph-name="ydieresis" unicode="&#xff;" horiz-adv-x="450" 
d="M137 -200c-26.667 2 -48.335 4.33105 -65.002 6.99805v100c24.667 -0.666992 61.667 -1 111 -1c30.667 0 52.167 2.5 64.5 7.5s20 15 23 30s4.5 41.833 4.5 80.5v43h-7c-16 -44 -52.333 -66 -109 -66c-33.333 0 -58.166 6.83301 -74.499 20.5s-27.166 34 -32.499 61
s-8 65.5 -8 115.5v312h129v-268c0 -42.667 1 -72 3 -88s6.16699 -26.167 12.5 -30.5s17.833 -6.5 34.5 -6.5c17.333 0 29.333 3.33301 36 10s11 18.834 13 36.501s3 48.834 3 93.501v253h129v-450c0 -68.667 -3.66699 -120.5 -11 -155.5s-24.5 -61.667 -51.5 -80
s-69.833 -27.5 -128.5 -27.5c-24 0 -49.333 1 -76 3zM81.999 622.998v103h111v-103h-111zM256.999 622.998v103h111v-103h-111z" />
    <glyph glyph-name="Amacron" unicode="&#x100;" horiz-adv-x="501" 
d="M353 0l-27 141h-154l-27 -141h-137l142 688h201l142 -688h-140zM252 558h-6l-54 -298h113zM150 772v116h202v-116h-202z" />
    <glyph glyph-name="amacron" unicode="&#x101;" horiz-adv-x="426" 
d="M52 29.5c-18 25 -26.999 64.1689 -26.999 117.502c0 39.333 4 70.166 12 92.499s21.5 38.666 40.5 48.999s45.5 15.5 79.5 15.5c24 0 56 -1.33301 96 -4v23c0 28 -2.16699 47.833 -6.5 59.5s-12.333 19.167 -24 22.5s-31.834 5 -60.501 5c-28 0 -65.333 -2.33301 -112 -7
v100c50 10 100.333 15 151 15c50 0 88 -6.66699 114 -20s43.667 -34.333 53 -63s14 -69.667 14 -123v-312h-123l-4 60h-7c-8.66699 -24.667 -22.667 -42.167 -42 -52.5s-41 -15.5 -65 -15.5c-41.333 0 -71 12.5 -89 37.5zM224.501 108.002
c7 2.66699 12.833 7.66602 17.5 14.999c7.33301 11.333 11 34.333 11 69v25h-60c-17.333 0 -28.833 -3.66699 -34.5 -11s-8.5 -23.333 -8.5 -48c0 -21.333 2.83301 -35.666 8.5 -42.999s18.5 -11 38.5 -11c11.333 0 20.5 1.33301 27.5 4zM112.001 627.001v116h202v-116h-202
z" />
    <glyph glyph-name="Abreve" unicode="&#x102;" horiz-adv-x="501" 
d="M353 0l-27 141h-154l-27 -141h-137l142 688h201l142 -688h-140zM252 558h-6l-54 -298h113zM371.5 814c-6.33301 -19.333 -18.999 -34.5 -37.999 -45.5s-47.167 -16.5 -84.5 -16.5c-36.667 0 -64.334 5.5 -83.001 16.5s-31 26.167 -37 45.5s-9 44 -9 74h79
c0 -15.333 0.833008 -26.833 2.5 -34.5s6 -14 13 -19s18.5 -7.5 34.5 -7.5c23.333 0 38 4.83301 44 14.5s9 25.167 9 46.5h79c0 -30 -3.16699 -54.667 -9.5 -74z" />
    <glyph glyph-name="abreve" unicode="&#x103;" horiz-adv-x="426" 
d="M52 29.5c-18 25 -26.999 64.1689 -26.999 117.502c0 39.333 4 70.166 12 92.499s21.5 38.666 40.5 48.999s45.5 15.5 79.5 15.5c24 0 56 -1.33301 96 -4v23c0 28 -2.16699 47.833 -6.5 59.5s-12.333 19.167 -24 22.5s-31.834 5 -60.501 5c-28 0 -65.333 -2.33301 -112 -7
v100c50 10 100.333 15 151 15c50 0 88 -6.66699 114 -20s43.667 -34.333 53 -63s14 -69.667 14 -123v-312h-123l-4 60h-7c-8.66699 -24.667 -22.667 -42.167 -42 -52.5s-41 -15.5 -65 -15.5c-41.333 0 -71 12.5 -89 37.5zM224.501 108.002
c7 2.66699 12.833 7.66602 17.5 14.999c7.33301 11.333 11 34.333 11 69v25h-60c-17.333 0 -28.833 -3.66699 -34.5 -11s-8.5 -23.333 -8.5 -48c0 -21.333 2.83301 -35.666 8.5 -42.999s18.5 -11 38.5 -11c11.333 0 20.5 1.33301 27.5 4zM333.501 669.001
c-6.33301 -19.333 -18.999 -34.5 -37.999 -45.5s-47.167 -16.5 -84.5 -16.5c-36.667 0 -64.334 5.5 -83.001 16.5s-31 26.167 -37 45.5s-9 44 -9 74h79c0 -15.333 0.833008 -26.833 2.5 -34.5s6 -14 13 -19s18.5 -7.5 34.5 -7.5c23.333 0 38 4.83301 44 14.5
s9 25.167 9 46.5h79c0 -30 -3.16699 -54.667 -9.5 -74z" />
    <glyph glyph-name="Aogonek" unicode="&#x104;" horiz-adv-x="501" 
d="M409.5 -114c5.66699 -6.66699 15.833 -10.002 30.5 -10.002l13 1v-69c-15.333 -2.66699 -33 -4 -53 -4c-36 0 -61.667 7.83301 -77 23.5s-23 36.5 -23 62.5c0 18.667 4.83301 37.834 14.5 57.501s22.5 37.834 38.5 54.501l-27 139h-154l-27 -141h-137l142 688h201
l142 -688h-46c-11.333 -11.333 -21.833 -25 -31.5 -41s-14.5 -31 -14.5 -45c0 -12 2.83301 -21.333 8.5 -28zM191.999 259.998h113l-53 298h-6z" />
    <glyph glyph-name="aogonek" unicode="&#x105;" horiz-adv-x="426" 
d="M347 -39c-10.667 -16.667 -15.998 -33.332 -15.998 -49.999c0 -23.333 12.667 -35 38 -35l13 1v-69c-14 -2.66699 -31 -4 -51 -4c-36 0 -61.833 7.83301 -77.5 23.5s-23.5 35.5 -23.5 59.5c0 38.667 18.333 76.334 55 113.001h-26l-4 60h-7
c-8.66699 -24.667 -22.667 -42.167 -42 -52.5s-41 -15.5 -65 -15.5c-41.333 0 -71 12.5 -89 37.5s-27 64.167 -27 117.5c0 39.333 4 70.166 12 92.499s21.5 38.666 40.5 48.999s45.5 15.5 79.5 15.5c24 0 56 -1.33301 96 -4v23c0 28 -2.16699 47.833 -6.5 59.5
s-12.333 19.167 -24 22.5s-31.834 5 -60.501 5c-28 0 -65.333 -2.33301 -112 -7v100c50 10 100.333 15 151 15c50 0 88 -6.66699 114 -20s43.667 -34.333 53 -63s14 -69.667 14 -123v-312c-12.667 -9.33301 -24.334 -22.333 -35.001 -39zM253.002 217.002l-60 -0.000976562
c-17.333 0 -28.833 -3.66699 -34.5 -11s-8.5 -23.333 -8.5 -48c0 -21.333 2.83301 -35.666 8.5 -42.999s18.5 -11 38.5 -11c11.333 0 20.5 1.33301 27.5 4s12.833 7.66699 17.5 15c7.33301 11.333 11 34.333 11 69v25z" />
    <glyph glyph-name="Cacute" unicode="&#x106;" horiz-adv-x="396" 
d="M313.5 -3c-22.333 -3.33301 -43.5 -5.00195 -63.5 -5.00195c-62.667 0 -108.667 10.333 -138 31s-48.833 55 -58.5 103s-14.5 120.667 -14.5 218c0 96.667 5 169.167 15 217.5s29.833 82.833 59.5 103.5s75.167 31 136.5 31c22 0 43.833 -1.5 65.5 -4.5
s38.5 -6.83301 50.5 -11.5v-112c-38.667 4.66699 -68 7 -88 7c-34 0 -57.5 -4.5 -70.5 -13.5s-21.333 -28.167 -25 -57.5s-5.5 -82.666 -5.5 -159.999s1.83301 -130.666 5.5 -159.999s12 -48.5 25 -57.5s36.5 -13.5 70.5 -13.5c30.667 0 60.667 2.33301 90 7v-111
c-14 -4.66699 -32.167 -8.66699 -54.5 -12zM142 741.998v5l53 141h128v-5l-79 -141h-102z" />
    <glyph glyph-name="cacute" unicode="&#x107;" horiz-adv-x="341" 
d="M203 -8c-49.333 0 -86 9.33496 -110 28.002s-39.833 46 -47.5 82s-11.5 87 -11.5 153s4.16699 117.333 12.5 154s24.5 64 48.5 82s59.667 27 107 27c45.333 0 82 -4.66699 110 -14v-100c-30.667 4 -55 6 -73 6c-24 0 -41 -3.33301 -51 -10s-16.667 -20.334 -20 -41.001
s-5 -55.334 -5 -104.001c0 -49.333 1.83301 -84.333 5.5 -105s10.5 -34.167 20.5 -40.5s27 -9.5 51 -9.5c16.667 0 41.667 2 75 6v-99c-34 -10 -71.333 -15 -112 -15zM114 597.002v5l53 141h128v-5l-79 -141h-102z" />
    <glyph glyph-name="Ccircumflex" unicode="&#x108;" horiz-adv-x="396" 
d="M313.5 -3c-22.333 -3.33301 -43.5 -5.00195 -63.5 -5.00195c-62.667 0 -108.667 10.333 -138 31s-48.833 55 -58.5 103s-14.5 120.667 -14.5 218c0 96.667 5 169.167 15 217.5s29.833 82.833 59.5 103.5s75.167 31 136.5 31c22 0 43.833 -1.5 65.5 -4.5
s38.5 -6.83301 50.5 -11.5v-112c-38.667 4.66699 -68 7 -88 7c-34 0 -57.5 -4.5 -70.5 -13.5s-21.333 -28.167 -25 -57.5s-5.5 -82.666 -5.5 -159.999s1.83301 -130.666 5.5 -159.999s12 -48.5 25 -57.5s36.5 -13.5 70.5 -13.5c30.667 0 60.667 2.33301 90 7v-111
c-14 -4.66699 -32.167 -8.66699 -54.5 -12zM58 756.998v8l75 123h129l76 -123v-8h-89l-52 71l-51 -71h-88z" />
    <glyph glyph-name="ccircumflex" unicode="&#x109;" horiz-adv-x="341" 
d="M203 -8c-49.333 0 -86 9.33496 -110 28.002s-39.833 46 -47.5 82s-11.5 87 -11.5 153s4.16699 117.333 12.5 154s24.5 64 48.5 82s59.667 27 107 27c45.333 0 82 -4.66699 110 -14v-100c-30.667 4 -55 6 -73 6c-24 0 -41 -3.33301 -51 -10s-16.667 -20.334 -20 -41.001
s-5 -55.334 -5 -104.001c0 -49.333 1.83301 -84.333 5.5 -105s10.5 -34.167 20.5 -40.5s27 -9.5 51 -9.5c16.667 0 41.667 2 75 6v-99c-34 -10 -71.333 -15 -112 -15zM31 612.002v8l75 123h129l76 -123v-8h-89l-52 71l-51 -71h-88z" />
    <glyph glyph-name="Cdotaccent" unicode="&#x10a;" horiz-adv-x="396" 
d="M313.5 -3c-22.333 -3.33301 -43.5 -5.00195 -63.5 -5.00195c-62.667 0 -108.667 10.333 -138 31s-48.833 55 -58.5 103s-14.5 120.667 -14.5 218c0 96.667 5 169.167 15 217.5s29.833 82.833 59.5 103.5s75.167 31 136.5 31c22 0 43.833 -1.5 65.5 -4.5
s38.5 -6.83301 50.5 -11.5v-112c-38.667 4.66699 -68 7 -88 7c-34 0 -57.5 -4.5 -70.5 -13.5s-21.333 -28.167 -25 -57.5s-5.5 -82.666 -5.5 -159.999s1.83301 -130.666 5.5 -159.999s12 -48.5 25 -57.5s36.5 -13.5 70.5 -13.5c30.667 0 60.667 2.33301 90 7v-111
c-14 -4.66699 -32.167 -8.66699 -54.5 -12zM143 771.998v103h111v-103h-111z" />
    <glyph glyph-name="cdotaccent" unicode="&#x10b;" horiz-adv-x="341" 
d="M203 -8c-49.333 0 -86 9.33496 -110 28.002s-39.833 46 -47.5 82s-11.5 87 -11.5 153s4.16699 117.333 12.5 154s24.5 64 48.5 82s59.667 27 107 27c45.333 0 82 -4.66699 110 -14v-100c-30.667 4 -55 6 -73 6c-24 0 -41 -3.33301 -51 -10s-16.667 -20.334 -20 -41.001
s-5 -55.334 -5 -104.001c0 -49.333 1.83301 -84.333 5.5 -105s10.5 -34.167 20.5 -40.5s27 -9.5 51 -9.5c16.667 0 41.667 2 75 6v-99c-34 -10 -71.333 -15 -112 -15zM116 627.002v103h111v-103h-111z" />
    <glyph glyph-name="Ccaron" unicode="&#x10c;" horiz-adv-x="396" 
d="M313.5 -3c-22.333 -3.33301 -43.5 -5.00195 -63.5 -5.00195c-62.667 0 -108.667 10.333 -138 31s-48.833 55 -58.5 103s-14.5 120.667 -14.5 218c0 96.667 5 169.167 15 217.5s29.833 82.833 59.5 103.5s75.167 31 136.5 31c22 0 43.833 -1.5 65.5 -4.5
s38.5 -6.83301 50.5 -11.5v-112c-38.667 4.66699 -68 7 -88 7c-34 0 -57.5 -4.5 -70.5 -13.5s-21.333 -28.167 -25 -57.5s-5.5 -82.666 -5.5 -159.999s1.83301 -130.666 5.5 -159.999s12 -48.5 25 -57.5s36.5 -13.5 70.5 -13.5c30.667 0 60.667 2.33301 90 7v-111
c-14 -4.66699 -32.167 -8.66699 -54.5 -12zM134 755.998l-75 124v8h88l51 -71l52 71h88v-8l-76 -124h-128z" />
    <glyph glyph-name="ccaron" unicode="&#x10d;" horiz-adv-x="341" 
d="M203 -8c-49.333 0 -86 9.33496 -110 28.002s-39.833 46 -47.5 82s-11.5 87 -11.5 153s4.16699 117.333 12.5 154s24.5 64 48.5 82s59.667 27 107 27c45.333 0 82 -4.66699 110 -14v-100c-30.667 4 -55 6 -73 6c-24 0 -41 -3.33301 -51 -10s-16.667 -20.334 -20 -41.001
s-5 -55.334 -5 -104.001c0 -49.333 1.83301 -84.333 5.5 -105s10.5 -34.167 20.5 -40.5s27 -9.5 51 -9.5c16.667 0 41.667 2 75 6v-99c-34 -10 -71.333 -15 -112 -15zM107 611.002l-75 124v8h88l51 -71l52 71h88v-8l-76 -124h-128z" />
    <glyph glyph-name="Dcaron" unicode="&#x10e;" horiz-adv-x="496" 
d="M52 688l186 0.00390625c70.667 0 121.167 -9.83301 151.5 -29.5s49.166 -51.334 56.499 -95.001s11 -116.834 11 -219.501s-3.66699 -175.834 -11 -219.501s-26.166 -75.334 -56.499 -95.001s-80.833 -29.5 -151.5 -29.5h-186v688zM236 121.004
c29.333 0 49.167 3.5 59.5 10.5s17 24.5 20 52.5s4.5 81.333 4.5 160c0 78 -1.66699 131.167 -5 159.5s-10 46 -20 53s-29.667 10.5 -59 10.5h-47v-446h47zM184.001 756.004l-75 124v8h88l51 -71l52 71h88v-8l-76 -124h-128z" />
    <glyph glyph-name="dcaron" unicode="&#x10f;" horiz-adv-x="512" 
d="M85 14.5c-18 15 -31 41.168 -39 78.501s-12 91 -12 161c0 68.667 3.66699 121.667 11 159s20 64.166 38 80.499s43.667 24.5 77 24.5c26 0 47.667 -5 65 -15s30.333 -25.667 39 -47h7v287h129v-743h-122l-4 60h-8c-14 -45.333 -48.667 -68 -104 -68
c-33.333 0 -59 7.5 -77 22.5zM249.5 115.001c7 4.66699 12.166 13.667 15.499 27c4 19.333 6 57 6 113c0 54 -1.33301 88.333 -4 103c-2.66699 17.333 -7.66699 29 -15 35s-18.666 9 -33.999 9c-18 0 -30.5 -2.66699 -37.5 -8s-11.667 -17.5 -14 -36.5
s-3.5 -53.167 -3.5 -102.5s1.16699 -83.5 3.5 -102.5s7 -31.167 14 -36.5s19.5 -8 37.5 -8c14 0 24.5 2.33301 31.5 7zM429.999 428.001l16 206v54h121v-54l-44 -206h-93z" />
    <glyph glyph-name="Dcroat" unicode="&#x110;" horiz-adv-x="496" 
d="M52 289l-47 0.00390625v117h47v282h186c70.667 0 121.167 -9.83301 151.5 -29.5s49.166 -51.334 56.499 -95.001s11 -116.834 11 -219.501s-3.66699 -175.834 -11 -219.501s-26.166 -75.334 -56.499 -95.001s-80.833 -29.5 -151.5 -29.5h-186v289zM295.5 131.504
c10.333 7 17.001 24.5 20.001 52.5s4.5 81.333 4.5 160c0 78 -1.66699 131.167 -5 159.5s-10 46 -20 53s-29.667 10.5 -59 10.5h-47v-161h60v-117h-60v-168h47c29.333 0 49.166 3.5 59.499 10.5z" />
    <glyph glyph-name="dcroat" unicode="&#x111;" horiz-adv-x="446" 
d="M442 581l-42 0.000976562v-581h-122l-4 60h-8c-14 -45.333 -48.667 -68 -104 -68c-33.333 0 -59 7.5 -77 22.5s-31 41.167 -39 78.5s-12 91 -12 161c0 68.667 3.66699 121.667 11 159s20 64.166 38 80.499s43.667 24.5 77 24.5c26 0 47.667 -5 65 -15
s30.333 -25.667 39 -47h7v125h-92v107h92v55h129v-55h42v-107zM271 255.001c0 54 -1.33398 88.333 -4.00098 103c-2.66699 17.333 -7.66699 29 -15 35s-18.666 9 -33.999 9c-18 0 -30.5 -2.66699 -37.5 -8s-11.667 -17.5 -14 -36.5s-3.5 -53.167 -3.5 -102.5
s1.16699 -83.5 3.5 -102.5s7 -31.167 14 -36.5s19.5 -8 37.5 -8c14 0 24.5 2.33301 31.5 7s12.167 13.667 15.5 27c4 19.333 6 57 6 113z" />
    <glyph glyph-name="Emacron" unicode="&#x112;" horiz-adv-x="421" 
d="M52 0v688h334v-121h-196v-159h169v-121h-169v-166h196v-121h-334zM118 772v116h202v-116h-202z" />
    <glyph glyph-name="emacron" unicode="&#x113;" horiz-adv-x="425" 
d="M390 215l-227 0.000976562c0 -38 1.66699 -64.333 5 -79s11 -24.334 23 -29.001s33.667 -7 65 -7c25.333 0 66 2 122 6v-99c-18 -4 -41.333 -7.5 -70 -10.5s-56 -4.5 -82 -4.5c-59.333 0 -102.5 8.83301 -129.5 26.5s-44.167 43.834 -51.5 78.501s-11 87 -11 157
c0 68.667 3.66699 120.667 11 156s24 62.166 50 80.499s67 27.5 123 27.5c54.667 0 94.167 -8.5 118.5 -25.5s39.333 -42.5 45 -76.5s8.5 -88 8.5 -162v-39zM181.5 404.001c-7 -4.66699 -11.832 -14.333 -14.499 -29s-4 -39 -4 -73h106c0 34 -1.33301 58.5 -4 73.5
s-7.33398 24.667 -14.001 29s-18 6.5 -34 6.5c-16.667 0 -28.5 -2.33301 -35.5 -7zM111.001 627.002v116h202v-116h-202z" />
    <glyph glyph-name="Ebreve" unicode="&#x114;" horiz-adv-x="421" 
d="M52 0v688h334v-121h-196v-159h169v-121h-169v-166h196v-121h-334zM339.5 814c-6.33301 -19.333 -18.999 -34.5 -37.999 -45.5s-47.167 -16.5 -84.5 -16.5c-36.667 0 -64.334 5.5 -83.001 16.5s-31 26.167 -37 45.5s-9 44 -9 74h79c0 -15.333 0.833008 -26.833 2.5 -34.5
s6 -14 13 -19s18.5 -7.5 34.5 -7.5c23.333 0 38 4.83301 44 14.5s9 25.167 9 46.5h79c0 -30 -3.16699 -54.667 -9.5 -74z" />
    <glyph glyph-name="ebreve" unicode="&#x115;" horiz-adv-x="425" 
d="M390 215l-227 0.000976562c0 -38 1.66699 -64.333 5 -79s11 -24.334 23 -29.001s33.667 -7 65 -7c25.333 0 66 2 122 6v-99c-18 -4 -41.333 -7.5 -70 -10.5s-56 -4.5 -82 -4.5c-59.333 0 -102.5 8.83301 -129.5 26.5s-44.167 43.834 -51.5 78.501s-11 87 -11 157
c0 68.667 3.66699 120.667 11 156s24 62.166 50 80.499s67 27.5 123 27.5c54.667 0 94.167 -8.5 118.5 -25.5s39.333 -42.5 45 -76.5s8.5 -88 8.5 -162v-39zM181.5 404.001c-7 -4.66699 -11.832 -14.333 -14.499 -29s-4 -39 -4 -73h106c0 34 -1.33301 58.5 -4 73.5
s-7.33398 24.667 -14.001 29s-18 6.5 -34 6.5c-16.667 0 -28.5 -2.33301 -35.5 -7zM332.501 669.002c-6.33301 -19.333 -18.999 -34.5 -37.999 -45.5s-47.167 -16.5 -84.5 -16.5c-36.667 0 -64.334 5.5 -83.001 16.5s-31 26.167 -37 45.5s-9 44 -9 74h79
c0 -15.333 0.833008 -26.833 2.5 -34.5s6 -14 13 -19s18.5 -7.5 34.5 -7.5c23.333 0 38 4.83301 44 14.5s9 25.167 9 46.5h79c0 -30 -3.16699 -54.667 -9.5 -74z" />
    <glyph glyph-name="Edotaccent" unicode="&#x116;" horiz-adv-x="421" 
d="M52 0v688h334v-121h-196v-159h169v-121h-169v-166h196v-121h-334zM164 772v103h111v-103h-111z" />
    <glyph glyph-name="edotaccent" unicode="&#x117;" horiz-adv-x="425" 
d="M390 215l-227 0.000976562c0 -38 1.66699 -64.333 5 -79s11 -24.334 23 -29.001s33.667 -7 65 -7c25.333 0 66 2 122 6v-99c-18 -4 -41.333 -7.5 -70 -10.5s-56 -4.5 -82 -4.5c-59.333 0 -102.5 8.83301 -129.5 26.5s-44.167 43.834 -51.5 78.501s-11 87 -11 157
c0 68.667 3.66699 120.667 11 156s24 62.166 50 80.499s67 27.5 123 27.5c54.667 0 94.167 -8.5 118.5 -25.5s39.333 -42.5 45 -76.5s8.5 -88 8.5 -162v-39zM181.5 404.001c-7 -4.66699 -11.832 -14.333 -14.499 -29s-4 -39 -4 -73h106c0 34 -1.33301 58.5 -4 73.5
s-7.33398 24.667 -14.001 29s-18 6.5 -34 6.5c-16.667 0 -28.5 -2.33301 -35.5 -7zM157.001 627.002v103h111v-103h-111z" />
    <glyph glyph-name="Eogonek" unicode="&#x118;" horiz-adv-x="421" 
d="M249.5 -172.5c-15.667 15.667 -23.499 35.167 -23.499 58.5c0 38.667 21 76.667 63 114h-237v688h333v-121h-196v-159h170v-121h-170v-166h196v-121c-14.667 -10 -28 -23.167 -40 -39.5s-18 -32.833 -18 -49.5c0 -10 3 -18.333 9 -25s15.667 -10 29 -10l14 1v-69
c-20 -2.66699 -37 -4 -51 -4c-36.667 0 -62.834 7.83301 -78.501 23.5z" />
    <glyph glyph-name="eogonek" unicode="&#x119;" horiz-adv-x="425" 
d="M390 215l-227 0.000976562c0 -38 1.66699 -64.333 5 -79s11 -24.334 23 -29.001s33.667 -7 65 -7c25.333 0 66 2 122 6v-99c-16.667 -11.333 -32 -25.833 -46 -43.5s-21 -35.167 -21 -52.5c0 -10 2.83301 -18.333 8.5 -25s15.5 -10 29.5 -10l14 1v-69
c-20 -2.66699 -37 -4 -51 -4c-36.667 0 -62.834 7.83301 -78.501 23.5s-23.5 35.167 -23.5 58.5c0 37.333 18.667 73 56 107c-9.33301 -0.666992 -22.666 -1 -39.999 -1c-59.333 0 -102.5 8.83301 -129.5 26.5s-44.167 43.834 -51.5 78.501s-11 87 -11 157
c0 68.667 3.66699 120.667 11 156s24 62.166 50 80.499s67 27.5 123 27.5c54.667 0 94.167 -8.5 118.5 -25.5s39.333 -42.5 45 -76.5s8.5 -88 8.5 -162v-39zM181.5 404.001c-7 -4.66699 -11.832 -14.333 -14.499 -29s-4 -39 -4 -73h106c0 34 -1.33301 58.5 -4 73.5
s-7.33398 24.667 -14.001 29s-18 6.5 -34 6.5c-16.667 0 -28.5 -2.33301 -35.5 -7z" />
    <glyph glyph-name="Ecaron" unicode="&#x11a;" horiz-adv-x="421" 
d="M52 0v688h334v-121h-196v-159h169v-121h-169v-166h196v-121h-334zM155 756l-75 124v8h88l51 -71l52 71h88v-8l-76 -124h-128z" />
    <glyph glyph-name="ecaron" unicode="&#x11b;" horiz-adv-x="425" 
d="M390 215l-227 0.000976562c0 -38 1.66699 -64.333 5 -79s11 -24.334 23 -29.001s33.667 -7 65 -7c25.333 0 66 2 122 6v-99c-18 -4 -41.333 -7.5 -70 -10.5s-56 -4.5 -82 -4.5c-59.333 0 -102.5 8.83301 -129.5 26.5s-44.167 43.834 -51.5 78.501s-11 87 -11 157
c0 68.667 3.66699 120.667 11 156s24 62.166 50 80.499s67 27.5 123 27.5c54.667 0 94.167 -8.5 118.5 -25.5s39.333 -42.5 45 -76.5s8.5 -88 8.5 -162v-39zM181.5 404.001c-7 -4.66699 -11.832 -14.333 -14.499 -29s-4 -39 -4 -73h106c0 34 -1.33301 58.5 -4 73.5
s-7.33398 24.667 -14.001 29s-18 6.5 -34 6.5c-16.667 0 -28.5 -2.33301 -35.5 -7zM148.001 611.002l-75 124v8h88l51 -71l52 71h88v-8l-76 -124h-128z" />
    <glyph glyph-name="Gcircumflex" unicode="&#x11c;" horiz-adv-x="487" 
d="M251 282l-0.000976562 117.999h189v-387c-23.333 -6 -51.666 -11 -84.999 -15s-64.333 -6 -93 -6c-63.333 0 -110.5 9.5 -141.5 28.5s-52.333 53 -64 102s-17.5 122.833 -17.5 221.5c0 98 6.16699 171.5 18.5 220.5s34.833 83.167 67.5 102.5s81.667 29 147 29
c26.667 0 55.667 -2 87 -6s58 -8.66699 80 -14v-113c-57.333 8 -99 12 -125 12c-45.333 0 -76.5 -3.66699 -93.5 -11s-28.667 -26.166 -35 -56.499s-9.5 -84.833 -9.5 -163.5c0 -73.333 2 -125.5 6 -156.5s11.833 -51.833 23.5 -62.5s31.5 -16 59.5 -16c6 0 22 1 48 3v170
h-62zM102.999 756.999v8l75 123h129l76 -123v-8h-89l-52 71l-51 -71h-88z" />
    <glyph glyph-name="gcircumflex" unicode="&#x11d;" horiz-adv-x="446" 
d="M131 -200c-26.667 2 -48.335 4.66992 -65.002 8.00293v99c12 0 20.667 -0.333008 26 -1l85 -1c31.333 0 53.166 2.66699 65.499 8s20.166 15.666 23.499 30.999s5 42.666 5 81.999v38h-8c-15.333 -41.333 -49.333 -62 -102 -62c-33.333 0 -59.166 7.83301 -77.499 23.5
s-31.166 41.667 -38.499 78s-11 88.166 -11 155.499c0 68.667 4 121.5 12 158.5s21 63 39 78s43.667 22.5 77 22.5c23.333 0 44.5 -5.16699 63.5 -15.5s32.5 -27.833 40.5 -52.5h8l4 60h122v-449c0 -69.333 -3.66699 -121.5 -11 -156.5s-24.666 -61.667 -51.999 -80
s-70.666 -27.5 -129.999 -27.5c-24 0 -49.333 1 -76 3zM249.499 124.003c7 4.66699 12.167 13.666 15.5 26.999c4 16 6 52 6 108c0 50 -1.66699 83.333 -5 100c-2.66699 16.667 -7.5 27.834 -14.5 33.501s-18.5 8.5 -34.5 8.5c-18 0 -30.333 -2.5 -37 -7.5
s-11.167 -16.667 -13.5 -35s-3.5 -51.5 -3.5 -99.5s1.16699 -81.167 3.5 -99.5s6.83301 -30 13.5 -35s19 -7.5 37 -7.5c14.667 0 25.5 2.33301 32.5 7zM82.999 612.002v8l75 123h129l76 -123v-8h-89l-52 71l-51 -71h-88z" />
    <glyph glyph-name="Gbreve" unicode="&#x11e;" horiz-adv-x="487" 
d="M251 282l-0.000976562 117.999h189v-387c-23.333 -6 -51.666 -11 -84.999 -15s-64.333 -6 -93 -6c-63.333 0 -110.5 9.5 -141.5 28.5s-52.333 53 -64 102s-17.5 122.833 -17.5 221.5c0 98 6.16699 171.5 18.5 220.5s34.833 83.167 67.5 102.5s81.667 29 147 29
c26.667 0 55.667 -2 87 -6s58 -8.66699 80 -14v-113c-57.333 8 -99 12 -125 12c-45.333 0 -76.5 -3.66699 -93.5 -11s-28.667 -26.166 -35 -56.499s-9.5 -84.833 -9.5 -163.5c0 -73.333 2 -125.5 6 -156.5s11.833 -51.833 23.5 -62.5s31.5 -16 59.5 -16c6 0 22 1 48 3v170
h-62zM363.499 813.999c-6.33301 -19.333 -18.999 -34.5 -37.999 -45.5s-47.167 -16.5 -84.5 -16.5c-36.667 0 -64.334 5.5 -83.001 16.5s-31 26.167 -37 45.5s-9 44 -9 74h79c0 -15.333 0.833008 -26.833 2.5 -34.5s6 -14 13 -19s18.5 -7.5 34.5 -7.5
c23.333 0 38 4.83301 44 14.5s9 25.167 9 46.5h79c0 -30 -3.16699 -54.667 -9.5 -74z" />
    <glyph glyph-name="gbreve" unicode="&#x11f;" horiz-adv-x="446" 
d="M131 -200c-26.667 2 -48.335 4.66992 -65.002 8.00293v99c12 0 20.667 -0.333008 26 -1l85 -1c31.333 0 53.166 2.66699 65.499 8s20.166 15.666 23.499 30.999s5 42.666 5 81.999v38h-8c-15.333 -41.333 -49.333 -62 -102 -62c-33.333 0 -59.166 7.83301 -77.499 23.5
s-31.166 41.667 -38.499 78s-11 88.166 -11 155.499c0 68.667 4 121.5 12 158.5s21 63 39 78s43.667 22.5 77 22.5c23.333 0 44.5 -5.16699 63.5 -15.5s32.5 -27.833 40.5 -52.5h8l4 60h122v-449c0 -69.333 -3.66699 -121.5 -11 -156.5s-24.666 -61.667 -51.999 -80
s-70.666 -27.5 -129.999 -27.5c-24 0 -49.333 1 -76 3zM249.499 124.003c7 4.66699 12.167 13.666 15.5 26.999c4 16 6 52 6 108c0 50 -1.66699 83.333 -5 100c-2.66699 16.667 -7.5 27.834 -14.5 33.501s-18.5 8.5 -34.5 8.5c-18 0 -30.333 -2.5 -37 -7.5
s-11.167 -16.667 -13.5 -35s-3.5 -51.5 -3.5 -99.5s1.16699 -81.167 3.5 -99.5s6.83301 -30 13.5 -35s19 -7.5 37 -7.5c14.667 0 25.5 2.33301 32.5 7zM343.499 669.002c-6.33301 -19.333 -18.999 -34.5 -37.999 -45.5s-47.167 -16.5 -84.5 -16.5
c-36.667 0 -64.334 5.5 -83.001 16.5s-31 26.167 -37 45.5s-9 44 -9 74h79c0 -15.333 0.833008 -26.833 2.5 -34.5s6 -14 13 -19s18.5 -7.5 34.5 -7.5c23.333 0 38 4.83301 44 14.5s9 25.167 9 46.5h79c0 -30 -3.16699 -54.667 -9.5 -74z" />
    <glyph glyph-name="Gdotaccent" unicode="&#x120;" horiz-adv-x="487" 
d="M251 282l-0.000976562 117.999h189v-387c-23.333 -6 -51.666 -11 -84.999 -15s-64.333 -6 -93 -6c-63.333 0 -110.5 9.5 -141.5 28.5s-52.333 53 -64 102s-17.5 122.833 -17.5 221.5c0 98 6.16699 171.5 18.5 220.5s34.833 83.167 67.5 102.5s81.667 29 147 29
c26.667 0 55.667 -2 87 -6s58 -8.66699 80 -14v-113c-57.333 8 -99 12 -125 12c-45.333 0 -76.5 -3.66699 -93.5 -11s-28.667 -26.166 -35 -56.499s-9.5 -84.833 -9.5 -163.5c0 -73.333 2 -125.5 6 -156.5s11.833 -51.833 23.5 -62.5s31.5 -16 59.5 -16c6 0 22 1 48 3v170
h-62zM187.999 771.999v103h111v-103h-111z" />
    <glyph glyph-name="gdotaccent" unicode="&#x121;" horiz-adv-x="446" 
d="M131 -200c-26.667 2 -48.335 4.66992 -65.002 8.00293v99c12 0 20.667 -0.333008 26 -1l85 -1c31.333 0 53.166 2.66699 65.499 8s20.166 15.666 23.499 30.999s5 42.666 5 81.999v38h-8c-15.333 -41.333 -49.333 -62 -102 -62c-33.333 0 -59.166 7.83301 -77.499 23.5
s-31.166 41.667 -38.499 78s-11 88.166 -11 155.499c0 68.667 4 121.5 12 158.5s21 63 39 78s43.667 22.5 77 22.5c23.333 0 44.5 -5.16699 63.5 -15.5s32.5 -27.833 40.5 -52.5h8l4 60h122v-449c0 -69.333 -3.66699 -121.5 -11 -156.5s-24.666 -61.667 -51.999 -80
s-70.666 -27.5 -129.999 -27.5c-24 0 -49.333 1 -76 3zM249.499 124.003c7 4.66699 12.167 13.666 15.5 26.999c4 16 6 52 6 108c0 50 -1.66699 83.333 -5 100c-2.66699 16.667 -7.5 27.834 -14.5 33.501s-18.5 8.5 -34.5 8.5c-18 0 -30.333 -2.5 -37 -7.5
s-11.167 -16.667 -13.5 -35s-3.5 -51.5 -3.5 -99.5s1.16699 -81.167 3.5 -99.5s6.83301 -30 13.5 -35s19 -7.5 37 -7.5c14.667 0 25.5 2.33301 32.5 7zM167.999 627.002v103h111v-103h-111z" />
    <glyph glyph-name="Gcommaaccent" unicode="&#x122;" horiz-adv-x="487" 
d="M251 282l-0.000976562 117.999h189v-387c-23.333 -6 -51.666 -11 -84.999 -15s-64.333 -6 -93 -6c-63.333 0 -110.5 9.5 -141.5 28.5s-52.333 53 -64 102s-17.5 122.833 -17.5 221.5c0 98 6.16699 171.5 18.5 220.5s34.833 83.167 67.5 102.5s81.667 29 147 29
c26.667 0 55.667 -2 87 -6s58 -8.66699 80 -14v-113c-57.333 8 -99 12 -125 12c-45.333 0 -76.5 -3.66699 -93.5 -11s-28.667 -26.166 -35 -56.499s-9.5 -84.833 -9.5 -163.5c0 -73.333 2 -125.5 6 -156.5s11.833 -51.833 23.5 -62.5s31.5 -16 59.5 -16c6 0 22 1 48 3v170
h-62zM218.499 -222.501c7 6.33301 10.5 18.833 10.5 37.5v14h-50v109h133v-72c0 -44 -3 -76.5 -9 -97.5s-18.5 -35.833 -37.5 -44.5s-49.167 -13 -90.5 -13v57c22 0 36.5 3.16699 43.5 9.5z" />
    <glyph glyph-name="gcommaaccent" unicode="&#x123;" horiz-adv-x="446" 
d="M131 -200c-26.667 2 -48.335 4.66992 -65.002 8.00293v99c12 0 20.667 -0.333008 26 -1l85 -1c31.333 0 53.166 2.66699 65.499 8s20.166 15.666 23.499 30.999s5 42.666 5 81.999v38h-8c-15.333 -41.333 -49.333 -62 -102 -62c-33.333 0 -59.166 7.83301 -77.499 23.5
s-31.166 41.667 -38.499 78s-11 88.166 -11 155.499c0 68.667 4 121.5 12 158.5s21 63 39 78s43.667 22.5 77 22.5c23.333 0 44.5 -5.16699 63.5 -15.5s32.5 -27.833 40.5 -52.5h8l4 60h122v-449c0 -69.333 -3.66699 -121.5 -11 -156.5s-24.666 -61.667 -51.999 -80
s-70.666 -27.5 -129.999 -27.5c-24 0 -49.333 1 -76 3zM249.499 124.003c7 4.66699 12.167 13.666 15.5 26.999c4 16 6 52 6 108c0 50 -1.66699 83.333 -5 100c-2.66699 16.667 -7.5 27.834 -14.5 33.501s-18.5 8.5 -34.5 8.5c-18 0 -30.333 -2.5 -37 -7.5
s-11.167 -16.667 -13.5 -35s-3.5 -51.5 -3.5 -99.5s1.16699 -81.167 3.5 -99.5s6.83301 -30 13.5 -35s19 -7.5 37 -7.5c14.667 0 25.5 2.33301 32.5 7zM249.499 759.502c-7 -6.33301 -10.5 -18.834 -10.5 -37.501v-15h50v-109h-133v73c0 44 3 76.333 9 97
s18.5 35.334 37.5 44.001s49.167 13 90.5 13v-56c-22 0 -36.5 -3.16699 -43.5 -9.5z" />
    <glyph glyph-name="Hcircumflex" unicode="&#x124;" horiz-adv-x="519" 
d="M330 0v283h-141v-283h-137v688h137v-278h141v278h137v-688h-137zM120 757v8l75 123h129l76 -123v-8h-89l-52 71l-51 -71h-88z" />
    <glyph glyph-name="hcircumflex" unicode="&#x125;" horiz-adv-x="450" 
d="M277 276c0 42.667 -1 71.999 -3 87.999s-6 26.167 -12 30.5s-17.333 6.5 -34 6.5c-17.333 0 -29.5 -3.33301 -36.5 -10s-11.5 -19.167 -13.5 -37.5s-3 -49.166 -3 -92.499v-261h-129v743h129v-292h7c8.66699 24.667 22.5 42 41.5 52s41.833 15 68.5 15
c32 0 56.167 -6.33301 72.5 -19s27.333 -31.667 33 -57s8.5 -60.333 8.5 -105v-337h-129v276zM-29 789.999v8l75 123h129l76 -123v-8h-89l-52 71l-51 -71h-88z" />
    <glyph glyph-name="Hbar" unicode="&#x126;" horiz-adv-x="519" 
d="M330 688h137v-688h-137v243h-141v-243h-137v688h137v-98h141v98zM189 370h141v103h-141v-103z" />
    <glyph glyph-name="hbar" unicode="&#x127;" horiz-adv-x="450" 
d="M364.5 499c16.333 -12.667 27.333 -31.668 33 -57.001s8.5 -60.333 8.5 -105v-337h-129v276c0 42.667 -1 72 -3 88s-6 26.167 -12 30.5s-17.333 6.5 -34 6.5c-17.333 0 -29.5 -3.33301 -36.5 -10s-11.5 -19.167 -13.5 -37.5s-3 -49.166 -3 -92.499v-261h-129v581h-42v107
h42v55h129v-55h93v-107h-93v-130h7c8.66699 24.667 22.5 42 41.5 52s41.833 15 68.5 15c32 0 56.167 -6.33301 72.5 -19z" />
    <glyph glyph-name="Itilde" unicode="&#x128;" horiz-adv-x="243" 
d="M53 0v688h137v-688h-137zM273 812.5c-2.66699 -17 -9.1709 -30.3311 -19.5039 -39.998s-27.166 -14.5 -50.499 -14.5s-53 5.33301 -89 16c-4 1.33301 -12.167 3.66602 -24.5 6.99902s-22.166 5 -29.499 5c-8.66699 0 -14 -2.66699 -16 -8s-3 -16 -3 -32h-74
c0 33.333 1.33301 58.666 4 75.999s9.33398 30.833 20.001 40.5s27.667 14.5 51 14.5c22 0 51.333 -5.66699 88 -17c26.667 -7.33301 45 -11 55 -11c8.66699 0 13.834 2.5 15.501 7.5s2.5 15.5 2.5 31.5h74c0 -33.333 -1.33301 -58.5 -4 -75.5z" />
    <glyph glyph-name="itilde" unicode="&#x129;" horiz-adv-x="221" 
d="M46 0v510h129v-510h-129zM262 667.5c-2.66699 -17 -9.1709 -30.3311 -19.5039 -39.998s-27.166 -14.5 -50.499 -14.5s-53 5.33301 -89 16c-4 1.33301 -12.167 3.66602 -24.5 6.99902s-22.166 5 -29.499 5c-8.66699 0 -14 -2.66699 -16 -8s-3 -16 -3 -32h-74
c0 33.333 1.33301 58.666 4 75.999s9.33398 30.833 20.001 40.5s27.667 14.5 51 14.5c22 0 51.333 -5.66699 88 -17c26.667 -7.33301 45 -11 55 -11c8.66699 0 13.834 2.5 15.501 7.5s2.5 15.5 2.5 31.5h74c0 -33.333 -1.33301 -58.5 -4 -75.5z" />
    <glyph glyph-name="Imacron" unicode="&#x12a;" horiz-adv-x="243" 
d="M53 0v688h137v-688h-137zM21 772v116h202v-116h-202z" />
    <glyph glyph-name="imacron" unicode="&#x12b;" horiz-adv-x="221" 
d="M46 0v510h129v-510h-129zM10 627v116h202v-116h-202z" />
    <glyph glyph-name="Ibreve" unicode="&#x12c;" horiz-adv-x="243" 
d="M53 0v688h137v-688h-137zM242.5 814c-6.33301 -19.333 -18.999 -34.5 -37.999 -45.5s-47.167 -16.5 -84.5 -16.5c-36.667 0 -64.334 5.5 -83.001 16.5s-31 26.167 -37 45.5s-9 44 -9 74h79c0 -15.333 0.833008 -26.833 2.5 -34.5s6 -14 13 -19s18.5 -7.5 34.5 -7.5
c23.333 0 38 4.83301 44 14.5s9 25.167 9 46.5h79c0 -30 -3.16699 -54.667 -9.5 -74z" />
    <glyph glyph-name="ibreve" unicode="&#x12d;" horiz-adv-x="221" 
d="M46 0v510h129v-510h-129zM231.5 669c-6.33301 -19.333 -18.999 -34.5 -37.999 -45.5s-47.167 -16.5 -84.5 -16.5c-36.667 0 -64.334 5.5 -83.001 16.5s-31 26.167 -37 45.5s-9 44 -9 74h79c0 -15.333 0.833008 -26.833 2.5 -34.5s6 -14 13 -19s18.5 -7.5 34.5 -7.5
c23.333 0 38 4.83301 44 14.5s9 25.167 9 46.5h79c0 -30 -3.16699 -54.667 -9.5 -74z" />
    <glyph glyph-name="Iogonek" unicode="&#x12e;" horiz-adv-x="243" 
d="M61.5 -172c-15.667 16 -23.501 36.668 -23.501 62.001c0 18 5.16699 36.833 15.5 56.5s23.833 37.5 40.5 53.5h-41v688h137v-688c-12 -9.33301 -23.333 -22.333 -34 -39s-16 -32.334 -16 -47.001c0 -12 2.83301 -21.333 8.5 -28s15.834 -10 30.501 -10l12 1v-69
c-18.667 -2.66699 -36 -4 -52 -4c-36 0 -61.833 8 -77.5 24z" />
    <glyph glyph-name="iogonek" unicode="&#x12f;" horiz-adv-x="221" 
d="M166 730v-103h-111v103h111zM176 -123l0.00195312 -69c-15.333 -2.66699 -32.333 -4 -51 -4c-36.667 0 -62.834 7.83301 -78.501 23.5s-23.5 35.5 -23.5 59.5c0 20 5 39.667 15 59s23.667 37.333 41 54h-33v510h129v-510c-12.667 -9.33301 -24.334 -22.333 -35.001 -39
s-16 -33 -16 -49c0 -24 12.667 -36 38 -36z" />
    <glyph glyph-name="Idotaccent" unicode="&#x130;" horiz-adv-x="243" 
d="M53 0v688h137v-688h-137zM67 772v103h111v-103h-111z" />
    <glyph glyph-name="dotlessi" unicode="&#x131;" horiz-adv-x="221" 
d="M46 0v510h129v-510h-129z" />
    <glyph glyph-name="IJ" unicode="&#x132;" horiz-adv-x="539" 
d="M53 0v688h137v-688h-137zM324 122c12.667 4.66699 20.667 14.999 24 30.999s5 46.333 5 91v444h138v-380c0 -106 -4.16699 -178.167 -12.5 -216.5s-27.333 -63 -57 -74s-85.5 -16.833 -167.5 -17.5v114c34 0.666992 57.333 3.33398 70 8.00098z" />
    <glyph glyph-name="ij" unicode="&#x133;" horiz-adv-x="442" 
d="M45 621v122h131v-122h-131zM46 0v510h129v-510h-129zM266 621v122h131v-122h-131zM207 -98c18.667 0 32.333 1.66602 41 4.99902s14 8.33301 16 15s3 17.334 3 32.001v556h129v-503c0 -63.333 -5.16699 -108.833 -15.5 -136.5s-28 -45.667 -53 -54
s-65.167 -12.5 -120.5 -12.5v98z" />
    <glyph glyph-name="Jcircumflex" unicode="&#x134;" horiz-adv-x="296" 
d="M81 122c12.667 4.66699 20.667 14.999 24 30.999s5 46.333 5 91v444h138v-380c0 -106 -4.16699 -178.167 -12.5 -216.5s-27.333 -63 -57 -74s-85.5 -16.833 -167.5 -17.5v114c34 0.666992 57.333 3.33398 70 8.00098zM39 756.999v8l75 123h129l76 -123v-8h-89l-52 71
l-51 -71h-88z" />
    <glyph glyph-name="jcircumflex" unicode="&#x135;" horiz-adv-x="221" 
d="M-14 -98c18.667 0 32.333 1.66602 41 4.99902s14 8.33301 16 15s3 17.334 3 32.001v556h129v-503c0 -63.333 -5.16699 -108.833 -15.5 -136.5s-28 -45.667 -53 -54s-65.167 -12.5 -120.5 -12.5v98zM-29.001 611.999v8l75 123h129l76 -123v-8h-89l-52 71l-51 -71h-88z" />
    <glyph glyph-name="Kcommaaccent" unicode="&#x136;" horiz-adv-x="492" 
d="M336 0l-108 287h-38v-287h-138v688h138v-277h38l111 277h142l-143 -329l146 -359h-148zM221.5 -222.5c7 6.33301 10.5 18.833 10.5 37.5v14h-50v109h133v-72c0 -44 -3 -76.5 -9 -97.5s-18.5 -35.833 -37.5 -44.5s-49.167 -13 -90.5 -13v57c22 0 36.5 3.16699 43.5 9.5z
" />
    <glyph glyph-name="kcommaaccent" unicode="&#x137;" horiz-adv-x="430" 
d="M284 0l-82 199h-27v-199h-129v743h129v-435h27l85 202h132l-110 -243l111 -267h-136zM190.5 -222.5c7 6.33301 10.5 18.833 10.5 37.5v14h-50v109h133v-72c0 -44 -3 -76.5 -9 -97.5s-18.5 -35.833 -37.5 -44.5s-49.167 -13 -90.5 -13v57c22 0 36.5 3.16699 43.5 9.5z" />
    <glyph glyph-name="kgreenlandic" unicode="&#x138;" horiz-adv-x="430" 
d="M284 0l-82 199h-27v-199h-129v510h129v-202h27l85 202h132l-110 -243l111 -267h-136z" />
    <glyph glyph-name="Lacute" unicode="&#x139;" horiz-adv-x="379" 
d="M52 0v688h138v-563h174v-125h-312zM71 742v5l53 141h128v-5l-79 -141h-102z" />
    <glyph glyph-name="lacute" unicode="&#x13a;" horiz-adv-x="221" 
d="M46 0v743h129v-743h-129zM54 775v5l53 141h128v-5l-79 -141h-102z" />
    <glyph glyph-name="Lcommaaccent" unicode="&#x13b;" horiz-adv-x="379" 
d="M52 0v688h138v-563h174v-125h-312zM173.5 -222.5c7 6.33301 10.5 18.833 10.5 37.5v14h-50v109h133v-72c0 -44 -3 -76.5 -9 -97.5s-18.5 -35.833 -37.5 -44.5s-49.167 -13 -90.5 -13v57c22 0 36.5 3.16699 43.5 9.5z" />
    <glyph glyph-name="lcommaaccent" unicode="&#x13c;" horiz-adv-x="221" 
d="M46 0v743h129v-743h-129zM86.5 -222.5c7 6.33301 10.5 18.833 10.5 37.5v14h-50v109h133v-72c0 -44 -3 -76.5 -9 -97.5s-18.5 -35.833 -37.5 -44.5s-49.167 -13 -90.5 -13v57c22 0 36.5 3.16699 43.5 9.5z" />
    <glyph glyph-name="Lcaron" unicode="&#x13d;" horiz-adv-x="379" 
d="M52 0v688h138v-563h174v-125h-312zM271 437l16 206v54h121v-54l-44 -206h-93z" />
    <glyph glyph-name="lcaron" unicode="&#x13e;" horiz-adv-x="296" 
d="M46 0v743h129v-743h-129zM205 428l16 206v54h121v-54l-44 -206h-93z" />
    <glyph glyph-name="Ldot" unicode="&#x13f;" horiz-adv-x="404" 
d="M52 0v688h138v-563h174v-125h-312zM259 300v131h141v-131h-141z" />
    <glyph glyph-name="ldot" unicode="&#x140;" horiz-adv-x="315" 
d="M46 0v743h129v-743h-129zM206 233v131h128v-131h-128z" />
    <glyph glyph-name="Lslash" unicode="&#x141;" horiz-adv-x="379" 
d="M190 125h174v-125h-312v258l-43 -16v111l43 16v319h138v-267l106 40v-111l-106 -40v-185z" />
    <glyph glyph-name="lslash" unicode="&#x142;" horiz-adv-x="229" 
d="M49 0v285l-39 -13v110l39 14v347h129v-301l42 15v-111l-42 -15v-331h-129z" />
    <glyph glyph-name="Nacute" unicode="&#x143;" horiz-adv-x="523" 
d="M347 0l-160 377h-4v-377h-131v688h133l149 -348h5v348h132v-688h-124zM206 742v5l53 141h128v-5l-79 -141h-102z" />
    <glyph glyph-name="nacute" unicode="&#x144;" horiz-adv-x="450" 
d="M277 276c0 42.667 -0.998047 72.001 -2.99805 88.001s-6 26.167 -12 30.5s-17.333 6.5 -34 6.5c-17.333 0 -29.5 -3.33301 -36.5 -10s-11.5 -19.167 -13.5 -37.5s-3 -49.166 -3 -92.499v-261h-129v510h122l4 -61h7c9.33301 25.333 23.666 43.166 42.999 53.499
s42.666 15.5 69.999 15.5c32 0 56.167 -6.33301 72.5 -19s27.333 -31.834 33 -57.501s8.5 -61.167 8.5 -106.5v-335h-129v276zM168.002 597.001v5l53 141h128v-5l-79 -141h-102z" />
    <glyph glyph-name="Ncommaaccent" unicode="&#x145;" horiz-adv-x="523" 
d="M347 0l-160 377h-4v-377h-131v688h133l149 -348h5v348h132v-688h-124zM237.5 -222.5c7 6.33301 10.5 18.833 10.5 37.5v14h-50v109h133v-72c0 -44 -3 -76.5 -9 -97.5s-18.5 -35.833 -37.5 -44.5s-49.167 -13 -90.5 -13v57c22 0 36.5 3.16699 43.5 9.5z" />
    <glyph glyph-name="ncommaaccent" unicode="&#x146;" horiz-adv-x="450" 
d="M277 276c0 42.667 -0.998047 72.001 -2.99805 88.001s-6 26.167 -12 30.5s-17.333 6.5 -34 6.5c-17.333 0 -29.5 -3.33301 -36.5 -10s-11.5 -19.167 -13.5 -37.5s-3 -49.166 -3 -92.499v-261h-129v510h122l4 -61h7c9.33301 25.333 23.666 43.166 42.999 53.499
s42.666 15.5 69.999 15.5c32 0 56.167 -6.33301 72.5 -19s27.333 -31.834 33 -57.501s8.5 -61.167 8.5 -106.5v-335h-129v276zM200.502 -222.499c7 6.33301 10.5 18.833 10.5 37.5v14h-50v109h133v-72c0 -44 -3 -76.5 -9 -97.5s-18.5 -35.833 -37.5 -44.5
s-49.167 -13 -90.5 -13v57c22 0 36.5 3.16699 43.5 9.5z" />
    <glyph glyph-name="Ncaron" unicode="&#x147;" horiz-adv-x="523" 
d="M347 0l-160 377h-4v-377h-131v688h133l149 -348h5v348h132v-688h-124zM198 756l-75 124v8h88l51 -71l52 71h88v-8l-76 -124h-128z" />
    <glyph glyph-name="ncaron" unicode="&#x148;" horiz-adv-x="450" 
d="M277 276c0 42.667 -0.998047 72.001 -2.99805 88.001s-6 26.167 -12 30.5s-17.333 6.5 -34 6.5c-17.333 0 -29.5 -3.33301 -36.5 -10s-11.5 -19.167 -13.5 -37.5s-3 -49.166 -3 -92.499v-261h-129v510h122l4 -61h7c9.33301 25.333 23.666 43.166 42.999 53.499
s42.666 15.5 69.999 15.5c32 0 56.167 -6.33301 72.5 -19s27.333 -31.834 33 -57.501s8.5 -61.167 8.5 -106.5v-335h-129v276zM161.002 611.001l-75 124v8h88l51 -71l52 71h88v-8l-76 -124h-128z" />
    <glyph glyph-name="napostrophe" unicode="&#x149;" horiz-adv-x="560" 
d="M58.5 574.5c7 9.66699 10.5 28.5 10.5 56.5v15h-50v97h133v-61c0 -50.667 -3 -88 -9 -112s-18.5 -41 -37.5 -51s-48.833 -15 -89.5 -15v56c21.333 0 35.5 4.83301 42.5 14.5zM387 276c0 42.667 -0.998047 72.001 -2.99805 88.001s-6 26.167 -12 30.5s-17.333 6.5 -34 6.5
c-17.333 0 -29.5 -3.33301 -36.5 -10s-11.5 -19.167 -13.5 -37.5s-3 -49.166 -3 -92.499v-261h-129v510h122l4 -61h7c9.33301 25.333 23.666 43.166 42.999 53.499s42.666 15.5 69.999 15.5c32 0 56.167 -6.33301 72.5 -19s27.333 -31.834 33 -57.501
s8.5 -61.167 8.5 -106.5v-335h-129v276z" />
    <glyph glyph-name="Eng" unicode="&#x14a;" horiz-adv-x="523" 
d="M471 688l-0.000976562 -696c-0.666992 -58 -6.5 -100 -17.5 -126s-29.167 -42.833 -54.5 -50.5s-65.333 -11.5 -120 -11.5v98c18.667 0 32.334 1.66699 41.001 5s14.167 8.5 16.5 15.5s3.5 17.5 3.5 31.5v69l-153 354h-4v-377h-131v688h133l149 -348h5v348h132z" />
    <glyph glyph-name="eng" unicode="&#x14b;" horiz-adv-x="450" 
d="M364.5 499c16.333 -12.667 27.334 -31.834 33.001 -57.501s8.5 -61.167 8.5 -106.5v-328c0 -62.667 -5.16699 -108 -15.5 -136s-28 -46.167 -53 -54.5s-65.167 -12.5 -120.5 -12.5v98c18.667 0 32.334 1.66699 41.001 5s14 8.33301 16 15s3 17.334 3 32.001v322
c0 42.667 -1 72 -3 88s-6 26.167 -12 30.5s-17.333 6.5 -34 6.5c-17.333 0 -29.5 -3.33301 -36.5 -10s-11.5 -19.167 -13.5 -37.5s-3 -49.166 -3 -92.499v-261h-129v510h122l4 -61h7c9.33301 25.333 23.666 43.166 42.999 53.499s42.666 15.5 69.999 15.5
c32 0 56.167 -6.33301 72.5 -19z" />
    <glyph glyph-name="Omacron" unicode="&#x14c;" 
d="M105 22.5c-29.333 20.333 -47.666 53 -54.999 98s-11 119.5 -11 223.5c0 104.667 3.66699 179.334 11 224.001s25.666 77.167 54.999 97.5s78.666 30.5 147.999 30.5s118.666 -10.167 147.999 -30.5s47.666 -52.833 54.999 -97.5s11 -119.334 11 -224.001
c0 -104 -3.66699 -178.5 -11 -223.5s-25.666 -77.667 -54.999 -98s-78.666 -30.5 -147.999 -30.5s-118.666 10.167 -147.999 30.5zM307 124c9.33301 7.33301 15.333 25.333 18 54s4 84 4 166s-1.33301 137.333 -4 166s-8.66699 46.667 -18 54s-27.333 11 -54 11
s-44.667 -3.66699 -54 -11s-15.333 -25.333 -18 -54s-4 -84 -4 -166s1.33301 -137.333 4 -166s8.66699 -46.667 18 -54s27.333 -11 54 -11s44.667 3.66699 54 11zM152 772v116h202v-116h-202z" />
    <glyph glyph-name="omacron" unicode="&#x14d;" horiz-adv-x="436" 
d="M94 14c-25.333 14.667 -41.666 39.334 -48.999 74.001s-11 90.334 -11 167.001s3.66699 132.334 11 167.001s23.666 59.334 48.999 74.001s66.666 22 123.999 22s98.666 -7.33301 123.999 -22s41.666 -39.334 48.999 -74.001s11 -90.334 11 -167.001
s-3.66699 -132.334 -11 -167.001s-23.666 -59.334 -48.999 -74.001s-66.666 -22 -123.999 -22s-98.666 7.33301 -123.999 22zM257.5 109c7 6 11.333 18.5 13 37.5s2.5 55.167 2.5 108.5s-0.833008 89.5 -2.5 108.5s-6 31.5 -13 37.5s-20.167 9 -39.5 9s-32.5 -3 -39.5 -9
s-11.333 -18.5 -13 -37.5s-2.5 -55.167 -2.5 -108.5s0.833008 -89.5 2.5 -108.5s6 -31.5 13 -37.5s20.167 -9 39.5 -9s32.5 3 39.5 9zM117 627v116h202v-116h-202z" />
    <glyph glyph-name="Obreve" unicode="&#x14e;" 
d="M105 22.5c-29.333 20.333 -47.666 53 -54.999 98s-11 119.5 -11 223.5c0 104.667 3.66699 179.334 11 224.001s25.666 77.167 54.999 97.5s78.666 30.5 147.999 30.5s118.666 -10.167 147.999 -30.5s47.666 -52.833 54.999 -97.5s11 -119.334 11 -224.001
c0 -104 -3.66699 -178.5 -11 -223.5s-25.666 -77.667 -54.999 -98s-78.666 -30.5 -147.999 -30.5s-118.666 10.167 -147.999 30.5zM307 124c9.33301 7.33301 15.333 25.333 18 54s4 84 4 166s-1.33301 137.333 -4 166s-8.66699 46.667 -18 54s-27.333 11 -54 11
s-44.667 -3.66699 -54 -11s-15.333 -25.333 -18 -54s-4 -84 -4 -166s1.33301 -137.333 4 -166s8.66699 -46.667 18 -54s27.333 -11 54 -11s44.667 3.66699 54 11zM373.5 814c-6.33301 -19.333 -18.999 -34.5 -37.999 -45.5s-47.167 -16.5 -84.5 -16.5
c-36.667 0 -64.334 5.5 -83.001 16.5s-31 26.167 -37 45.5s-9 44 -9 74h79c0 -15.333 0.833008 -26.833 2.5 -34.5s6 -14 13 -19s18.5 -7.5 34.5 -7.5c23.333 0 38 4.83301 44 14.5s9 25.167 9 46.5h79c0 -30 -3.16699 -54.667 -9.5 -74z" />
    <glyph glyph-name="obreve" unicode="&#x14f;" horiz-adv-x="436" 
d="M94 14c-25.333 14.667 -41.666 39.334 -48.999 74.001s-11 90.334 -11 167.001s3.66699 132.334 11 167.001s23.666 59.334 48.999 74.001s66.666 22 123.999 22s98.666 -7.33301 123.999 -22s41.666 -39.334 48.999 -74.001s11 -90.334 11 -167.001
s-3.66699 -132.334 -11 -167.001s-23.666 -59.334 -48.999 -74.001s-66.666 -22 -123.999 -22s-98.666 7.33301 -123.999 22zM257.5 109c7 6 11.333 18.5 13 37.5s2.5 55.167 2.5 108.5s-0.833008 89.5 -2.5 108.5s-6 31.5 -13 37.5s-20.167 9 -39.5 9s-32.5 -3 -39.5 -9
s-11.333 -18.5 -13 -37.5s-2.5 -55.167 -2.5 -108.5s0.833008 -89.5 2.5 -108.5s6 -31.5 13 -37.5s20.167 -9 39.5 -9s32.5 3 39.5 9zM338.5 669c-6.33301 -19.333 -18.999 -34.5 -37.999 -45.5s-47.167 -16.5 -84.5 -16.5c-36.667 0 -64.334 5.5 -83.001 16.5
s-31 26.167 -37 45.5s-9 44 -9 74h79c0 -15.333 0.833008 -26.833 2.5 -34.5s6 -14 13 -19s18.5 -7.5 34.5 -7.5c23.333 0 38 4.83301 44 14.5s9 25.167 9 46.5h79c0 -30 -3.16699 -54.667 -9.5 -74z" />
    <glyph glyph-name="Ohungarumlaut" unicode="&#x150;" 
d="M105 22.5c-29.333 20.333 -47.666 53 -54.999 98s-11 119.5 -11 223.5c0 104.667 3.66699 179.334 11 224.001s25.666 77.167 54.999 97.5s78.666 30.5 147.999 30.5s118.666 -10.167 147.999 -30.5s47.666 -52.833 54.999 -97.5s11 -119.334 11 -224.001
c0 -104 -3.66699 -178.5 -11 -223.5s-25.666 -77.667 -54.999 -98s-78.666 -30.5 -147.999 -30.5s-118.666 10.167 -147.999 30.5zM307 124c9.33301 7.33301 15.333 25.333 18 54s4 84 4 166s-1.33301 137.333 -4 166s-8.66699 46.667 -18 54s-27.333 11 -54 11
s-44.667 -3.66699 -54 -11s-15.333 -25.333 -18 -54s-4 -84 -4 -166s1.33301 -137.333 4 -166s8.66699 -46.667 18 -54s27.333 -11 54 -11s44.667 3.66699 54 11zM140 755v4l44 117h105v-4l-64 -117h-85zM286 755v4l45 117h105v-4l-65 -117h-85z" />
    <glyph glyph-name="ohungarumlaut" unicode="&#x151;" horiz-adv-x="436" 
d="M94 14c-25.333 14.667 -41.666 39.334 -48.999 74.001s-11 90.334 -11 167.001s3.66699 132.334 11 167.001s23.666 59.334 48.999 74.001s66.666 22 123.999 22s98.666 -7.33301 123.999 -22s41.666 -39.334 48.999 -74.001s11 -90.334 11 -167.001
s-3.66699 -132.334 -11 -167.001s-23.666 -59.334 -48.999 -74.001s-66.666 -22 -123.999 -22s-98.666 7.33301 -123.999 22zM257.5 109c7 6 11.333 18.5 13 37.5s2.5 55.167 2.5 108.5s-0.833008 89.5 -2.5 108.5s-6 31.5 -13 37.5s-20.167 9 -39.5 9s-32.5 -3 -39.5 -9
s-11.333 -18.5 -13 -37.5s-2.5 -55.167 -2.5 -108.5s0.833008 -89.5 2.5 -108.5s6 -31.5 13 -37.5s20.167 -9 39.5 -9s32.5 3 39.5 9zM108 610v4l44 117h105v-4l-64 -117h-85zM254 610v4l45 117h105v-4l-65 -117h-85z" />
    <glyph glyph-name="OE" unicode="&#x152;" horiz-adv-x="715" 
d="M105 30c-29.333 20 -47.667 51.834 -55 95.501s-11 116.5 -11 218.5s3.66699 174.833 11 218.5s25.666 75.5 54.999 95.5s78.666 30 147.999 30h426v-121h-177c-22 0 -40.667 1.66699 -56 5c12 -34.667 19 -89.334 21 -164.001h186v-122h-186
c-1.33301 -78 -8.33301 -135 -21 -171c18.667 4 37.334 6 56.001 6h177v-121h-426c-69.333 0 -118.666 10 -147.999 30zM306.999 131.501c9.33301 7 15.333 24.332 18 51.999s4 81.167 4 160.5c0 78.667 -1.33301 131.834 -4 159.501s-8.66699 45.167 -18 52.5
s-27.333 11 -54 11s-44.667 -3.5 -54 -10.5s-15.333 -24.333 -18 -52s-4 -81.167 -4 -160.5s1.33301 -132.833 4 -160.5s8.66699 -45 18 -52s27.333 -10.5 54 -10.5s44.667 3.5 54 10.5z" />
    <glyph glyph-name="oe" unicode="&#x153;" horiz-adv-x="665" 
d="M630 215l-227 -0.00195312c0 -38 1.66699 -64.333 5 -79s10.833 -24.334 22.5 -29.001s33.167 -7 64.5 -7c32.667 0 73.667 2 123 6v-99c-18 -4.66699 -41.167 -8.33398 -69.5 -11.001s-55.833 -4 -82.5 -4c-56 0 -97.667 10.667 -125 32
c-13.333 -11.333 -29.833 -19.5 -49.5 -24.5s-44.167 -7.5 -73.5 -7.5c-57.333 0 -98.666 7.33301 -123.999 22s-41.666 39.334 -48.999 74.001s-11 90.334 -11 167.001s3.66699 132.334 11 167.001s23.666 59.334 48.999 74.001s66.666 22 123.999 22c56 0 97 -11 123 -33
c26 22 65.333 33 118 33c54.667 0 94 -8.5 118 -25.5s38.833 -42.5 44.5 -76.5s8.5 -88 8.5 -162v-39zM421.5 403.998c-7 -4.66699 -11.832 -14.334 -14.499 -29.001s-4 -39 -4 -73h105c0 34 -1.33301 58.333 -4 73s-7.33398 24.334 -14.001 29.001s-17.667 7 -33 7
c-16.667 0 -28.5 -2.33301 -35.5 -7zM257.501 108.998c7 6 11.333 18.5 13 37.5s2.5 55.167 2.5 108.5s-0.833008 89.5 -2.5 108.5s-6 31.333 -13 37s-20.167 8.5 -39.5 8.5s-32.5 -2.83301 -39.5 -8.5s-11.333 -18 -13 -37s-2.5 -55.167 -2.5 -108.5
s0.833008 -89.5 2.5 -108.5s6 -31.5 13 -37.5s20.167 -9 39.5 -9s32.5 3 39.5 9z" />
    <glyph glyph-name="Racute" unicode="&#x154;" horiz-adv-x="494" 
d="M331 0l-67 240.001h-74v-240h-138v688h232c49.333 0 86.5 -8.33301 111.5 -25s41.833 -40.667 50.5 -72s13 -73.333 13 -126c0 -50 -4.5 -91.333 -13.5 -124s-27.167 -57.334 -54.5 -74.001l83 -267h-143zM298 366.501c9.33301 5 15.5 14.332 18.5 27.999
s4.5 36.834 4.5 69.501c0 32 -1.5 54.667 -4.5 68s-9.16699 22.5 -18.5 27.5s-25 7.5 -47 7.5h-61v-208h61c22 0 37.667 2.5 47 7.5zM191 742v5l53 141h128v-5l-79 -141h-102z" />
    <glyph glyph-name="racute" unicode="&#x155;" horiz-adv-x="312" 
d="M46 510h122l4 -84h8c10 34.667 24.333 58.667 43 72s43.667 20 75 20v-135c-30 0 -53.833 -4.33301 -71.5 -13s-30.667 -24 -39 -46s-12.5 -52.667 -12.5 -92v-232h-129v510zM100 597v5l53 141h128v-5l-79 -141h-102z" />
    <glyph glyph-name="Rcommaaccent" unicode="&#x156;" horiz-adv-x="494" 
d="M331 0l-67 240.001h-74v-240h-138v688h232c49.333 0 86.5 -8.33301 111.5 -25s41.833 -40.667 50.5 -72s13 -73.333 13 -126c0 -50 -4.5 -91.333 -13.5 -124s-27.167 -57.334 -54.5 -74.001l83 -267h-143zM298 366.501c9.33301 5 15.5 14.332 18.5 27.999
s4.5 36.834 4.5 69.501c0 32 -1.5 54.667 -4.5 68s-9.16699 22.5 -18.5 27.5s-25 7.5 -47 7.5h-61v-208h61c22 0 37.667 2.5 47 7.5zM222.5 -222.5c7 6.33301 10.5 18.833 10.5 37.5v14h-50v109h133v-72c0 -44 -3 -76.5 -9 -97.5s-18.5 -35.833 -37.5 -44.5
s-49.167 -13 -90.5 -13v57c22 0 36.5 3.16699 43.5 9.5z" />
    <glyph glyph-name="rcommaaccent" unicode="&#x157;" horiz-adv-x="312" 
d="M46 510h122l4 -84h8c10 34.667 24.333 58.667 43 72s43.667 20 75 20v-135c-30 0 -53.833 -4.33301 -71.5 -13s-30.667 -24 -39 -46s-12.5 -52.667 -12.5 -92v-232h-129v510zM86.5 -222.5c7 6.33301 10.5 18.833 10.5 37.5v14h-50v109h133v-72c0 -44 -3 -76.5 -9 -97.5
s-18.5 -35.833 -37.5 -44.5s-49.167 -13 -90.5 -13v57c22 0 36.5 3.16699 43.5 9.5z" />
    <glyph glyph-name="Rcaron" unicode="&#x158;" horiz-adv-x="494" 
d="M331 0l-67 240.001h-74v-240h-138v688h232c49.333 0 86.5 -8.33301 111.5 -25s41.833 -40.667 50.5 -72s13 -73.333 13 -126c0 -50 -4.5 -91.333 -13.5 -124s-27.167 -57.334 -54.5 -74.001l83 -267h-143zM298 366.501c9.33301 5 15.5 14.332 18.5 27.999
s4.5 36.834 4.5 69.501c0 32 -1.5 54.667 -4.5 68s-9.16699 22.5 -18.5 27.5s-25 7.5 -47 7.5h-61v-208h61c22 0 37.667 2.5 47 7.5zM183 756l-75 124v8h88l51 -71l52 71h88v-8l-76 -124h-128z" />
    <glyph glyph-name="rcaron" unicode="&#x159;" horiz-adv-x="312" 
d="M46 510h122l4 -84h8c10 34.667 24.333 58.667 43 72s43.667 20 75 20v-135c-30 0 -53.833 -4.33301 -71.5 -13s-30.667 -24 -39 -46s-12.5 -52.667 -12.5 -92v-232h-129v510zM93 611l-75 124v8h88l51 -71l52 71h88v-8l-76 -124h-128z" />
    <glyph glyph-name="Sacute" unicode="&#x15a;" horiz-adv-x="443" 
d="M129.5 -3.5c-33 3 -62.165 7.16699 -87.498 12.5v112c68 -5.33301 115 -8 141 -8c23.333 0 41 1.33301 53 4s21 7.33398 27 14.001c5.33301 5.33301 8.83301 12.833 10.5 22.5s2.5 23.5 2.5 41.5c0 24.667 -1.33301 42.167 -4 52.5s-8.16699 18 -16.5 23
s-22.833 9.5 -43.5 13.5l-94 17c-33.333 6 -56.333 24.333 -69 55s-19 75 -19 133c0 56.667 8.16699 100 24.5 130s38.833 50.333 67.5 61s65 16 109 16c30.667 0 60.167 -2 88.5 -6s51.5 -8 69.5 -12v-112c-36 6 -76.333 9 -121 9c-24 0 -42.5 -1 -55.5 -3
s-22.5 -5.66699 -28.5 -11c-7.33301 -5.33301 -12 -13 -14 -23s-3 -24.667 -3 -44c0 -20.667 1.16699 -35.667 3.5 -45s6.5 -16 12.5 -20s16.333 -7.33301 31 -10l88 -16c23.333 -3.33301 43.166 -10.5 59.499 -21.5s29.166 -29.167 38.499 -54.5
c9.33301 -26.667 14 -64.334 14 -113.001c0 -63.333 -7.66699 -111 -23 -143s-36.5 -53.167 -63.5 -63.5s-62.5 -15.5 -106.5 -15.5c-28 0 -58.5 1.5 -91.5 4.5zM166.002 742v5l53 141h128v-5l-79 -141h-102z" />
    <glyph glyph-name="sacute" unicode="&#x15b;" horiz-adv-x="371" 
d="M109.5 -3.5c-28.333 3 -52.502 6.83789 -72.502 11.5049v99c44 -4.66699 82 -7 114 -7c20 0 34.833 1.16699 44.5 3.5s16.334 6.83301 20.001 13.5s5.5 17 5.5 31c0 15.333 -0.833008 26.166 -2.5 32.499s-5 10.666 -10 12.999s-13.833 4.5 -26.5 6.5l-84 14
c-26.667 4 -45.5 17.167 -56.5 39.5s-16.5 58.833 -16.5 109.5c0 57.333 14 97.5 42 120.5s69.667 34.5 125 34.5c22 0 45.333 -1.5 70 -4.5s44.667 -6.83301 60 -11.5v-100c-42.667 5.33301 -78 8 -106 8c-25.333 0 -42.166 -2.83301 -50.499 -8.5
s-12.5 -17.834 -12.5 -36.501c0 -14.667 0.666992 -25 2 -31s4.16602 -10.167 8.49902 -12.5s11.833 -4.16602 22.5 -5.49902l73 -11c18.667 -3.33301 34 -8.83301 46 -16.5s21.833 -21.834 29.5 -42.501s11.5 -50.334 11.5 -89.001c0 -62.667 -13 -105.834 -39 -129.501
s-66 -35.5 -120 -35.5c-23.333 0 -49.166 1.5 -77.499 4.5zM128.998 597.005v5l53 141h128v-5l-79 -141h-102z" />
    <glyph glyph-name="Scircumflex" unicode="&#x15c;" horiz-adv-x="443" 
d="M129.5 -3.5c-33 3 -62.165 7.16699 -87.498 12.5v112c68 -5.33301 115 -8 141 -8c23.333 0 41 1.33301 53 4s21 7.33398 27 14.001c5.33301 5.33301 8.83301 12.833 10.5 22.5s2.5 23.5 2.5 41.5c0 24.667 -1.33301 42.167 -4 52.5s-8.16699 18 -16.5 23
s-22.833 9.5 -43.5 13.5l-94 17c-33.333 6 -56.333 24.333 -69 55s-19 75 -19 133c0 56.667 8.16699 100 24.5 130s38.833 50.333 67.5 61s65 16 109 16c30.667 0 60.167 -2 88.5 -6s51.5 -8 69.5 -12v-112c-36 6 -76.333 9 -121 9c-24 0 -42.5 -1 -55.5 -3
s-22.5 -5.66699 -28.5 -11c-7.33301 -5.33301 -12 -13 -14 -23s-3 -24.667 -3 -44c0 -20.667 1.16699 -35.667 3.5 -45s6.5 -16 12.5 -20s16.333 -7.33301 31 -10l88 -16c23.333 -3.33301 43.166 -10.5 59.499 -21.5s29.166 -29.167 38.499 -54.5
c9.33301 -26.667 14 -64.334 14 -113.001c0 -63.333 -7.66699 -111 -23 -143s-36.5 -53.167 -63.5 -63.5s-62.5 -15.5 -106.5 -15.5c-28 0 -58.5 1.5 -91.5 4.5zM82.002 757v8l75 123h129l76 -123v-8h-89l-52 71l-51 -71h-88z" />
    <glyph glyph-name="scircumflex" unicode="&#x15d;" horiz-adv-x="371" 
d="M109.5 -3.5c-28.333 3 -52.502 6.83789 -72.502 11.5049v99c44 -4.66699 82 -7 114 -7c20 0 34.833 1.16699 44.5 3.5s16.334 6.83301 20.001 13.5s5.5 17 5.5 31c0 15.333 -0.833008 26.166 -2.5 32.499s-5 10.666 -10 12.999s-13.833 4.5 -26.5 6.5l-84 14
c-26.667 4 -45.5 17.167 -56.5 39.5s-16.5 58.833 -16.5 109.5c0 57.333 14 97.5 42 120.5s69.667 34.5 125 34.5c22 0 45.333 -1.5 70 -4.5s44.667 -6.83301 60 -11.5v-100c-42.667 5.33301 -78 8 -106 8c-25.333 0 -42.166 -2.83301 -50.499 -8.5
s-12.5 -17.834 -12.5 -36.501c0 -14.667 0.666992 -25 2 -31s4.16602 -10.167 8.49902 -12.5s11.833 -4.16602 22.5 -5.49902l73 -11c18.667 -3.33301 34 -8.83301 46 -16.5s21.833 -21.834 29.5 -42.501s11.5 -50.334 11.5 -89.001c0 -62.667 -13 -105.834 -39 -129.501
s-66 -35.5 -120 -35.5c-23.333 0 -49.166 1.5 -77.499 4.5zM45.998 612.005v8l75 123h129l76 -123v-8h-89l-52 71l-51 -71h-88z" />
    <glyph glyph-name="Scedilla" unicode="&#x15e;" horiz-adv-x="443" 
d="M396.5 84c-11.667 -31.333 -28.3311 -53.5 -49.998 -66.5s-49.167 -20.833 -82.5 -23.5l-33 -183h-113v5l59 177c-56.667 3.33301 -101.667 8.66602 -135 15.999v112c68 -5.33301 115 -8 141 -8c23.333 0 41 1.33301 53 4s21 7.33398 27 14.001
c5.33301 5.33301 8.83301 12.833 10.5 22.5s2.5 23.5 2.5 41.5c0 24.667 -1.33301 42.167 -4 52.5s-8.16699 18 -16.5 23s-22.833 9.5 -43.5 13.5l-94 17c-33.333 6 -56.333 24.333 -69 55s-19 75 -19 133c0 56.667 8.16699 100 24.5 130s38.833 50.333 67.5 61
s65 16 109 16c30.667 0 60.167 -2 88.5 -6s51.5 -8 69.5 -12v-112c-36 6 -76.333 9 -121 9c-24 0 -42.5 -1 -55.5 -3s-22.5 -5.66699 -28.5 -11c-7.33301 -5.33301 -12 -13 -14 -23s-3 -24.667 -3 -44c0 -20.667 1.16699 -35.667 3.5 -45s6.5 -16 12.5 -20
s16.333 -7.33301 31 -10l88 -16c23.333 -3.33301 43.166 -10.5 59.499 -21.5s29.166 -29.167 38.499 -54.5c9.33301 -26.667 14 -64.334 14 -113.001c0 -55.333 -5.83301 -98.666 -17.5 -129.999z" />
    <glyph glyph-name="scedilla" unicode="&#x15f;" horiz-adv-x="371" 
d="M316.5 39c-19.667 -24.667 -49.167 -39.6631 -88.5 -44.9961l-33 -183h-113v5l59 178c-34.667 2 -69.334 6.66699 -104.001 14v99c44 -4.66699 82 -7 114 -7c20 0 34.833 1.16699 44.5 3.5s16.334 6.83301 20.001 13.5s5.5 17 5.5 31
c0 15.333 -0.833008 26.166 -2.5 32.499s-5 10.666 -10 12.999s-13.833 4.5 -26.5 6.5l-84 14c-26.667 4 -45.5 17.167 -56.5 39.5s-16.5 58.833 -16.5 109.5c0 57.333 14 97.5 42 120.5s69.667 34.5 125 34.5c22 0 45.333 -1.5 70 -4.5s44.667 -6.83301 60 -11.5v-100
c-42.667 5.33301 -78 8 -106 8c-25.333 0 -42.166 -2.83301 -50.499 -8.5s-12.5 -17.834 -12.5 -36.501c0 -14.667 0.666992 -25 2 -31s4.16602 -10.167 8.49902 -12.5s11.833 -4.16602 22.5 -5.49902l73 -11c18.667 -3.33301 34 -8.83301 46 -16.5
s21.833 -21.834 29.5 -42.501s11.5 -50.334 11.5 -89.001c0 -54 -9.83301 -93.333 -29.5 -118z" />
    <glyph glyph-name="Scaron" unicode="&#x160;" horiz-adv-x="443" 
d="M129.5 -3.5c-33 3 -62.165 7.16699 -87.498 12.5v112c68 -5.33301 115 -8 141 -8c23.333 0 41 1.33301 53 4s21 7.33398 27 14.001c5.33301 5.33301 8.83301 12.833 10.5 22.5s2.5 23.5 2.5 41.5c0 24.667 -1.33301 42.167 -4 52.5s-8.16699 18 -16.5 23
s-22.833 9.5 -43.5 13.5l-94 17c-33.333 6 -56.333 24.333 -69 55s-19 75 -19 133c0 56.667 8.16699 100 24.5 130s38.833 50.333 67.5 61s65 16 109 16c30.667 0 60.167 -2 88.5 -6s51.5 -8 69.5 -12v-112c-36 6 -76.333 9 -121 9c-24 0 -42.5 -1 -55.5 -3
s-22.5 -5.66699 -28.5 -11c-7.33301 -5.33301 -12 -13 -14 -23s-3 -24.667 -3 -44c0 -20.667 1.16699 -35.667 3.5 -45s6.5 -16 12.5 -20s16.333 -7.33301 31 -10l88 -16c23.333 -3.33301 43.166 -10.5 59.499 -21.5s29.166 -29.167 38.499 -54.5
c9.33301 -26.667 14 -64.334 14 -113.001c0 -63.333 -7.66699 -111 -23 -143s-36.5 -53.167 -63.5 -63.5s-62.5 -15.5 -106.5 -15.5c-28 0 -58.5 1.5 -91.5 4.5zM161.002 749l-75 124v8h88l51 -71l52 71h88v-8l-76 -124h-128z" />
    <glyph glyph-name="scaron" unicode="&#x161;" horiz-adv-x="371" 
d="M109.5 -3.5c-28.333 3 -52.502 6.83789 -72.502 11.5049v99c44 -4.66699 82 -7 114 -7c20 0 34.833 1.16699 44.5 3.5s16.334 6.83301 20.001 13.5s5.5 17 5.5 31c0 15.333 -0.833008 26.166 -2.5 32.499s-5 10.666 -10 12.999s-13.833 4.5 -26.5 6.5l-84 14
c-26.667 4 -45.5 17.167 -56.5 39.5s-16.5 58.833 -16.5 109.5c0 57.333 14 97.5 42 120.5s69.667 34.5 125 34.5c22 0 45.333 -1.5 70 -4.5s44.667 -6.83301 60 -11.5v-100c-42.667 5.33301 -78 8 -106 8c-25.333 0 -42.166 -2.83301 -50.499 -8.5
s-12.5 -17.834 -12.5 -36.501c0 -14.667 0.666992 -25 2 -31s4.16602 -10.167 8.49902 -12.5s11.833 -4.16602 22.5 -5.49902l73 -11c18.667 -3.33301 34 -8.83301 46 -16.5s21.833 -21.834 29.5 -42.501s11.5 -50.334 11.5 -89.001c0 -62.667 -13 -105.834 -39 -129.501
s-66 -35.5 -120 -35.5c-23.333 0 -49.166 1.5 -77.499 4.5zM124.998 611.005l-75 124v8h88l51 -71l52 71h88v-8l-76 -124h-128z" />
    <glyph glyph-name="uni0162" unicode="&#x162;" horiz-adv-x="418" 
d="M10 688h398v-125h-130v-563h-26l-34 -189h-113v5l61 184h-26v563h-130v125z" />
    <glyph glyph-name="uni0163" unicode="&#x163;" horiz-adv-x="302" 
d="M207 510h81v-108h-81v-402h-22l-34 -189h-113v5l61 184h-21v402h-63v108h63v148h129v-148z" />
    <glyph glyph-name="Tcaron" unicode="&#x164;" horiz-adv-x="418" 
d="M140 0v563h-130v125h398v-125h-130v-563h-138zM145 756l-75 124v8h88l51 -71l52 71h88v-8l-76 -124h-128z" />
    <glyph glyph-name="tcaron" unicode="&#x165;" horiz-adv-x="404" 
d="M78 0v402h-63v108h63v148h129v-148h81v-108h-81v-402h-129zM317 428l16 206v54h121v-54l-44 -206h-93z" />
    <glyph glyph-name="Tbar" unicode="&#x166;" horiz-adv-x="418" 
d="M408 563h-130v-164h109v-108h-109v-291h-138v291h-109v108h109v164h-130v125h398v-125z" />
    <glyph glyph-name="tbar" unicode="&#x167;" horiz-adv-x="302" 
d="M288 402h-81v-94h80v-107h-80v-201h-129v201h-62v107h62v94h-63v108h63v148h129v-148h81v-108z" />
    <glyph glyph-name="Utilde" unicode="&#x168;" 
d="M458 688l-0.000976562 -383c0 -90.667 -3.83301 -156.5 -11.5 -197.5s-25.667 -70.5 -54 -88.5s-74.833 -27 -139.5 -27s-111.167 9 -139.5 27s-46.333 47.5 -54 88.5s-11.5 106.833 -11.5 197.5v383h137v-429c0 -48.667 1.16699 -82.167 3.5 -100.5s8 -30.5 17 -36.5
s24.833 -9 47.5 -9s38.334 3 47.001 9s14.167 18 16.5 36s3.5 51.667 3.5 101v429h138zM403.999 812.5c-2.66699 -17 -9.1709 -30.3311 -19.5039 -39.998s-27.166 -14.5 -50.499 -14.5s-53 5.33301 -89 16c-4 1.33301 -12.167 3.66602 -24.5 6.99902s-22.166 5 -29.499 5
c-8.66699 0 -14 -2.66699 -16 -8s-3 -16 -3 -32h-74c0 33.333 1.33301 58.666 4 75.999s9.33398 30.833 20.001 40.5s27.667 14.5 51 14.5c22 0 51.333 -5.66699 88 -17c26.667 -7.33301 45 -11 55 -11c8.66699 0 13.834 2.5 15.501 7.5s2.5 15.5 2.5 31.5h74
c0 -33.333 -1.33301 -58.5 -4 -75.5z" />
    <glyph glyph-name="utilde" unicode="&#x169;" horiz-adv-x="450" 
d="M279 61h-8c-16 -46 -53.333 -69 -112 -69c-32.667 0 -57.167 6.33301 -73.5 19s-27.333 31.834 -33 57.501s-8.5 61.167 -8.5 106.5v335h129v-276c0 -42.667 1 -72 3 -88s6.16699 -26.167 12.5 -30.5s17.833 -6.5 34.5 -6.5s28.5 3.33301 35.5 10s11.5 19.167 13.5 37.5
s3 49.166 3 92.499v261h129v-510h-121zM376 667.5c-2.66699 -17 -9.1709 -30.3311 -19.5039 -39.998s-27.166 -14.5 -50.499 -14.5s-53 5.33301 -89 16c-4 1.33301 -12.167 3.66602 -24.5 6.99902s-22.166 5 -29.499 5c-8.66699 0 -14 -2.66699 -16 -8s-3 -16 -3 -32h-74
c0 33.333 1.33301 58.666 4 75.999s9.33398 30.833 20.001 40.5s27.667 14.5 51 14.5c22 0 51.333 -5.66699 88 -17c26.667 -7.33301 45 -11 55 -11c8.66699 0 13.834 2.5 15.501 7.5s2.5 15.5 2.5 31.5h74c0 -33.333 -1.33301 -58.5 -4 -75.5z" />
    <glyph glyph-name="Umacron" unicode="&#x16a;" 
d="M458 688l-0.000976562 -383c0 -90.667 -3.83301 -156.5 -11.5 -197.5s-25.667 -70.5 -54 -88.5s-74.833 -27 -139.5 -27s-111.167 9 -139.5 27s-46.333 47.5 -54 88.5s-11.5 106.833 -11.5 197.5v383h137v-429c0 -48.667 1.16699 -82.167 3.5 -100.5s8 -30.5 17 -36.5
s24.833 -9 47.5 -9s38.334 3 47.001 9s14.167 18 16.5 36s3.5 51.667 3.5 101v429h138zM151.999 772v116h202v-116h-202z" />
    <glyph glyph-name="umacron" unicode="&#x16b;" horiz-adv-x="450" 
d="M279 61h-8c-16 -46 -53.333 -69 -112 -69c-32.667 0 -57.167 6.33301 -73.5 19s-27.333 31.834 -33 57.501s-8.5 61.167 -8.5 106.5v335h129v-276c0 -42.667 1 -72 3 -88s6.16699 -26.167 12.5 -30.5s17.833 -6.5 34.5 -6.5s28.5 3.33301 35.5 10s11.5 19.167 13.5 37.5
s3 49.166 3 92.499v261h129v-510h-121zM124 627v116h202v-116h-202z" />
    <glyph glyph-name="Ubreve" unicode="&#x16c;" 
d="M458 688l-0.000976562 -383c0 -90.667 -3.83301 -156.5 -11.5 -197.5s-25.667 -70.5 -54 -88.5s-74.833 -27 -139.5 -27s-111.167 9 -139.5 27s-46.333 47.5 -54 88.5s-11.5 106.833 -11.5 197.5v383h137v-429c0 -48.667 1.16699 -82.167 3.5 -100.5s8 -30.5 17 -36.5
s24.833 -9 47.5 -9s38.334 3 47.001 9s14.167 18 16.5 36s3.5 51.667 3.5 101v429h138zM373.499 814c-6.33301 -19.333 -18.999 -34.5 -37.999 -45.5s-47.167 -16.5 -84.5 -16.5c-36.667 0 -64.334 5.5 -83.001 16.5s-31 26.167 -37 45.5s-9 44 -9 74h79
c0 -15.333 0.833008 -26.833 2.5 -34.5s6 -14 13 -19s18.5 -7.5 34.5 -7.5c23.333 0 38 4.83301 44 14.5s9 25.167 9 46.5h79c0 -30 -3.16699 -54.667 -9.5 -74z" />
    <glyph glyph-name="ubreve" unicode="&#x16d;" horiz-adv-x="450" 
d="M279 61h-8c-16 -46 -53.333 -69 -112 -69c-32.667 0 -57.167 6.33301 -73.5 19s-27.333 31.834 -33 57.501s-8.5 61.167 -8.5 106.5v335h129v-276c0 -42.667 1 -72 3 -88s6.16699 -26.167 12.5 -30.5s17.833 -6.5 34.5 -6.5s28.5 3.33301 35.5 10s11.5 19.167 13.5 37.5
s3 49.166 3 92.499v261h129v-510h-121zM345.5 669c-6.33301 -19.333 -18.999 -34.5 -37.999 -45.5s-47.167 -16.5 -84.5 -16.5c-36.667 0 -64.334 5.5 -83.001 16.5s-31 26.167 -37 45.5s-9 44 -9 74h79c0 -15.333 0.833008 -26.833 2.5 -34.5s6 -14 13 -19
s18.5 -7.5 34.5 -7.5c23.333 0 38 4.83301 44 14.5s9 25.167 9 46.5h79c0 -30 -3.16699 -54.667 -9.5 -74z" />
    <glyph glyph-name="Uring" unicode="&#x16e;" 
d="M458 688l-0.000976562 -383c0 -90.667 -3.83301 -156.5 -11.5 -197.5s-25.667 -70.5 -54 -88.5s-74.833 -27 -139.5 -27s-111.167 9 -139.5 27s-46.333 47.5 -54 88.5s-11.5 106.833 -11.5 197.5v383h137v-429c0 -48.667 1.16699 -82.167 3.5 -100.5s8 -30.5 17 -36.5
s24.833 -9 47.5 -9s38.334 3 47.001 9s14.167 18 16.5 36s3.5 51.667 3.5 101v429h138zM166.499 733.5c-17.667 7.66699 -28.834 18.667 -33.501 33s-7 35.833 -7 64.5c0 29.333 2.33301 51.166 7 65.499s15.834 25.333 33.501 33s46.167 11.5 85.5 11.5
c40 0 68.833 -3.83301 86.5 -11.5s28.834 -18.667 33.501 -33s7 -36.166 7 -65.499s-2.33301 -51 -7 -65s-15.834 -24.833 -33.501 -32.5s-46.5 -11.5 -86.5 -11.5c-39.333 0 -67.833 3.83301 -85.5 11.5zM284.499 789.5c6.33301 2.33301 10.333 6.33301 12 12
s2.5 15.5 2.5 29.5s-0.833008 24 -2.5 30s-5.66699 10.333 -12 13s-17.166 4 -32.499 4c-14.667 0 -25 -1.33301 -31 -4s-9.83301 -7 -11.5 -13s-2.5 -16 -2.5 -30s0.833008 -23.833 2.5 -29.5s5.5 -9.66699 11.5 -12s16.333 -3.5 31 -3.5
c15.333 0 26.166 1.16699 32.499 3.5z" />
    <glyph glyph-name="uring" unicode="&#x16f;" horiz-adv-x="450" 
d="M279 61h-8c-16 -46 -53.333 -69 -112 -69c-32.667 0 -57.167 6.33301 -73.5 19s-27.333 31.834 -33 57.501s-8.5 61.167 -8.5 106.5v335h129v-276c0 -42.667 1 -72 3 -88s6.16699 -26.167 12.5 -30.5s17.833 -6.5 34.5 -6.5s28.5 3.33301 35.5 10s11.5 19.167 13.5 37.5
s3 49.166 3 92.499v261h129v-510h-121zM138.5 618.5c-17.667 7.66699 -28.834 18.667 -33.501 33s-7 35.833 -7 64.5c0 29.333 2.33301 51.166 7 65.499s15.834 25.333 33.501 33s46.167 11.5 85.5 11.5c40 0 68.833 -3.83301 86.5 -11.5s28.834 -18.667 33.501 -33
s7 -36.166 7 -65.499s-2.33301 -51 -7 -65s-15.834 -24.833 -33.501 -32.5s-46.5 -11.5 -86.5 -11.5c-39.333 0 -67.833 3.83301 -85.5 11.5zM256.5 674.5c6.33301 2.33301 10.333 6.33301 12 12s2.5 15.5 2.5 29.5s-0.833008 24 -2.5 30s-5.66699 10.333 -12 13
s-17.166 4 -32.499 4c-14.667 0 -25 -1.33301 -31 -4s-9.83301 -7 -11.5 -13s-2.5 -16 -2.5 -30s0.833008 -23.833 2.5 -29.5s5.5 -9.66699 11.5 -12s16.333 -3.5 31 -3.5c15.333 0 26.166 1.16699 32.499 3.5z" />
    <glyph glyph-name="Uhungarumlaut" unicode="&#x170;" 
d="M458 688l-0.000976562 -383c0 -90.667 -3.83301 -156.5 -11.5 -197.5s-25.667 -70.5 -54 -88.5s-74.833 -27 -139.5 -27s-111.167 9 -139.5 27s-46.333 47.5 -54 88.5s-11.5 106.833 -11.5 197.5v383h137v-429c0 -48.667 1.16699 -82.167 3.5 -100.5s8 -30.5 17 -36.5
s24.833 -9 47.5 -9s38.334 3 47.001 9s14.167 18 16.5 36s3.5 51.667 3.5 101v429h138zM139.999 755v4l44 117h105v-4l-64 -117h-85zM285.999 755v4l45 117h105v-4l-65 -117h-85z" />
    <glyph glyph-name="uhungarumlaut" unicode="&#x171;" horiz-adv-x="450" 
d="M279 61h-8c-16 -46 -53.333 -69 -112 -69c-32.667 0 -57.167 6.33301 -73.5 19s-27.333 31.834 -33 57.501s-8.5 61.167 -8.5 106.5v335h129v-276c0 -42.667 1 -72 3 -88s6.16699 -26.167 12.5 -30.5s17.833 -6.5 34.5 -6.5s28.5 3.33301 35.5 10s11.5 19.167 13.5 37.5
s3 49.166 3 92.499v261h129v-510h-121zM115 610v4l44 117h105v-4l-64 -117h-85zM261 610v4l45 117h105v-4l-65 -117h-85z" />
    <glyph glyph-name="Uogonek" unicode="&#x172;" 
d="M458 688l-0.00195312 -383c0 -60.667 -1.16699 -108 -3.5 -142s-8 -62.833 -17 -86.5s-22.833 -41.834 -41.5 -54.501c-22 -15.333 -39 -31.666 -51 -48.999s-18 -37 -18 -59c0 -12 2.83301 -21.333 8.5 -28s15.834 -10 30.501 -10l12 1v-69
c-14 -2.66699 -31.333 -4 -52 -4c-36 0 -61.833 8 -77.5 24s-23.5 36.667 -23.5 62c0 32.667 15.333 66.667 46 102h-18c-64.667 0 -111.167 9 -139.5 27s-46.333 47.5 -54 88.5s-11.5 106.833 -11.5 197.5v383h137v-429c0 -48.667 1.16699 -82.167 3.5 -100.5
s8 -30.5 17 -36.5s24.833 -9 47.5 -9s38.334 3 47.001 9s14.167 18 16.5 36s3.5 51.667 3.5 101v429h138z" />
    <glyph glyph-name="uogonek" unicode="&#x173;" horiz-adv-x="450" 
d="M366.5 -39.5c-11.667 -16.333 -17.5 -32.834 -17.5 -49.501c0 -23.333 13 -35 39 -35l13 1v-69c-14 -2.66699 -31 -4 -51 -4c-36 0 -62 7.83301 -78 23.5s-24 35.5 -24 59.5c0 38.667 20 76.334 60 113.001h-25l-4 61h-8c-16 -46 -53.333 -69 -112 -69
c-32.667 0 -57.167 6.33301 -73.5 19s-27.333 31.834 -33 57.501s-8.5 61.167 -8.5 106.5v335h129v-276c0 -42.667 1 -72 3 -88s6.16699 -26.167 12.5 -30.5s17.833 -6.5 34.5 -6.5s28.5 3.33301 35.5 10s11.5 19.167 13.5 37.5s3 49.166 3 92.499v261h129v-510
c-13.333 -10 -25.833 -23.167 -37.5 -39.5z" />
    <glyph glyph-name="Wcircumflex" unicode="&#x174;" horiz-adv-x="756" 
d="M452 0l-71 479h-6l-70 -479h-189l-99 688h139l59 -539h7l78 539h162l79 -539h7l56 539h136l-100 -688h-188zM238 757v8l75 123h129l76 -123v-8h-89l-52 71l-51 -71h-88z" />
    <glyph glyph-name="wcircumflex" unicode="&#x175;" horiz-adv-x="644" 
d="M379 0l-52 280h-9l-51 -280h-161l-94 510h128l49 -353h8l65 353h125l66 -353h8l48 353h122l-93 -510h-159zM183 612v8l75 123h129l76 -123v-8h-89l-52 71l-51 -71h-88z" />
    <glyph glyph-name="Ycircumflex" unicode="&#x176;" horiz-adv-x="463" 
d="M163 0v238l-163 450h141l90 -297h9l87 297h136l-163 -450v-238h-137zM92 757v8l75 123h129l76 -123v-8h-89l-52 71l-51 -71h-88z" />
    <glyph glyph-name="ycircumflex" unicode="&#x177;" horiz-adv-x="450" 
d="M137 -200c-26.667 2 -48.335 4.33105 -65.002 6.99805v100c24.667 -0.666992 61.667 -1 111 -1c30.667 0 52.167 2.5 64.5 7.5s20 15 23 30s4.5 41.833 4.5 80.5v43h-7c-16 -44 -52.333 -66 -109 -66c-33.333 0 -58.166 6.83301 -74.499 20.5s-27.166 34 -32.499 61
s-8 65.5 -8 115.5v312h129v-268c0 -42.667 1 -72 3 -88s6.16699 -26.167 12.5 -30.5s17.833 -6.5 34.5 -6.5c17.333 0 29.333 3.33301 36 10s11 18.834 13 36.501s3 48.834 3 93.501v253h129v-450c0 -68.667 -3.66699 -120.5 -11 -155.5s-24.5 -61.667 -51.5 -80
s-69.833 -27.5 -128.5 -27.5c-24 0 -49.333 1 -76 3zM84.999 611.998v8l75 123h129l76 -123v-8h-89l-52 71l-51 -71h-88z" />
    <glyph glyph-name="Ydieresis" unicode="&#x178;" horiz-adv-x="463" 
d="M163 0v238l-163 450h141l90 -297h9l87 297h136l-163 -450v-238h-137zM93 779v103h111v-103h-111zM268 779v103h111v-103h-111z" />
    <glyph glyph-name="Zacute" unicode="&#x179;" horiz-adv-x="439" 
d="M31 0v114l221 453h-214v121h368v-113l-222 -454h224v-121h-377zM164 742v5l53 141h128v-5l-79 -141h-102z" />
    <glyph glyph-name="zacute" unicode="&#x17a;" horiz-adv-x="394" 
d="M32 0v101l178 301h-171v108h321v-101l-177 -301h179v-108h-330zM141 597v5l53 141h128v-5l-79 -141h-102z" />
    <glyph glyph-name="Zdotaccent" unicode="&#x17b;" horiz-adv-x="439" 
d="M31 0v114l221 453h-214v121h368v-113l-222 -454h224v-121h-377zM165 772v103h111v-103h-111z" />
    <glyph glyph-name="zdotaccent" unicode="&#x17c;" horiz-adv-x="394" 
d="M32 0v101l178 301h-171v108h321v-101l-177 -301h179v-108h-330zM143 627v103h111v-103h-111z" />
    <glyph glyph-name="Zcaron" unicode="&#x17d;" horiz-adv-x="438" 
d="M31 0v114l221 453h-214v121h368v-113l-222 -454h224v-121h-377zM163 750l-75 124v8h88l51 -71l52 71h88v-8l-76 -124h-128z" />
    <glyph glyph-name="zcaron" unicode="&#x17e;" horiz-adv-x="394" 
d="M32 0v101l178 301h-171v108h321v-101l-177 -301h179v-108h-330zM139 611l-75 124v8h88l51 -71l52 71h88v-8l-76 -124h-128z" />
    <glyph glyph-name="longs" unicode="&#x17f;" horiz-adv-x="296" 
d="M78 402l-62.999 -0.00292969v108h63v30c0 64.667 5.5 110.834 16.5 138.501s30.167 45.334 57.5 53.001s73.666 11.5 138.999 11.5v-96c-26.667 0 -45.5 -1.5 -56.5 -4.5s-18.333 -9.66699 -22 -20s-5.5 -28.166 -5.5 -53.499v-569h-129v402z" />
    <glyph glyph-name="uni018F" unicode="&#x18f;" horiz-adv-x="503" 
d="M384.5 664.5c32.333 -21 53.666 -55.5 63.999 -103.5s15.5 -120.333 15.5 -217c0 -104.667 -3.66699 -179.334 -11 -224.001s-25.666 -77.167 -54.999 -97.5s-78.333 -30.5 -147 -30.5s-117.5 10.167 -146.5 30.5s-47.167 52.833 -54.5 97.5s-11 119.334 -11 224.001v64
h287c-0.666992 52.667 -4 90.167 -10 112.5s-17 37 -33 44s-42.667 10.5 -80 10.5s-74 -2.33301 -110 -7v111c17.333 5.33301 38.833 9.5 64.5 12.5s51.167 4.5 76.5 4.5c68 0 118.167 -10.5 150.5 -31.5zM304.5 121.5c9.66699 5.66699 16.332 20 19.999 43
s5.83398 63.833 6.50098 122.5h-159c0.666992 -58.667 2.66699 -99.5 6 -122.5s9.83301 -37.333 19.5 -43s27.5 -8.5 53.5 -8.5s43.833 2.83301 53.5 8.5z" />
    <glyph glyph-name="florin" unicode="&#x192;" horiz-adv-x="413" 
d="M326.5 639c-11.667 -4.66699 -20.668 -15.333 -27.001 -32s-14.5 -48.667 -24.5 -96v-1h85l-23 -109h-85l-87 -407c-12.667 -60 -26.5 -102.667 -41.5 -128s-37.167 -41.833 -66.5 -49.5s-77.333 -11.5 -144 -11.5l21 96c26.667 0 45.667 1.5 57 4.5
s19.833 9.16699 25.5 18.5s10.834 25.333 15.501 48l92 429h-63l23 109h62v1c15.333 74 31 126.333 47 157s39 50.667 69 60s79 14 147 14l-20 -96c-30 0 -50.833 -2.33301 -62.5 -7z" />
    <glyph glyph-name="uni019D" unicode="&#x19d;" horiz-adv-x="523" 
d="M471 688v-688h-124l-160 377h-4v-370c0 -63.333 -5.16699 -108.833 -15.5 -136.5s-28.166 -45.667 -53.499 -54s-66 -12.5 -122 -12.5v98c18.667 0 32.167 1.66699 40.5 5s13.666 8.5 15.999 15.5s3.5 17.5 3.5 31.5v734h133l149 -348h5v348h132z" />
    <glyph glyph-name="Ohorn" unicode="&#x1a0;" 
d="M524 781l-0.00195312 -27.001c0 -29.333 -2.16699 -51.833 -6.5 -67.5s-13 -27.667 -26 -36s-33.167 -13.833 -60.5 -16.5c16 -24 26 -56.667 30 -98s6 -105.333 6 -192c0 -104 -3.66699 -178.5 -11 -223.5s-25.666 -77.667 -54.999 -98s-78.666 -30.5 -147.999 -30.5
s-118.666 10.167 -147.999 30.5s-47.666 53 -54.999 98s-11 119.5 -11 223.5c0 104.667 3.66699 179.334 11 224.001s25.666 77.167 54.999 97.5s78.666 30.5 147.999 30.5c39.333 0 70 -2.66699 92 -8h33c25.333 0 42 3.16699 50 9.5s12 18.833 12 37.5v46h84z
M306.998 123.999c9.33301 7.33301 15.333 25.333 18 54s4 84 4 166s-1.33301 137.333 -4 166s-8.66699 46.667 -18 54s-27.333 11 -54 11s-44.667 -3.66699 -54 -11s-15.333 -25.333 -18 -54s-4 -84 -4 -166s1.33301 -137.333 4 -166s8.66699 -46.667 18 -54
s27.333 -11 54 -11s44.667 3.66699 54 11z" />
    <glyph glyph-name="ohorn" unicode="&#x1a1;" horiz-adv-x="436" 
d="M462 603l-0.00195312 -26.998c0 -28 -2 -49.833 -6 -65.5s-11.833 -27.834 -23.5 -36.501s-29.5 -14.334 -53.5 -17.001c9.33301 -18.667 15.5 -43.334 18.5 -74.001s4.5 -73.334 4.5 -128.001c0 -76.667 -3.66699 -132.334 -11 -167.001
s-23.666 -59.334 -48.999 -74.001s-66.666 -22 -123.999 -22s-98.666 7.33301 -123.999 22s-41.666 39.334 -48.999 74.001s-11 90.334 -11 167.001s3.66699 132.334 11 167.001s23.666 59.334 48.999 74.001s66.666 22 123.999 22c38 0 67.333 -2.66699 88 -8h10
c25.333 0 42 3.16699 50 9.5s12 18.833 12 37.5v46h84zM257.498 109.002c7 6 11.333 18.5 13 37.5s2.5 55.167 2.5 108.5s-0.833008 89.5 -2.5 108.5s-6 31.5 -13 37.5s-20.167 9 -39.5 9s-32.5 -3 -39.5 -9s-11.333 -18.5 -13 -37.5s-2.5 -55.167 -2.5 -108.5
s0.833008 -89.5 2.5 -108.5s6 -31.5 13 -37.5s20.167 -9 39.5 -9s32.5 3 39.5 9z" />
    <glyph glyph-name="Uhorn" unicode="&#x1af;" 
d="M532 781l-0.000976562 -27c0 -39.333 -4.66699 -67.5 -14 -84.5s-29.333 -27.833 -60 -32.5v-332c0 -90.667 -3.83301 -156.5 -11.5 -197.5s-25.667 -70.5 -54 -88.5s-74.833 -27 -139.5 -27s-111.167 9 -139.5 27s-46.333 47.5 -54 88.5s-11.5 106.833 -11.5 197.5v383
h137v-429c0 -48.667 1.16699 -82.167 3.5 -100.5s8 -30.5 17 -36.5s24.833 -9 47.5 -9s38.334 3 47.001 9s14.167 18 16.5 36s3.5 51.667 3.5 101v429h66c25.333 0 42 3.16699 50 9.5s12 18.833 12 37.5v46h84z" />
    <glyph glyph-name="uhorn" unicode="&#x1b0;" horiz-adv-x="450" 
d="M476 603l-0.000976562 -27c0 -26.667 -1.66699 -47.5 -5 -62.5s-10.166 -27 -20.499 -36s-25.833 -15.167 -46.5 -18.5v-459h-121l-4 61h-8c-16 -46 -53.333 -69 -112 -69c-32.667 0 -57.167 6.33301 -73.5 19s-27.333 31.834 -33 57.501s-8.5 61.167 -8.5 106.5v335h129
v-276c0 -42.667 1 -72 3 -88s6.16699 -26.167 12.5 -30.5s17.833 -6.5 34.5 -6.5s28.5 3.33301 35.5 10s11.5 19.167 13.5 37.5s3 49.166 3 92.499v261h55c25.333 0 42 3.16699 50 9.5s12 18.833 12 37.5v46h84z" />
    <glyph glyph-name="uni01C4" unicode="&#x1c4;" horiz-adv-x="935" 
d="M52 688l186 0.00390625c70.667 0 121.167 -9.83301 151.5 -29.5s49.166 -51.334 56.499 -95.001s11 -116.834 11 -219.501s-3.66699 -175.834 -11 -219.501s-26.166 -75.334 -56.499 -95.001s-80.833 -29.5 -151.5 -29.5h-186v688zM236 121.004
c29.333 0 49.167 3.5 59.5 10.5s17 24.5 20 52.5s4.5 81.333 4.5 160c0 78 -1.66699 131.167 -5 159.5s-10 46 -20 53s-29.667 10.5 -59 10.5h-47v-446h47zM527.001 0.00390625v114l221 453h-214v121h368v-113l-222 -454h224v-121h-377zM650.001 756.004l-75 124v8h88
l51 -71l52 71h88v-8l-76 -124h-128z" />
    <glyph glyph-name="uni01C5" unicode="&#x1c5;" horiz-adv-x="890" 
d="M52 688l186 0.00390625c70.667 0 121.167 -9.83301 151.5 -29.5s49.166 -51.334 56.499 -95.001s11 -116.834 11 -219.501s-3.66699 -175.834 -11 -219.501s-26.166 -75.334 -56.499 -95.001s-80.833 -29.5 -151.5 -29.5h-186v688zM236 121.004
c29.333 0 49.167 3.5 59.5 10.5s17 24.5 20 52.5s4.5 81.333 4.5 160c0 78 -1.66699 131.167 -5 159.5s-10 46 -20 53s-29.667 10.5 -59 10.5h-47v-446h47zM528.001 0.00390625v101l178 301h-171v108h321v-101l-177 -301h179v-108h-330zM632.001 611.004l-75 124v8h88
l51 -71l52 71h88v-8l-76 -124h-128z" />
    <glyph glyph-name="uni01C6" unicode="&#x1c6;" horiz-adv-x="840" 
d="M85 14.5c-18 15 -31 41.168 -39 78.501s-12 91 -12 161c0 68.667 3.66699 121.667 11 159s20 64.166 38 80.499s43.667 24.5 77 24.5c26 0 47.667 -5 65 -15s30.333 -25.667 39 -47h7v287h129v-743h-122l-4 60h-8c-14 -45.333 -48.667 -68 -104 -68
c-33.333 0 -59 7.5 -77 22.5zM249.5 115.001c7 4.66699 12.166 13.667 15.499 27c4 19.333 6 57 6 113c0 54 -1.33301 88.333 -4 103c-2.66699 17.333 -7.66699 29 -15 35s-18.666 9 -33.999 9c-18 0 -30.5 -2.66699 -37.5 -8s-11.667 -17.5 -14 -36.5
s-3.5 -53.167 -3.5 -102.5s1.16699 -83.5 3.5 -102.5s7 -31.167 14 -36.5s19.5 -8 37.5 -8c14 0 24.5 2.33301 31.5 7zM477.999 0.000976562v101l178 301h-171v108h321v-101l-177 -301h179v-108h-330zM574.999 611.001l-75 124v8h88l51 -71l52 71h88v-8l-76 -124h-128z" />
    <glyph glyph-name="uni01C7" unicode="&#x1c7;" horiz-adv-x="675" 
d="M52 0v688h138v-563h174v-125h-312zM460 122c12.667 4.66699 20.667 14.999 24 30.999s5 46.333 5 91v444h138v-380c0 -106 -4.16699 -178.167 -12.5 -216.5s-27.333 -63 -57 -74s-85.5 -16.833 -167.5 -17.5v114c34 0.666992 57.333 3.33398 70 8.00098z" />
    <glyph glyph-name="uni01C8" unicode="&#x1c8;" horiz-adv-x="600" 
d="M52 0v688h138v-563h174v-125h-312zM424 621v122h131v-122h-131zM365 -98c18.667 0 32.333 1.66602 41 4.99902s14 8.33301 16 15s3 17.334 3 32.001v556h129v-503c0 -63.333 -5.16699 -108.833 -15.5 -136.5s-28 -45.667 -53 -54s-65.167 -12.5 -120.5 -12.5v98z" />
    <glyph glyph-name="uni01C9" unicode="&#x1c9;" horiz-adv-x="442" 
d="M46 0v743h129v-743h-129zM266 621v122h131v-122h-131zM207 -98c18.667 0 32.333 1.66602 41 4.99902s14 8.33301 16 15s3 17.334 3 32.001v556h129v-503c0 -63.333 -5.16699 -108.833 -15.5 -136.5s-28 -45.667 -53 -54s-65.167 -12.5 -120.5 -12.5v98z" />
    <glyph glyph-name="uni01CA" unicode="&#x1ca;" horiz-adv-x="819" 
d="M347 0l-160 377h-4v-377h-131v688h133l149 -348h5v348h132v-688h-124zM604 122c12.667 4.66699 20.667 14.999 24 30.999s5 46.333 5 91v444h138v-380c0 -106 -4.16699 -178.167 -12.5 -216.5s-27.333 -63 -57 -74s-85.5 -16.833 -167.5 -17.5v114
c34 0.666992 57.333 3.33398 70 8.00098z" />
    <glyph glyph-name="uni01CB" unicode="&#x1cb;" horiz-adv-x="744" 
d="M347 0l-160 377h-4v-377h-131v688h133l149 -348h5v348h132v-688h-124zM568 621v122h131v-122h-131zM509 -98c18.667 0 32.333 1.66602 41 4.99902s14 8.33301 16 15s3 17.334 3 32.001v556h129v-503c0 -63.333 -5.16699 -108.833 -15.5 -136.5s-28 -45.667 -53 -54
s-65.167 -12.5 -120.5 -12.5v98z" />
    <glyph glyph-name="uni01CC" unicode="&#x1cc;" horiz-adv-x="671" 
d="M277 276c0 42.667 -0.998047 72.001 -2.99805 88.001s-6 26.167 -12 30.5s-17.333 6.5 -34 6.5c-17.333 0 -29.5 -3.33301 -36.5 -10s-11.5 -19.167 -13.5 -37.5s-3 -49.166 -3 -92.499v-261h-129v510h122l4 -61h7c9.33301 25.333 23.666 43.166 42.999 53.499
s42.666 15.5 69.999 15.5c32 0 56.167 -6.33301 72.5 -19s27.333 -31.834 33 -57.501s8.5 -61.167 8.5 -106.5v-335h-129v276zM495.002 621.001v122h131v-122h-131zM436.002 -97.999c18.667 0 32.333 1.66602 41 4.99902s14 8.33301 16 15s3 17.334 3 32.001v556h129v-503
c0 -63.333 -5.16699 -108.833 -15.5 -136.5s-28 -45.667 -53 -54s-65.167 -12.5 -120.5 -12.5v98z" />
    <glyph glyph-name="uni01CD" unicode="&#x1cd;" horiz-adv-x="501" 
d="M353 0l-27 141h-154l-27 -141h-137l142 688h201l142 -688h-140zM252 558h-6l-54 -298h113zM187 756l-75 124v8h88l51 -71l52 71h88v-8l-76 -124h-128z" />
    <glyph glyph-name="uni01CE" unicode="&#x1ce;" horiz-adv-x="426" 
d="M52 29.5c-18 25 -26.999 64.1689 -26.999 117.502c0 39.333 4 70.166 12 92.499s21.5 38.666 40.5 48.999s45.5 15.5 79.5 15.5c24 0 56 -1.33301 96 -4v23c0 28 -2.16699 47.833 -6.5 59.5s-12.333 19.167 -24 22.5s-31.834 5 -60.501 5c-28 0 -65.333 -2.33301 -112 -7
v100c50 10 100.333 15 151 15c50 0 88 -6.66699 114 -20s43.667 -34.333 53 -63s14 -69.667 14 -123v-312h-123l-4 60h-7c-8.66699 -24.667 -22.667 -42.167 -42 -52.5s-41 -15.5 -65 -15.5c-41.333 0 -71 12.5 -89 37.5zM224.501 108.002
c7 2.66699 12.833 7.66602 17.5 14.999c7.33301 11.333 11 34.333 11 69v25h-60c-17.333 0 -28.833 -3.66699 -34.5 -11s-8.5 -23.333 -8.5 -48c0 -21.333 2.83301 -35.666 8.5 -42.999s18.5 -11 38.5 -11c11.333 0 20.5 1.33301 27.5 4zM149.001 611.001l-75 124v8h88
l51 -71l52 71h88v-8l-76 -124h-128z" />
    <glyph glyph-name="uni01CF" unicode="&#x1cf;" horiz-adv-x="243" 
d="M53 0v688h137v-688h-137zM58 756l-75 124v8h88l51 -71l52 71h88v-8l-76 -124h-128z" />
    <glyph glyph-name="uni01D0" unicode="&#x1d0;" horiz-adv-x="221" 
d="M46 0v510h129v-510h-129zM47 611l-75 124v8h88l51 -71l52 71h88v-8l-76 -124h-128z" />
    <glyph glyph-name="uni01D1" unicode="&#x1d1;" 
d="M105 22.5c-29.333 20.333 -47.666 53 -54.999 98s-11 119.5 -11 223.5c0 104.667 3.66699 179.334 11 224.001s25.666 77.167 54.999 97.5s78.666 30.5 147.999 30.5s118.666 -10.167 147.999 -30.5s47.666 -52.833 54.999 -97.5s11 -119.334 11 -224.001
c0 -104 -3.66699 -178.5 -11 -223.5s-25.666 -77.667 -54.999 -98s-78.666 -30.5 -147.999 -30.5s-118.666 10.167 -147.999 30.5zM307 124c9.33301 7.33301 15.333 25.333 18 54s4 84 4 166s-1.33301 137.333 -4 166s-8.66699 46.667 -18 54s-27.333 11 -54 11
s-44.667 -3.66699 -54 -11s-15.333 -25.333 -18 -54s-4 -84 -4 -166s1.33301 -137.333 4 -166s8.66699 -46.667 18 -54s27.333 -11 54 -11s44.667 3.66699 54 11zM189 756l-75 124v8h88l51 -71l52 71h88v-8l-76 -124h-128z" />
    <glyph glyph-name="uni01D2" unicode="&#x1d2;" horiz-adv-x="436" 
d="M94 14c-25.333 14.667 -41.666 39.334 -48.999 74.001s-11 90.334 -11 167.001s3.66699 132.334 11 167.001s23.666 59.334 48.999 74.001s66.666 22 123.999 22s98.666 -7.33301 123.999 -22s41.666 -39.334 48.999 -74.001s11 -90.334 11 -167.001
s-3.66699 -132.334 -11 -167.001s-23.666 -59.334 -48.999 -74.001s-66.666 -22 -123.999 -22s-98.666 7.33301 -123.999 22zM257.5 109c7 6 11.333 18.5 13 37.5s2.5 55.167 2.5 108.5s-0.833008 89.5 -2.5 108.5s-6 31.5 -13 37.5s-20.167 9 -39.5 9s-32.5 -3 -39.5 -9
s-11.333 -18.5 -13 -37.5s-2.5 -55.167 -2.5 -108.5s0.833008 -89.5 2.5 -108.5s6 -31.5 13 -37.5s20.167 -9 39.5 -9s32.5 3 39.5 9zM154 611l-75 124v8h88l51 -71l52 71h88v-8l-76 -124h-128z" />
    <glyph glyph-name="uni01D3" unicode="&#x1d3;" 
d="M458 688l-0.000976562 -383c0 -90.667 -3.83301 -156.5 -11.5 -197.5s-25.667 -70.5 -54 -88.5s-74.833 -27 -139.5 -27s-111.167 9 -139.5 27s-46.333 47.5 -54 88.5s-11.5 106.833 -11.5 197.5v383h137v-429c0 -48.667 1.16699 -82.167 3.5 -100.5s8 -30.5 17 -36.5
s24.833 -9 47.5 -9s38.334 3 47.001 9s14.167 18 16.5 36s3.5 51.667 3.5 101v429h138zM188.999 756l-75 124v8h88l51 -71l52 71h88v-8l-76 -124h-128z" />
    <glyph glyph-name="uni01D4" unicode="&#x1d4;" horiz-adv-x="450" 
d="M279 61h-8c-16 -46 -53.333 -69 -112 -69c-32.667 0 -57.167 6.33301 -73.5 19s-27.333 31.834 -33 57.501s-8.5 61.167 -8.5 106.5v335h129v-276c0 -42.667 1 -72 3 -88s6.16699 -26.167 12.5 -30.5s17.833 -6.5 34.5 -6.5s28.5 3.33301 35.5 10s11.5 19.167 13.5 37.5
s3 49.166 3 92.499v261h129v-510h-121zM161 611l-75 124v8h88l51 -71l52 71h88v-8l-76 -124h-128z" />
    <glyph glyph-name="uni01D5" unicode="&#x1d5;" 
d="M154 890v105h202v-105h-202zM110 772v103h111v-103h-111zM285 772v103h111v-103h-111zM458 688l-0.000976562 -383c0 -90.667 -3.83301 -156.5 -11.5 -197.5s-25.667 -70.5 -54 -88.5s-74.833 -27 -139.5 -27s-111.167 9 -139.5 27s-46.333 47.5 -54 88.5
s-11.5 106.833 -11.5 197.5v383h137v-429c0 -48.667 1.16699 -82.167 3.5 -100.5s8 -30.5 17 -36.5s24.833 -9 47.5 -9s38.334 3 47.001 9s14.167 18 16.5 36s3.5 51.667 3.5 101v429h138z" />
    <glyph glyph-name="uni01D6" unicode="&#x1d6;" horiz-adv-x="450" 
d="M279 61h-8c-16 -46 -53.333 -69 -112 -69c-32.667 0 -57.167 6.33301 -73.5 19s-27.333 31.834 -33 57.501s-8.5 61.167 -8.5 106.5v335h129v-276c0 -42.667 1 -72 3 -88s6.16699 -26.167 12.5 -30.5s17.833 -6.5 34.5 -6.5s28.5 3.33301 35.5 10s11.5 19.167 13.5 37.5
s3 49.166 3 92.499v261h129v-510h-121zM82 627v103h111v-103h-111zM257 627v103h111v-103h-111zM126 787v116h202v-116h-202z" />
    <glyph glyph-name="uni01D7" unicode="&#x1d7;" 
d="M221 869v-97h-111v103h89l53 140h128v-5l-76 -135h92v-103h-111v97h-64zM458 688l-0.000976562 -383c0 -90.667 -3.83301 -156.5 -11.5 -197.5s-25.667 -70.5 -54 -88.5s-74.833 -27 -139.5 -27s-111.167 9 -139.5 27s-46.333 47.5 -54 88.5s-11.5 106.833 -11.5 197.5
v383h137v-429c0 -48.667 1.16699 -82.167 3.5 -100.5s8 -30.5 17 -36.5s24.833 -9 47.5 -9s38.334 3 47.001 9s14.167 18 16.5 36s3.5 51.667 3.5 101v429h138z" />
    <glyph glyph-name="uni01D8" unicode="&#x1d8;" horiz-adv-x="450" 
d="M279 61h-8c-16 -46 -53.333 -69 -112 -69c-32.667 0 -57.167 6.33301 -73.5 19s-27.333 31.834 -33 57.501s-8.5 61.167 -8.5 106.5v335h129v-276c0 -42.667 1 -72 3 -88s6.16699 -26.167 12.5 -30.5s17.833 -6.5 34.5 -6.5s28.5 3.33301 35.5 10s11.5 19.167 13.5 37.5
s3 49.166 3 92.499v261h129v-510h-121zM82 627v103h111v-103h-111zM257 627v103h111v-103h-111zM170 757v5l53 141h128v-5l-79 -141h-102z" />
    <glyph glyph-name="uni01D9" unicode="&#x1d9;" 
d="M458 688l-0.000976562 -383c0 -90.667 -3.83301 -156.5 -11.5 -197.5s-25.667 -70.5 -54 -88.5s-74.833 -27 -139.5 -27s-111.167 9 -139.5 27s-46.333 47.5 -54 88.5s-11.5 106.833 -11.5 197.5v383h137v-429c0 -48.667 1.16699 -82.167 3.5 -100.5s8 -30.5 17 -36.5
s24.833 -9 47.5 -9s38.334 3 47.001 9s14.167 18 16.5 36s3.5 51.667 3.5 101v429h138zM109.999 772v103h111v-103h-111zM284.999 772v103h111v-103h-111zM190.999 883l-75 124v8h88l51 -71l52 71h88v-8l-76 -124h-128z" />
    <glyph glyph-name="uni01DA" unicode="&#x1da;" horiz-adv-x="450" 
d="M279 61h-8c-16 -46 -53.333 -69 -112 -69c-32.667 0 -57.167 6.33301 -73.5 19s-27.333 31.834 -33 57.501s-8.5 61.167 -8.5 106.5v335h129v-276c0 -42.667 1 -72 3 -88s6.16699 -26.167 12.5 -30.5s17.833 -6.5 34.5 -6.5s28.5 3.33301 35.5 10s11.5 19.167 13.5 37.5
s3 49.166 3 92.499v261h129v-510h-121zM82 627v103h111v-103h-111zM257 627v103h111v-103h-111zM163 771l-75 124v8h88l51 -71l52 71h88v-8l-76 -124h-128z" />
    <glyph glyph-name="uni01DB" unicode="&#x1db;" 
d="M221 869v-97h-111v103h95l-75 135v5h128l53 -140h85v-103h-111v97h-64zM458 688l-0.000976562 -383c0 -90.667 -3.83301 -156.5 -11.5 -197.5s-25.667 -70.5 -54 -88.5s-74.833 -27 -139.5 -27s-111.167 9 -139.5 27s-46.333 47.5 -54 88.5s-11.5 106.833 -11.5 197.5
v383h137v-429c0 -48.667 1.16699 -82.167 3.5 -100.5s8 -30.5 17 -36.5s24.833 -9 47.5 -9s38.334 3 47.001 9s14.167 18 16.5 36s3.5 51.667 3.5 101v429h138z" />
    <glyph glyph-name="uni01DC" unicode="&#x1dc;" horiz-adv-x="450" 
d="M279 61h-8c-16 -46 -53.333 -69 -112 -69c-32.667 0 -57.167 6.33301 -73.5 19s-27.333 31.834 -33 57.501s-8.5 61.167 -8.5 106.5v335h129v-276c0 -42.667 1 -72 3 -88s6.16699 -26.167 12.5 -30.5s17.833 -6.5 34.5 -6.5s28.5 3.33301 35.5 10s11.5 19.167 13.5 37.5
s3 49.166 3 92.499v261h129v-510h-121zM82 627v103h111v-103h-111zM257 627v103h111v-103h-111zM175 757l-78 141v5h128l53 -141v-5h-103z" />
    <glyph glyph-name="Gcaron" unicode="&#x1e6;" horiz-adv-x="487" 
d="M251 282l-0.000976562 117.999h189v-387c-23.333 -6 -51.666 -11 -84.999 -15s-64.333 -6 -93 -6c-63.333 0 -110.5 9.5 -141.5 28.5s-52.333 53 -64 102s-17.5 122.833 -17.5 221.5c0 98 6.16699 171.5 18.5 220.5s34.833 83.167 67.5 102.5s81.667 29 147 29
c26.667 0 55.667 -2 87 -6s58 -8.66699 80 -14v-113c-57.333 8 -99 12 -125 12c-45.333 0 -76.5 -3.66699 -93.5 -11s-28.667 -26.166 -35 -56.499s-9.5 -84.833 -9.5 -163.5c0 -73.333 2 -125.5 6 -156.5s11.833 -51.833 23.5 -62.5s31.5 -16 59.5 -16c6 0 22 1 48 3v170
h-62zM178.999 755.999l-75 124v8h88l51 -71l52 71h88v-8l-76 -124h-128z" />
    <glyph glyph-name="gcaron" unicode="&#x1e7;" horiz-adv-x="446" 
d="M131 -200c-26.667 2 -48.335 4.66992 -65.002 8.00293v99c12 0 20.667 -0.333008 26 -1l85 -1c31.333 0 53.166 2.66699 65.499 8s20.166 15.666 23.499 30.999s5 42.666 5 81.999v38h-8c-15.333 -41.333 -49.333 -62 -102 -62c-33.333 0 -59.166 7.83301 -77.499 23.5
s-31.166 41.667 -38.499 78s-11 88.166 -11 155.499c0 68.667 4 121.5 12 158.5s21 63 39 78s43.667 22.5 77 22.5c23.333 0 44.5 -5.16699 63.5 -15.5s32.5 -27.833 40.5 -52.5h8l4 60h122v-449c0 -69.333 -3.66699 -121.5 -11 -156.5s-24.666 -61.667 -51.999 -80
s-70.666 -27.5 -129.999 -27.5c-24 0 -49.333 1 -76 3zM249.499 124.003c7 4.66699 12.167 13.666 15.5 26.999c4 16 6 52 6 108c0 50 -1.66699 83.333 -5 100c-2.66699 16.667 -7.5 27.834 -14.5 33.501s-18.5 8.5 -34.5 8.5c-18 0 -30.333 -2.5 -37 -7.5
s-11.167 -16.667 -13.5 -35s-3.5 -51.5 -3.5 -99.5s1.16699 -81.167 3.5 -99.5s6.83301 -30 13.5 -35s19 -7.5 37 -7.5c14.667 0 25.5 2.33301 32.5 7zM158.999 611.002l-75 124v8h88l51 -71l52 71h88v-8l-76 -124h-128z" />
    <glyph glyph-name="uni01EA" unicode="&#x1ea;" 
d="M261 -172.5c-16 15.667 -24.0029 35.8311 -24.0029 60.498c0 34 13.667 69 41 105c-5.33301 -0.666992 -13.666 -1 -24.999 -1c-69.333 0 -118.666 10.167 -147.999 30.5s-47.666 52.833 -54.999 97.5s-11 119.334 -11 224.001s3.66699 179.334 11 224.001
s25.666 77.167 54.999 97.5s78.666 30.5 147.999 30.5c68.667 0 117.834 -10.167 147.501 -30.5s48.167 -53 55.5 -98s11 -119.5 11 -223.5c0 -69.333 -1.16699 -122.833 -3.5 -160.5s-8 -69.667 -17 -96s-23.167 -46.833 -42.5 -61.5c-19.333 -14 -35.166 -31 -47.499 -51
s-18.5 -41 -18.5 -63c0 -24 12.667 -36 38 -36l14 1v-69c-15.333 -2.66699 -32.333 -4 -51 -4c-36 0 -62 7.83301 -78 23.5zM306.997 123.997c9.33301 7.33301 15.333 25.5 18 54.5s4 84.167 4 165.5s-1.33301 136.5 -4 165.5s-8.66699 47.167 -18 54.5s-27.333 11 -54 11
s-44.667 -3.66699 -54 -11s-15.333 -25.333 -18 -54s-4 -84 -4 -166s1.33301 -137.333 4 -166s8.66699 -46.667 18 -54s27.333 -11 54 -11s44.667 3.66699 54 11z" />
    <glyph glyph-name="uni01EB" unicode="&#x1eb;" horiz-adv-x="436" 
d="M342 496c25.333 -14.667 41.6689 -39.3379 49.002 -74.0049s11 -90.334 11 -167.001c0 -72 -3 -125 -9 -159s-19.667 -59 -41 -75c-17.333 -13.333 -31.333 -29.666 -42 -48.999s-16 -39 -16 -59c0 -24.667 12.667 -37 38 -37l14 1v-69c-20 -2.66699 -37 -4 -51 -4
c-36.667 0 -62.834 7.83301 -78.501 23.5s-23.5 35.834 -23.5 60.501c0 34 12.667 68.667 38 104h-13c-57.333 0 -98.666 7.33301 -123.999 22s-41.666 39.334 -48.999 74.001s-11 90.334 -11 167.001s3.66699 132.334 11 167.001s23.666 59.334 48.999 74.001
s66.666 22 123.999 22s98.666 -7.33301 123.999 -22zM165.503 146.496c1.66699 -19 6 -31.5 13 -37.5s20.167 -9 39.5 -9s32.5 3 39.5 9s11.333 18.5 13 37.5s2.5 55.167 2.5 108.5s-0.833008 89.5 -2.5 108.5s-6 31.5 -13 37.5s-20.167 9 -39.5 9s-32.5 -3 -39.5 -9
s-11.333 -18.5 -13 -37.5s-2.5 -55.167 -2.5 -108.5s0.833008 -89.5 2.5 -108.5z" />
    <glyph glyph-name="uni01F1" unicode="&#x1f1;" horiz-adv-x="935" 
d="M52 688l186 0.00390625c70.667 0 121.167 -9.83301 151.5 -29.5s49.166 -51.334 56.499 -95.001s11 -116.834 11 -219.501s-3.66699 -175.834 -11 -219.501s-26.166 -75.334 -56.499 -95.001s-80.833 -29.5 -151.5 -29.5h-186v688zM236 121.004
c29.333 0 49.167 3.5 59.5 10.5s17 24.5 20 52.5s4.5 81.333 4.5 160c0 78 -1.66699 131.167 -5 159.5s-10 46 -20 53s-29.667 10.5 -59 10.5h-47v-446h47zM527.001 0.00390625v114l221 453h-214v121h368v-113l-222 -454h224v-121h-377z" />
    <glyph glyph-name="uni01F2" unicode="&#x1f2;" horiz-adv-x="890" 
d="M52 688l186 0.00390625c70.667 0 121.167 -9.83301 151.5 -29.5s49.166 -51.334 56.499 -95.001s11 -116.834 11 -219.501s-3.66699 -175.834 -11 -219.501s-26.166 -75.334 -56.499 -95.001s-80.833 -29.5 -151.5 -29.5h-186v688zM236 121.004
c29.333 0 49.167 3.5 59.5 10.5s17 24.5 20 52.5s4.5 81.333 4.5 160c0 78 -1.66699 131.167 -5 159.5s-10 46 -20 53s-29.667 10.5 -59 10.5h-47v-446h47zM528.001 0.00390625v101l178 301h-171v108h321v-101l-177 -301h179v-108h-330z" />
    <glyph glyph-name="uni01F3" unicode="&#x1f3;" horiz-adv-x="840" 
d="M85 14.5c-18 15 -31 41.168 -39 78.501s-12 91 -12 161c0 68.667 3.66699 121.667 11 159s20 64.166 38 80.499s43.667 24.5 77 24.5c26 0 47.667 -5 65 -15s30.333 -25.667 39 -47h7v287h129v-743h-122l-4 60h-8c-14 -45.333 -48.667 -68 -104 -68
c-33.333 0 -59 7.5 -77 22.5zM249.5 115.001c7 4.66699 12.166 13.667 15.499 27c4 19.333 6 57 6 113c0 54 -1.33301 88.333 -4 103c-2.66699 17.333 -7.66699 29 -15 35s-18.666 9 -33.999 9c-18 0 -30.5 -2.66699 -37.5 -8s-11.667 -17.5 -14 -36.5
s-3.5 -53.167 -3.5 -102.5s1.16699 -83.5 3.5 -102.5s7 -31.167 14 -36.5s19.5 -8 37.5 -8c14 0 24.5 2.33301 31.5 7zM477.999 0.000976562v101l178 301h-171v108h321v-101l-177 -301h179v-108h-330z" />
    <glyph glyph-name="uni01F4" unicode="&#x1f4;" horiz-adv-x="487" 
d="M251 282l-0.000976562 117.999h189v-387c-23.333 -6 -51.666 -11 -84.999 -15s-64.333 -6 -93 -6c-63.333 0 -110.5 9.5 -141.5 28.5s-52.333 53 -64 102s-17.5 122.833 -17.5 221.5c0 98 6.16699 171.5 18.5 220.5s34.833 83.167 67.5 102.5s81.667 29 147 29
c26.667 0 55.667 -2 87 -6s58 -8.66699 80 -14v-113c-57.333 8 -99 12 -125 12c-45.333 0 -76.5 -3.66699 -93.5 -11s-28.667 -26.166 -35 -56.499s-9.5 -84.833 -9.5 -163.5c0 -73.333 2 -125.5 6 -156.5s11.833 -51.833 23.5 -62.5s31.5 -16 59.5 -16c6 0 22 1 48 3v170
h-62zM186.999 741.999v5l53 141h128v-5l-79 -141h-102z" />
    <glyph glyph-name="uni01F5" unicode="&#x1f5;" horiz-adv-x="446" 
d="M131 -200c-26.667 2 -48.335 4.66992 -65.002 8.00293v99c12 0 20.667 -0.333008 26 -1l85 -1c31.333 0 53.166 2.66699 65.499 8s20.166 15.666 23.499 30.999s5 42.666 5 81.999v38h-8c-15.333 -41.333 -49.333 -62 -102 -62c-33.333 0 -59.166 7.83301 -77.499 23.5
s-31.166 41.667 -38.499 78s-11 88.166 -11 155.499c0 68.667 4 121.5 12 158.5s21 63 39 78s43.667 22.5 77 22.5c23.333 0 44.5 -5.16699 63.5 -15.5s32.5 -27.833 40.5 -52.5h8l4 60h122v-449c0 -69.333 -3.66699 -121.5 -11 -156.5s-24.666 -61.667 -51.999 -80
s-70.666 -27.5 -129.999 -27.5c-24 0 -49.333 1 -76 3zM249.499 124.003c7 4.66699 12.167 13.666 15.5 26.999c4 16 6 52 6 108c0 50 -1.66699 83.333 -5 100c-2.66699 16.667 -7.5 27.834 -14.5 33.501s-18.5 8.5 -34.5 8.5c-18 0 -30.333 -2.5 -37 -7.5
s-11.167 -16.667 -13.5 -35s-3.5 -51.5 -3.5 -99.5s1.16699 -81.167 3.5 -99.5s6.83301 -30 13.5 -35s19 -7.5 37 -7.5c14.667 0 25.5 2.33301 32.5 7zM165.999 597.002v5l53 141h128v-5l-79 -141h-102z" />
    <glyph glyph-name="Aringacute" unicode="&#x1fa;" horiz-adv-x="501" 
d="M493 0l-140.001 -0.000976562l-27 141h-154l-27 -141h-137l142 686c-12 8 -19.5 18.5 -22.5 31.5s-4.5 32.167 -4.5 57.5c0 29.333 2.33301 51.333 7 66s16 25.834 34 33.501s46.667 11.5 86 11.5c40 0 69 -3.83301 87 -11.5s29.333 -18.834 34 -33.501s7 -36.667 7 -66
c0 -24.667 -1.66699 -43.667 -5 -57s-10.666 -23.666 -21.999 -30.999zM218.499 816.999c-6.33301 -2.66699 -10.166 -6.83398 -11.499 -12.501s-2 -15.5 -2 -29.5s0.666992 -23.833 2 -29.5s5.16602 -9.83398 11.499 -12.501s16.833 -4 31.5 -4
c15.333 0 26.166 1.33301 32.499 4s10.333 6.83398 12 12.501s2.5 15.5 2.5 29.5s-0.833008 23.833 -2.5 29.5s-5.66699 9.83398 -12 12.501s-17.166 4 -32.499 4c-14.667 0 -25.167 -1.33301 -31.5 -4zM191.999 259.999h113l-53 298h-6zM193.999 939.999v5l53 141h128v-5
l-79 -141h-102z" />
    <glyph glyph-name="aringacute" unicode="&#x1fb;" horiz-adv-x="426" 
d="M52 29.5c-18 25 -26.999 64.1689 -26.999 117.502c0 39.333 4 70.166 12 92.499s21.5 38.666 40.5 48.999s45.5 15.5 79.5 15.5c24 0 56 -1.33301 96 -4v23c0 28 -2.16699 47.833 -6.5 59.5s-12.333 19.167 -24 22.5s-31.834 5 -60.501 5c-28 0 -65.333 -2.33301 -112 -7
v100c50 10 100.333 15 151 15c50 0 88 -6.66699 114 -20s43.667 -34.333 53 -63s14 -69.667 14 -123v-312h-123l-4 60h-7c-8.66699 -24.667 -22.667 -42.167 -42 -52.5s-41 -15.5 -65 -15.5c-41.333 0 -71 12.5 -89 37.5zM224.501 108.002
c7 2.66699 12.833 7.66602 17.5 14.999c7.33301 11.333 11 34.333 11 69v25h-60c-17.333 0 -28.833 -3.66699 -34.5 -11s-8.5 -23.333 -8.5 -48c0 -21.333 2.83301 -35.666 8.5 -42.999s18.5 -11 38.5 -11c11.333 0 20.5 1.33301 27.5 4zM126.501 618.501
c-17.667 7.66699 -28.834 18.667 -33.501 33s-7 35.833 -7 64.5c0 29.333 2.33301 51.166 7 65.499s15.834 25.333 33.501 33s46.167 11.5 85.5 11.5c40 0 68.833 -3.83301 86.5 -11.5s28.834 -18.667 33.501 -33s7 -36.166 7 -65.499s-2.33301 -51 -7 -65
s-15.834 -24.833 -33.501 -32.5s-46.5 -11.5 -86.5 -11.5c-39.333 0 -67.833 3.83301 -85.5 11.5zM244.501 674.501c6.33301 2.33301 10.333 6.33301 12 12s2.5 15.5 2.5 29.5s-0.833008 24 -2.5 30s-5.66699 10.333 -12 13s-17.166 4 -32.499 4
c-14.667 0 -25 -1.33301 -31 -4s-9.83301 -7 -11.5 -13s-2.5 -16 -2.5 -30s0.833008 -23.833 2.5 -29.5s5.5 -9.66699 11.5 -12s16.333 -3.5 31 -3.5c15.333 0 26.166 1.16699 32.499 3.5zM158.001 853.001v5l53 141h128v-5l-79 -141h-102z" />
    <glyph glyph-name="AEacute" unicode="&#x1fc;" horiz-adv-x="677" 
d="M333 0l-17 141h-156l-37 -141h-136l190 688h465v-121h-244l21 -159h196v-122h-181l23 -165h185v-121h-309zM268 559h-6l-74 -299h115zM283 742v5l53 141h128v-5l-79 -141h-102z" />
    <glyph glyph-name="aeacute" unicode="&#x1fd;" horiz-adv-x="643" 
d="M608 215h-227.001c0 -38 1.66699 -64.333 5 -79s11 -24.334 23 -29.001s33.667 -7 65 -7c28 0 68.667 2 122 6v-99c-18 -4.66699 -41.167 -8.33398 -69.5 -11.001s-55.5 -4 -81.5 -4c-34.667 0 -62.834 3.33301 -84.501 10s-39.167 17.667 -52.5 33
c-31.333 -28.667 -78 -43 -140 -43c-52.667 0 -89.667 12.333 -111 37s-32 63.667 -32 117c0 39.333 4 70.333 12 93s21.5 39.167 40.5 49.5s45.5 15.5 79.5 15.5s65.667 -1.33301 95 -4v22c0 28.667 -2 48.834 -6 60.501s-12 19.167 -24 22.5s-32.333 5 -61 5
c-30.667 0 -68 -2.33301 -112 -7v100c57.333 10 107.666 15 150.999 15c54 0 93.667 -11.333 119 -34c26.667 22.667 66.334 34 119.001 34c54.667 0 93.834 -8.66699 117.501 -26s38.334 -42.666 44.001 -75.999s8.5 -87.333 8.5 -162v-39zM399.499 404
c-7 -4.66699 -11.666 -14.333 -13.999 -29s-3.83301 -39 -4.5 -73h106c0 34 -1.33301 58.5 -4 73.5s-7.33398 24.667 -14.001 29s-18 6.5 -34 6.5c-16.667 0 -28.5 -2.33301 -35.5 -7zM252 216.001l-60 0.000976562c-18 0 -29.667 -3.66699 -35 -11s-8 -23 -8 -47
c0 -23.333 2.83301 -39 8.5 -47s18.5 -12 38.5 -12c14 0 24.833 2.16699 32.5 6.5s13.5 12.166 17.5 23.499c4 14 6 34 6 60v27zM265 597.002v5l53 141h128v-5l-79 -141h-102z" />
    <glyph glyph-name="Oslashacute" unicode="&#x1fe;" 
d="M426 642c18 -24 29.335 -57.335 34.002 -100.002s7 -108.667 7 -198c0 -104 -3.66699 -178.5 -11 -223.5s-25.666 -77.667 -54.999 -98s-78.666 -30.5 -147.999 -30.5c-30.667 0 -57.334 2 -80.001 6l-20 -53h-114l40 102c-17.333 24 -28.333 57.333 -33 100
s-7 108.334 -7 197.001c0 104.667 3.66699 179.334 11 224.001s25.666 77.167 54.999 97.5s78.666 30.5 147.999 30.5c27.333 0 53.666 -1.66699 78.999 -5l20 52h115zM307.002 123.998c9.33301 7.33301 15.333 25.333 18 54s4 84 4 166s-1.33301 137.333 -4 166
s-8.66699 46.667 -18 54s-27.333 11 -54 11s-44.667 -3.66699 -54 -11s-15.333 -25.333 -18 -54s-4 -84 -4 -166s1.33301 -137.333 4 -166s8.66699 -46.667 18 -54s27.333 -11 54 -11s44.667 3.66699 54 11zM180.002 741.998v5l53 141h128v-5l-79 -141h-102z" />
    <glyph glyph-name="oslashacute" unicode="&#x1ff;" horiz-adv-x="436" 
d="M70 34c-14.667 18 -24.334 43.333 -29.001 76s-7 81 -7 145c0 76.667 3.66699 132.334 11 167.001s23.666 59.334 48.999 74.001s66.666 22 123.999 22c19.333 0 36.333 -1 51 -3l21 50h112l-36 -89c14.667 -18 24.334 -43.333 29.001 -76s7 -81 7 -145
c0 -76.667 -3.66699 -132.334 -11 -167.001s-23.666 -59.334 -48.999 -74.001s-66.666 -22 -123.999 -22c-20 0 -37 1 -51 3l-20 -50h-113zM257.5 109c7 6 11.333 18.5 13 37.5s2.5 55.167 2.5 108.5s-0.833008 89.5 -2.5 108.5s-6 31.5 -13 37.5s-20.167 9 -39.5 9
s-32.5 -3 -39.5 -9s-11.333 -18.5 -13 -37.5s-2.5 -55.167 -2.5 -108.5s0.833008 -89.5 2.5 -108.5s6 -31.5 13 -37.5s20.167 -9 39.5 -9s32.5 3 39.5 9zM161 597v5l53 141h128v-5l-79 -141h-102z" />
    <glyph glyph-name="uni0200" unicode="&#x200;" horiz-adv-x="501" 
d="M353 0l-27 141h-154l-27 -141h-137l142 688h201l142 -688h-140zM252 558h-6l-54 -298h113zM224 755h-85l-65 117v4h105l45 -117v-4zM370 755h-85l-64 117v4h105l44 -117v-4z" />
    <glyph glyph-name="uni0201" unicode="&#x201;" horiz-adv-x="426" 
d="M52 29.5c-18 25 -26.999 64.1689 -26.999 117.502c0 39.333 4 70.166 12 92.499s21.5 38.666 40.5 48.999s45.5 15.5 79.5 15.5c24 0 56 -1.33301 96 -4v23c0 28 -2.16699 47.833 -6.5 59.5s-12.333 19.167 -24 22.5s-31.834 5 -60.501 5c-28 0 -65.333 -2.33301 -112 -7
v100c50 10 100.333 15 151 15c50 0 88 -6.66699 114 -20s43.667 -34.333 53 -63s14 -69.667 14 -123v-312h-123l-4 60h-7c-8.66699 -24.667 -22.667 -42.167 -42 -52.5s-41 -15.5 -65 -15.5c-41.333 0 -71 12.5 -89 37.5zM224.501 108.002
c7 2.66699 12.833 7.66602 17.5 14.999c7.33301 11.333 11 34.333 11 69v25h-60c-17.333 0 -28.833 -3.66699 -34.5 -11s-8.5 -23.333 -8.5 -48c0 -21.333 2.83301 -35.666 8.5 -42.999s18.5 -11 38.5 -11c11.333 0 20.5 1.33301 27.5 4zM186.001 610.001h-85l-65 117v4h105
l45 -117v-4zM332.001 610.001h-85l-64 117v4h105l44 -117v-4z" />
    <glyph glyph-name="uni0202" unicode="&#x202;" horiz-adv-x="501" 
d="M353 0l-27 141h-154l-27 -141h-137l142 688h201l142 -688h-140zM252 558h-6l-54 -298h113zM129.5 832c6.33301 19.333 18.999 34.5 37.999 45.5s47.167 16.5 84.5 16.5c36.667 0 64.334 -5.5 83.001 -16.5s31 -26.167 37 -45.5s9 -44 9 -74h-79
c0 15.333 -0.833008 26.833 -2.5 34.5s-6 14 -13 19s-18.5 7.5 -34.5 7.5c-23.333 0 -38 -4.83301 -44 -14.5s-9 -25.167 -9 -46.5h-79c0 30 3.16699 54.667 9.5 74z" />
    <glyph glyph-name="uni0203" unicode="&#x203;" horiz-adv-x="426" 
d="M52 29.5c-18 25 -26.999 64.1689 -26.999 117.502c0 39.333 4 70.166 12 92.499s21.5 38.666 40.5 48.999s45.5 15.5 79.5 15.5c24 0 56 -1.33301 96 -4v23c0 28 -2.16699 47.833 -6.5 59.5s-12.333 19.167 -24 22.5s-31.834 5 -60.501 5c-28 0 -65.333 -2.33301 -112 -7
v100c50 10 100.333 15 151 15c50 0 88 -6.66699 114 -20s43.667 -34.333 53 -63s14 -69.667 14 -123v-312h-123l-4 60h-7c-8.66699 -24.667 -22.667 -42.167 -42 -52.5s-41 -15.5 -65 -15.5c-41.333 0 -71 12.5 -89 37.5zM224.501 108.002
c7 2.66699 12.833 7.66602 17.5 14.999c7.33301 11.333 11 34.333 11 69v25h-60c-17.333 0 -28.833 -3.66699 -34.5 -11s-8.5 -23.333 -8.5 -48c0 -21.333 2.83301 -35.666 8.5 -42.999s18.5 -11 38.5 -11c11.333 0 20.5 1.33301 27.5 4zM91.501 687.001
c6.33301 19.333 18.999 34.5 37.999 45.5s47.167 16.5 84.5 16.5c36.667 0 64.334 -5.5 83.001 -16.5s31 -26.167 37 -45.5s9 -44 9 -74h-79c0 15.333 -0.833008 26.833 -2.5 34.5s-6 14 -13 19s-18.5 7.5 -34.5 7.5c-23.333 0 -38 -4.83301 -44 -14.5s-9 -25.167 -9 -46.5
h-79c0 30 3.16699 54.667 9.5 74z" />
    <glyph glyph-name="uni0204" unicode="&#x204;" horiz-adv-x="421" 
d="M52 0v688h334v-121h-196v-159h169v-121h-169v-166h196v-121h-334zM192 755h-85l-65 117v4h105l45 -117v-4zM338 755h-85l-64 117v4h105l44 -117v-4z" />
    <glyph glyph-name="uni0205" unicode="&#x205;" horiz-adv-x="425" 
d="M390 215l-227 0.000976562c0 -38 1.66699 -64.333 5 -79s11 -24.334 23 -29.001s33.667 -7 65 -7c25.333 0 66 2 122 6v-99c-18 -4 -41.333 -7.5 -70 -10.5s-56 -4.5 -82 -4.5c-59.333 0 -102.5 8.83301 -129.5 26.5s-44.167 43.834 -51.5 78.501s-11 87 -11 157
c0 68.667 3.66699 120.667 11 156s24 62.166 50 80.499s67 27.5 123 27.5c54.667 0 94.167 -8.5 118.5 -25.5s39.333 -42.5 45 -76.5s8.5 -88 8.5 -162v-39zM181.5 404.001c-7 -4.66699 -11.832 -14.333 -14.499 -29s-4 -39 -4 -73h106c0 34 -1.33301 58.5 -4 73.5
s-7.33398 24.667 -14.001 29s-18 6.5 -34 6.5c-16.667 0 -28.5 -2.33301 -35.5 -7zM185.001 610.002h-85l-65 117v4h105l45 -117v-4zM331.001 610.002h-85l-64 117v4h105l44 -117v-4z" />
    <glyph glyph-name="uni0206" unicode="&#x206;" horiz-adv-x="421" 
d="M52 0v688h334v-121h-196v-159h169v-121h-169v-166h196v-121h-334zM97.5 832c6.33301 19.333 18.999 34.5 37.999 45.5s47.167 16.5 84.5 16.5c36.667 0 64.334 -5.5 83.001 -16.5s31 -26.167 37 -45.5s9 -44 9 -74h-79c0 15.333 -0.833008 26.833 -2.5 34.5s-6 14 -13 19
s-18.5 7.5 -34.5 7.5c-23.333 0 -38 -4.83301 -44 -14.5s-9 -25.167 -9 -46.5h-79c0 30 3.16699 54.667 9.5 74z" />
    <glyph glyph-name="uni0207" unicode="&#x207;" horiz-adv-x="425" 
d="M390 215l-227 0.000976562c0 -38 1.66699 -64.333 5 -79s11 -24.334 23 -29.001s33.667 -7 65 -7c25.333 0 66 2 122 6v-99c-18 -4 -41.333 -7.5 -70 -10.5s-56 -4.5 -82 -4.5c-59.333 0 -102.5 8.83301 -129.5 26.5s-44.167 43.834 -51.5 78.501s-11 87 -11 157
c0 68.667 3.66699 120.667 11 156s24 62.166 50 80.499s67 27.5 123 27.5c54.667 0 94.167 -8.5 118.5 -25.5s39.333 -42.5 45 -76.5s8.5 -88 8.5 -162v-39zM181.5 404.001c-7 -4.66699 -11.832 -14.333 -14.499 -29s-4 -39 -4 -73h106c0 34 -1.33301 58.5 -4 73.5
s-7.33398 24.667 -14.001 29s-18 6.5 -34 6.5c-16.667 0 -28.5 -2.33301 -35.5 -7zM90.501 687.002c6.33301 19.333 18.999 34.5 37.999 45.5s47.167 16.5 84.5 16.5c36.667 0 64.334 -5.5 83.001 -16.5s31 -26.167 37 -45.5s9 -44 9 -74h-79
c0 15.333 -0.833008 26.833 -2.5 34.5s-6 14 -13 19s-18.5 7.5 -34.5 7.5c-23.333 0 -38 -4.83301 -44 -14.5s-9 -25.167 -9 -46.5h-79c0 30 3.16699 54.667 9.5 74z" />
    <glyph glyph-name="uni0208" unicode="&#x208;" horiz-adv-x="243" 
d="M53 0v688h137v-688h-137zM95 755h-85l-65 117v4h105l45 -117v-4zM241 755h-85l-64 117v4h105l44 -117v-4z" />
    <glyph glyph-name="uni0209" unicode="&#x209;" horiz-adv-x="221" 
d="M46 0v510h129v-510h-129zM84 610h-85l-65 117v4h105l45 -117v-4zM230 610h-85l-64 117v4h105l44 -117v-4z" />
    <glyph glyph-name="uni020A" unicode="&#x20a;" horiz-adv-x="243" 
d="M53 0v688h137v-688h-137zM0.5 832c6.33301 19.333 18.999 34.5 37.999 45.5s47.167 16.5 84.5 16.5c36.667 0 64.334 -5.5 83.001 -16.5s31 -26.167 37 -45.5s9 -44 9 -74h-79c0 15.333 -0.833008 26.833 -2.5 34.5s-6 14 -13 19s-18.5 7.5 -34.5 7.5
c-23.333 0 -38 -4.83301 -44 -14.5s-9 -25.167 -9 -46.5h-79c0 30 3.16699 54.667 9.5 74z" />
    <glyph glyph-name="uni020B" unicode="&#x20b;" horiz-adv-x="221" 
d="M46 0v510h129v-510h-129zM-10.5 687c6.33301 19.333 18.999 34.5 37.999 45.5s47.167 16.5 84.5 16.5c36.667 0 64.334 -5.5 83.001 -16.5s31 -26.167 37 -45.5s9 -44 9 -74h-79c0 15.333 -0.833008 26.833 -2.5 34.5s-6 14 -13 19s-18.5 7.5 -34.5 7.5
c-23.333 0 -38 -4.83301 -44 -14.5s-9 -25.167 -9 -46.5h-79c0 30 3.16699 54.667 9.5 74z" />
    <glyph glyph-name="uni020C" unicode="&#x20c;" 
d="M105 22.5c-29.333 20.333 -47.666 53 -54.999 98s-11 119.5 -11 223.5c0 104.667 3.66699 179.334 11 224.001s25.666 77.167 54.999 97.5s78.666 30.5 147.999 30.5s118.666 -10.167 147.999 -30.5s47.666 -52.833 54.999 -97.5s11 -119.334 11 -224.001
c0 -104 -3.66699 -178.5 -11 -223.5s-25.666 -77.667 -54.999 -98s-78.666 -30.5 -147.999 -30.5s-118.666 10.167 -147.999 30.5zM307 124c9.33301 7.33301 15.333 25.333 18 54s4 84 4 166s-1.33301 137.333 -4 166s-8.66699 46.667 -18 54s-27.333 11 -54 11
s-44.667 -3.66699 -54 -11s-15.333 -25.333 -18 -54s-4 -84 -4 -166s1.33301 -137.333 4 -166s8.66699 -46.667 18 -54s27.333 -11 54 -11s44.667 3.66699 54 11zM226 755h-85l-65 117v4h105l45 -117v-4zM372 755h-85l-64 117v4h105l44 -117v-4z" />
    <glyph glyph-name="uni020D" unicode="&#x20d;" horiz-adv-x="436" 
d="M94 14c-25.333 14.667 -41.666 39.334 -48.999 74.001s-11 90.334 -11 167.001s3.66699 132.334 11 167.001s23.666 59.334 48.999 74.001s66.666 22 123.999 22s98.666 -7.33301 123.999 -22s41.666 -39.334 48.999 -74.001s11 -90.334 11 -167.001
s-3.66699 -132.334 -11 -167.001s-23.666 -59.334 -48.999 -74.001s-66.666 -22 -123.999 -22s-98.666 7.33301 -123.999 22zM257.5 109c7 6 11.333 18.5 13 37.5s2.5 55.167 2.5 108.5s-0.833008 89.5 -2.5 108.5s-6 31.5 -13 37.5s-20.167 9 -39.5 9s-32.5 -3 -39.5 -9
s-11.333 -18.5 -13 -37.5s-2.5 -55.167 -2.5 -108.5s0.833008 -89.5 2.5 -108.5s6 -31.5 13 -37.5s20.167 -9 39.5 -9s32.5 3 39.5 9zM191 610h-85l-65 117v4h105l45 -117v-4zM337 610h-85l-64 117v4h105l44 -117v-4z" />
    <glyph glyph-name="uni020E" unicode="&#x20e;" 
d="M105 22.5c-29.333 20.333 -47.666 53 -54.999 98s-11 119.5 -11 223.5c0 104.667 3.66699 179.334 11 224.001s25.666 77.167 54.999 97.5s78.666 30.5 147.999 30.5s118.666 -10.167 147.999 -30.5s47.666 -52.833 54.999 -97.5s11 -119.334 11 -224.001
c0 -104 -3.66699 -178.5 -11 -223.5s-25.666 -77.667 -54.999 -98s-78.666 -30.5 -147.999 -30.5s-118.666 10.167 -147.999 30.5zM307 124c9.33301 7.33301 15.333 25.333 18 54s4 84 4 166s-1.33301 137.333 -4 166s-8.66699 46.667 -18 54s-27.333 11 -54 11
s-44.667 -3.66699 -54 -11s-15.333 -25.333 -18 -54s-4 -84 -4 -166s1.33301 -137.333 4 -166s8.66699 -46.667 18 -54s27.333 -11 54 -11s44.667 3.66699 54 11zM131.5 832c6.33301 19.333 18.999 34.5 37.999 45.5s47.167 16.5 84.5 16.5
c36.667 0 64.334 -5.5 83.001 -16.5s31 -26.167 37 -45.5s9 -44 9 -74h-79c0 15.333 -0.833008 26.833 -2.5 34.5s-6 14 -13 19s-18.5 7.5 -34.5 7.5c-23.333 0 -38 -4.83301 -44 -14.5s-9 -25.167 -9 -46.5h-79c0 30 3.16699 54.667 9.5 74z" />
    <glyph glyph-name="uni020F" unicode="&#x20f;" horiz-adv-x="436" 
d="M94 14c-25.333 14.667 -41.666 39.334 -48.999 74.001s-11 90.334 -11 167.001s3.66699 132.334 11 167.001s23.666 59.334 48.999 74.001s66.666 22 123.999 22s98.666 -7.33301 123.999 -22s41.666 -39.334 48.999 -74.001s11 -90.334 11 -167.001
s-3.66699 -132.334 -11 -167.001s-23.666 -59.334 -48.999 -74.001s-66.666 -22 -123.999 -22s-98.666 7.33301 -123.999 22zM257.5 109c7 6 11.333 18.5 13 37.5s2.5 55.167 2.5 108.5s-0.833008 89.5 -2.5 108.5s-6 31.5 -13 37.5s-20.167 9 -39.5 9s-32.5 -3 -39.5 -9
s-11.333 -18.5 -13 -37.5s-2.5 -55.167 -2.5 -108.5s0.833008 -89.5 2.5 -108.5s6 -31.5 13 -37.5s20.167 -9 39.5 -9s32.5 3 39.5 9zM96.5 687c6.33301 19.333 18.999 34.5 37.999 45.5s47.167 16.5 84.5 16.5c36.667 0 64.334 -5.5 83.001 -16.5s31 -26.167 37 -45.5
s9 -44 9 -74h-79c0 15.333 -0.833008 26.833 -2.5 34.5s-6 14 -13 19s-18.5 7.5 -34.5 7.5c-23.333 0 -38 -4.83301 -44 -14.5s-9 -25.167 -9 -46.5h-79c0 30 3.16699 54.667 9.5 74z" />
    <glyph glyph-name="uni0210" unicode="&#x210;" horiz-adv-x="494" 
d="M331 0l-67 240.001h-74v-240h-138v688h232c49.333 0 86.5 -8.33301 111.5 -25s41.833 -40.667 50.5 -72s13 -73.333 13 -126c0 -50 -4.5 -91.333 -13.5 -124s-27.167 -57.334 -54.5 -74.001l83 -267h-143zM298 366.501c9.33301 5 15.5 14.332 18.5 27.999
s4.5 36.834 4.5 69.501c0 32 -1.5 54.667 -4.5 68s-9.16699 22.5 -18.5 27.5s-25 7.5 -47 7.5h-61v-208h61c22 0 37.667 2.5 47 7.5zM220 755h-85l-65 117v4h105l45 -117v-4zM366 755h-85l-64 117v4h105l44 -117v-4z" />
    <glyph glyph-name="uni0211" unicode="&#x211;" horiz-adv-x="312" 
d="M46 510h122l4 -84h8c10 34.667 24.333 58.667 43 72s43.667 20 75 20v-135c-30 0 -53.833 -4.33301 -71.5 -13s-30.667 -24 -39 -46s-12.5 -52.667 -12.5 -92v-232h-129v510zM130 610h-85l-65 117v4h105l45 -117v-4zM276 610h-85l-64 117v4h105l44 -117v-4z" />
    <glyph glyph-name="uni0212" unicode="&#x212;" horiz-adv-x="494" 
d="M331 0l-67 240.001h-74v-240h-138v688h232c49.333 0 86.5 -8.33301 111.5 -25s41.833 -40.667 50.5 -72s13 -73.333 13 -126c0 -50 -4.5 -91.333 -13.5 -124s-27.167 -57.334 -54.5 -74.001l83 -267h-143zM298 366.501c9.33301 5 15.5 14.332 18.5 27.999
s4.5 36.834 4.5 69.501c0 32 -1.5 54.667 -4.5 68s-9.16699 22.5 -18.5 27.5s-25 7.5 -47 7.5h-61v-208h61c22 0 37.667 2.5 47 7.5zM125.5 832c6.33301 19.333 18.999 34.5 37.999 45.5s47.167 16.5 84.5 16.5c36.667 0 64.334 -5.5 83.001 -16.5s31 -26.167 37 -45.5
s9 -44 9 -74h-79c0 15.333 -0.833008 26.833 -2.5 34.5s-6 14 -13 19s-18.5 7.5 -34.5 7.5c-23.333 0 -38 -4.83301 -44 -14.5s-9 -25.167 -9 -46.5h-79c0 30 3.16699 54.667 9.5 74z" />
    <glyph glyph-name="uni0213" unicode="&#x213;" horiz-adv-x="312" 
d="M46 510h122l4 -84h8c10 34.667 24.333 58.667 43 72s43.667 20 75 20v-135c-30 0 -53.833 -4.33301 -71.5 -13s-30.667 -24 -39 -46s-12.5 -52.667 -12.5 -92v-232h-129v510zM35.5 687c6.33301 19.333 18.999 34.5 37.999 45.5s47.167 16.5 84.5 16.5
c36.667 0 64.334 -5.5 83.001 -16.5s31 -26.167 37 -45.5s9 -44 9 -74h-79c0 15.333 -0.833008 26.833 -2.5 34.5s-6 14 -13 19s-18.5 7.5 -34.5 7.5c-23.333 0 -38 -4.83301 -44 -14.5s-9 -25.167 -9 -46.5h-79c0 30 3.16699 54.667 9.5 74z" />
    <glyph glyph-name="uni0214" unicode="&#x214;" 
d="M458 688l-0.000976562 -383c0 -90.667 -3.83301 -156.5 -11.5 -197.5s-25.667 -70.5 -54 -88.5s-74.833 -27 -139.5 -27s-111.167 9 -139.5 27s-46.333 47.5 -54 88.5s-11.5 106.833 -11.5 197.5v383h137v-429c0 -48.667 1.16699 -82.167 3.5 -100.5s8 -30.5 17 -36.5
s24.833 -9 47.5 -9s38.334 3 47.001 9s14.167 18 16.5 36s3.5 51.667 3.5 101v429h138zM225.999 755h-85l-65 117v4h105l45 -117v-4zM371.999 755h-85l-64 117v4h105l44 -117v-4z" />
    <glyph glyph-name="uni0215" unicode="&#x215;" horiz-adv-x="450" 
d="M279 61h-8c-16 -46 -53.333 -69 -112 -69c-32.667 0 -57.167 6.33301 -73.5 19s-27.333 31.834 -33 57.501s-8.5 61.167 -8.5 106.5v335h129v-276c0 -42.667 1 -72 3 -88s6.16699 -26.167 12.5 -30.5s17.833 -6.5 34.5 -6.5s28.5 3.33301 35.5 10s11.5 19.167 13.5 37.5
s3 49.166 3 92.499v261h129v-510h-121zM198 610h-85l-65 117v4h105l45 -117v-4zM344 610h-85l-64 117v4h105l44 -117v-4z" />
    <glyph glyph-name="uni0216" unicode="&#x216;" 
d="M458 688l-0.000976562 -383c0 -90.667 -3.83301 -156.5 -11.5 -197.5s-25.667 -70.5 -54 -88.5s-74.833 -27 -139.5 -27s-111.167 9 -139.5 27s-46.333 47.5 -54 88.5s-11.5 106.833 -11.5 197.5v383h137v-429c0 -48.667 1.16699 -82.167 3.5 -100.5s8 -30.5 17 -36.5
s24.833 -9 47.5 -9s38.334 3 47.001 9s14.167 18 16.5 36s3.5 51.667 3.5 101v429h138zM131.499 832c6.33301 19.333 18.999 34.5 37.999 45.5s47.167 16.5 84.5 16.5c36.667 0 64.334 -5.5 83.001 -16.5s31 -26.167 37 -45.5s9 -44 9 -74h-79
c0 15.333 -0.833008 26.833 -2.5 34.5s-6 14 -13 19s-18.5 7.5 -34.5 7.5c-23.333 0 -38 -4.83301 -44 -14.5s-9 -25.167 -9 -46.5h-79c0 30 3.16699 54.667 9.5 74z" />
    <glyph glyph-name="uni0217" unicode="&#x217;" horiz-adv-x="450" 
d="M279 61h-8c-16 -46 -53.333 -69 -112 -69c-32.667 0 -57.167 6.33301 -73.5 19s-27.333 31.834 -33 57.501s-8.5 61.167 -8.5 106.5v335h129v-276c0 -42.667 1 -72 3 -88s6.16699 -26.167 12.5 -30.5s17.833 -6.5 34.5 -6.5s28.5 3.33301 35.5 10s11.5 19.167 13.5 37.5
s3 49.166 3 92.499v261h129v-510h-121zM103.5 687c6.33301 19.333 18.999 34.5 37.999 45.5s47.167 16.5 84.5 16.5c36.667 0 64.334 -5.5 83.001 -16.5s31 -26.167 37 -45.5s9 -44 9 -74h-79c0 15.333 -0.833008 26.833 -2.5 34.5s-6 14 -13 19s-18.5 7.5 -34.5 7.5
c-23.333 0 -38 -4.83301 -44 -14.5s-9 -25.167 -9 -46.5h-79c0 30 3.16699 54.667 9.5 74z" />
    <glyph glyph-name="Scommaaccent" unicode="&#x218;" horiz-adv-x="443" 
d="M129.5 -3.5c-33 3 -62.165 7.16699 -87.498 12.5v112c68 -5.33301 115 -8 141 -8c23.333 0 41 1.33301 53 4s21 7.33398 27 14.001c5.33301 5.33301 8.83301 12.833 10.5 22.5s2.5 23.5 2.5 41.5c0 24.667 -1.33301 42.167 -4 52.5s-8.16699 18 -16.5 23
s-22.833 9.5 -43.5 13.5l-94 17c-33.333 6 -56.333 24.333 -69 55s-19 75 -19 133c0 56.667 8.16699 100 24.5 130s38.833 50.333 67.5 61s65 16 109 16c30.667 0 60.167 -2 88.5 -6s51.5 -8 69.5 -12v-112c-36 6 -76.333 9 -121 9c-24 0 -42.5 -1 -55.5 -3
s-22.5 -5.66699 -28.5 -11c-7.33301 -5.33301 -12 -13 -14 -23s-3 -24.667 -3 -44c0 -20.667 1.16699 -35.667 3.5 -45s6.5 -16 12.5 -20s16.333 -7.33301 31 -10l88 -16c23.333 -3.33301 43.166 -10.5 59.499 -21.5s29.166 -29.167 38.499 -54.5
c9.33301 -26.667 14 -64.334 14 -113.001c0 -63.333 -7.66699 -111 -23 -143s-36.5 -53.167 -63.5 -63.5s-62.5 -15.5 -106.5 -15.5c-28 0 -58.5 1.5 -91.5 4.5zM197.502 -222.5c7 6.33301 10.5 18.833 10.5 37.5v14h-50v109h133v-72c0 -44 -3 -76.5 -9 -97.5
s-18.5 -35.833 -37.5 -44.5s-49.167 -13 -90.5 -13v57c22 0 36.5 3.16699 43.5 9.5z" />
    <glyph glyph-name="scommaaccent" unicode="&#x219;" horiz-adv-x="371" 
d="M109.5 -3.5c-28.333 3 -52.502 6.83789 -72.502 11.5049v99c44 -4.66699 82 -7 114 -7c20 0 34.833 1.16699 44.5 3.5s16.334 6.83301 20.001 13.5s5.5 17 5.5 31c0 15.333 -0.833008 26.166 -2.5 32.499s-5 10.666 -10 12.999s-13.833 4.5 -26.5 6.5l-84 14
c-26.667 4 -45.5 17.167 -56.5 39.5s-16.5 58.833 -16.5 109.5c0 57.333 14 97.5 42 120.5s69.667 34.5 125 34.5c22 0 45.333 -1.5 70 -4.5s44.667 -6.83301 60 -11.5v-100c-42.667 5.33301 -78 8 -106 8c-25.333 0 -42.166 -2.83301 -50.499 -8.5
s-12.5 -17.834 -12.5 -36.501c0 -14.667 0.666992 -25 2 -31s4.16602 -10.167 8.49902 -12.5s11.833 -4.16602 22.5 -5.49902l73 -11c18.667 -3.33301 34 -8.83301 46 -16.5s21.833 -21.834 29.5 -42.501s11.5 -50.334 11.5 -89.001c0 -62.667 -13 -105.834 -39 -129.501
s-66 -35.5 -120 -35.5c-23.333 0 -49.166 1.5 -77.499 4.5zM161.498 -222.495c7 6.33301 10.5 18.833 10.5 37.5v14h-50v109h133v-72c0 -44 -3 -76.5 -9 -97.5s-18.5 -35.833 -37.5 -44.5s-49.167 -13 -90.5 -13v57c22 0 36.5 3.16699 43.5 9.5z" />
    <glyph glyph-name="uni021A" unicode="&#x21a;" horiz-adv-x="418" 
d="M140 0v563h-130v125h398v-125h-130v-563h-138zM184.5 -222.5c7 6.33301 10.5 18.833 10.5 37.5v14h-50v109h133v-72c0 -44 -3 -76.5 -9 -97.5s-18.5 -35.833 -37.5 -44.5s-49.167 -13 -90.5 -13v57c22 0 36.5 3.16699 43.5 9.5z" />
    <glyph glyph-name="uni021B" unicode="&#x21b;" horiz-adv-x="302" 
d="M78 0v402h-63v108h63v148h129v-148h81v-108h-81v-402h-129zM117.5 -222.5c7 6.33301 10.5 18.833 10.5 37.5v14h-50v109h133v-72c0 -44 -3 -76.5 -9 -97.5s-18.5 -35.833 -37.5 -44.5s-49.167 -13 -90.5 -13v57c22 0 36.5 3.16699 43.5 9.5z" />
    <glyph glyph-name="uni0232" unicode="&#x232;" horiz-adv-x="463" 
d="M163 0v238l-163 450h141l90 -297h9l87 297h136l-163 -450v-238h-137zM131 772v116h202v-116h-202z" />
    <glyph glyph-name="uni0233" unicode="&#x233;" horiz-adv-x="450" 
d="M137 -200c-26.667 2 -48.335 4.33105 -65.002 6.99805v100c24.667 -0.666992 61.667 -1 111 -1c30.667 0 52.167 2.5 64.5 7.5s20 15 23 30s4.5 41.833 4.5 80.5v43h-7c-16 -44 -52.333 -66 -109 -66c-33.333 0 -58.166 6.83301 -74.499 20.5s-27.166 34 -32.499 61
s-8 65.5 -8 115.5v312h129v-268c0 -42.667 1 -72 3 -88s6.16699 -26.167 12.5 -30.5s17.833 -6.5 34.5 -6.5c17.333 0 29.333 3.33301 36 10s11 18.834 13 36.501s3 48.834 3 93.501v253h129v-450c0 -68.667 -3.66699 -120.5 -11 -155.5s-24.5 -61.667 -51.5 -80
s-69.833 -27.5 -128.5 -27.5c-24 0 -49.333 1 -76 3zM123.999 626.998v116h202v-116h-202z" />
    <glyph glyph-name="uni0237" unicode="&#x237;" horiz-adv-x="221" 
d="M-14 -98c18.667 0 32.333 1.66602 41 4.99902s14 8.33301 16 15s3 17.334 3 32.001v556h129v-503c0 -63.333 -5.16699 -108.833 -15.5 -136.5s-28 -45.667 -53 -54s-65.167 -12.5 -120.5 -12.5v98z" />
    <glyph glyph-name="uni0259" unicode="&#x259;" horiz-adv-x="425" 
d="M328.5 491.5c27 -17.667 44.167 -43.835 51.5 -78.502s11 -87 11 -157c0 -68.667 -3.66699 -120.667 -11 -156s-24 -62.166 -50 -80.499s-67 -27.5 -123 -27.5c-54.667 0 -94.167 8.5 -118.5 25.5s-39.333 42.5 -45 76.5s-8.5 88 -8.5 162v39h227
c0 38 -1.66699 64.333 -5 79s-11 24.334 -23 29.001s-33.667 7 -65 7c-25.333 0 -66 -2 -122 -6v99c18 4 41.333 7.5 70 10.5s56 4.5 82 4.5c59.333 0 102.5 -8.83301 129.5 -26.5zM243.5 105.999c7 4.66699 11.832 14.333 14.499 29s4 39 4 73h-106
c0 -34 1.33301 -58.5 4 -73.5s7.33398 -24.667 14.001 -29s18 -6.5 34 -6.5c16.667 0 28.5 2.33301 35.5 7z" />
    <glyph glyph-name="uni0272" unicode="&#x272;" horiz-adv-x="450" 
d="M-14 -98c18.667 0 32.335 1.66797 41.002 5.00098s14 8.33301 16 15s3 17.334 3 32.001v556h122l4 -61h7c9.33301 25.333 23.666 43.166 42.999 53.499s42.666 15.5 69.999 15.5c32 0 56.167 -6.33301 72.5 -19s27.333 -31.834 33 -57.501s8.5 -61.167 8.5 -106.5v-335
h-129v276c0 42.667 -1 72 -3 88s-6 26.167 -12 30.5s-17.333 6.5 -34 6.5c-17.333 0 -29.5 -3.33301 -36.5 -10s-11.5 -19 -13.5 -37s-3 -48.667 -3 -92v-255c0 -62.667 -5.16699 -108 -15.5 -136s-28 -46.167 -53 -54.5s-65.167 -12.5 -120.5 -12.5v98z" />
    <glyph glyph-name="uni02BC" unicode="&#x2bc;" horiz-adv-x="168" 
d="M58.5 574.5c7 9.66699 10.5 28.5 10.5 56.5v15h-50v97h133v-61c0 -50.667 -3 -88 -9 -112s-18.5 -41 -37.5 -51s-48.833 -15 -89.5 -15v56c21.333 0 35.5 4.83301 42.5 14.5z" />
    </font>
</defs>
</svg>
